<svg xmlns="http://www.w3.org/2000/svg" viewBox="0 0 854.8 696.92"><defs><style>.cls-1{opacity:0.1;}.cls-2{fill:#0d1037;}</style></defs><g id="レイヤー_2" data-name="レイヤー 2"><g id="背景"><g class="cls-1"><path class="cls-2" d="M767.35,467.38A6.35,6.35,0,0,0,765.7,466C765.81,466.61,766.22,467.11,767.35,467.38Z"/><path class="cls-2" d="M459,516.74l-1-.79c-.4.87-1.25.66-2,.71.89.17,1.76.41,2.53.63Z"/><path class="cls-2" d="M466.47,118l-1.35.56s0,0,0,.06C465.71,118.65,466.22,118.62,466.47,118Z"/><path class="cls-2" d="M743.49,449.39l1.87-.32c.07.59.23,1.08-.32,1.54,1.22,1.87,3.19-.16,4.51.88.4.86-.32,1.55-.76,2.1.39.54,1,.46,1.54.31-.59-.82.33-1.53.68-2,1.19-.14,2.07.56,3.41,0,.41-.74,1.84-1.42,1.11-2.53l-2.77.32-.12-1-2,.23-.11-1c-2.07,1.24-3.37.39-5.08,2.09l-.23-2c-1.31-.15-1.73,1.5-2.62,2.4a6.41,6.41,0,0,1,.16,1.41C742.73,451.12,743.91,450.39,743.49,449.39Z"/><path class="cls-2" d="M751.22,453.71a8.4,8.4,0,0,0-.89.19h0Z"/><path class="cls-2" d="M622.33,554h-.07C622.37,554.67,622.57,555,622.33,554Z"/><path class="cls-2" d="M632,604.29l2.21,1.74c1.19-1.21-.42-1.95-.85-2.85a1.07,1.07,0,0,1-.37,1Z"/><path class="cls-2" d="M622.57,552.55s-.07,0-.09.06h.09S622.56,552.57,622.57,552.55Z"/><path class="cls-2" d="M623.55,552.5a1.31,1.31,0,0,0-.66-1.43c-.53.45-.31,1-.32,1.48A.94.94,0,0,1,623.55,552.5Z"/><path class="cls-2" d="M711.12,441l1.34.34A1.25,1.25,0,0,0,711.12,441Z"/><path class="cls-2" d="M633.34,603.18c0-.18,0-.35-.05-.55v0A.83.83,0,0,0,633.34,603.18Z"/><path class="cls-2" d="M163.93,39.09a3.47,3.47,0,0,0-.93-.67A6.43,6.43,0,0,0,163.93,39.09Z"/><path class="cls-2" d="M291.92,29.93l-.09-.75A.89.89,0,0,0,291.92,29.93Z"/><path class="cls-2" d="M461.92,116.05c-.91-.9-3.78-2.27-4.42-4.4-12.26-8.81-22.26-19.79-34.9-24.94-5.71-6.86-15.26-11.37-22.86-17.21-14.66-7.82-28.83-17.61-44.95-20l-.24-2c-3.33,2.39-7.15-1.18-10.92-1.64.11-.82-.62-1.94.33-2.45-3.78-1.36-8.89,1.24-10.93-1.64-4.47.42-8.52-4.22-12.27-2,.64.32.51.94.67,1.42l-3,.35c-1-2.4-5.28-1.49-6.29-4.08l4.41-.12a1.3,1.3,0,0,0,.66,1.43c.77-.29,1.94.28,2.22-.75-7-2.11-13.93-4.21-21.09-6.28,0-.51-.23-1.08.43-1.46l-1.1-.87c-.57,2.07-3.3,1.88-4.64,1.54a4.11,4.11,0,0,1-1.13-1.11l0,.23c-3-.05-6.94-.09-8.51-2.42l.44-.56c-.6-.83-1.63-.2-2.54-.2l.12,1a51.09,51.09,0,0,1-14.92-4.08L266.22,22l2-.23c-4.5-.51-8.9-1.33-13.36-1.95l.1.08-.87,1.1-.56-.43.67-.85c-1.87-.25-3.74-.46-5.64-.59-2.12,0-3.43-2.71-5.74-2.74.56.44,1.53,1,1.22,1.87l-5.3.11a1.56,1.56,0,0,1,.32-1.54c-2.54-2-5.91-1.62-8.94-1.87l.11,1c-10.42.91-20.66-2.52-30.59-5.18L198.31,9c-.26,1.23-1.69,1-2.66,1.31-1-.59-.43-2-1.77-2.3.07.59.23,1.08-.32,1.54-1.1,0-3.06-.45-3.09-1.55l-.7-.24-.2.25L189,7.61l.05-.05a56.45,56.45,0,0,0-11.53-2.93c.89,1.6,3.24.23,3.21,2.54-9.51-.7-18.22-4-27.71-4.51l-1.66-1.31c-.55.47-.28,1-.32,1.54l-6.29.23c.72.22.71.92.75,1.32-1.84.51-4.38.31-4.63-1.87l.12,1c-2.32,0-4.27,1.29-6.85-.21l.12,1c2.39-1.89,3.78,3.17,6.61,1.64l.23,2.88-4.2,1c-1.45,4.79,4.6,3.28,5.1,6.73l-1.9.12,3.88.55c.42,4.47,3.61,8.61,5.42,12.92l1-.12c-.85-3.91-4-8.56-4.86-12.48,1.1,0,2.36-.47,3,.56v-.9c3.8-1.84,1.58,3.23,3.77,3.87l3.31,3.53-.11-1c2.13-.64,1.42,1.84,2.21,2.66-2,3.44,3.11,5.15,2.55,9l1,.79c1-1-.7-3.43,1.55-3.09,1.68,1.51,1.56,3.93,2.2,6.06a1,1,0,0,1-1,0c2.72,2.4.45,7.74,3.7,9.83.82.1,1.82-.72,2.44.31.83,1.91-1.75,1.31-2.21,1.67,5,7.94,6.34,17.42,8.29,25.61-1.1,0-2.52.7-3.41,0l-.23-2-1,.12c0-.51-.22-1.08.32-1.55l1.9-.12a9.8,9.8,0,0,0-5.86-4.63c1.77,1.4,4.22,2.62,3.53,5.3-1,.32-1.94-.27-3-.55,1.61.91,4,3.15,4.08,5.74-.77.29-1.94-.27-2.31.87l.12,1c-1.63,4.11-8.16,1.45-11.28,2.21-8.09,2-17-.53-24.5,2.35-.16-.48,0-1.1-.67-1.43l.11,1c-3.36,1.29-5.84-2.83-8.83-.88l-3.52-1,.2.88c-4.83-1.85-9.64-.09-13.89-1.3-4.56-.37-3.47-10.83-9.41-6.73l1,5.3c-.4.05-1.08.22-1.35-.35l-.2-.88c-2.85-1.17-1.27-6.57-4.77-8.27-.44.55-1.25,1.35-.77,2.1-.85.39-1.54-.33-2.09-.76-.21,2.52,2.35,6.34-1,7.84L88,77.13c.11,3.5-2.56,7.32-.21,10.25l.09.8h.9L89.05,90c-.93-.19-1.43.67-1.87,1.22,1.57.52,1.24,2.07,1.87,3.1a3.5,3.5,0,0,1,3.44,1.1c1.13-2.34-4.62-4.38-.12-5.3,3.23,7,4.73,13.09,7.3,20.52,1.87-.32,2.45,2.12,3.32,3.52l-.79,1c6.52,1.75-4,6.57,2.77,7.4l.23,2c-.51,0-1.08.23-1.55-.32-.12.62,0,2.31,1.23,2.76.33-.64,1-.62,1.43-.66.14,1.18,2.41,2.62.43,3.76l-.88.2c.91,1.8,2.68,3.2,2.54,5.42l-5.86-4.63c-3-4,0-12-7.39-12.68,0-.51.08-1-.55-1.35l.32,2.77c2.43-1.48,2.3,1.64,3.2,2.54l.12,1c-.75.49-1.55-.32-2-.67,1.2,6,2,14.32,6.08,18.65-1.85,3,2.27,3.95,1.22,7.08-4.43,1.52-8.75-2.79-13.46.67-4.13,1.58-6.39-5.78-8.39-.53-2.49.18-2-1.38-4.08-2.34L79,149.89c-3,.34-5-3-7.71-3.42l-.36.44c1,.59,1.76,2.1,3,1.66.49.74-.24,1.43-.68,2-4.32-1.8-8.63-.9-12.58.46,0-.4,0-1.1-.67-1.43l-.88.2c.44.35,1.41.95,1.11,1.78-2.92,2.55-4.74-1.95-7.08-3.09.24-1.43-1.61-.91-2.54-1.1-.64,3.08,7.74,2.71,3,6-1.66-2.22-4.58-2.38-6-5.63a6.93,6.93,0,0,1-5.42-.88,10.5,10.5,0,0,0-.79-6.73c-2.94,1.45.87,4.82-2.19,6.18-4.24.59-7.73-.91-11.39-2.19-1.53-2.83,1.37-4.67,2.1-7l1-.11-.11-1c-4.8.16-2.72,11.15-7.5,6.29L23,139.45c2.4-.08,1.57-2.89,2.43-4.2-3.88.35-3.5,9.64-8.84,6.85l-.44.55a7.94,7.94,0,0,1,3.09,1.55c.07.59.22,1.08-.32,1.54l-1,.12c2,.47.64,2.13.87,3.21-3.26-.43-6.17-2.2-9.82-1.68C5.43,145.7,3.16,144.26.87,141L0,142.11c2.66.5,1.18,3.28,2.53,4.53-.4,0-1.1,0-1.43.66,7.76,2,4.5,11.12,12.26,13.12.28-1,1.54-.58,2.22-.75,2.17,2.25-.57,5.48.11,8.71.85-1.3,0-4.11,2.42-4.19l.78,6.73,1-.12c.19,3.39-.93,7.53.67,10.06-4.7,2.75.5,8.66,1,13l1-.12.66,5.74,1-.11c0,3.21,3.51,6.91,2.12,10.49.46.55,1,.28,1.43.23,2,15.82,10.9,29.13,15.47,44.25a17.28,17.28,0,0,1,3.87,8.28c4.34,6.31,6.58,13.48,11.39,19.44,2.19,3.35,3.22,7.05,4.65,10.69C68.14,299.62,72,307,76.73,314c-.16,6.34,7.12,6.9,5.76,12.47l2-.22c-.23,3.23,4.35,3.8,5.18,6.62,4,9,12.16,15.74,15.49,25.38,1.92,1,2.72,4.5,4.19,6.74,5.19,3.21,7.44,8.77,9.72,12.91,5.87,2.13,6.48,10,12.06,12.25,3.4,7.73,11.51,10.19,15.58,17.54,8.14,4.48,13.5,10.88,21.76,15.44,2.1,2.56,5.55,6.37,8.5,6.73-.3.84.67,1.43,1.11,1.78l1-.11c-.2,4.33,6,2.91,5.65,7.16-.4.05-1-.08-1.34.56l1.65,1.31c0-1.1-.58-2.44.56-3s1.79.69,2.54,1.11l.23,2c2.39-1,.8,2.61,3.09,1.55.36,3.16,4,5.15,6.52,6.06,1.74,1.2,4.71,4.27,7.4,5,1.52,1,4.18,4,6.84,4.52l.23,2c1-1,2.84-.63,4.2-1,2.92,3.57,9.16,4.55,11.71,9.27l-.56-.43-.78,1,.55.44c3.46-.51,6.08.49,9.5,2.3,1.24,2.07,4.91.84,6.64,3.65-.88-.7-.56-2.24-.78-3.32a4.23,4.23,0,0,1,3.75,3c3.46-3.91,7,1.2,10.38,2.11.38,1.56,3.69,4.18,5.85,4.63-1.68-.6-1.57-2.32-2.41-3.53,2.15-.45,5.46,1.27,5.3,3.3l-.44.55c2.64.3,6.11,3.4,9.26,4.64l-.12-1.89c2.42.12,4,3.54,6.65,3.64,1.46-3,3.39.71,5.3-.11,0,.4.31,1-.24,1.43,1.53,1,4.34.2,4.64,2.77.57-.27.39-.95.34-1.34,3.65-1.43,5.92,2.52,9.39,2.22,4.86-.47,8.17,4.67,13,3.3,6.46,2.06,12.38,5.48,19.23,6.59,3.66,2.19,8.37,1.24,12,3.42,21.7-.61,42.82,8.57,64.6,6,2.73,3.6,7-2.72,8.16,2.87,1.63.21,3,1.15,4.86.43-1.29.06-2.07-1.46-3.52-1l-.12-1c3.23-.68,5.22,0,8.83,0,2.68,3.2,5.83-.78,8.5,2.42.55-.46.28-1,.33-1.54,3.57-2,2.83,2.78,6,2.22l-.12-1.9,5.31-.11c-.5,1.76,1.27,3.16,2.76,3.09,1.32-1.39,3.16-1.54,5-1.29-2.53-2.45-5.9,1.19-7.29-2.35,7.87,2.09,15.61-3.82,23.64-.34.78-2.8,4.09-1.08,5.51-2.65,2.87,2.28,5.79-3.68,8.74.09,1.46-3,3.39.71,5.39-.23,2.57-.29,6.39-2.84,9.5-1.1l-.12-1c3.91,1.65,7.43-1.66,10.84,1.75.8-2.6,4-1.86,5.63-1.65l-.12-1-1,.12c0-.51-.22-1.08.43-1.45l2,.55-.3-1.75,8.71-1c3.13,5.35,2.08,11,5.21,16.35V520c2.57-.31,2.41,2.62,3.76,3.87,2.29,1.64,4.4,5.11,5.85,8,.64.32.51.94.66,1.43,3.51.79,3,6.16,6.53,7,2.17,3.16,2.34,9.76,6.52,9.48-.17,1.12-.69,2.69.43,3.76l1-.12.11,1c2.57-.3,2.41,2.63,3.76,3.88.72,2.73.52,7.06,4.42,8.72.2.87-.28,1.93.67,2.32l1-.11c1.11,1.78-1.3,3.46,1,4.2.33-.64.94-.51,1.43-.67l1,5.3c.32-.64,1-.62,1.42-.67a5,5,0,0,1,2,4.09,1.31,1.31,0,0,1-1.42.66c1.15,2.18.81,8.74,5,5.74.22,1.08,2.14,2.06,1,3.3l-1.31,1.66c.46.55,1,.28,1.43.23v-.9c2.44-1.49,2.19,1.55,3.21,2.54l.44.35-.32-2.77c1.23.25,2.66-.41,3.53,1,.71,2.73-3.28,5.5,0,7.72.35-.44.94-1.41,1.77-1.1,1.89,3.29-3.16,5.58.44,8.07,1.85.39,3.32-.79,3.56,2.1-.7,1.78-2.23-1-2.66,1.31a2.73,2.73,0,0,1,4,.44c-.6,2.58,2.61,5.11-1.31,6l2.88-.23c1,1.18.55,3.85-1.54,4-2.77.32-2.35-2.94-3.32-4.43-1.2-2.57-2.74-6.31-4-9.27-2,7.56,4.54,14,6.75,21,5.13,1,.82,6.22,5.1,6.72-.36-1.35,1.53-2.38.64-4h.9c0-1.11-.59-2.45.65-3.09.77.61,2.67,2.3,2.44,4.63l-.79,1a15.84,15.84,0,0,1,3.67,7.39c-1.19.14-2.07-.56-3.32-.11-1.9-.79-2.11-2.57-2.89-4.08l-1,.11c-1.73,4.92,4.85,5.46,3.12,10.38,1.35,1,.92,2.44.61,3.9a2.43,2.43,0,0,1,.7-1.25l1.89-.12c-1,3.67,5.94,8.41,1.07,11.22,1.19.89,1.55,2.77,2.68,3.79-.16-.48-.31-1,.23-1.42,2.32,0,2,3.18,3.09,5-.33.64-1,.51-1.43.67l-1.22-1.86c-1.42,1.56,1.22,1.86.9,3.4l2.74-1.42.35,3a1.25,1.25,0,0,0-1.35.56c4.1-.18,6.5,5,8.51,6.73-.32,1.54,2.32,1.84.9,3.41.93.19,1.32-.76,1.75-1.31-.57-.63-2-.87-1.75-2.1a3.48,3.48,0,0,1,3.3-1.89c0,.84.27,1.76-.14,2.43.55-.2,1.27,0,1.8-.21,1.22,1.86-1.37,2.86-.88,4.51l3.21-.87c.15.48,0,1.1.67,1.42l1-.11c-2.78,2.83.4,6.07.55,9.06,3-1.75.25-3-.55-4.75l3-7.16c1.67-.3,2.56,1.31,3.64,2,.66-.38.4-1,.44-1.45,2,.87,3.27,4,4.54,6.29.44-.56,1.16-1.24.76-2.1-3.37.4.16-2.92-2-4.08l2-.23c.69.72-1.24-1.16-.87-2.3,3.24.22-.61-3.55,2.54-3.21.24-.53-.85-3,1.19-2.65-3.7,6.95,9.12,5.06,4.22,11.25,1.48.63,4-.46,3.53-2.42l-.88.21c2.28-7.19-7-9.12-5.32-16.44,0-1.1-2.68-3.2-.55-4.75l1-.12c-3,0-2.35-3.83-4.54-5.38,3.41-1.81-1.37-2.35-1-4.21-.39,0-1.07.23-1.43-.23-.29-1.67,1.31-2.56,2-3.64-.55-.44-1.42-.94-1.22-1.86-2.44,1.48-2.19-1.55-3.21-2.54l-.11-1,2-.23L637,642v.91c-2.1.85-1.39-1.65-2.21-2.66.7-.88,2.24-.55,3.32-.78l1.55,1.22.44-.55c-2.43-1-3.25-1.13-5.86-.32-1.71-2.61,0-5.92-1-8.51,1,1.68,4.7,1.55,3.08,4.95l1,.79c2.32-2.47-2.16-3.86-1.66-6.52l1.78-.21c.3-.84-.56-1.34-1.11-1.78l-1,.11.12,1-1.9.12c-.27-1.47,1.18-2.84,2.54-3.2l1-.12c.3-.83-.75-1.31-1.2-1.66a2.26,2.26,0,0,1-2.65,2.21c-1-1.49-1.91-3.49-1.1-5.19l1-.11c-.69-.72-2-1.07-1.77-2.3l-1,.11c2.59-6.22-1.33-12.38-1.12-19.23,1.42.23,3.71.27,4.07,2.31a1.62,1.62,0,0,1,.8-1c-.75-9-4.19-17.87-6.43-26.84l-1,.12c-.65-2.13,1.41-4.28-1.54-4.64l-.91-4.3c.75-.49,1.44.23,2,.67.59-1-1.4-1.65-2.3-2.55H623l-.21-1.78c1.1,0,1.58-2,1.55-3.09l-2.65-2.1c-.24.53-1,.51-1.34.55.66-1.07-.29-3.6,1.91-3.63a1.73,1.73,0,0,1,.22-1.44c-1.31.26-2.09-1.15-3.35-1.1,1.48-2.78-1.13-5.39,0-7.73-2.57-3.11-1.66-7.43-3.22-11.36.23-.53.94-.51,1.33-.56,2.21,1.75.31,4.38,3.64,5.4-.87-2.31.52-5.88-2.32-7.06-3.84,3.26-2.18-3.15-4.32-4.31-.26-4.88-2.21-11.28-1-16.43h.9c.31,1,.08,2.4,1.42,2.75.84-.6.13-1.52.12-2.42-1.92-1-4.29-.71-4.3-3.42l-.12-1c1.56-.38,2.23,1.05,3.64,1.09l.43-.55c-1.06-2.29-4.86-.44-4-3.86,1.34-.56,2.12,1,3.08,1.55l-.34-7.29c21-5.65,44.2-2.92,65.92-8.56,11.16-2.29,20.63-6.3,31.12-7.52,2,2.87,3.62-1.63,6.18-1.22a3,3,0,0,1-2.65-2.1c-.55.46-.39.95-.33,1.54-3.71-.07-5.65-.34-9.26-.32-.42-5.37,6.3-2.74,9.15-4.08,2.56.41,6.41-.14,8.6-2-2.4-.82-5.09,2.8-5.94-.21.9-.91,1.42-2.48,2.74-2.33,1.47.63,4.84.24,6.64-.67-.07-.59-.23-1.07.32-1.54l1-.12.23,2a28.07,28.07,0,0,1,8.6-1.11l.12,1c2.81-6,7.64,6.24,9-1.54.59-.07,1.07-.22,1.54.33l.23,2c2-.42,4-2.37,6.18-1.21l.11,1c.9-.91,1.31-2.56,2.63-2.42-1.84-2.89-5.38-2.28-5.62-6.06,3.78-2.05,7.68-.39,10.92,1.64.33-.64.84-.6,1.43-.67-.39,2.1,1.27,3,2.78,3.94-.2-1.14.81-2.67.54-3.83.46-1.25,1.69-1,2.77-1.22.11,4.41,5.1,3.32,7.84,4.41.43-.55.83-1.5,1.75-1.31l.55.44-.2-.88c2.33.23,4.6,3.28,6.5.65l-.21-.88c2.48,3.22,6.32-.94,7.6,1.52,2.63-3.31,6.46,1.16,8.95-1.54l1.11.88c.83-.6.21-1.63.12-2.43,2.52-.69,4.14,1.13,6.17,2.2.55-.47.28-1,.32-1.54-4.92-4.45-12.52-.76-18.21-2.2-8.56-.31-15.57,2.41-23.94-.63A4.8,4.8,0,0,1,764.7,461c-.91-.89-2.56-1.31-2.22-2.65l-18.76-2.64c-.76-2.22,1.73-1.5,2.54-2.3l-1.55-1.22c-.23.53-.94.51-1.33.55a1.12,1.12,0,0,1-.59-.79c0,1.45-.5,2.9-2.07,3l-1,.11.87-5.41c-1.54,1.48-3.71,1.73-6.18,1.21-1-.28-.58-1.54-.75-2.22,1.09,0,2.41-.78,3.4,0l.12,1,1.66-2.1c-3.7-.77-8.67-.4-10.72-4.17l-.88.2-1.89.12c.64.33.51.94.67,1.42-2.13.66-3.68-.57-5.42-.87a23.58,23.58,0,0,0-5.94-.21c-.65-2.13,1.84-1.42,2.73-2.33-.72-.21-.59-.83-.75-1.31l2.42-.79-4.87-.43c.95.39.47,1.45.68,2.33l-1,.11.22,2c-1.77,1.11-2.77-1.48-4.42-1l-.23-2,1.46.37c.93-5.25-4.83-3.4-7.32-5l-1.87.32v.9l-1.87.32c-.07-.59-.22-1.08.32-1.54l-1.1-.88c-.55.47-.29,1-.33,1.55-1.47-.64-4.28.19-4.54-2l1.89-.11c-3.1-1.24-6.54-2.51-10.16-3.74l-.79,1-.44-.35.66-.83c-9-3-19.13-5.69-28.8-6.54-.44-3.76-4.45-.29-6.41-1.66l-2.22-.6-.32.39-.55-.44.12-.15-37.12-10.09c-4.45-.29-7.89-2.3-12.27-2l-.2-.88c.88-.2,2,.17,2.42-.78-3.57-4.8-8.54,5.1-9.38-1.32-4.08-4.84-13.59,3.08-12.15-4.41.69-14.72-4.75-33.95-4.34-49.45l-1.11-.87c-1.66-11.75-3.71-21.64-5.66-33.25l-1.11-.87c-4.41-18.95-10.55-33-17-50.89.88-3.61-3.21-7.75-2.88-11.8,3.44.2,1.79,5,4.55,6.29-.64-3.74-3-6.48-4-10.17l-.11,3.33c-5-.93-3.52-7.82-5.18-10.94,2.24-.56,1.83,2,2.76,3.09l.32,1.87h.9c-4.39-20.55-16.73-37.88-25.89-56.27-.05-.4-.32-1,.23-1.44-2.83,1.54-2.19-2.45-3.32-3.52-3.84-7.18-10.19-13.46-11.61-21.43-1.27-2.25-4.52-.87-4.87-3.84l1-.12c.3-.83-.65-1.23-1.2-1.66-3.07-2.26-5.94-4.53-6.31-8.6-4.52-.88-5.76-5.45-7.84-8.72-1,.62-1.7-.8-2.54-1.11l-.11-1,1-.11c-4.39-8.5-15.5-13-19-22a4.39,4.39,0,0,0-1,0C463.34,117.89,461.69,117.48,461.92,116.05ZM101.41,75.57,102,76l-.87,1.11-.55-.44ZM218.06,458.05l-.56-.44.88-1.1.55.44Zm7.16,3,1.11.88-2.1-.76Zm4.32,4.31,1-.11,1.1.87Zm3.55,1.2c1.33-.09,2.38.85,3.54,1.55l1.53.67a5.09,5.09,0,0,1-1.53-.67Zm-15-44.91-.12-1,1.11.87Zm36.12,19.08c3.39.71,6.73,2.62,9.81,4.17C260.42,444.5,257.55,442.23,254.26,440.71Zm10.81,5a19.28,19.28,0,0,1,4.83,2l1.81.74a14.94,14.94,0,0,1-1.81-.74ZM45.3,193.63l.45.35L45,195l-.44-.35Zm49.49,42.6.55.44-.44.55ZM52,205.79l.56.43-.88,1.11-.55-.44Zm-2.54,2.3.44.35-.44.55Zm1.78,3.21.11,1,2.86-.44-2.86,1.34Zm-28.6-20,.55.44-.79,1-.55-.43Zm27.49,22.49c.53.24.51.95.55,1.34l-1,.12C49.68,214.89,49.5,214.21,50.16,213.83Zm11.29,10.29a1.69,1.69,0,0,1,2,.21,2.62,2.62,0,0,0-2-.21c-1.32.61-2.44,2.31-3.77.87C58.82,225.41,60.08,224.42,61.45,224.12Zm8.74,30,1-.12-1.43.67ZM305.5,460.44l3.64,1.08A3.65,3.65,0,0,1,305.5,460.44Zm15.79,6.39,1-.12,3.08,1.55ZM335.54,472l-.56-.43.79-1,.55.44ZM79.35,265.71c-2.13-.25-4.56-3.08-5.74-3.64l1.87-.32-.12-1.9c-.9,0-1.93.63-2.53-.2.88-1.11,2-2.35,2-3.64l.22,2C77.67,259,79.43,262.89,79.35,265.71Zm-7.86-14.13c-.59.06-1.1,0-1.42.66-1.07-3.18-5.91-2.52-5.19-6.62,2.62-.8,1.67,3.12,4.2,2.43-3.76-3.88,1.09-7.05,2.19-10.49,2.35,3.84,3.77,10.9,1.22,14.81Zm6-2.1.88-1.1.55.43ZM367.12,477.05l-.55-.43.87-1.11.56.44ZM83.74,240.42c-2.49-1.61-1.31,1.66-2.74,2.33-2.89-1.57-1.3,2.56-2.88,3.65a36.3,36.3,0,0,0,0-12l1-.12c.85,2.11,1.39,4.15.23,6.29.6.84,1.52.13,2.42.12l-.12-1.89c.13-.62.83-.6,1.23-.64l-.9-8.63c.64.33.51.95.67,1.43.39,0,1.1,0,1.31-.75C83.14,233.47,85.24,236.94,83.74,240.42Zm11.48-1.33-1.43.67-.11-1C94.19,238.81,94.76,238.54,95.22,239.09ZM392.29,481.35l1-.11.55.43ZM97.87,241.19a12.7,12.7,0,0,1,.56-7.29l.43,2.86C99.16,238.43,97.27,242.86,97.87,241.19ZM402.78,483.55c-1.23.64-1.78-.7-2.53-1.12C401.26,482.52,403,482.11,402.78,483.55ZM101.08,239.41l-1.31,1.66.69-2.66a1.19,1.19,0,0,1,.09-.36l.53-2.05c.39.84-.26,1.45-.53,2.05l-.09.36C100.42,238.72,100.55,239.05,101.08,239.41Zm304.59,244.8c-.44-.35-1.41-.94-1.11-1.78,1.3-.05,2.08,1.47,3.53,1Zm189.66,145.7-.56-.44.79-1ZM606,651.44l.56.44c.92.19,1.42-.67,1.86-1.22.14,2,.53,2.44,0,4.25l.12.16,1.81-.21c.64.32.6.83.67,1.42a3,3,0,0,1-2.48-1.21l-.16,0c0-.08,0-.11,0-.18C607.48,653.81,606.93,652.32,606,651.44Zm9.5,10,.55.43-.88,1.11-.55-.44ZM607.06,660c.63.33.51,1,.55,1.34A1.23,1.23,0,0,1,607.06,660ZM619,675.61c-1.77-.5-1-2.4-1.43-3.65l-2.33.67-.12-1C618.1,668.79,619.16,673.58,619,675.61Zm5.73,3.65,1.78-1.11C627.35,679.35,625.47,680.38,624.73,679.26Zm-1.19-1.67.87-1.11,1-.11Zm-8.18-7.38-1-.79.88-1.1c.39-.05,1.07-.23,1.43.24Zm-1.23-2.76-.55-.44c-.13-.13-.27-.27-.4-.42s-.1,0-.15,0,0-.11,0-.17c-1-1.25-1.88-3.07-1-4,1.07,1.72.79,2.22,1,4l.17.19c.84.21,1.3-.71,1.62-1.13C615.29,666.21,614.57,666.89,614.13,667.45Zm10.49,6.5.78-1,.56.44-.79,1ZM633,679.9c.6.83,1.61,0,2.42.12.49.74-.32,1.54-.67,2-1.58-.72-2.81-2.58-2-4.08l1-.12Zm-5.76-8.16-1.86-3.1,1.55,1.23Zm12,7.84-.44-.35.87-1.1.44.35Zm.82-2.51-.94.62-.12-1,.56.44.5-.07.92-.6A1.17,1.17,0,0,1,640,677.07ZM634,671l-.55-.44.79-1,.55.44Zm-29.27-22.28-2.65-5.51.56.43ZM632,666.87l.88-1.1.55.44-.88,1.1Zm9.5,6.62-.55-.44.87-1.1.55.44Zm5.85,4.64-.55-.44a1.59,1.59,0,0,1,.32-1.54ZM635.12,660.7l1.65,1.31A1.19,1.19,0,0,1,635.12,660.7Zm6,9-.11-1,.55.44Zm-1.77-6.61-1,.11a.87.87,0,0,0-.37.64,2.57,2.57,0,0,0,.13.8s0,0,0,.06a3.62,3.62,0,0,1,.16.92c-1.08.23-2,2.23-3,.35.53-2.23,2,.45,2.81-1.27a2.36,2.36,0,0,1-.09-.86,13.77,13.77,0,0,0,.14-2.61C638.64,661.69,639.61,662.28,639.31,663.12Zm-44.64-38,.55.44-1,.11Zm3.75,3-1,.12-.12-1.9C598.35,626.55,597.3,627.87,598.42,628Zm-3-4.87-1.11-.87.44-.55C595.42,622.07,595.38,622.58,595.45,623.17Zm34.9,20.63-.12-1,.55.43Zm-35.91-41.38-.55-.43.88-1.11.55.44ZM783.7,462.18l1,.78-1.9-.78ZM632.07,441.86l-1-.78.79-.09Zm-25.63-20.29-.55-.44.79-1,.55.44Zm30.94,20.18c.06.6.22,1.08-.33,1.54-.64-.32-.51-.94-.66-1.42-1.1,0-2.35.47-3-.56,1.83,1.09,3.28-.28,5,.33Zm32.47,20.51.44-.56.55.44Zm3.53-2.42.79-1,.55.44-.79,1Zm3.2,1.64c1.25-1.35,2.8-.13,4.31,0Zm17,5.74c-.7,0-1.82.71-2.42-.12l.87-1.1A1.08,1.08,0,0,1,693.6,467.22Zm-28.05-20.41.44-.56.55.44Zm-2.88-8.4a1.24,1.24,0,0,1,1.43.24L662,440.4C662.43,439.85,663.16,439.16,662.67,438.41Zm-12.5-8.27.35-.45c.79-.09,1.91-.82,2.42.12Zm35.25,24.49.55.44-.87,1.1-.56-.44Zm9.49,10.93c1.64-1.22,3.09.73,4.4.55l.31-.12a2.1,2.1,0,0,0,1-1.09l1.11.88a3.35,3.35,0,0,0-2.14.21.91.91,0,0,1-.31.12C697.9,466.72,696.65,467.54,694.91,465.56Zm-9.48-14.66a12.73,12.73,0,0,0,1.42-.35,1.33,1.33,0,0,1-1.42.35,6.46,6.46,0,0,1-4.44-.67C682.27,448.27,683.92,450.46,685.43,450.9Zm-15.91-11.38.87-1.1.56.44-.88,1.1Zm23.3,16.66-.32,1.54c-.91-1.8-2.23-.15-3.33-.12C690.16,456.59,691.79,456.8,692.82,456.18Zm13.8,13.44c.39,0,1-.31,1.34.35l-1.78.2Zm-2.76-2.18.35-.45,1.1.88Zm1,5.29v-.9l1,.79Zm-2.1-1.66-.55-.44.88-1.1.55.44Zm10.38,1.21,2.76-1.23.09.8-8,1.53c2.26-1.27.88-4.52,3.85-4.86,1.11,1.77,3.52.09,4.31,0A4.24,4.24,0,0,0,713.15,472.28Zm-17-16.89.55.44-1.22,1.54-.56-.43ZM675,440.29l.78-1,.55.44-.78,1Zm33.58,18-.67,2-.55-.44c.45-.35.27-1,.23-1.43Zm-17.68-14.9,2.65,2.1C692.42,445.79,690.76,444.48,690.93,443.36Zm9.84,10.49-1.89.12.44-.55C699.82,453.46,700.4,453.19,700.77,453.85Zm-3.43-1.11c-.49.16-1.1,0-1.43.67l-.12-1c.33-.64,1-.51,1.43-.67Zm-3.41.9-1-.79,1.32-1.65C695.64,451.94,693.09,452.44,693.93,453.64Zm-13.37-11.48-.12-1L685,442Zm11,7.84.55.44-.87,1.1-.56-.44Zm17.68,18.31-.12-1,.56.44Zm-4.87-9.07,0-.2a13.07,13.07,0,0,0-3.49-.39l-2.35.27a10.68,10.68,0,0,1,2.35-.27l.42,0a1.31,1.31,0,0,0,.33-1.54,1.32,1.32,0,0,1,.67,1.42l2-.23.1.79c.15,0,.29.09.44.13a1,1,0,0,1,1,.31c-.32-.13-.67-.21-1-.31A3.67,3.67,0,0,1,704.41,459.24Zm13.69,9.95-.44-.35.79-1,.44.34Zm4.31-.91-2.41.79.87-1.1A1.32,1.32,0,0,1,722.41,468.28Zm-18.67-14.77.88-1.11.44.35-.88,1.1Zm5.43,1.77c-1.22,1.54-2.09-.46-3.31-.62l-.57.07a1.15,1.15,0,0,1,.57-.07l3.19-.37Zm-10.72-9.39.87-1.1.56.44-.88,1.1Zm16.74,9.65c-1.25.77-2.41,2.31-3.93.5,1.58-1.21,2.7-.69,3.93-.5a1.58,1.58,0,0,1,1.81-.16A3.4,3.4,0,0,1,715.19,455.54Zm-11.12-7,.44-.55,1-.12Zm5.86.32-2.33.67,1.66-2.09Zm9.5,6.62-.56-.43.88-1.11.55.44ZM708,444.68l.36-.44,2.09.76Zm9.42,6.73.43-.55.56.44Zm25.39,14,.44-.56,1.11.88Zm-6.76-3.71a5.47,5.47,0,0,1-1.86.29,3.44,3.44,0,0,1,1.86-.29c2.55-.77,5.19-2.82,8.08-2.27l-1.87,1.22C741.32,464.08,738.66,461.91,736.08,461.71Zm9.85,4.35,1.66-2.1c1.24,1.16,2.54,1.11,4.08,1.43C750.6,468.33,747.29,465.7,745.93,466.06Zm6.85,1.11.44-.55.55.43Zm-4.2-6.74c-.87,1.11-2.59.31-3.64,1.18a4.73,4.73,0,0,0-.55.72,1.83,1.83,0,0,1,.55-.72C745.89,460.49,747.34,459.75,748.58,460.43Zm-21.22-16.09.55.44-1,.11Zm10.83,9.48h-3.41l.43-.55C736.31,453.23,737.46,452.7,738.19,453.82Zm-14.57-7.94.56.44-.79,1-.56-.43Zm3.09,4.95a.93.93,0,0,0,.39-.8,5.49,5.49,0,0,1-.13-1,4,4,0,0,1-.14-.63,1.58,1.58,0,0,1,.14.63,3.44,3.44,0,0,1,.13,1c.15.56.5,1,1.48.49-.05-.4-.32-1,.23-1.43.59-.07,1.08-.23,1.54.32-.17,1.12-2.2,0-1.22,1.54C728.22,451,727.21,451.78,726.71,450.83Zm6,5.64.44.35-1.23,1.54-.44-.35Zm-2.77,1.22.12,1c-.91,0-1.94.63-2.54-.2C728.13,457.9,729.25,457.16,729.91,457.69Zm-56.66-28.33.49-.06a4.79,4.79,0,0,0,0-.49l1.54.32-1.49.17a2.64,2.64,0,0,1-.1,1.23,6.46,6.46,0,0,0,.83.69c-.44.56-1.27,1.15-.78,1.9,8.61,1.61,16.85,6.87,25.84,4.82,1.79,1.87,3.65,1.32,5.55.59a1.87,1.87,0,0,1,1.18-.46l-1.18.46c-.86.82.49,2.49-.25,3.61-4.83-2.75-12.13-1.7-17.89-3.74a36.37,36.37,0,0,0-12.47-2.86l.44-.55c-.25-2.19-3.07-1.36-4.63-1.87,1.07-1.19,2.83-1.31,3.36-2.59A1.27,1.27,0,0,1,673.25,429.36ZM656,427.05l1.31-1.66a8.09,8.09,0,0,1,4.2.28,6.66,6.66,0,0,1,.67.16l-.67-.16c-1.58-.29-3.95-.16-3.52,2.05C657.27,428.2,656.59,427.48,656,427.05ZM649,424c1,.08,2.35-.48,2.89.67C651,425.93,649.72,424.57,649,424Zm10.28,5.62c-.07,1.92,2.46,2.12,3.53,1,2.29-.17,5,.72,6,2.21-3.64,1.43-8.67-1.3-12.81-2.42C656.62,429.49,658.16,429.81,659.23,429.58Zm-10.72-5.07-.87,1.1-.55-.43.87-1.11Zm-7.16-3c.88,1.6,2.53.21,4,.44l-2.3,1.77-.11-1-1.9.12C641,422.48,640.69,421.91,641.35,421.53Zm-4.2-2.42.56.43-.79,1-.55-.44Zm39.44,34.64,1.59.8c.62-.09,1.24-.06,1.5.74l-1.5-.74C677.31,454.66,676.44,455,676.59,453.75ZM633.4,420.44l.55.44-.44.55Zm-3.09-1.54,1.1.87h-.9ZM621.25,416l.55.44-.79,1-.55-.43Zm4.63,6.18c4.35-.5,8.66,2.91,12.26,1.09l.12,1c.55.44,1.24,1.17,2,.68l-.32,1.54c-.64-.33-.51-.94-.67-1.43A52.87,52.87,0,0,1,625,422.42Zm12.49,11.69,2.65,1.2-3.53-.09Zm16.25,14.67c1.23.26-.48,1.06.21,1.78l-.45-.35A1.24,1.24,0,0,1,654.62,448.58Zm-44.53-33.65c1,.82,1.26,2.27,2,3.15a2.46,2.46,0,0,1,1.71.73,2.2,2.2,0,0,1-1.71-.73c-1.32-.1-2.85.45-4.14.4C607.12,416.18,610.87,417.34,610.09,414.93Zm-5.74.66c.74-.48,1.42.24,2,.68l-2.42-.12Zm-4.64-1.86.12,1.89c-.26-.57-.94-.39-1.34-.35ZM213.77,29l.55.44-1,.11ZM184,6.29l.55.44-.88,1.11-.55-.44Zm31.27,31.78.56.44-.79,1-.55-.44ZM549.4,310.43c-1.71-2.61-2-6.09-3-9.39l1.11.88c.39,0,1,.08,1.34-.55,1.39,1.64-1.31,3.46-.32,5.85,3.36.54,3.5,4.65,3.84,7.63a.49.49,0,0,0,0,.12c.06.51.12,1,.21,1.41l-.55-.44a1,1,0,0,0,.34-1,.49.49,0,0,1,0-.12,3.37,3.37,0,0,0-.09-.34C550.76,313.48,551.86,310,549.4,310.43Zm-.76,2.09-1.34.56.43-.55ZM230.13,56.7c.72.2.44.89.58,1.36l.53.42a.57.57,0,0,1-.53-.42C230.28,57.71,229.91,57.29,230.13,56.7ZM551.72,317.48l.56.44-.88,1.1-.55-.44ZM159.32,11.06l2.76,2.19A2.47,2.47,0,0,1,159.32,11.06ZM167,22.31l1.1.87.12,1Zm3.32,3.53.55.43L170,27.38l-.56-.44ZM143.76,6.65l.56.44-2.45-.32Zm104.3,88.7c-2.85,3.13-7.25,2.35-10.93,1.77C239.36,93.85,245.11,95.89,248.06,95.35ZM212.81,75.16l.44-.55A1.13,1.13,0,0,0,214,75l.8-.09a1.78,1.78,0,0,1-.8.09Zm-3.2-10.26.55.44-.35.44ZM175.68,38.75c.64.33.51.94.67,1.43A1.33,1.33,0,0,1,175.68,38.75Zm-4.63-1.87.55.44-.88,1.1-.55-.43Zm-10.72-5.07-.76-2.22.88-.2.23,2a4.15,4.15,0,0,1,.53-.1l.9-.56a1.1,1.1,0,0,1-.9.56Zm4.26,2.4c-.58-.37-.71-1.58-.94-2.29l.94,2.29a.86.86,0,0,0,.83,0c.05.4.23,1.08-.23,1.44Zm46.79,37.31.56.44-.79,1-.55-.44ZM173.92,44.37c-1.34-.34-.91-1.8-1.77-2.3C172.73,42.71,174.18,43.14,173.92,44.37Zm-8.38-4.84,1-.12-.12-1c.57.34.6,1.06.89,1.61l.77.61a1.07,1.07,0,0,1-.77-.61l-.22-.18c-.51,0-1.21-.06-1.43.67ZM234.68,95.9l.55.43-.87,1.11-.55-.44ZM175,50.47l.56.43-.44.55Zm-1.85,29.8.55.44-.87,1.1-.56-.43Zm14.71,42.93c.86-1.3,0-2.71-.54-3.85,1-.82,1.41-2.47,2.74-2.32l-.21-.88,9.94-2.56-.12-1c-1.35-2.15-2.88-.67-4.31,0-.74-3.83-3.37-.51-5.62-1.76-.8-1.71.58-2.77,1.54-4a4.27,4.27,0,0,1,3.3,3.33c.79-.09,2,.37,2.33-.67,2.16,1.35,5.12,2.62,7.4,1.55a2,2,0,0,0-.06-.81,1.13,1.13,0,0,1-.5-.53,1,1,0,0,1,.5.53c.65.36,1.63,0,2.48,0-1-1.89-.18-5-3.09-5.86,3.49-1,4.52-3.44,6-6.61,7.4-.26.33-9.27,6.3-12.27-.7,4.29-.19,9.55-.33,13.58l2.42-.78c-1.1-3.39,3-4.07,3.65-5.75,1.27-1.14,2.07.57,3.2-.87a3.23,3.23,0,0,1-1,3.53c.23,1.07,0,2.51.87,3.21-.43.55-1.16,1.23-.76,2.09-2.48.19-.53,3.17-1.87,4.63,1.22,1,2.37,2.24,4.08,1.44l.12,1c3.21-.87,8.6-.19,11.48-1.33-2.07.34-3,2.85-2.86,4.75.44.35,1.24,1.15,2,.67,3.66-3,10,.15,11.69-4.77-2.32-1.83-3.36,2.2-5.3,1,.57-.27.39-1,.35-1.35-1.71,1.71-4.75,2.36-6.53,2.57.75-.49,1.07-2,2.22-1.67.31-4.24,6-.29,6.29-4.54,4.83,1,9,0,13.9-1.21-1.41,3.37-5.71,5.18-10.14,5.09.26,3.08,5.12-.8,5.18,2.31-1,2.11-5.1.09-4.51,3.43.9,0,2-.74,2.53.2-1.11,2.54-3.93,1.57-5.42,3.45-4.69.24-5.48-4.89-10.49-3.1l-.21,2.53c-4.55,1.43-14.16-2.77-15.12,3.66,2.59-.1,5.68.55,7,2.1-2.88-.66-6.47-1.35-9.61.12-3.87-3.06-1.18,2.84-3,3.75,1.68,1.52,4.47.49,5.86.33-.35.44-1.16,1.24-.68,2,.82.11,1.83-.71,2.43.12l-.88,1.11c-2.93-.16-6-.1-8.83-.88l.12,1c-2.81-1.68-4,2.06-6.53,1.66-3.18,6.28-9.53,0-13.67,4.09-1.26-1.36-4.44.62-4.54-2-.93-.19-1.43.67-1.87,1.22l-1.54-1.22C185.68,129.17,185.51,125.08,187.89,123.2Zm71.57,7.24-.79,1-.55-.44.78-1Zm-26.75-10,.79-1a7,7,0,0,1,6.06,2.1l-2.1,2.66-2.1-1.67c.39-1,2.44-.58,1.66-2.1C235.5,120.28,233.79,121.08,232.71,120.4Zm.12,1.9L231.52,124l.76-2.09Zm-2.54,3.2-1,.12.44-.56ZM198.4,147.16l.55.44-.87,1.1-.56-.43Zm-4.52,3.43.56.44-.79,1-.55-.43Zm-2.88-.67.55.44-1,.12ZM90.92,81.1l.55.43-.87,1.11L90,82.2Zm62.64,51.4,1.55,1.23-2-.68Zm-13.48-8.16,9.73,5.19A19.77,19.77,0,0,1,140.08,124.34Zm-29.15-24.7.55.43-.79,1-.55-.44ZM91.82,89.72v-.9l.45.35Zm20.76,19c2,.68.45,3.06,1.89,4.2C112.86,112,111.75,110.18,112.58,108.67Zm2.65,6.42.55.44-.87,1.1-.56-.44Zm1,5.3.32,1.87-.87-2.31Zm-6.75-4.63c1.29,2.45,4.54,1.07,4.42,4.4l-1,.11C111.46,118.94,108.62,117.76,109.49,115.76Zm7.31,9.38.55.43-.79,1-.55-.44Zm1.56,17.77c.55.44,1.5.83,1.31,1.76L118,143.36Zm-15.47-8.83.44.34-.87,1.11-.45-.35Zm0,4.31.55.44-.87,1.1-.56-.44Zm2.88,8.39c-1-3,.84-7.42-2.21-10.38l1.31-1.65c1.49,2.43.35,7.28,2.45,8.94l-1,.12.66,4.83-1,.12Zm4.63-2.44-1,.11-.11-1Zm27.41,32.12.55.44-.88,1.11-.55-.44Zm-8.4,2c-.87-2.3,2.15-1.35,3.09-1.86.55.44,1.42.94,1.22,1.87.75-.49,1.43.23,2,.67-3.57.41,0,3.21-.89,4.52-1.34-.35-3,.34-3.08-1.56C129.5,182.65,129.48,179.94,129.41,178.44Zm7.75,5.43-.79,1-.55-.44.79-1Zm-6,27.27c.64.33.51.94.66,1.43C131.22,212.24,131.27,211.74,131.2,211.14Zm-4.63-1.87c1,.59,1.68,1.51.78,2.42C126.86,210.94,126,209.93,126.57,209.27Zm6,5.63c.46.54,1.14.36,1.54.32a6.37,6.37,0,0,0,1.55-3.09c3.53,1.9-1.87,3.73-1.12,5.94C134.46,216.78,132.06,216,132.54,214.9Zm1.43-5,.55.44-.87,1.11-.56-.44Zm3.43,8.84c2.12.95-1.57,3.79,1.86,3.09-.1-3.5.61-6.9-.23-10.61.52.94,1.52.13,2.34.23-1.74-3.71-.49-8.47-2.33-12.27-2,.54-2.74-2.89-5-1.42l.12,1.89c-1.35-1.25-2,.93-3.77.44,2.59,2.4,2,6.59,4,9.26-3.49-3.3-5.44-10.6-10.39-10l1.34,2.85c-.6-.84-1.63-.22-2.54-.21l.32,1.87-1,.11c.55-.46.39-.94.24-1.43-.56-.43-1.15-1.27-1.9-.78.19-.93-.76-1.32-1.31-1.75-1.89-3.3,1.85-4.83,3.18-7.19-.91-2.92,1.3-3.37,2.18-5.15-.11-.57-.15-1.1.36-1.47a3.22,3.22,0,0,1-.36,1.47,5.52,5.52,0,0,1,.15,1.06l2.86-1.33c.86.5.58,2.44,2.1,1.66-.49-.75.23-1.43.67-2,2.09-.15,4.33-.71,5.85.32.8-3.5,6.21-.12,5.84-4.19.64.33.62,1,.66,1.43a1.23,1.23,0,0,0,1.34-.56c-.2-.88.37-2-.78-2.42-.34-3-2.32-7.05-3.43-9.73.08-1-.44-2.86,1.11-2.54.43-.55,1.15-1.23.75-2.09.38.66.95.39,1.46.44,1.22-2.46-3.25-2.94-.58-4.95l.56.43a1.54,1.54,0,0,0-.32,1.54,48.21,48.21,0,0,0,4.85,8.17c4-1.36-2.35-3.84.68-6.3-.8.09-1.94-.28-2.33.67-.53-1.14.7-1.78,1.11-2.54,2.07-3.75-1.2-6.88-2.56-9.93,3.62,6.1,9.69,10.91,10.39,18.66,3.74-1.54,3.24,4.53,3.67,6.49-2.77,2.13-.14,7.44-4.87,7.29,1.19,2.57-2.48,3.79-.77,6.41-1.38,1.06-1.78,3.62-4.07,2.88a1.31,1.31,0,0,0-.68-1.43c-.85.4-2.76.32-2.1,1.75-.45,1.25-1.71.8-2.3,1.77,1.27,3.17,2.66,7.32,4.86,9.07l-.78.09c-.44.55-1.36,1.26-.88,2,1.26-.44,2.25.35,3.52.1.6,3.34-1.39,7-2.19,10.48l-1.1-.87c-2.32,0-1.22,2.45-2,3.64-.52-2.75-.51-6.16-1.45-8.16-2.3.87-.7,4.3-2.19,6.18-1.35,2.16,1.88,5.8-1.55,7.4-1-1-.54-2.95-2.41-3.53C136.83,223.33,136.08,220.4,137.4,218.75Zm-.46-12.59c1.15.37.8,1.71,1.66,2.21C137.17,209,137.25,207.13,136.94,206.16Zm62.62,1.05-.56-.44c-.06-.59-.22-1.08.33-1.54C200.14,205.34,200.22,206.83,199.56,207.21Zm-1.9,4.43-.87,1.1a1.54,1.54,0,0,1,.32-1.54ZM43.93,148.15l.56.43-.88,1.11-.55-.44Zm-13.69-1.32,2,.67-2.42-.12Zm103,72.91c1.21,0,2,3.57,2.1,6-.3,1.74-.23,6.65-.77,5.51l-2,.23C133.35,227,130.82,223.42,133.2,219.74ZM38,168.1c-.07-.14-.16-.26-.24-.39-.79,0-1.26.7-1.67,1.21L35,168c.08-1-.48-2.35.67-2.88a10.32,10.32,0,0,1,2.1,2.55.67.67,0,0,1,.2,0,2.71,2.71,0,0,1,0,.4c1.09,1.86,1.71,3.81.86,3.9C38,170.44,38.24,169.81,38,168.1ZM9.49,152.15c1.65.41,4.16,1.32,4.63,2.77C13,153,10.62,154.12,9.49,152.15Zm35.15,35.74c-.51,0-1.08.22-1.46-.43l.79-1C44.61,186.79,44.57,187.29,44.64,187.89ZM412.28,481.54l-.55-.44.87-1.1.56.43ZM98.87,229l-.55-.44a1.55,1.55,0,0,0-1.43.67l-.23-2c-.21-1.78,1.92-2.43,2.65-2.21ZM82.73,215.36l.88-1.1.55.44-.87,1.1Zm11,6.95c-.31-1-2.14-2.06-1-3.3C93.78,219.8,93.46,221.34,93.77,222.31ZM417.15,482l3.84-.55.56.44ZM88,210.93l-1,.12c.43,2,2.7,2.49,4.2,3.32.31,1,2.23,1.95.43,2.87-.64-.33-3-1.66-2.33-3.65-3.66,2.13-5-2.92-8.15-2.86l1-.12c1.44-4.08-3.91,0-5.18-2.3a1.34,1.34,0,0,0,.33-1.55l-1.87.32.09.79c-.22.73-.92.71-1.32.76,1-1.22,1.68-2.8,3.53-2.42l.12,1,1-.11c2.21-1.37,5.25.72,7.52,2.52l.43-.54.55.44-.43.54ZM64,195.27l-.11-1c7.68-.38,16.87-1.55,24.3,1.09C80.15,194.8,71.74,194.07,64,195.27Zm41.54,20-1.65-1.31c0-.51-.23-1.08.32-1.55C105.61,212.81,105.51,214.52,105.49,215.23Zm.88,3.21-.12-1,.55.43ZM251.76,335.37l.11,1-1.22-1.87ZM432.39,484.52c-.4.05-1.08.22-1.35-.35.13-.61.84-.6,1.23-.64Zm-2.22-2.65-.55-.44.88-1.1.55.43ZM273.08,352.25l.55.44-.79,1-.55-.43ZM440,487l-.44-.36.79-1,.44.35ZM278.81,355l-.11-1,.55.43ZM439.33,481.21l.79-1,.55.44-.79,1Zm8.61,6.82-.55-.44.79-1,.55.43Zm-1.77-6.62-.55-.44.79-1,.55.44Zm9.73,5.19-.44-.35.88-1.1.44.35Zm-4.43-5.3-.55-.44.88-1.1.55.43ZM280,340.31l1.54,1.23c-.72.68-.09,2.62-1.66,2.1-.74,2.29,1.91,2.58,2.65,2.1-.21.72-.92.7-1.31.75l.23,2.88c.48-.16,1.1,0,1.43-.67.8,1.72-.71,3.4,0,4.32l-6.2-11.92-1,.11c1.49,3.34-3.63,5.94,0,8.83.48-.16,1.1,0,1.43-.67l1.22,2.77-.55-.44c-2.93-.16-.16,2.93-1.43,4.08l-1.11-.87c.56-2.08-1.93-3.69-2-6.09-4.54,3.23-3-4.17-6.29-4.09l.23,7.2-1.66-2.21c-1.91-3.49-1.48-9.25-5.08-11h0c0,.5.21,1.06-.32,1.52l-.56-.44a9.74,9.74,0,0,1,.88-1.08v0h0a1.18,1.18,0,0,0,.22-1.44c-.51-.95-1.63-.21-2.44-.32.34-1.34-3.22-1.83-.88-3.21.47.55.95.39,1.55.32h0c-2.22-3.55-.92-7-4.54-9.7,1.08.68,1.75,2.1,3.08,1.55-.82-1.91,2.78-3.74-.11-5.3-.48.15-1.1,0-1.43.66-.55-.44-1.23-1.16-2-.67l.76-2.1c.95.4.58,1.54.67,2.33l1-.11c.44-.55,1.27-1.15.68-2l2-.22c-2-1.78,1.54-5.8-2.64-5.52.42-.75,1.84-1.42,1.31-2.56a1.55,1.55,0,0,0-1.55-.32l-.11-1h.9c-.53-1.15-.21-2.69-1.78-3.21-1.43-.23-1.84,1.42-2.65,2.22l-.11-1c-.47-.55-1-.29-1.54-.33-.06,3,1.5,7,2.11,9.59-.37-.66-1.06-.48-1.45-.43l-1-4.21c-1.23.65-1.79-.69-2.65-1.19.15-4.73-2.05-9.89-4-13.58-1.66-.41-.83,1.5-1.66,2.1.08-5.33-5.5-7.59-5.42-12.92-3.35-5.53-5.32-12.12-9.72-17.22-1.72-.11-2.1,2.65-4.2,1.89l.12,1c1.15,2.17,2.64-.61,3.52.09v.9l1-.11c-.28,1-1.53.58-2.3.87l.44,3.76c.57.8,1.55.26,2.33.14l.08-.92v.9l-.09,0-.35,3.94c.55.44,1.14,1.27,1.89.78l.2.88c2.31,0,4.62,3.48,5.53,6.18l-1.86.32c-.35,2.24,2,.36,2.65,2.1-.75.49-1.07,2-2.22,1.66-.07-1.49-1.59-1.62-.87-3.21l-3.87.35c-4-9.77-7.81-19.65-13.94-28.47-.42-2.66,1.47-4.59,2.1-7,.8,1.71,2.72,3.6,4.75,3.76.87-2-2.11-3.46-.56-4.74-3.18-3.25-1.6-8.65-1.88-12.83-9.91,8.88-15.74,17.38-23.39,28.4-3.21.87-5.56,5.66-9.38,3,2.63-.61,1.3-3.47,4.51-3.44,2-3.44,6-6.21,9-9.37.47-2.87,4.59-5.35,4.43-7.64-5.87,1.28-8,8.75-13.36,10.28-1,6.54-9.25,6.69-15.12,8l.12,1c-.38-.66-.95-.39-1.35-.34l4.76-4c-1.54-2.83-4.94,2.38-8.16.55l.2.88c-.6.07-1.08.22-1.54-.32.78-1,1.78-2.72.44-4a3.25,3.25,0,0,1-3.53-1c3.08-1.16,1.37-4.68,4.4-4.43,0-.39,0-1.1-.66-1.42.76-1.2,2.63-2.41,2.44-4-.5,0-1-.08-1.34.56l-1.22-1.86c.35-.45.94-1.42,1.78-1.11s.58,1.53.78,2.41l.88-.2c.31-5.15,4.85-2.27,7.84-4.22l-.9-3.41,1-.11-.2-.88c.74-.49,1.06-2,2.3-1.77a70.47,70.47,0,0,0,9.48-18.56c.38.66.95.39,1.46.43l-.23-2,2-.23c.94.39.46,1.45.66,2.33,4.66-6.56,3.71-16.48,4.95-24.85a3.5,3.5,0,0,0-3.53-1c-2.23-5.36-1.24-10.69-2.44-16.67,1.09-15.67-15.65-18.14-23.09-27.81,6.3,2.48,9.13,8.67,16.11,9.16l-1.86-3.1c-4.58-4.88-9.47-5.52-14.8-10.82a3.6,3.6,0,0,1-3.55-1.19l1-.11c-3.1-5.16-9.9-5.87-13-11,3.24,1.13,6.6,4.15,8.94,5.28l.11,1,1-.11c1.11.87,2.72,1.79,2.33,3.64l1.87-.32c1.79,2.5,5.2,5,7.08,6.5.88-.2,1.93.28,2.41-.78-6.12-6.11-12-12.24-18.66-18.19-3.27-6.55-11-8.76-16.57-13.13l-.23-2c15.2,3,24.47,18.12,35.24,27.91l1-.12c-.05-.39,0-1.1-.65-1.23l.88-.2c.79,3.32,4.08,4.85,5.85,8.05,2.41,1.72,5.62,4.26,8.62,3.41.13-2.42-2.31-.93-3.2-2.53.79-.1,3.53,1,4.2-1,1,.08,3-.35,2.65,1.2,7.39.64,17.11-1.19,24.62-.46-3,2.85-7.13-.07-10.38,2.21l.1.79c5,1.43,12-1.09,15.91-.34,1.31-.76,3.69-1,3.64-2.33l-6.85-.21c.61-1.68,3.21-.88,2.54-3.2-1.36.36-3.22,0-4.2,1-9.09-1.46-18.31,3.83-26-2.29,13.22,2.37,27,.17,40.51-2.8,2.85-1.34,4.94-6.7,8.63-4.32l-.35-3,.12,1c.87-.2,1.93.28,2.41-.77.26-1.24-1.17-1.48-1.75-2.11.49-.16,1.1,0,1.32-.75-.19.92.66,1.42,1.22,1.86,1.93-.63,2.37-1.18,2.54-3.2.62,1,1.85.38,2.53,1.1.48-2,6.84-.69,3-3.75l1.22-1.55c.77-.29.58-1.87-.12-1.89,2.92-1.64,5.77-8.19,9.71-3.64.34-2.24,4.18-1.18,2.42-4.19,1.38-1.06,2.19.65,3.32-.78-.75-1.33-.47-3.26-2.65-2.1-.64-1.24.7-1.79,1.11-2.54.19,3.38,4.8,4.16,5.74,7.06-.65-1.23-1.88-.59-3.09-.65.29.77-.16,2,.87,2.31L277,126.47a2.61,2.61,0,0,1-1,1l-1.21,1.13a3.35,3.35,0,0,1,1.21-1.13l1-1a1.61,1.61,0,0,0-.23-1.55c-.62-1-1.88-.59-3-.56-1.26.45.8,2.61-.33,1.54-3.89.15-4.19,5.3-7,6.52,0,1.11,2,1.58,3.09,1.55.94-.51.12-1.51.23-2.33l1.86-.31c1.3-1-.69-1.63-.31-2.78.63.33.59.84.55,1.34l2-.23c.16.48,0,1.1.67,1.43l-2.89.24c-.27,6.25-6.9,6.21-7.26,12.57.6.84,1.52.13,2.42.12.52-2.46,4.08-3.78,5.86-4l-.12-1c.83-2.4,2.4-.07,3.76-.43-.2-.88.37-2.05-.67-2.33,3.56-.41,8.64-2.51,10.49-5.54,3,6.88-3.7,12.17-6.62,18.13-2.69-.69-3.2,2.68-4.95,4-5.24-.19-6.24,7.65-11.05,8.51a128.78,128.78,0,0,1-16,12.49c-11.22-.8-21.65,1-33.22,1.56l-.87,1.1c2.69,5.91,3.78,12.7,5.64,19.21-2.54,2.3-1.27,6.36-.44,9.17-.73,4.1,3.63,7.91,2.32,11.37l-1,.11.11,1c1.11,0,2.59,1.5,3.42,0l.66,4.84.79-.09c.55-1.37,0-3,1.55-4,3.19-.18,3.56,3.89,5,4.63-.63-1.93,2.8-2.63,1.34-4.86-.64-1.23-1.85-.39-2.56-1.31l1.22-1.55c3.07,2.25,1.25,7.28,5,9.15-.44.56-1.16,1.24-.67,2,5.66-3.07,3.15,6.45,8.62,3.41l-.11-1c2.18,1.55-1.62,2.5,0,4.31l-.55-.43c-.92-.2-1.43.66-1.86,1.22,1.57,1.42,2,4.67,4,5l-.23-2c2.59,6.72,7.51,10.26,9.29,16.88,5.19,4.11-3.48,3.71.1,8.71.53,3.66,2.85,6.39,4.43,9.62.25,1.28,1.65,2.92,3.21,2.54.41-.75,1.84-1.42,1.1-2.54l.56.44c.05,1.3-1.47,2.08-1,3.52a48.74,48.74,0,0,1,2.6,7.08,5.38,5.38,0,0,1,.4,2.31,14.71,14.71,0,0,0-.4-2.31c-1-2.63-3.48-4.41-2.71-8.07-3.5,4.43,2.6,10.33,2.87,16.12a2,2,0,0,0,1.17-.34l.17-.21,0,0c.52-.8-.64-2.34,0-3.44,2.72,3.59,4.65,10.69,4.86,12.47-3.86,3.06,2.81,7.8,1.88,11.92l1-.12c-1.57,2.9,2.07,4,1.77,6.62h0l1-.11a2,2,0,0,1,.2.46,5.12,5.12,0,0,0,1.6-.15c.22-.06.44-.12.63-.19v0c2-.55,3.78-1.3,4.54,1.94l-3.44-1.11c0,.51.23,1.08-.32,1.54-1.13-.36-.6-1.5-.78-2.37l-.63.15a4.85,4.85,0,0,0-1.47.54,2,2,0,0,1-.17,1.09c1,1,.63,3.68,2.73,3-2.33,1.57,1.27,3.16-.33,5-.86,2.91-1.37-1.44-3.87.35l.55,3.85c-3-3.46-3.73-6.19-4.74-10.59a8.48,8.48,0,0,0,4.07,5.75c1-1.52-.52-2.75-1-4.2.7.92,1.63.21,2.53.21-1.56-1.23-.44-2.19,0-3.36,0,0,0,0,0-.05a.78.78,0,0,1,.21-1,3.56,3.56,0,0,0-.13-.39,2.87,2.87,0,0,1-1.18-.35l-1,.12-8.17-16h-.91c.57,2.24-.06,3.71-1.87,4.63l-.11-1c-2.27-.54-.19-5.9-3.41-3.42l-.11-1c.33-.64.94-.51,1.42-.66.22-1.63-.89-2.51-1.42-3.65-.4.05-1-.09-1.34.55l-.56-.43.79-1,.56.44c-2.61-2.61-1.76-8.22-5.77-9.06.09,6,4.93,9.66,2.67,15.24l1-.12c1.66,1.31,1.5,4.24,1.11,6.09-2-1.77-2.14-4.56-3.2-6.85l-1,.12c2,8.09,6.14,16.54,10.62,24,1-1,3.74-.63,3-2.85,2.51,4.32,5.24,8.82,6,13.35,2,2.17,3.35,5.53,5.09,6.74Zm-34.81-24.14,1.11.87-.88,1.1-1.1-.87Zm-3.09-1.55c-.24-1.28-1.89-1.69-1.86-3.09C243.49,310,244.34,313,242.12,314.62Zm9.73,8.6.56.43-1,.12Zm-15.37-24.4c.51-2.46-1.7-1.71-2.86-3l.88-1.1c0,2,2.41,1.73,3.65,2.89-.39,1.85,1.59,2.52-.45,4l-.55-.44c.44-.55,1.16-1.24.67-2S236.88,298.78,236.48,298.82Zm8.19,4.87-.12,2.42-.44-2.86Zm-5-1.43.55.44-1,.12c.4.85-.32,1.54-.76,2.09l-.55-.44ZM214.8,250.38c.95-.51,1.67-1.19,2.77-1.22L216.9,252ZM374,201.9l3.64,2c-2.59-1.51-7.31.14-10.37-1.21l.55.44-.88,1.1-.55-.43.88-1.11-.23-2c-.75.49-1.44-.24-2-.67l-.11-1c-.84-.3-1.51-1.73-2.54-1.11,0,.51.23,1.07-.43,1.46-.09-.8.28-1.94-.67-2.34-1.66-.4-.94,1.42-1.75,2.21-.38-.65-1-.39-1.46-.43.16-2-3.14-3.74-5.19-3.21-.1.82.72,1.83-.32,2.45-1-1.69-5.05,1.39-4.08-2.34-2.55-.41-5.5,1-7.95-1.08,1.62-1.59,2.95.36,4.84-.66,1.37-3.77-3.37-.51-3.3-3.33,4.4-.11,8.05,1.87,12.36,1.87l.12-2.42,7.6,2.43-1.86.32c.74,2.92,3,2.75,5.07,2.22-.63,3.28,5.44,1.07,6.4,4.17C374.67,198.31,375.23,199.65,374,201.9Zm5.53,6.18-.88,1.1-.55-.43.87-1.11Zm-6.85-.21-4.43-1c.79-.09,1.94.28,2.33-.67Zm-16.94-19.78,3.23,1a7.6,7.6,0,0,1-3.23-1l-2.39-.75c-.76-1.31-4.55,1.44-4.63-1.86-1-.09-2.36.47-2.89-.67.55.43,3.82-1.65,3.44,1.1C352.37,185.55,353.79,187,355.73,188.09Zm-3.62.8-.87,1.11c-1.71-1.71-4.64.64-6.18-2.2C347.35,186.74,349.5,189.7,352.11,188.89ZM279.77,130a1.09,1.09,0,0,1-1.23,1.55Zm-1,3.53-1.43.67-.11-1A1.32,1.32,0,0,1,278.77,133.51Zm-25.35,57.22-.88,1.1-1.66-1.31.44-.55C252.18,189.56,252.86,190.29,253.42,190.73Zm26.21,59,1.55,1.23-.35.44Zm-2.2-1.75.87-1.1.55.44-.87,1.1ZM258,234.23l-.55-.44.78-1Zm31.37,23.94.55.44-.32,1.55Zm-53.8-41.7L235,216c-.05-.4-.23-1.08.35-1.35C236.57,215,234.86,215.75,235.54,216.47Zm32.82,32.1c-2.59,1-7.1,1.93-9.82-.76.94-1.41,1.65-3.9.44-4.87,2.18.65,4.28,2.32,6.62,2.55C265.76,246.87,267.63,248.36,268.36,248.57ZM246.92,230.7l.79-1,1.55,1.22C248.78,232,247.61,231.42,246.92,230.7ZM541.35,466.55l1.1.87L540,467.1C540.51,467.15,541,467.19,541.35,466.55ZM253.57,234.34l.87-1.1.56.43-.88,1.11Zm2.1,1.66-.45-.35.88-1.1.44.35ZM260,268c.51-3.37-4.11-5.24-2.43-8.05.55.44,1.23,1.16,2.09.76C258,264.12,264.8,266.24,260,268Zm2,.67-.87,1.1-.56-.44.88-1.1Zm345.35,285.7,1,.79-.88.21Zm-8.62-6.82.88-1.1.55.43-.87,1.11Zm4,5-.79,1-.55-.44.79-1Zm-95.56-75.67.55.44-.78,1-.55-.44ZM270.93,288c-.53-.24-.51-.94-.55-1.34C271,287,271,287.49,270.93,288ZM502.27,476.4l-.79,1-.55-.43.78-1Zm15,24.84a.54.54,0,0,1-.38.48l-.06.07h-.21c-.57.15-1.09.05,0,0l.27-.08Zm-240-192.61c-2.91-.86-.94-3.8-1.66-5.62C276.94,305.16,278,306,277.24,308.63Zm-4.1-6.84.78-1,.56.44-.79,1Zm218,174.41.55.43-.87,1.11-.56-.44ZM283.64,321.43c.64.33.51.95.67,1.43l-1.1-.88Zm-20.41-8.26.75-2.09,1.11.87c.73,2,1.21,5.28,2.76,7.4-1-.28-1.89-.78-3-.55,1.18-1.95-.92-3.61-.67-5.75Zm12,6.83.56,1.34-1.55-1.23Zm-5.3-3.3-.44.56-.11-1Zm-.78-6.73s0,0,0,.07c.67.48,1.32.95,1.22,1.8-.53-.43-1.35-.92-1.22-1.8l-.07-.05a1.09,1.09,0,0,1-1.36-.25l.44-.56a4.53,4.53,0,0,0,.92.81Zm2.21,1.75.55.44-.87,1.1-.55-.43Zm14.05,29.47-.55-.44.88-1.1.55.43Zm5.31,4.2-.44.55-.11-1Zm-11.94-6.95-1.54-4.63C277.84,335.35,279.71,336.84,278.8,338.44ZM454.36,481.06a5.6,5.6,0,0,1,4.84-.66ZM296,349.59l-.55-.44.88-1.11.55.44ZM283.55,337.9c.66-.38.39-.95.43-1.46l1.9.78C285.27,338.9,284.69,337.36,283.55,337.9ZM279.79,334l-.43-2.86.55.44c1.34.34,1.58-1.09,2.3-1.77l.23,2.88-1-.79C279.8,331.51,280.51,333.33,279.79,334Zm6.73-.79c.53.24.51.95.56,1.35C286.35,334.36,286.48,333.74,286.52,333.23ZM288,338l.88-1.1.44.35-.87,1.1Zm4.75,3.77-.55-.44.88-1.11.55.44Zm-.09-3.41.3,0v.9a3.73,3.73,0,0,1-.3-.87,1.19,1.19,0,0,0-1.13.64c-1.34-.35-1.11-1.78-1.34-2.86C291.79,335.72,292.32,337.27,292.63,338.34Zm-3.78-4.87a4.62,4.62,0,0,1-1-2.62,7.35,7.35,0,0,1-.53-1.56,4.26,4.26,0,0,0-3.56-2.56l.43-.55c2.48-.63,2.67,1.24,3.13,3.11a2.26,2.26,0,0,1,.19.42,4.71,4.71,0,0,1,.34,1.14,2.65,2.65,0,0,0,1.88,1.51ZM508,505.23l.88-1.11.55.44-.88,1.1Zm5.86.32c-1.08.23-2.73-1.09-3.21.87l.67-2C512.57,503.8,513.13,505.14,513.88,505.55Zm-44.19-26.37.44-.55,12-.89ZM279.33,309.39c-.38,1.85,1.12,2.68,2.34,3.65l-2.33.67C278.52,312.7,277.84,310.37,279.33,309.39ZM491.56,484.47l.44-.55.56.43Zm25.52,19.3-.55-.44.88-1.1.55.44Zm8.17-.54c-1.9-.79-4.59,2.84-6.31-.67l.44-.56c.64.33.51.95.56,1.34,3.24,1.13,1.33-2.36,3.53-3.32l2.65,2.1ZM543.47,522c-2-2.67-5.22-5.21-5.85-8l5,4.83c-.09,5.33,3.19-.17,5.51,1.67-5.35-.28.3,3.48-1.2,6.06C545.17,526.19,543.9,523.93,543.47,522Zm80.87,70.16a1.59,1.59,0,0,1,2.11,1.66c-.65-.33-.6-.83-.67-1.43C625.29,592.52,624.81,592.68,624.34,592.13Zm-6-5.63-1,.12-.12-1,1-.11ZM560,539.41l-1,.11c-.47-1.44-1.69-3.31-1.54-4.63C558.2,536.52,559.75,537.74,560,539.41Zm-4.63-6.18-.55-.44.88-1.1.55.43ZM553.75,531l-1.11-.87a1.58,1.58,0,0,1,.33-1.55C553.92,529,553.46,530.24,553.75,531Zm-2.88-4.08a2.24,2.24,0,0,0-2.3-2.54c-.4-.86.32-1.54.76-2.09C549.34,524.1,552.07,525.19,550.87,526.93ZM613.52,574l.44.35-.88.2ZM624,581.44l.55.43-.87,1.11-.56-.44Zm6.32,41.49-1.11-.87c.55-.47.39-.95.33-1.54C630,621.26,630.86,622.27,630.33,622.93Zm-44.07-32.2c.35-2.24-.35-4.77.21-6.84l1.11.87A6.33,6.33,0,0,1,586.26,590.73ZM627.13,617l.44-.56c.9,0,1.93-.62,2.53.21Zm-42.55-37.3.79-1,.55.44-.79,1Zm44.65,33.74-1,.12-.23-2C628.56,612,629.42,612.51,629.23,613.43Zm-7.51-5.95.43-.55.55.44Zm-40.11-31.75c-.39.94-2.33.67-1.66,2.1,1.43.23,2.13-.65,3.32-.79-.61,1.68-3,1.05-2.54,3.2l-2.33-3.64c3-.15.61-2.58,1.44-4.08Zm-4.3-7.73-1.79.21c.15-1.32-.73-2-1-3.3C577.55,564.06,575.06,567.66,577.31,568Zm50.26,39.8c.19-.92-.67-1.42-1.22-1.86l2.42-.78Zm-.9-4.3.44-.56.44.35Zm-7.4-5a1.33,1.33,0,0,1,.32-1.54l.56.43Zm-49.94-45.67c-1.46,3.89,3.78,4.08,4.1,6.85-.25,1.24-1.57,1.09-2.65,1.31l.32,2.78c.38.65,1.06.48,1.45.43-.85,4.71,3.36,7.33,3.76,10.7-1-1.89-2.42-.12-3.53-.09l.44-.56c-.2-.88.28-1.93-.67-2.32,2.1-2.66-2.48-4.13-2.33-7.06a1.21,1.21,0,0,1-1.43-.24l.44-.55c-.89-2.5-2.16-5.66-4.74-6.27,1.62-2.5-1.69-3.31-1.46-5.64-2.86.43-2.59-3.32-4.31-3.42l-.43-3.76c-.4-.85-.44-2.86-1.77-2.3-.37-6.58-9.29-8.25-8.62-15.45,1.51,2.63,4.38,4.91,4.31,7.72,4,.64,1.45,3.85,4.42,4.4,3,3.27,3.32,7.85,7.07,10.82l-.11,2.42c1.49.83,2.37,3.14,4.43,1.89-1.9-1.68-2-4.48-3.56-6.4.76.41,1.42,1.84,2.45,1.22C568.5,550.06,566.52,553.71,569.33,552.87Zm-7-9.82c-.68-.72-2.51,0-2.1-1.66A3,3,0,0,1,562.37,543.05Zm63.32,52.83.87-1.1.55.44-.87,1.1Zm3.75,3c-.22-1.08.1-2.62-.89-3.41C631.75,593.68,631.33,597.84,629.44,598.86Zm-5.53-9.59c.05-.51-.22-1.08.33-1.54a1.21,1.21,0,0,1,.23,2Zm6.3,4.08c-.75.49-1.44-.23-2-.67A3.46,3.46,0,0,1,629.3,589ZM627.5,586l.06.16a1.56,1.56,0,0,0,1,.63l-.78,1a4.22,4.22,0,0,0-.2-1.63,1,1,0,0,1-.06-.16c-.35-1-1-1.89-1.28-2.84l2.42.11C627.94,584,627.17,585.2,627.5,586Zm-2.07-9.58.44-.55,1.11.88Zm-87.37-71.7-1.77-2.3c-.4,0-1.1,0-1.32.75-.39,1.85,1.2,2.57,2.42,3.53.84.3,1.23-.65,1.66-1.2,2.43,1.93,2.1,5.08,5.19,6.63l-1.76,1.3,2.11,4.51.31-.07.12,1-.43-.91-.57.13c-1.38-4.15-4.81-6.87-6.19-11-3.5.11-6,.1-7.72-3.42.33-.64.94-.5,1.43-.66l-.12-1c-.6-.84-1.52-.13-2.42-.12-1.88-1.49,1.35-3.07,0-4.32l2.86-.43-.76,2.09,1-.11c.64.33.6.83.56,1.34a1.24,1.24,0,0,0-1.44-.23,4.78,4.78,0,0,0,1.32,2.65c1.07-.23,2.62.1,3.32-.78C537.6,501.69,538.17,503.93,538.06,504.75Zm56.13,41a1.08,1.08,0,0,1-1.23,1.54Zm5.06,5.63.44-.56-.33,1.55Zm12.27,9.71c.55.43,1.23,1.16,2,.67,0-.4-.31-1,.35-1.34.44,1.25,1.55,2.12,1.42,3.64C614.23,562,611.42,563.74,611.52,561.12Zm8.5,6.74-.11-1,.55.44Zm-.76-2.23-.55-.43.87-1.11.56.44Zm-7.74-8.83-.55-.43.87-1.11,1,.79C611,555.16,611.81,559.38,611.52,556.8Zm11.91,2.43.56.44-.88,1.1-.55-.43Zm-4.74-2.86-.55-.43.78-1,.56.44Zm-9.06-7.17.44-.56.55.44Zm7.08-1.23-1.1-.87,1-.12Zm-6.64-3.64c-3.27-.13-.56-1.4,0-2.72a1.1,1.1,0,0,1,0-.69.92.92,0,0,1,0,.69C610.27,542.67,611.87,543.37,610.07,544.33Zm4.63-1.54c.44-.55,1.16-1.24.68-2C615.71,541.07,616.18,543.42,614.7,542.79Zm-.44-3.76-.11-1,.44-.55Zm-24.75-25.71c.16,1.38,2,2.87,2.77,3.08l-.88,1.11c2.65,5.51-.56,10.7,1.45,16.78,1.41-.86,1.24,1.17,2.1,1.67-2.41,2.3-1.09,3.6.27,5.1l.28-.35.55.44-.35.45a3.77,3.77,0,0,1,.91,4.3l-3.32-3.53c2.11-3.36-2.23-6.26-2.45-9l-1,.12a8.14,8.14,0,0,0-4.08-5.75c-1.59-5.93-6.93-10.52-8.17-16-1-3.1-6-8.73-1.13-10.6.26-1.23-1.18-1.47-1.75-2.1.43-.56,1.24-1.35.76-2.1.55.44,1.41.94,1.11,1.78,3.41.9,1.59-2.69,4.63-2.44-.25,3,2.68-.22,3.64,2l-2.53-.21.11,1A5.57,5.57,0,0,0,587,500c-.76,2.09,1.63,4.52-.21,6.85,2-.74,1.42,1.84,2.22,2.65.59-.07,1.1,0,1.42-.67l1.11.87C590.73,510.87,589.13,511.75,589.51,513.32Zm1.2-10.38-1.19,2.65-.55-.44c.54-.46.36-1.14.32-1.54C589.77,503.45,590.39,503.58,590.71,502.94Zm.47,9.18.87-1.11.56.44-.88,1.1Zm20,8.81c2.55,2.92.2,5.2,1.45,8.16l-2.21-1.75.87-1.1c-1.74-3-1.16-5.79-.55-9.07Zm-36.23-32.1,1.66,1.31c.92.2,1.31-.76,1.75-1.31.15,3,3.09.65,4.2,2.43L581.1,491c-.43.55-1.27,1.15-.87,2l-.79.09C579.1,490.15,575.28,491.8,574.93,488.83Zm-251.78-203,.43-.56,1.55,1.23Zm258.19,208c1.63.21,2.5-.89,3.84-1.45.82,1,2.59,1.51,2.77,3.09C585.21,494.45,583.4,497,581.34,493.9Zm8.94,6.19-.44-.36.88-1.1.44.35Zm.32-2.45-1,.12a1.35,1.35,0,0,1,.32-1.55C590.57,496.54,590.44,497.16,590.6,497.64ZM317.7,276.26l-.56.24,0,.31a1.18,1.18,0,0,1-.86.06l-.13.05c-.14,2.23,2.12,1,3.2,1.64-.74.49-1.75,1.31-2.42.78l-.11-1-1,.12c-.64-.33-.51-1-.56-1.34-.5-.05-1.08.22-1.54-.33.94-1.35,1.62-.2,2.55.07l.82-.37-.08-.68.56.44h.08l1.26-.56A1.18,1.18,0,0,1,317.7,276.26Zm-2.18-1.66-3-.56.87-1.11c.53.24.51.95.56,1.34C314.49,274.32,315.06,274.05,315.52,274.6Zm21.56,15.45.43-.56-.23,1.44Zm244.58,198c-.07-.6,0-1.11-.67-1.43-.39.05-1.1,0-1.42.66L578,486.06c.92-.71,2.64.3,4,.44ZM333.32,286.17l1-.12,1,.79ZM326,276.79l.12,1.89-4.64-2.77c.77-.29,1.94.28,2.31-.87.55.44,1.41.94,1.22,1.86Zm5.85,4.64.55.43-.87,1.11-.55-.44Zm-3.52-.1-1-.78c.32-.65.83-.61,1.42-.67Zm16.46,12.14-.88.2c-.56-1.34.14-2.23,0-3.41H343l-.2-.88C347.11,290.08,342.64,293.91,344.8,293.47Zm-3.09-5.87-.55-.43.87-1.11.55.44Zm-9.29-9.15c-3.24-.23-4-3.85-6-5.63C329.4,274.09,329.47,277.19,332.42,278.45Zm2.1,1.66a9.22,9.22,0,0,0,2.32,2.74A2.3,2.3,0,0,1,334.52,280.11Zm9.61,7.61.44-.55.55.44Zm-12-12c-1-.59-1.6-1.62-.79-2.42,1.27,1.52,3.87,2.53,5,4.09.7.16,1,.63.53,2.09a2.59,2.59,0,0,0-.53-2.09C335.09,277.07,332.73,277.79,332.1,275.68Zm8.39,5.75c-1.15-.37-.8-1.72-1.66-2.22C339.4,279.85,340.83,280.08,340.49,281.43Zm1.66,1.31,1,.78-1.43-.23Zm227.9,184.78c2-1.43,4.39,2.41,6.41.77C574.88,470.27,571.6,469.65,570.05,467.52ZM310.43,252.42l2-.23-.12,3.32C310.12,254.86,312,253.64,310.43,252.42Zm-5.3-4.21.88-1.1.55.44-.87,1.1Zm4.75,2.86-.55-.43.87-1.11.56.44Zm-4-4.95-.87,1.11a3.23,3.23,0,0,0-3.53-1l-.23-2-1,.12c-.83.6,0,1.6-.12,2.42,5.57,3.87,10.86,9.67,16.25,14.66l1.87-.32c2.29-3.57-3.54-2.8-4-4.75,1.87.59,4.27-.4,5.62,1.75,1.23.26-.57,1.17.12,1.9.75.41,1.5,1.73,2.65,1.19l-.12-1,1,.78c-.21.73-.83.6-1.31.76l.55,4.74c1.87-.31,2.39,3.34,4.63,2.78l-.32-2.77c2.12,1-1.47,3.68,1.87,3.09l.34,3-1,.11c.39-1.85-1.11-2.67-2.33-3.64a1.34,1.34,0,0,0-1.43.67,2.12,2.12,0,0,0,.28,1c.17.12.34.23.48.34a.93.93,0,0,1-.48-.34c-.48-.34-1-.73-.83-1.42-3.41-3.41-8.21-5.06-10.28-9.94a1.33,1.33,0,0,0-1.43.67c-5.94-5.43-11.59-11.7-17.79-15.89,2.5-1.79-1-2.59-1-4.2,1.7.81,4.59,1.47,5.83.13,1.57.52.94-1.41,1.66-2.1C303.12,241.23,302.89,243.56,305.89,246.12Zm18.9,16.77-.32,1.54-.55-.44Zm-30.72-27,.79-1,.55.44-.79,1Zm-15.9-15.11c2.85,2.08,7.31,5.07,8.73,8.72.85,1.2.57,3.14,2.77,2.18l.21,1.78-1,.12v-.9l-2,.23-.11-1c-1.2-.76-2.08-2.37-3.64-2,1.84,3.8,5.26,6.52,8,9.71l-.44.56c-.64-.33-.6-.84-.67-1.43-2.79-2.38-7.75-5.42-10.17-9-3.6,1.82-2.5-3.42-5.73-2.75l-.12-1c-1.79-.7-2.73-3.6-5.07-2.22,1.15,1.27-.56,2.07.87,3.21,3.29-1.89,2,3.18,5.1,2.41l.21,1.78a12.42,12.42,0,0,1,7.85,8.92l1.87-.32.12,1-2,.22c1.68,1.51,4.86,3.85,7.71,2.52l-1.31,1.65-.12-1-1,.11c-.54.47-.39.95-.32,1.54,1.17.57,2.06,2.17,3.64,2l-.23-2,2-.23c1.39.74-.3,1.74.24,2.88,3-.35,2.28,3.25,5.18,2.31.45,1.25-.34,2.24-.2,3.43.73,1.12,2,.67,3.08.65l-1,.11c-.94.51-.12,1.52-.23,2.33a1.31,1.31,0,0,0,1.54.33l-.2-.88c.46-1.26,1.78-1.11,2.86-1.34-2.67,4.73,3.72,1,3.87,4l-1,.11.11,1c.6.84,1.52.12,2.42.12l.12,1c3.56.49,3.17,5.75,7.51,5.95a4.61,4.61,0,0,0-.86,1.19,2.71,2.71,0,0,1,.06.65s0,0,0,.06c1.71-.8,2.89.66,4,1.54-.55.47-.28,1-.24,1.43,1.14-.53,1.81.9,2.57,1.31-1.46.47-2.56-.41-4-.64l1-.12c.55-.46.39-.95.23-1.43-.75-.41-1.3-1.75-2.45-1.22-.55.47-.36,1.15-.32,1.54l-1,.12c-.55-.44-1.41-.94-1.11-1.78l.88-.2a.75.75,0,0,0,.42-.61.79.79,0,0,1-.06-.65s0-.06,0-.08c-1.2-.77-2.09-2.37-3.56-2.1l.24,2.88c-1.2-.76-2.08-2.36-3.64-2-.44.55-1.17,1.24-.68,2,.47.55.95.39,1.55.32l.11,1.89,1-.11c-.33.64-.83.6-1.42.67,0-3.22-4.33-2.71-6.41-5.07-.55.46-.28,1-.32,1.54l.55.43-.79,1-.55-.44.79-1-3.21-2.54c-1.07.23-2.31,0-2.76,1.22l-5-5.74,1-.11.11,1,1-.12c.64.33.51,1,.56,1.34,1.34-.55,4.58,1.48,4.19-1.89l4.2,2.42c1.14.37,3.4,4.32,5.53,2.77-.09-1.69-2.19-2.45-3.32-3.53.42-.75,1.84-1.42,1.22-2.45l-2.76,1.23a4.39,4.39,0,0,1-.56-4.75l-1.89.12c.07.59.23,1.08-.32,1.54a49.62,49.62,0,0,1-6.52-6.07c-2.61.81-1.58-3.22-4.2-2.42-2.73,3.23,2.09,3.27,2.65,5.52l-2,.22c-.79-.81-2.45-1.22-2.21-2.65-1.12.73-1.79-.69-2.54-1.11.44-.55,1.16-1.24.67-2l1-.12-.34-3.87-1,.12a6.3,6.3,0,0,1-2.22-2.66c-1.35-1.24-7.32-1.65-4.08-1.43l-.55-.44.87-1.1.56.44c-2.78-4.9-8.46-2-12-2.52-2.89-.66-6-4-7.84-5.31l-1,.12c-.5-2.55-4.46-3-4.1-5.95l-.21-1.78c-.37-.66-1.05-.48-1.45-.43l-.21-.88c-1.47.27-3.41,0-4.08,2l-1.1-.87c-.4,0-1-.09-1.34.55.41-.75,1.75-1.3,1.11-2.53,1.34.34,1.57-1.09,2.21-1.67.32-1.54-1.52-1-2.45-1.22v-3.41c3-.14,4.31-4.31,6.18-5.53l-.88-3.21,2.31,2.54c2.19-.05,1.08-2.73,2.88-3.64,1.1,0,3.06.44,3.09,1.54.55.44,1.23,1.17,2.09.76l.12,1.9c2,2.87,6.57,3,9.49,5.72C276.28,216.56,279.37,219,278.17,220.75Zm17,37.75.44-.55,1.11.87Zm3.09,1.54-.09-.78.44.34Zm-14-11.81,1.66,1.31-2-.87ZM280,244.82l1-.12,1.1.88ZM577.78,458.9l-.55-.43.87-1.11.55.44Zm13-1-.55-.44.87-1.11.55.44Zm55,19.29-.56-.44.88-1.11.55.44ZM617.94,441.1l-2-.67c1.53.12,1.86-3,3.65-1.43l-2,.23Zm4.31,0c-.39,0-1.07.23-1.43-.23.22-.73.84-.61,1.32-.76Zm2.77-1.22,1.1.87-2.32.67Zm-49-33.63-.79.09c.81-1.7-.68-4.14.13-5.83Zm-.23-7.2-1.11-.87.88-1.1A1.2,1.2,0,0,1,575.74,399.05Zm-.11-4.4-.12-1.89,1.55,1.23Zm-7.62-17a198.75,198.75,0,0,1,3.1,28.2c-2.18-.65-.23-2-1.78-3.2-1.76-.5-1-3.1-3.2-2.54,1.23,3.67,1.19,6-.33,9.27,1.11,2.67.89,6.82,3.32,7.84-2.11-.06-4.1,3.58-5.74.67l-.67-10.06c1.27-6.36-1.35-11.68-1.65-17.66.93.19,3.43-.7,2.19-2.77l3.21-.87c-1.06-.48-3.59-4.1-5.63-2.65l-.34-3c3.14-.57,1.54-4,2.21-6l.67,5.74,2-.23-1.86,1.22c.78,3.32,2.7-.92,4.39-.11-.61-1.42.08-2.6.13-3.9-.08-.46-.15-.95-.24-1.4A3.09,3.09,0,0,1,568,377.61ZM331.72,222.36l-2.44-.32.35-.44Zm221.61,180.7.44-.55-.32,1.54Zm-.22-6.29.43,2.86-.55-.44C552.89,398.4,552.27,397.37,553.11,396.77ZM332.37,219.27a1.2,1.2,0,0,1,1.65,1.32l-1,.11C332.31,220.48,332.43,219.87,332.37,219.27Zm-.32-2.77c2.13-.65,3.89.75,5.86,1.23C335.86,219.17,333.75,218.21,332.05,216.5ZM553.22,393.44l-.24,1.44-.11-1ZM552,390.68l-.23-2,1.1.87Zm-.55-3.85-.12-1.89.44.35Zm9.81.76.88-1.1.56.44-.88,1.1Zm-9.93-10.38-.11-1,.44-.55Zm-1-8.71.44-.55-.21,2.53ZM373,222.88l.88-1.1.55.43-.88,1.11ZM561.48,372.12l-.12-1,.55.44C561.5,372.32,561,373.69,561.48,372.12Zm-11.94-10.35-.44-.35.79-1,.44.35ZM566.9,373.9c0-.5-.22-1.08.32-1.54l.23,2Zm7.4,5-.55-.44.87-1.1.55.43ZM548,356.23l.43-.55.44.35ZM383.5,221.66l-.55-.44.87-1.1.56.44Zm-13.13-8.61a4.41,4.41,0,0,0-3.56-2.09,1.31,1.31,0,0,0-.32,1.54,3.44,3.44,0,0,0-3.64-1.08v-.9c-.94-2-3.08-4.06-5.74-2.75-.46.36-.28,1-.23,1.43,5.08.62,7.09,9.21,13.49,8.17l-.23-2c1.25-.45,3.25.42,3.75-1.34-1.5,3.48,3.31.82,4.31,3.41-1.92-.08-4.25-1.21-5.86-.32l.12,1c1.08.67,3.67-.33,3.64,2-2.71-4.3-6.68,2.08-9.5-2.31-6,2.3-9.88-.45-16,.46-2.45-4.63-7.16-1.18-10.17-3.74.66-.37.48-1.06.33-1.54h-3.42l.32,1.86c-4.64.64-3.92-4.35-8.27-3.85-.31.84.75,1.32,1.19,1.67-6.2-.79-12.16-2.8-18.32-4.09-2.78-.58-6,1-8-1.88-8.32,3.48,5.1,2.42,3.65,6.3-5.7,2-9.34-5.23-14.81-2.19-1.76-.5-1-3.1-3.2-2.54.39-.95,1.54-.58,2.33-.67l-.12-1c-.46-.55-.95-.39-1.54-.32l-.11-1c-1,.32-2.51,0-3.21.88-1.84-2-4.34-1.1-6.52-1.75-2.11.85-3.7-4.19-5.4-.68-2.83-2.78-7.35.65-10.28-1.31l.12,1.89c-.71,0-3,1.05-4-.44-3.62-1.79-6.37-6.48-6.52-10.38-.4,0-1.08.23-1.45-.43l.35-.44,1.65,1.31c2.29.74,2.7-1.82,4.08-2.88-.34-2.07-.22-4.49-1.22-6.18-.5,0-1.08.23-1.54-.32,6.61-2.68-1.62-7-.23-10.61-3.11-6.06,6.46-3.16,7.26-9.17l.12,1c2.71.89,5-2.49,6.3-3.64l1-.12.11,1.9c1.77-.41,3.34,2.82,4.43.09-.07-.6.06-1.21-.67-1.43l.88-1.11c.46.55.95.4,1.54.33.05,1.3-1.46,2.07-1.11,3.43,2.24,3.76,6.42,1.67,9.5,2.31,1.35,3.06,4.73-.75,6.09,2.31,3-.66,5,3,8.39,1.43,14.11,5.78,29.5,7,43.61,12.79l-6.73-.12.11,1c.45.35,1.24,1.16,2,.67-2.3,2.67-3.84-2-6.41-.76,1.55-2.19,2.5,1.61,4.42.09-2-5-6.33.73-9.81-.77l.09.79c.64,1.23,1.89.79,3,.76,2.54,2,6.39,2.36,8.15,3.77.82.1,1.94-.63,2.45.31-1,.32-1.88,1.93-2.77,1.23l-.11-1c-.84-.31-1.32.75-1.76,1.31l-.23-2c-1.52-1-2.83.63-4.19,1,0,.4,0,1.1.55,1.35l-4.2,1-.11-1-2.86.43.12,1-3.44-.21.12,1c5.74.24,10.64,2.68,15.9,4-.39,1-2.43.59-1.66,2.1l3-.34c2.36-3,5.18.5,8.08-.44,1.07,2.28.35,5.68,3.87,4l-.23-2,5.62,1.75c-.44.55-1.16,1.24-.76,2.1,1,.78,2.8,1.68,4,.44l-.2-.88c-.38-.66-.95-.39-1.45-.43,1.14-.54.38-1.85,1.22-2.46.59,3.35,4.07,1.44,5.74,3.65-.55.47-.4.95-.33,1.54a31,31,0,0,0,12.7,4.85C375,211.51,372.18,210.54,370.37,213.05Zm-2.88.24-.88,1.1-.55-.43.87-1.11Zm-29.4-19.86-2,.23.44-.55C337.06,193.15,337.63,192.88,338.09,193.43ZM560.59,361l-.45-.35.88-1.11.44.36ZM547.1,348.51l-.55-.44.79-1,.55.44ZM388.58,219.57l-.56-.44.88-1.1.55.43Zm-7-6.42-.55-.44.79-1,.55.44ZM565.22,358.54l-.55-.43.78-1,.56.44ZM545,339.13l-.12-1,.55.44ZM392.66,216.68l.78-1,.56.44Zm-12.93-11.13-.07-.3-1.48,0a1.21,1.21,0,0,0,1.34-.55l.14.58,2.95.06ZM377.2,201l-.12-1c.51.05,1.08-.22,1.54.33Zm8.06,6.39c-.55-.43-1.41-.94-1.22-1.86.8.81,2.62.09,2.21,1.75Zm7.4,5,.87-1.1.44.35-.87,1.1ZM283.52,123.24l-.78,3-.55-.44a28.18,28.18,0,0,0,1.33-2.55l.54-2.08A6.39,6.39,0,0,1,283.52,123.24Zm-2.44-2.64-.55-.43c-.53-1.15.89-1.81,1.2-2.65Zm-.11-5.3-1.89.12c1.87,1.49-1.11,2.54-.53,4.07l-.55-.43c1.42-1.58-1.22-1.87-.79-3.32l3.09-1.87Zm-2.33-3.64-.55-.44.87-1.11.55.44Zm-74.35-59.8v0h0a5.34,5.34,0,0,1-.42.55c.34,1.17.08,2.4,1.34,2.86L204,56.83c-.46-.54-1-.28-1.54-.32,1.31-.75-1.41-4.53,1.85-4.63l0,0c-.22-1.07,0-2.29-1.31-2.64,2.74-.52,1.61-3.39,3.85-4.86C206.39,47,206.14,49.67,204.29,51.86Zm-36.23-36.4c-.91-1.8-3.59-.68-3.75-3,2,1.37,4.73.15,6.6,1.64ZM552.51,320.8c2-2.23,1.13,1.07,2.1,1.66Zm5.41-.37a25.24,25.24,0,0,1,1,5.44l-.24-2-1.86.31-.12-1a2.69,2.69,0,0,0,1.22-2.79c-.29-1-.59-2-.9-3.06A11.11,11.11,0,0,1,557.92,320.43ZM556.24,315c-1.89-.78-1.11-1.78-.87-3.21C556.25,312.44,556,313.87,556.24,315Zm-1.66-6.53c-.59.07-1.08.23-1.54-.32.91-2.51-.75-4.73-1.33-7.17C553.65,303,553,306.1,554.58,308.42Zm-4.31-12a2.77,2.77,0,0,1-.66-1.47,2.46,2.46,0,0,1,.66,1.47c.73,1,1.68,1.85.88,3.17C550.32,298.82,550.46,297.53,550.27,296.42Zm10.49,10.78-.55-.44-1.77-6.61Zm-12.69-16.88.87-1.11.44.36-.87,1.1Zm9.61,7.61c-1-1-.81-2.61-1.45-3.84C557.25,295.07,557,296.7,557.68,297.93ZM556,292.3l-.55-.43.87-1.11.56.44ZM261.47,22.57l.44-.55c1.32.14,3-1.06,4,.44C264.86,23.28,262.54,24,261.47,22.57Zm61.74,18.51.55.43h-.9Zm-22-6.28,3,.76-2.88.23ZM541.51,242.53l-1-.79-.23-2Zm-2.09-5.08c-1.34-2.85-4.21-5.12-4.31-8.62C536.35,231.79,538.54,234.25,539.42,237.45Zm-5-10c-1.58-3.22-3.9-6-4.54-9.7-1.78-3.21-3.64-6.3-5.42-9.5l1,.78C528.67,214.93,532.19,220.94,534.44,227.4Zm-11.16-21.05.54.42a.58.58,0,0,1-.54-.42c-.42-.35-.78-.77-.57-1.36C523.43,205.19,523.15,205.88,523.28,206.35ZM522,203.68l-.55-.44.88-1.11.55.44Zm-.34-3-.88,1.1-.44-.35.88-1.11Zm-5.63-7-1.22-1.87,1.11.87ZM332,45.37c2.58-.3,4.67,1.36,7,2.1A6.48,6.48,0,0,1,332,45.37ZM494.21,160.86l-.55-.44.87-1.11.55.44Zm-.67-1.43L493,159l.87-1.1.55.44Zm-7.75-8.83-.55-.44.79-1,.55.43Z"/><path class="cls-2" d="M456,516.66l-.68-.11c.07.07.16.1.23.18A2.22,2.22,0,0,1,456,516.66Z"/><path class="cls-2" d="M742.79,451.92v0S742.78,451.91,742.79,451.92Z"/><path class="cls-2" d="M164.46,80.38c2,0,3.62.88,5.86.32C168.64,80.09,166.19,78.88,164.46,80.38Z"/><path class="cls-2" d="M711.12,441l-.19,0a.13.13,0,0,1,0,.06Z"/><path class="cls-2" d="M723.71,441.45l2.34.23-6-1.31.12,1-1,.12,1.42,2.74C719.86,442,722.61,442.39,723.71,441.45Z"/><path class="cls-2" d="M518.88,507.41l-.39-.11,0,.12A2.32,2.32,0,0,0,518.88,507.41Z"/><path class="cls-2" d="M634.87,637c.33-.64.83-.6,1.42-.67-.59.07-1.07.23-1.54-.32Z"/><path class="cls-2" d="M602.66,661.06l1.1.87a6.17,6.17,0,0,0,.73-.38A2.5,2.5,0,0,0,602.66,661.06Z"/><path class="cls-2" d="M601,654.53l-.79,1,1,.79c.06-1.41-.66-3-.41-4.45A3.44,3.44,0,0,0,601,654.53Z"/><path class="cls-2" d="M600.83,651.7s0,.1,0,.16A.94.94,0,0,0,600.83,651.7Z"/><path class="cls-2" d="M518.88,507.41l1.17.33A1.18,1.18,0,0,0,518.88,507.41Z"/><path class="cls-2" d="M623.05,680.46a1,1,0,0,0-.62.57A1.51,1.51,0,0,0,623.05,680.46Z"/><polygon class="cls-2" points="377.98 53.17 377.43 52.74 376.64 53.73 377.19 54.17 377.98 53.17"/><path class="cls-2" d="M339,39.36c-2.05-.68-4.26-.79-6.36-1.28C334.39,39.77,336.81,39,339,39.36Z"/><path class="cls-2" d="M339,39.36a9,9,0,0,1,2.23,1A4,4,0,0,0,339,39.36Z"/><polygon class="cls-2" points="852.47 460.91 854.8 461.14 854.24 460.7 852.47 460.91"/><path class="cls-2" d="M824.21,460.28c-2.61-.81-6.07,3.11-8.72.11a1.59,1.59,0,0,1-.32,1.54c-2.35,1.38-3.62-1.79-5.54-1.87l.12,1,1-.11c-.5,1.76,1.38,3.25,2.76,3.09,1.73-2.41,4.55-.53,6.73-.78l1,.79a1.53,1.53,0,0,1,.32-1.54c1.25-.46,2,1.06,3.11,1.74.59-1.88,2.4-1,3.73-1.54l.12,1c1.45-.47,3.77.46,4.64-1.54,5-.18,11.07.31,16.23-1.88C841.46,456.87,832.26,460.54,824.21,460.28Zm20.65-.9.56.44-.79,1-.56-.44Z"/><rect class="cls-2" x="303.44" y="28.14" width="1.41" height="0.7" transform="translate(92.61 248.88) rotate(-51.53)"/><path class="cls-2" d="M292.39,26.2l-.44.55,2.11.41A3.36,3.36,0,0,1,292.39,26.2Z"/><path class="cls-2" d="M294.06,27.16c.8.22,1.64.27,2.41.47Z"/><polygon class="cls-2" points="280.91 23.22 280.36 22.78 279.57 23.78 280.12 24.21 280.91 23.22"/><path class="cls-2" d="M277,22.67c-1.52-.13-3.07-1.35-4.31,0C273.69,24.16,276,23.29,277,22.67Z"/><polygon class="cls-2" points="793.85 449.36 793.29 448.92 791.4 449.04 793.85 449.36"/><path class="cls-2" d="M787,449.15c-1.8,0-3.58-1.39-5.3.12C783.37,449.87,785.53,450.33,787,449.15Z"/><path class="cls-2" d="M553.91,269.78c1.16-1.24-.68-2.33-.9-3.4C551.85,267.61,553.68,268.7,553.91,269.78Z"/><polygon class="cls-2" points="779.71 448.59 780.15 448.94 781.03 447.84 780.59 447.49 779.71 448.59"/><path class="cls-2" d="M771.76,447.51a4.62,4.62,0,0,0,1,0C772.53,447.31,772.24,447.27,771.76,447.51Z"/><path class="cls-2" d="M774,449.26l2.3-1.77c-1-.52-2.29-.14-3.53,0C773.22,447.84,773.31,448.85,774,449.26Z"/><polygon class="cls-2" points="556 271.44 555.22 272.44 555.77 272.87 556.56 271.88 556 271.44"/><polygon class="cls-2" points="778.37 453.46 776.39 453.69 777.5 454.57 778.37 453.46"/><path class="cls-2" d="M767.33,446.52l-.43.55,1.1.88.88-1.11C768.41,446.29,767.84,446.56,767.33,446.52Z"/><rect class="cls-2" x="772.88" y="452.01" width="1.41" height="0.7" transform="translate(-60.84 779.18) rotate(-51.71)"/><path class="cls-2" d="M767,451.47l-1.32,1.66.56.44c1-3.13,2.84,1.17,4.28-1.1a4.22,4.22,0,0,1-3-.56Z"/><rect class="cls-2" x="758.86" y="443.47" width="1.27" height="0.7" transform="translate(-59.84 763.98) rotate(-51.64)"/><path class="cls-2" d="M756.4,451.7l4.64-1.54a4.13,4.13,0,0,1-3-.56Z"/><rect class="cls-2" x="754.78" y="445.45" width="1.27" height="0.71" transform="translate(-62.55 762.52) rotate(-51.71)"/><polygon class="cls-2" points="564.85 297.5 565.72 296.39 565.17 295.96 564.3 297.06 564.85 297.5"/><path class="cls-2" d="M567.06,303.56l-1,.12c0,2.31,1.19,5.07,1.88,7.6C569.5,308.19,566.46,307,567.06,303.56Z"/><polygon class="cls-2" points="767.9 464.41 768.42 464.52 768.34 463.86 767.9 464.41"/><polygon class="cls-2" points="768.46 464.85 769.45 464.73 768.42 464.52 768.46 464.85"/><polygon class="cls-2" points="746.9 445.08 746.35 444.64 745.48 445.75 746.03 446.19 746.9 445.08"/><path class="cls-2" d="M741.83,443.76l-.43.56,3,.55C743.62,444.46,743,443,741.83,443.76Z"/><polygon class="cls-2" points="742.71 446.97 742.16 446.53 740.85 448.19 741.4 448.63 742.71 446.97"/><path class="cls-2" d="M738.63,445.54l.87-1.1L739,444A1.54,1.54,0,0,0,738.63,445.54Z"/><path class="cls-2" d="M753.22,462.3c2,2.28,4.72,2.67,7.28,4C759.25,463.31,756.06,462.58,753.22,462.3Z"/><rect class="cls-2" x="731.03" y="441.38" width="1.27" height="0.71" transform="translate(-69.19 740.23) rotate(-51.56)"/><polygon class="cls-2" points="569.27 313.94 568.39 315.04 568.94 315.48 569.27 313.94"/><rect class="cls-2" x="765.28" y="469.4" width="1.27" height="0.7" transform="translate(-78.39 777.08) rotate(-51.52)"/><polygon class="cls-2" points="571.48 320.9 570.72 318.69 571.03 320.56 571.48 320.9"/><polygon class="cls-2" points="167.37 0.9 166.49 1.1 169.03 2.21 167.37 0.9"/><path class="cls-2" d="M571,325l.55.44-.23-2C570.73,323.9,570.88,324.38,571,325Z"/><polygon class="cls-2" points="755.55 470.25 756.1 470.7 756.97 469.59 756.42 469.15 755.55 470.25"/><polygon class="cls-2" points="704.95 431.1 704.6 431.53 705.5 431.53 704.95 431.1"/><path class="cls-2" d="M701.52,430.89l1.18-.14a1.08,1.08,0,0,1-.74-.41Z"/><path class="cls-2" d="M703.5,430.66l-.8.09A1.78,1.78,0,0,0,703.5,430.66Z"/><path class="cls-2" d="M572.81,328.07l-1.1-.87-.88,1.1a1.33,1.33,0,0,1,.67,1.43C574.25,330.11,571.39,329.64,572.81,328.07Z"/><path class="cls-2" d="M699.42,429.23c-1.65.49-2.65-2.1-4.52-.88,0,1.1,2,1.57,3.09,1.55Z"/><path class="cls-2" d="M692.46,427.13c-3.33-1-6.38-2.17-9.7-3.19-.47.36-.29,1-.24,1.43.4,0,1.08-.22,1.54.33,0,.5.23,1.07-.43,1.45C686.86,426.47,688.85,427.15,692.46,427.13Z"/><path class="cls-2" d="M574.26,336.23a18.34,18.34,0,0,1-.89-3.4C573.55,333.51,573.27,335.44,574.26,336.23Z"/><path class="cls-2" d="M681.3,423.51a10.72,10.72,0,0,0-6.94-1C676.59,423.55,679.19,424.35,681.3,423.51Z"/><path class="cls-2" d="M574,338.56a1.54,1.54,0,0,0-.32,1.54l1.43-.66Z"/><rect class="cls-2" x="672.66" y="419.63" width="1.41" height="0.56" transform="translate(-73.77 687.38) rotate(-51.64)"/><path class="cls-2" d="M574.49,342.53c-.66.37-.39.94-.35,1.34l1.34-.56Z"/><path class="cls-2" d="M686,430.79l-.44-.35-.13.17.57.18Z"/><polygon class="cls-2" points="669.27 420.09 667.72 418.87 667.28 419.42 669.27 420.09"/><path class="cls-2" d="M575.92,350.48h.9l-.35-3.87A2.56,2.56,0,0,0,575.92,350.48Z"/><path class="cls-2" d="M657.9,418.1h3.42C660.22,418.13,658.84,416.69,657.9,418.1Z"/><path class="cls-2" d="M576.15,352.46c.2.88-.28,1.94.67,2.33C577.34,354.13,576.72,353.1,576.15,352.46Z"/><polygon class="cls-2" points="132.17 2.68 131.18 2.79 132.72 3.12 132.17 2.68"/><polygon class="cls-2" points="655.25 416 654.37 417.11 654.93 417.54 655.8 416.44 655.25 416"/><polygon class="cls-2" points="659.33 421.75 660.11 420.75 659.56 420.31 658.78 421.31 659.33 421.75"/><path class="cls-2" d="M132.49,5.45l.11,1,1.23-.14A4.25,4.25,0,0,1,132.49,5.45Z"/><path class="cls-2" d="M134.58,6.21l-.75.09A.91.91,0,0,0,134.58,6.21Z"/><polygon class="cls-2" points="645.99 415.67 642.87 413.93 642.44 414.48 645.99 415.67"/><path class="cls-2" d="M130,8.65l3.64,2C133.43,9.25,131.55,7.76,130,8.65Z"/><rect class="cls-2" x="128.33" y="5.81" width="1.27" height="0.7" transform="translate(44.26 103.6) rotate(-51.74)"/><polygon class="cls-2" points="579.03 365.17 578.48 364.73 578.59 365.72 579.03 365.17"/><polygon class="cls-2" points="711.05 470.61 711.49 470.96 712.36 469.86 711.92 469.51 711.05 470.61"/><path class="cls-2" d="M648.52,421.09l-.55-.43-.76.95.75.2Z"/><polygon class="cls-2" points="578.47 368.14 578.7 370.12 579.58 369.92 579.37 368.14 578.47 368.14"/><path class="cls-2" d="M628.65,411.26c1.71.39,3.49.42,5.28.8C632.56,410.28,630.51,411.14,628.65,411.26Z"/><path class="cls-2" d="M628.65,411.26a8.1,8.1,0,0,1-2.77-1.08A2.91,2.91,0,0,0,628.65,411.26Z"/><polygon class="cls-2" points="579.14 373.88 580.48 374.23 579.49 373.44 579.14 373.88"/><path class="cls-2" d="M624.11,410.39l-.12-1a120.42,120.42,0,0,1-22.08-6.16c-5.84-1.93-12.35-1-17.89-3.74a5.41,5.41,0,0,0-.65,3.08c3.16-2.17,7.53,0,11.14,0,6.32.88,11.36,5.4,18,4.73,2.59,3.31,7,0,9.61,3.3Z"/><polygon class="cls-2" points="582.01 382.28 581.14 383.38 581.7 383.82 582.57 382.71 582.01 382.28"/><polygon class="cls-2" points="582.37 386.15 581.58 387.14 582.13 387.58 582.92 386.58 582.37 386.15"/><path class="cls-2" d="M582.48,391.45c-.35.44-1.16,1.24-.67,2C583.37,394,582.81,391.71,582.48,391.45Z"/><polygon class="cls-2" points="583.15 397.19 582.36 398.19 582.91 398.62 583.7 397.63 583.15 397.19"/><polygon class="cls-2" points="565.14 388.15 565.7 388.58 566.57 387.48 566.02 387.04 565.14 388.15"/><rect class="cls-2" x="566.75" y="396.52" width="1.41" height="0.56" transform="translate(-95.83 595.58) rotate(-51.65)"/><rect class="cls-2" x="565.28" y="403.95" width="1.27" height="0.71" transform="translate(-102.71 595.8) rotate(-51.52)"/><path class="cls-2" d="M616.67,517.39l-.43-2.86-1,.11C614.63,515.41,616.27,516.53,616.67,517.39Z"/><path class="cls-2" d="M617.13,522.25l1,.79c0-.51.08-1-.56-1.35Z"/><polygon class="cls-2" points="617.02 525.57 618.56 525.89 617.46 525.02 617.02 525.57"/><rect class="cls-2" x="620.8" y="548.72" width="1.41" height="0.7" transform="translate(-194.57 696.6) rotate(-51.71)"/><path class="cls-2" d="M595.27,542.14l.43-.54-.48-.54-.5.64Z"/><path class="cls-2" d="M535.19,525.84l6,9.95C540.66,532.33,537.08,529.13,535.19,525.84Z"/><path class="cls-2" d="M558,571.75l.12,1.89c.92.19,1.42-.67,1.86-1.22-1.33-1.95-2.66-3.9-4.08-5.74l.21,1.78c-1.32-1.05-3.78-3.18-4.07-5.75,1.54-3.09-2.38-4-2.22-7-1.19-.77-3,.14-4-1.54-.49-.75.23-1.44.67-2-.74-2.92-3.65-4.69-4.31-7.73-3.58.22-1.8-4.3-2.76-6.5l.44-.55c-4.35-2-6.27-7.3-9.41-11-3.31-2.63-4.94-7.15-7.4-9.28l-.87,1.11c3.56,6.41,7.79,12.64,10.51,19.64,1.21,1,2.8,1.68,2.41,3.54.33-.64.84-.6,1.35-.56,2.73,1.09-.5,2.67,0,4.31,5.68,4,5.92,13,14.25,13.8.73,2-1.84,1.41-2.31,1.77,1.8,2.5,3.73,5.28,4.31,7.72C554.43,569.66,557.46,569,558,571.75ZM544.82,550l.44.35-.87,1.1-.44-.35Z"/><rect class="cls-2" x="521.86" y="514.63" width="1.27" height="0.7" transform="translate(-205.67 604.31) rotate(-51.58)"/><polygon class="cls-2" points="53.76 145.5 53.32 146.05 54.31 145.94 53.76 145.5"/><polygon class="cls-2" points="634.74 610.78 634.31 607.93 633.52 608.92 634.74 610.78"/><polygon class="cls-2" points="49.45 145.5 48.45 145.62 48.02 146.17 49.45 145.5"/><path class="cls-2" d="M542.27,536.66c-.6,1.11,1.35,1.62,2.06,2.71A4.28,4.28,0,0,0,542.27,536.66Z"/><path class="cls-2" d="M544.33,539.37a8.76,8.76,0,0,1,.26.93A1.36,1.36,0,0,0,544.33,539.37Z"/><polygon class="cls-2" points="569.01 558.73 569.56 559.17 570.44 558.07 569.88 557.63 569.01 558.73"/><polygon class="cls-2" points="634.62 614.11 635.17 614.54 635.96 613.55 635.41 613.11 634.62 614.11"/><rect class="cls-2" x="505.66" y="513.16" width="1.41" height="0.57" transform="translate(-210.48 591.93) rotate(-51.65)"/><path class="cls-2" d="M635.4,620.84l-.87,1.1c.46.55,1,.39,1.54.32l-.43-2.85-.79.09C635.38,619.74,635.36,620.44,635.4,620.84Z"/><polygon class="cls-2" points="494.66 514.6 496.1 514.84 495.1 514.05 494.66 514.6"/><polygon class="cls-2" points="490.15 514.63 491.7 514.95 491.14 514.51 490.15 514.63"/><polygon class="cls-2" points="485.4 515.18 485.96 515.62 486.83 514.51 486.28 514.07 485.4 515.18"/><path class="cls-2" d="M561.3,579.59l.12,1.89c.47-1.06,1.64-.49,2.41-.78-2.42-1,2.1-2.65-.87-3.21C562.23,578.18,563,580,561.3,579.59Z"/><path class="cls-2" d="M470.48,515.4l-.87,1.11c2.92.16,7.24.16,10.17.32l1.31-1.65c-.75.48-1.54-.33-2-.68A9.2,9.2,0,0,1,470.48,515.4Z"/><path class="cls-2" d="M565.05,582.56c-.94.52-.21,1.63-.23,2.34-.92-.2-1.42.67-1.86,1.22,3.45,2.91,2.72,8.81,7.95,9.71-.2.92.66,1.43,1.22,1.86l-.44-3.76c-1.81-.89-3.12-3.55-4.54-5.39C568.73,586.55,567.48,583.59,565.05,582.56Z"/><path class="cls-2" d="M580.2,600.67c0,1.1,1.28,2.45,2.41,3.53,1.88-2.83-2.64-3.71-.87-6.62l-1.89.12c0-.4.09-1-.56-1.34C577.43,598.48,581.24,598.44,580.2,600.67Z"/><path class="cls-2" d="M6.49,142.76c.57,1.41,2,1.16,3,1.58A4.06,4.06,0,0,0,6.49,142.76Z"/><path class="cls-2" d="M9.46,144.34a3.53,3.53,0,0,1,.79,1.4A1.33,1.33,0,0,0,9.46,144.34Z"/><path class="cls-2" d="M642.5,649.1l1.66,1.32a2.65,2.65,0,0,0-1.34-3.76C641.78,647.28,642.6,648.29,642.5,649.1Z"/><path class="cls-2" d="M574,593.06c.64.33.62,1,.67,1.43l.43-.55Z"/><path class="cls-2" d="M644.48,653.19c.37.66,1,.48,1.45.43.31-.83-.67-1.43-1.11-1.78C644.16,652.22,644.43,652.79,644.48,653.19Z"/><path class="cls-2" d="M647.7,660.24l.2.88a1.09,1.09,0,0,0,1.23-1.55A1.33,1.33,0,0,0,647.7,660.24Z"/><polygon class="cls-2" points="590.36 613.03 589.68 615.01 590.91 613.47 590.36 613.03"/><path class="cls-2" d="M572.91,601c.1,1.7,2.66,2.1,2,4.09l1-.12C574.93,603.69,574.92,601.88,572.91,601Z"/><path class="cls-2" d="M462.88,517.29l3.87-.35c-1.19-.76-2.64-.29-3.88-.55Z"/><path class="cls-2" d="M649.36,666.77c.93.19,1.8-.92,1.32-1.66l-.45-.35Z"/><path class="cls-2" d="M579.2,608.51c-.39,0-1.08.22-1.54-.33l-.12-1c-.56,1.16-.33,4,.23,5.39.91,1,2.47.76,2.79,1.89C580.74,612.31,581.49,610,579.2,608.51Z"/><path class="cls-2" d="M580.56,614.48a8,8,0,0,0,0,1.2A2.43,2.43,0,0,0,580.56,614.48Z"/><polygon class="cls-2" points="6.72 153.37 6.17 152.93 5.3 154.04 5.85 154.48 6.72 153.37"/><path class="cls-2" d="M652.56,677l.55.44-.22-2A1.56,1.56,0,0,0,652.56,677Z"/><polygon class="cls-2" points="16.12 171.24 16.13 172.14 16.56 171.59 16.12 171.24"/><polygon class="cls-2" points="587.17 627.04 586.73 627.6 587.61 627.39 587.17 627.04"/><path class="cls-2" d="M655.76,683c-.15-.48,0-1.09-.75-1.31C655.16,682.14,655,682.76,655.76,683Z"/><polygon class="cls-2" points="589.59 631.48 589.71 632.47 590.14 631.91 589.59 631.48"/><polygon class="cls-2" points="444.43 516.52 444.98 516.96 445.77 515.97 445.22 515.53 444.43 516.52"/><path class="cls-2" d="M592.15,637.1c-.6-.84-.33-3.68-2.1-1.67Z"/><polygon class="cls-2" points="589.38 638.32 588.95 638.87 589.94 638.76 589.38 638.32"/><path class="cls-2" d="M598.12,650.45l.55.44c-.06-2.2-2-4.48-3.76-6.39C594.16,647.5,599.4,647.69,598.12,650.45Z"/><polygon class="cls-2" points="591.37 642.4 591.72 641.96 591.27 641.62 591.37 642.4"/><path class="cls-2" d="M642.41,685.53l1,.81c-.08-.76.07-1.87,1.39-1.59l-1.1-.88Z"/><path class="cls-2" d="M643.52,686.4l-.08-.06C643.5,687,643.73,687.4,643.52,686.4Z"/><polygon class="cls-2" points="645.06 691.04 645.3 689.61 644.95 690.05 645.06 691.04"/><polygon class="cls-2" points="426.22 514.33 425.34 515.43 425.9 515.87 426.77 514.76 426.22 514.33"/><path class="cls-2" d="M635.13,689.28c2-.93-.7-2.52,0-3.41C633.33,686.78,635.1,688.18,635.13,689.28Z"/><polygon class="cls-2" points="641.42 693.37 642.21 692.37 640.55 691.06 641.42 693.37"/><path class="cls-2" d="M634.36,691.38c1.28-.25-2.25-2.15-2.32-3.64C632.2,689.12,632.12,691.94,634.36,691.38Z"/><polygon class="cls-2" points="636.12 693.48 636.46 693.04 635.91 692.6 636.12 693.48"/><polygon class="cls-2" points="633.7 694.26 634.25 694.7 635.13 693.6 634.57 693.16 633.7 694.26"/><path class="cls-2" d="M631.6,696.92l.23-2.34h-.9C631.13,695.46,630.65,696.53,631.6,696.92Z"/><path class="cls-2" d="M623.21,687.76c-.65,2.18,2.53,3.62,3.2,6v-3.42l-1.79.21C624.41,689.43,624.56,688.1,623.21,687.76Z"/><polygon class="cls-2" points="624.75 695.81 625.3 696.24 626.09 695.25 625.54 694.81 624.75 695.81"/><path class="cls-2" d="M303.33,496.1l-.35.44,2.44.32C304.87,496.42,304.18,495.7,303.33,496.1Z"/><path class="cls-2" d="M280.13,491.57c.75-.49,1.43.24,2,.67l1.22-1.54C282.19,489.42,281.1,491.26,280.13,491.57Z"/><polygon class="cls-2" points="278.8 488.71 277.92 489.82 278.48 490.26 279.35 489.15 278.8 488.71"/><polygon class="cls-2" points="96.3 344.19 95.75 343.76 94.87 344.86 95.42 345.3 96.3 344.19"/><path class="cls-2" d="M272.94,488.39c-2.21-1.75-4.46-3.89-7.28-4C267.56,485.21,270.28,489.7,272.94,488.39Z"/><path class="cls-2" d="M253.39,478.12l-.2-.87c-.75.48-1.46-.44-2-.88.71.92.88,4.11,3.32,3.53l1-.11-.2-.88C254.54,479.39,253.94,478.56,253.39,478.12Z"/><polygon class="cls-2" points="248.99 479.14 249.55 479.57 250.42 478.47 249.87 478.03 248.99 479.14"/><path class="cls-2" d="M239.49,475.92c.47.55,1,.29,1.43.24.31-.84-.55-1.34-1.11-1.78C239.27,474.85,239.42,475.33,239.49,475.92Z"/><polygon class="cls-2" points="235.85 473.94 236.84 473.83 236.29 473.39 235.85 473.94"/><polygon class="cls-2" points="218.17 463.36 219.16 463.24 218.61 462.8 218.17 463.36"/><path class="cls-2" d="M213.54,461.49c.47.54,1,.27,1.54.32l-.11-1A1.32,1.32,0,0,0,213.54,461.49Z"/><polygon class="cls-2" points="190 446.26 191.55 446.58 190.44 445.71 190 446.26"/><path class="cls-2" d="M248.54,15.74a35.88,35.88,0,0,1-4.42-1C245.48,15.3,247,17.42,248.54,15.74Z"/><path class="cls-2" d="M254.39,19.48l-.21.26.66.1Z"/><path class="cls-2" d="M242.92,13.09c-7.38-2.38-15.52-1.91-23-4a85,85,0,0,0,22.75,5.45Z"/><path class="cls-2" d="M219.93,9.07c-1.77-.65-3.53-1.32-5.3-2A26.92,26.92,0,0,0,219.93,9.07Z"/><path class="cls-2" d="M219.17,12.43l-2.53-.2C217.32,13,218.49,13.52,219.17,12.43Z"/><polygon class="cls-2" points="216.08 10.89 215.53 10.45 214.65 11.56 215.21 11.99 216.08 10.89"/><rect class="cls-2" x="203.19" y="3.43" width="1.27" height="0.7" transform="translate(74.62 161.47) rotate(-51.73)"/><path class="cls-2" d="M179.4,0c5.41,2.48,11.55,2.67,17.69,2.86C191.64.89,185,2.26,179.4,0Z"/><path class="cls-2" d="M190.35,7.05l-.55-.43-.74.94.71.24Z"/><polygon class="cls-2" points="276.56 123.13 276.66 123.92 277 122.58 276.56 123.13"/><polygon class="cls-2" points="371.34 200.7 373.44 201.46 372.33 200.59 371.34 200.7"/><path class="cls-2" d="M366.82,198.92l-.44.55,3,.56C368.6,199.62,367.94,198.19,366.82,198.92Z"/><path class="cls-2" d="M358.2,192.1c-.28,1-1.45.47-2.22.76,1.2,1.66,2,.67,3.33.11Z"/><path class="cls-2" d="M151.73,32.91l-.12-1a1.3,1.3,0,0,0-1.42.67l3.08,1.54A1.08,1.08,0,0,0,151.73,32.91Z"/><path class="cls-2" d="M169.52,65.15c-1.22-1-2.81-1.68-2.42-3.53-3.09,1.86-2.08-2.37-3.32-3.53.59-.07,1.08-.23,1.54.32l.44-.55c-3.7-.77-2-6.79-3.08-9.27-.75.49-1.46-.44-1.9-.79l-.2-.87c.48-.16,1.1,0,1.43-.67a1.32,1.32,0,0,0-1.55-.32c-1-2.79-1.3-6.07-2.88-8.4l-.11,3.33-1,.11c.52-1.57-1.42-.94-2.1-1.66,1.36,3,7.82,5.11,4,9.27,1.25,2.06,4.63,1,2.88,4.08h-.89c.75,1.31.65,3,2.32,3.64l1-.11c-4.49,4.53,3.8,5.88,4.87,9.07Z"/><rect class="cls-2" x="278.78" y="137.14" width="1.41" height="0.71" transform="matrix(0.62, -0.78, 0.78, 0.62, -2.11, 270.6)"/><path class="cls-2" d="M279.56,141.14c-1.74-.3-.77-3.12-2.45-1.22-.31.84.67,1.43,1.11,1.78C278.54,141.06,279.16,141.19,279.56,141.14Z"/><rect class="cls-2" x="330.5" y="181.55" width="1.27" height="0.7" transform="translate(-17.29 327.97) rotate(-51.53)"/><path class="cls-2" d="M156.15,45.94l1.55,1.22A1.08,1.08,0,0,0,156.15,45.94Z"/><polygon class="cls-2" points="280.43 143.45 279.87 143.01 279 144.12 279.55 144.56 280.43 143.45"/><path class="cls-2" d="M262.12,153.4c5.91-1.79,10.67-6.65,14.34-10.39-.55-.44-1.15-1.27-2.09-.76-.7,1.79-3.46,3-5.31,4.42a1.32,1.32,0,0,1,.67,1.43c-.43.55-.94,1.41-1.77,1.11,0-.4,0-1.1-.56-1.34-1.85.52.14,3-2.19,2.76l-.11-1c-.42.76-1.76,1.31-1.11,2.54C263.15,151.88,262.56,152.85,262.12,153.4Z"/><path class="cls-2" d="M220.22,105.3c-.58-2.44,2.12-4.26.12-6.73-.67,1.08.33,3.67-2,3.64l-.23-2-.33,5C218.7,105.17,219.62,104.47,220.22,105.3Z"/><path class="cls-2" d="M230.94,113.79a1.33,1.33,0,0,0,.66,1.42c2.39.63,1.71-1.7,3-2.85-2.92.74-6.09.21-8.59,1.1C227.61,113.67,229.12,114.5,230.94,113.79Z"/><path class="cls-2" d="M344.61,203.81a1.07,1.07,0,0,0,.61-.77l-.61.77Z"/><path class="cls-2" d="M345.22,203l1.06-1.33-.55-.44C345.25,201.72,345.39,202.44,345.22,203Z"/><path class="cls-2" d="M341.09,202.81c-.21,1.63,1.7,1.71,2.65,2.1l.87-1.1A3.23,3.23,0,0,1,341.09,202.81Z"/><polygon class="cls-2" points="347.06 205.03 349.04 204.8 347.94 203.92 347.06 205.03"/><polygon class="cls-2" points="343.63 199.61 343.07 199.17 342.2 200.28 342.75 200.71 343.63 199.61"/><polygon class="cls-2" points="309.93 176.34 309.38 175.9 308.5 177 309.05 177.44 309.93 176.34"/><polygon class="cls-2" points="258.9 137.73 258.35 137.29 257.47 138.39 258.02 138.83 258.9 137.73"/><path class="cls-2" d="M302.87,178.66c-.57-.63-2-1.07-1.66-2.21L305,176c-3.12-.14-6.22-2.59-8.94-1.87C301.55,173.3,297.71,180,302.87,178.66Z"/><path class="cls-2" d="M165.67,65.69c-2.27.37-1.8-2.49-3.76-3,.4,1.76,2.5,2.52,3.87,4Z"/><path class="cls-2" d="M333.14,200.83l-.44.55c.75.41,1.41,1.84,2.53,1.11A1.57,1.57,0,0,0,333.14,200.83Z"/><path class="cls-2" d="M257.24,139.82l-.88,1.11c.64.33.6.83.56,1.34l1-.12Z"/><path class="cls-2" d="M320.32,190.68c-1-.28-2-.87-3-.56,0,.4.22,1.08-.44,1.46C318.08,191.24,319.85,192.64,320.32,190.68Z"/><path class="cls-2" d="M316.68,188.69a1.33,1.33,0,0,0-1.43.67c.75-.49,1.54.32,2.1.76C317.28,189.53,317.32,189,316.68,188.69Z"/><path class="cls-2" d="M307.5,180.53l-.7.08A1.08,1.08,0,0,0,307.5,180.53Z"/><path class="cls-2" d="M305.52,180.76l1.28-.15a3.36,3.36,0,0,1-1.39-.84Z"/><polygon class="cls-2" points="263.2 145.45 263.99 144.46 263.44 144.02 262.65 145.01 263.2 145.45"/><path class="cls-2" d="M209.85,103.2c-1.23.64-3.39,1.09-3.53,3.32A4.91,4.91,0,0,0,209.85,103.2Z"/><polygon class="cls-2" points="165.67 70.01 166.89 71.87 167.32 71.32 165.67 70.01"/><polygon class="cls-2" points="297.57 174.46 296.69 175.57 297.25 176 298.12 174.9 297.57 174.46"/><rect class="cls-2" x="169.43" y="76.61" width="1.41" height="0.7" transform="translate(4.03 162.27) rotate(-51.52)"/><path class="cls-2" d="M297.68,184.08l-.44.55,5.43.88A4.67,4.67,0,0,0,297.68,184.08Z"/><polygon class="cls-2" points="334.47 212.31 335.46 212.19 334.91 211.76 334.47 212.31"/><path class="cls-2" d="M328.5,211c1-1-3.49-1.5-5.62-1.75C324.32,211.28,326.62,210.41,328.5,211Z"/><polygon class="cls-2" points="250.73 146.9 250.18 146.46 249.31 147.56 249.86 148 250.73 146.9"/><polygon class="cls-2" points="161.14 80.27 155.84 80.38 162.13 81.05 161.14 80.27"/><polygon class="cls-2" points="153.31 80.17 152.75 79.73 151.88 80.84 152.43 81.28 153.31 80.17"/><polygon class="cls-2" points="306.42 204.83 306.41 203.93 304.54 205.15 306.42 204.83"/><polygon class="cls-2" points="303.21 202.29 302.77 202.85 304.32 203.17 303.21 202.29"/><path class="cls-2" d="M291.41,200.86c-.56-.44-1.42-.94-1.22-1.87-.79.09-1.82.72-2.42-.12l-.79,1c1.2,1.66,6-.6,4.74,2.86a4.74,4.74,0,0,0,2.89.66c-1-1.49,3-2.65.09-3.52C293.43,200.12,292.73,201,291.41,200.86Z"/><polygon class="cls-2" points="233.39 151.32 231.41 151.55 233.51 152.31 233.39 151.32"/><rect class="cls-2" x="242.55" y="158.88" width="1.27" height="0.56" transform="translate(-32.56 251.01) rotate(-51.63)"/><path class="cls-2" d="M239.91,161.7c-1.34-.35-.8-1.72-1.86-2.2-.45,2.16-1.75,2.22-3.32,3.3A5.31,5.31,0,0,0,239.91,161.7Z"/><path class="cls-2" d="M289.74,203l-1.21-.1A1.26,1.26,0,0,0,289.74,203Z"/><path class="cls-2" d="M287.65,202.2l-.44.55,1.32.11A7.76,7.76,0,0,1,287.65,202.2Z"/><polygon class="cls-2" points="235.72 159.28 235.17 158.84 234.29 159.94 234.84 160.38 235.72 159.28"/><path class="cls-2" d="M128.13,80.18l-.44.56,2.42.12C129.67,80.51,128.88,79.7,128.13,80.18Z"/><path class="cls-2" d="M279.81,201.2l-.11-1c-.49.16-1.1,0-1.43.67A1.53,1.53,0,0,0,279.81,201.2Z"/><path class="cls-2" d="M230.21,161.92c-.66.38-.39,1-.43,1.46l.87-1.11Z"/><polygon class="cls-2" points="237.29 169.33 236.94 169.77 238.28 169.21 237.29 169.33"/><rect class="cls-2" x="231.44" y="164" width="1.41" height="0.7" transform="translate(-40.92 243.98) rotate(-51.55)"/><path class="cls-2" d="M214.86,163.61l.78,2.41c-.37-3.16,3.66-3,5.51-2.64,1.5.82,1.38,3.25,3.64,2a1.23,1.23,0,0,1-1.43-.23c-1.05-3,2.66-.42,3-2.86l-.88.2-.23-2a3.82,3.82,0,0,1-5.08,2.1c-1.18-.77-.1-3.5-2.32-2.74L217,161c.64.33.62,1,.66,1.43-1.15,1.24-2.77.32-3.87-.55-.48,1.06-1.54.58-2.42.78l.11,1c.33-.64.84-.6,1.43-.67.54,1.14-.8,1.7-1.11,2.54Z"/><path class="cls-2" d="M231.81,169.77l2.71-.13A10,10,0,0,0,231.81,169.77Z"/><path class="cls-2" d="M231.81,169.77l-11.86.57C223.7,172.58,227.91,170.4,231.81,169.77Z"/><rect class="cls-2" x="231.76" y="166.77" width="1.41" height="0.7" transform="translate(-42.88 245.57) rotate(-51.61)"/><polygon class="cls-2" points="119.3 79.3 118.75 78.87 117.87 79.97 118.42 80.41 119.3 79.3"/><polygon class="cls-2" points="213.19 157.08 212.76 157.63 214.18 156.96 213.19 157.08"/><polygon class="cls-2" points="217.73 167.69 216.86 168.79 217.41 169.22 218.29 168.12 217.73 167.69"/><path class="cls-2" d="M209.46,162.93c-2.42.78-1.25-3-3.55-2.1C207,161.51,208.13,165.29,209.46,162.93Z"/><rect class="cls-2" x="202.25" y="158.24" width="1.27" height="0.56" transform="translate(-47.27 219.47) rotate(-51.7)"/><polygon class="cls-2" points="201.95 156.98 201.16 157.97 202.5 157.41 201.95 156.98"/><polygon class="cls-2" points="214.21 171 213.77 171.55 218.72 170.98 214.21 171"/><polygon class="cls-2" points="283.03 228.92 283.58 229.36 284.46 228.25 283.9 227.81 283.03 228.92"/><polygon class="cls-2" points="298.84 244.13 299.83 244.02 298.73 243.14 298.84 244.13"/><polygon class="cls-2" points="319.26 261.02 318.82 261.57 320.37 261.89 319.26 261.02"/><path class="cls-2" d="M279.73,238.53c.16.48,0,1.1.67,1.43l1-.12A1.2,1.2,0,0,0,279.73,238.53Z"/><rect class="cls-2" x="264.71" y="225.04" width="1.41" height="0.7" transform="translate(-75.88 294.39) rotate(-51.77)"/><polygon class="cls-2" points="260.51 223.3 260.07 223.85 261.06 223.74 260.51 223.3"/><polygon class="cls-2" points="308.45 263.78 308.68 262.35 308.33 262.79 308.45 263.78"/><rect class="cls-2" x="282.01" y="240.61" width="1.41" height="0.56" transform="translate(-81.69 312.73) rotate(-51.58)"/><path class="cls-2" d="M199.63,181.92l.79,7.64C201.3,186.84,200.32,184.45,199.63,181.92Z"/><path class="cls-2" d="M93.82,102.63c-.55-.44-1.41-.94-1.11-1.78l-1,.12,3.09,5.86c-.51.86-1.85.51-2.22,1.66,1.26-.45,2,1.07,3.2,1.63V111l-2.86.43c-.22.72,2.51,4.32,5.07,5.63C98.75,112.29,94.46,107.27,93.82,102.63Z"/><path class="cls-2" d="M91.7,96.45l-.88,1.11A1.33,1.33,0,0,1,91.49,99a1.31,1.31,0,0,1,1.54.32,1.53,1.53,0,0,1-.32,1.54l.88-.2A4.8,4.8,0,0,0,91.7,96.45Z"/><path class="cls-2" d="M207.93,195.5c.93-1.92-.56-3.83-.81-5.6C206.89,191.86,205.92,194.06,207.93,195.5Z"/><path class="cls-2" d="M207.12,189.9a5.39,5.39,0,0,0,0-1.13A2.69,2.69,0,0,0,207.12,189.9Z"/><rect class="cls-2" x="300.3" y="264.54" width="1.41" height="0.71" transform="translate(-93.36 337.38) rotate(-51.76)"/><path class="cls-2" d="M200.09,194.51c1.23.26,1,1.69,1.22,2.77l.33-5.86A8.09,8.09,0,0,1,200.09,194.51Z"/><polygon class="cls-2" points="92.48 103.19 91.93 102.75 91.05 103.85 91.6 104.29 92.48 103.19"/><polygon class="cls-2" points="208.72 203.14 209.27 203.57 210.14 202.47 209.59 202.03 208.72 203.14"/><path class="cls-2" d="M231,223.32c-.5.86-1.85.51-2.3,1.77l1.1.88Z"/><polygon class="cls-2" points="208.94 208.53 209.49 213.28 209.38 208.88 208.94 208.53"/><polygon class="cls-2" points="104.76 129.45 104.21 129.01 104.32 130 104.76 129.45"/><polygon class="cls-2" points="246.83 247.16 247.06 249.14 247.93 248.04 246.83 247.16"/><path class="cls-2" d="M237.44,244.94c0-1.8-2.34-2-2.32-3.64-.77.29-.61,1.68.12,1.89Z"/><path class="cls-2" d="M144.65,172.36l-1.45-3.84a1.53,1.53,0,0,0-.32,1.54c-.84-.3-1.71.8-1.31,1.66l.43,2.85C143,175.16,143.73,173.07,144.65,172.36Z"/><path class="cls-2" d="M239,249.58a5.24,5.24,0,0,0-1.43-2.75A4.73,4.73,0,0,0,239,249.58Z"/><polygon class="cls-2" points="151.06 178.34 151.62 178.77 152.49 177.66 151.94 177.23 151.06 178.34"/><polygon class="cls-2" points="242.86 254.44 242.31 254.01 241.44 255.11 241.99 255.55 242.86 254.44"/><polygon class="cls-2" points="244.08 260.63 243.65 261.17 245.18 261.5 244.08 260.63"/><path class="cls-2" d="M246.3,263.27l-.44.56,1.1.87C246.89,264.11,246.93,263.6,246.3,263.27Z"/><path class="cls-2" d="M249.49,269.23a4.23,4.23,0,0,0-.81-.62A1.26,1.26,0,0,0,249.49,269.23Z"/><path class="cls-2" d="M248.68,268.61c-.36-.57-.37-1.35-1-1.69C247.49,267.83,248.07,268.23,248.68,268.61Z"/><path class="cls-2" d="M262.77,292.86c-3.07,2.06,2.5,3.42.32,6.18.5,0,1.07-.22,1.45.44l.32,1.87c.22-.73.83-.61,1.23-.65l1.1.87c-1.23-5.47-5.67-8.26-4.1-14.57-.46-.54-.94-.39-1.54-.32a7.57,7.57,0,0,0-.08-4.21l-.71.89-.55-.43.79-1,.39.31a7.71,7.71,0,0,0-2.17-3.51A21.88,21.88,0,0,0,261,289.66,3.22,3.22,0,0,1,262.77,292.86Z"/><path class="cls-2" d="M250.4,273.53l-.24-2c-.39.05-1.1,0-1.42.67l.2.88C249.34,273.05,250,272.87,250.4,273.53Z"/><path class="cls-2" d="M251.39,274.32c-.83.6-.13,1.52-.12,2.42l1.1.88Z"/><path class="cls-2" d="M261.55,282.37l-.16-.13a2.09,2.09,0,0,0,.08.23Z"/><polygon class="cls-2" points="252.93 278.95 254.47 282.69 254.04 279.83 252.93 278.95"/><path class="cls-2" d="M267.17,291.85l.78-1-.51-.4a.94.94,0,0,1-.21.18l-.61.78Z"/><path class="cls-2" d="M254.59,284.58c-.53.66.29,1.67.78,2.42C255.17,286.12,255.54,285,254.59,284.58Z"/><rect class="cls-2" x="200.13" y="240.77" width="1.41" height="0.7" transform="translate(-112.89 248.34) rotate(-51.53)"/><polygon class="cls-2" points="251.49 286.45 251.38 285.46 250.39 285.57 251.49 286.45"/><path class="cls-2" d="M193.62,247.63c2.86.46,3.81,0,5.51-2.65l-2,.23c-1-1.3,1.6-1.79.32-2.44Z"/><rect class="cls-2" x="245.04" y="280.71" width="1.41" height="0.56" transform="translate(-127.19 297.38) rotate(-51.34)"/><path class="cls-2" d="M145.13,210.12l.55.44c.27,2.38-.32-1,.87-1.11-.17-3.19-2.8-5.09-3.43-7.92.2,4.29-.35,8.16.46,12.58C145,213.05,142.2,210,145.13,210.12Z"/><path class="cls-2" d="M251.73,289.33l-.79,1c1.87.59,1.31,2.66,2.33,3.64C255.94,292,251.54,291.15,251.73,289.33Z"/><polygon class="cls-2" points="247.62 286.8 247.07 286.36 246.19 287.46 246.75 287.9 247.62 286.8"/><path class="cls-2" d="M255.48,300.93c.51,0,1.21.06,1.43-.67l-.12-1c-2.19,1-1-1.88-2.3-2.54C254.13,297.88,256,299.87,255.48,300.93Z"/><path class="cls-2" d="M247.09,290.87c0,.39.32,1-.24,1.43l1.24-.64Z"/><polygon class="cls-2" points="249.94 293.85 250.73 292.85 250.18 292.42 249.39 293.41 249.94 293.85"/><path class="cls-2" d="M250.62,296.18c-.93-.2-1.43.66-1.87,1.22l.32,1.87a1.54,1.54,0,0,1,1.54.32l.12,1.89C252.45,301.58,250.47,298.4,250.62,296.18Z"/><path class="cls-2" d="M187.32,256.48l-1.54-1.22c-1.32,4.16-4.31,5.21-5.63,9.38,3.52.09,6.38-3.75,9.94-5.07-1.91-3.49,2.49-4.5,3-8.07C191.67,254.17,189.34,254.84,187.32,256.48Z"/><polygon class="cls-2" points="59.62 145.82 58.39 147.37 61.71 147.49 59.62 145.82"/><path class="cls-2" d="M252.39,302.79c.64.33.51.94.56,1.34l.43-.55Z"/><rect class="cls-2" x="55.92" y="146.59" width="1.41" height="0.56" transform="translate(-93.66 100.04) rotate(-51.61)"/><path class="cls-2" d="M278.8,326.41c.24-1.43.08-1.92-1.22-2.77A2.42,2.42,0,0,0,278.8,326.41Z"/><path class="cls-2" d="M268.2,326.64c-1.8.91.12,1.89.43,2.86l1.23-1.55Z"/><path class="cls-2" d="M269.85,332.26h.09Q269.85,332.18,269.85,332.26Z"/><path class="cls-2" d="M269.94,332.26c.39.27,2.05,2.51,1.8,4.19.74-1.38,2.34-4.07-.46-4.85A1.46,1.46,0,0,1,269.94,332.26Z"/><path class="cls-2" d="M260.47,326.63c1.23-.64,2,.87,3.09,1.55l.12,1-.35-3c-.74.49-1.54-.32-2-.67l-.12-1c-1.38,1.06-2.77,3.73,0,4.31Z"/><path class="cls-2" d="M274.28,341c1-1.53-1.6-3.43.32-5l-2.54,2.31Z"/><polygon class="cls-2" points="265.89 331.82 265.34 331.38 264.44 331.39 265.89 331.82"/><path class="cls-2" d="M266.44,336.57l1-.11.12,1.89c-.74.49-1.34-.35-1.9-.78-.3.83.67,1.42,1.11,1.77a2,2,0,0,0-.43-3.76Z"/><polygon class="cls-2" points="262.57 332.61 262.69 333.6 263.68 333.48 262.57 332.61"/><path class="cls-2" d="M172.31,263.56h.79l-.12-1A1.7,1.7,0,0,0,172.31,263.56Z"/><path class="cls-2" d="M172.43,265.53l-.2-1.63A3.32,3.32,0,0,0,172.43,265.53Z"/><path class="cls-2" d="M172.23,263.9a3.38,3.38,0,0,1,.08-.34h-.12Z"/><path class="cls-2" d="M271.86,346.07c-1.46-1.33-1.54-3.73-2.45-5.53C270,342.47,269.35,345.16,271.86,346.07Z"/><polygon class="cls-2" points="259.04 335.02 259.92 333.92 259.36 333.48 258.93 334.03 258.93 334.03 258.93 334.03 258.49 334.59 259.04 335.02"/><rect class="cls-2" x="259.05" y="335.24" width="1.41" height="0.7" transform="translate(-164.59 330.48) rotate(-51.57)"/><path class="cls-2" d="M86,210.18l.55.43.44-.56-.55-.44Z"/><path class="cls-2" d="M69.84,242.54a5.47,5.47,0,0,0,2,4.09l-1-4.21Z"/></g></g></g></svg>