<svg xmlns="http://www.w3.org/2000/svg" viewBox="0 0 195.4 101.56"><defs><style>.cls-1{fill:#8e8e8e;stroke-width:1.42px;}.cls-1,.cls-5,.cls-7,.cls-8{stroke:#000;}.cls-1,.cls-10,.cls-2,.cls-3,.cls-4,.cls-8,.cls-9{stroke-miterlimit:10;}.cls-10,.cls-2,.cls-3,.cls-4,.cls-5,.cls-8,.cls-9{fill:none;}.cls-2,.cls-3,.cls-9{stroke:#231815;}.cls-2,.cls-8{stroke-width:0.47px;}.cls-3{stroke-width:0.14px;}.cls-4{stroke:#818182;}.cls-10,.cls-4,.cls-5,.cls-7{stroke-linecap:round;}.cls-10,.cls-4{stroke-width:4.66px;}.cls-5,.cls-7{stroke-linejoin:round;stroke-width:1.13px;}.cls-6,.cls-7{fill:#fff;}.cls-9{stroke-width:0.57px;}.cls-10{stroke:#8e8e8e;}</style></defs><g id="レイヤー_2" data-name="レイヤー 2"><g id="ガイド"><rect class="cls-1" x="3.99" y="15.95" width="187.43" height="69.66" rx="9.25" transform="translate(11.13 -17.26) rotate(10.7)"/><path class="cls-2" d="M127.48,46.45c-1.87.73-9,11.39-5,24"/><path class="cls-2" d="M122.44,45.55c-1.87.73-9,11.39-5,24"/><path class="cls-2" d="M117.4,44.66c-1.88.73-9,11.39-5,24"/><path class="cls-2" d="M113.24,42.75c-2,.78-9.83,12.12-5.44,25.58"/><path class="cls-2" d="M108.41,41.49c-2.14.8-10.33,12.3-5.75,25.92"/><path class="cls-2" d="M102.71,40.48c-2,.79-9.64,12.32-5.3,26"/><path class="cls-2" d="M97.84,39.62c-2.09.79-10.06,12.3-5.57,25.95"/><path class="cls-2" d="M93.5,38.07c-2.33.82-11.24,12.63-6.31,26.58"/><path class="cls-2" d="M87.75,38.07c-2.4.81-10.73,11-5.68,24.77"/><path class="cls-2" d="M82.6,37.55c-2.38.82-10.51,9.79-5.5,23.72"/><path class="cls-2" d="M76.3,36.68C74,37.5,67,45,71.87,59"/><path class="cls-2" d="M71.09,35.85c-2.2.82-9,7.33-4.31,21.35"/><path class="cls-2" d="M65.94,35.29c-2.14.78-8.8,6-4.24,19.48"/><path class="cls-2" d="M60.2,35.29c-1.9.74-8.08,3.45-4,16.33"/><path class="cls-2" d="M54.24,35.27c-1.94.76-6.75,3.54-2.32,14"/><path class="cls-2" d="M47.54,35.29c-1.88.73-3.54,4.35-.33,12.09"/><path class="cls-2" d="M42.13,35.85s-3.21,1.9.94,9.78"/><path class="cls-3" d="M39.37,36.68s-2.28,2.94,2,8.81"/><path class="cls-4" d="M25.46,36.79a26.73,26.73,0,0,1,5.62,2c1.6.68,2.92,1.84,4.55,2.47C40.39,43,45,44.27,49.53,46.57c2.95,1.5,10.73,4.3,11.62,4.65,1.58.61,10.46,5.53,13.24,6.49,2.5.86,13.73,4,17.2,5.44,4.14,1.67,16.82,3.8,20.14,4.13,2.11.21,9.82,2.58,11.08,1.82.87-.51,6.21-3,6.92-3a18.77,18.77,0,0,0,4.42-.19c1.09-.09,3.18.55,4.29.54,1.42,0,7.18.07,7.9.46,1.45.78,5.61,5.69,7.59,5.83.68,0,4.33,1.81,6.53,0,3.29-2.7,4.1-2.86,6.53,3.06"/><path d="M170.82,58.11a26.32,26.32,0,0,1,4.09,1,4.94,4.94,0,0,1,.58.2.71.71,0,0,1,.43.65.63.63,0,0,1-.41.65c-.36.15-.58.27-.07.54a.61.61,0,0,1,.3.79.65.65,0,0,1-.77.46,8.31,8.31,0,0,0-3,.31.91.91,0,0,0-.6.24c.1.18.28.13.42.14a17.67,17.67,0,0,1,3.21.62c.78.19,1.11.54,1,1s-.54.89-1.29.92a14.35,14.35,0,0,0-3.4.38c-.18,0-.38,0-.54.2a2.68,2.68,0,0,0,1.15.37c1.23.34,2.47.63,3.72.94a1.77,1.77,0,0,1,.79.32.65.65,0,0,1,.25.73.66.66,0,0,1-.65.49,2.06,2.06,0,0,1-.65-.07,14,14,0,0,0-4.18,0c-.11,0-.27,0-.3.14s.1.21.21.27a8.08,8.08,0,0,1,2.37,2.43.85.85,0,0,1,.08,1.09.74.74,0,0,1-1.06.11,5.58,5.58,0,0,0-1.93-.65c-.31-.07-.42,0-.3.34.2.54.41,1.08.6,1.63a.85.85,0,0,1-.24,1.06c-.39.3-.71.06-1-.14s-.56-.4-.84-.59c-.1-.07-.2-.17-.32-.08s0,.19,0,.28a8.7,8.7,0,0,1,0,5c-.13.33-.29.63-.69.66a.85.85,0,0,1-.83-.58c-.48-1-1-2-1.52-2.9a4.21,4.21,0,0,0-1.82-1.42.37.37,0,0,0-.35,0,1.13,1.13,0,0,0-.26.16,6.37,6.37,0,0,1-4.88,1.53,16.24,16.24,0,0,1-4.55-.58,3.4,3.4,0,0,1-.95-.48c-2-1.45-3.82-3.19-5.75-4.76a16.71,16.71,0,0,0-3.78-1.89,3.69,3.69,0,0,0-2.42-.4A5.79,5.79,0,0,0,137.62,71a4.79,4.79,0,0,1-2.71,1.6,8.91,8.91,0,0,1-5.1-.67A6.82,6.82,0,0,1,128,70.55a7.8,7.8,0,0,1-.57-.58c-.32-.37-.57-.27-.81.09a6.23,6.23,0,0,1-.61.82,2.74,2.74,0,0,1-1.49.81c-2,.42-3.8-.13-5.67-.46-3.66-.66-7.31-1.36-11-1.77-1.95-.21-3.85-.75-5.77-1.14s-3.55-.84-5.34-1.18c-2.12-.41-4.15-1.11-6.22-1.69-.87-.24-1.76-.39-2.65-.58-1.55-.33-3-1-4.53-1.44-2.28-.65-4.56-1.28-6.84-1.94a2.81,2.81,0,0,0-1.74.18,14.29,14.29,0,0,0-3.33,2.07c-1.26.85-2.42,1.85-3.71,2.63-1.62,1-3.35,1.44-5.19.41a20.27,20.27,0,0,1-3.88-2.24,13.27,13.27,0,0,1-1.95-2.23,64.1,64.1,0,0,0-5.53-6.23c-1.23-1.33-2.45-2.66-3.77-3.9-2.19-2-4.25-4.24-6.6-6.12a7,7,0,0,0-1.4-.74C35.5,43.54,31.63,41.74,27.73,40A52.65,52.65,0,0,0,21,37.69a13.83,13.83,0,0,1-4.26-2.08,3.07,3.07,0,0,1-.92-1.08c-.37-.68.23-1.6,1.13-1.75a32.29,32.29,0,0,1,3.93-.26c5.34-.2,10.68-.35,16-.41,1.6,0,3.18-.37,4.79-.35a1.34,1.34,0,0,0,.53-.18l4.46-2.29a6.59,6.59,0,0,1,2.14-.48,9.2,9.2,0,0,0,2.28-.68c2.77-1.13,5.13-3,7.83-4.24,2.13-1,4.22-2.09,6.4-3a13,13,0,0,1,6.05-1,12.14,12.14,0,0,1,2.82.88,6,6,0,0,1,2.53,1.75c1.29,1.33,2.69,2.57,4,3.93,1.83,2,3.44,4.14,5.08,6.28.73,1,1.49,1.87,2.15,2.86a1.72,1.72,0,0,0,1.17.73c2,.45,4,1,6,1.44,1.28.29,2.6.38,3.88.69,2.85.69,5.74,1.19,8.57,2s5.79,1.56,8.65,2.48c1.68.53,3.42.82,5.13,1.21l7.23,1.63a1.79,1.79,0,0,1,1.47,1.57c.22,1.19.2,1.16,1.25.55a5.45,5.45,0,0,1,3.67-.55,13.44,13.44,0,0,1,3.39.93,5.17,5.17,0,0,1,1.77,1.27,7.91,7.91,0,0,0,3.3,1.65.71.71,0,0,0,.59-.13q3.22-1.71,6.46-3.41a5.13,5.13,0,0,1,2.5-.47,32.62,32.62,0,0,1,4.18.29,11.89,11.89,0,0,1,4,1.41c1.68.91,3.33,1.87,5.05,2.71a2.87,2.87,0,0,0,2.28.14,30.1,30.1,0,0,1,3.21-1.19c.37-.09.72-.15,1,.21a.75.75,0,0,1-.17,1q-.39.4-.75.84c-.08.08-.2.16-.16.3s.22.14.35.14l1.74-.13.56,0a.77.77,0,0,1,.48,1.43l-.82.61c-.28.2-.31.34,0,.57a15,15,0,0,1,1.46,1.29.9.9,0,0,1,.28,1.18,1.16,1.16,0,0,1-1.26.45q-1.41-.27-2.82-.51A.89.89,0,0,0,170.82,58.11Zm-48.3,12.38c.88-.09,1-.34.76-1a7.87,7.87,0,0,0-.39-.83,3,3,0,0,1-.18-2.38,5.38,5.38,0,0,1,1.32-2c.58-.66,1.23-1.27,1.78-2a9.38,9.38,0,0,1,1.47-1.55,1.68,1.68,0,0,0,.32-2.58,4,4,0,0,1-.81-1.58c-.27-1.45-.7-2.88-.24-4.39a16.12,16.12,0,0,1,1.27-3.93,2.1,2.1,0,0,0,.21-.51.5.5,0,0,0-.41-.72c-.63-.15-1.25-.36-1.89-.47-1.61-.29-3.2-.67-4.78-1.1-3-.83-6.11-1.57-9.16-2.39-2.68-.73-5.34-1.52-8.06-2.1-2-.42-3.93-.89-5.89-1.33-1.28-.29-2.59-.42-3.86-.76-1.78-.47-3.6-.8-5.37-1.31a55.34,55.34,0,0,0-7.94-1.72c-2-.27-3.91-.56-5.88-.8a44.49,44.49,0,0,0-8.15-.54A38.19,38.19,0,0,1,58,33.86a55.83,55.83,0,0,0-8.55-.71c-2.07,0-4.13,0-6.2,0a37.17,37.17,0,0,0-5.87.2,12.76,12.76,0,0,1-2.69.23,26.28,26.28,0,0,0-3.32-.06c-3.67.16-7.34.15-11,.17-.79,0-1.57,0-2.36.06-.23,0-.45.06-.53.32a.57.57,0,0,0,.2.6,1.47,1.47,0,0,0,.42.28c.79.31,1.58.65,2.38.92q4.83,1.62,9.48,3.69c2,.88,3.9,1.82,5.87,2.68,2.17.95,4.37,1.83,6.56,2.75,1.95.82,3.86,1.72,5.85,2.45a82.73,82.73,0,0,1,10.3,4.64c4.21,2.23,8.57,4.14,12.95,6a63.49,63.49,0,0,0,6.09,2.12c2.44.73,4.87,1.54,7.31,2.3,1.73.54,3.51.88,5.24,1.41,1.53.48,3.07.93,4.62,1.31l6.72,1.59c1.21.28,2.42.57,3.64.82,3.13.63,6.34.71,9.46,1.43,2,.44,4,.74,5.93,1.12A5.39,5.39,0,0,0,122.52,70.49ZM150.88,53l-1,.16c-.22,0-.47.16-.58-.12s.14-.43.33-.51a5.11,5.11,0,0,1,2.35-.77,7.1,7.1,0,0,0,1.22-.12,4.62,4.62,0,0,1,3.91,1.09,12.74,12.74,0,0,0,7.06,2.83,4.32,4.32,0,0,0,2.21-.26A10.42,10.42,0,0,0,170.13,53c.23-.23.79-.38.48-.79s-.64,0-.91.24a3.93,3.93,0,0,1-4.33.33c-1.61-.81-3.09-1.88-4.75-2.59A9.76,9.76,0,0,0,157.51,49c-1.1-.09-2.21-.21-3.3-.4a4,4,0,0,0-1.73.09,17.53,17.53,0,0,0-3.58,1.2,21.49,21.49,0,0,0-4.06,2.45,1.63,1.63,0,0,1-1.88.33,2.87,2.87,0,0,1-.57-.24c-.39-.26-.51-.08-.54.29a1.39,1.39,0,0,1-.74,1.22,7.7,7.7,0,0,1-3.24,1,8.71,8.71,0,0,1-8-4.21c-.2-.3-.38-.61-.6-.9s-.46-.26-.65,0a2.4,2.4,0,0,0-.21.46,12.76,12.76,0,0,0-.6,4.59,4.1,4.1,0,0,0,.64,1.92c.27.41.57.81.81,1.24.54,1,1,2,.14,3.07a5,5,0,0,1-1.34,1.17,14.24,14.24,0,0,0-3.32,3.16,1.73,1.73,0,0,0-.33,1.64c.1.36.23.71.35,1.07s.33.41.55.14a3.52,3.52,0,0,1,2.53-1c.41-.05.82.15,1.21,0a8.9,8.9,0,0,1,3.59-.28c1.74.14,3.45.29,4.78,1.61.25.24.51.12.74,0a3.11,3.11,0,0,1,1.39-.73c.58-.09,1.15-.19,1.72-.3a2.84,2.84,0,0,1,1.16.06,30,30,0,0,1,3.2,1.2,4.16,4.16,0,0,1,1.82,1.27,10.29,10.29,0,0,0,1.24,1.23c1.18.92,2.3,1.92,3.4,2.93a4.46,4.46,0,0,0,2.36,1.16,19.87,19.87,0,0,0,4.22.33,5.51,5.51,0,0,0,2.17-.54A29.07,29.07,0,0,0,164,73.43a4.44,4.44,0,0,1,2.67-1,4.29,4.29,0,0,1,1.83.72c.19.1.42.26.6,0s-.05-.39-.18-.56a4.88,4.88,0,0,0-3.4-1.86,4.62,4.62,0,0,0-1.62-.19c-.58.1-1.18.16-1.77.26A27.4,27.4,0,0,0,158,71.93a13,13,0,0,1-4.22.21.63.63,0,0,1-.32-.15l-3.85-2.62a4.41,4.41,0,0,1-.78-.65c-.17-.19-.4-.44-.17-.72s.48-.16.76-.06a7.84,7.84,0,0,1,2.23,1.51,5.84,5.84,0,0,0,1.82,1.3,6.84,6.84,0,0,0,5.07-.19,6.59,6.59,0,0,1,2.11-.56,4.11,4.11,0,0,0,1.83-.44,14.65,14.65,0,0,1,4-1.32,7,7,0,0,1,2.33-.16c1.07.08,2.14.09,3.22.12.18,0,.41,0,.42-.27s-.21-.27-.37-.28c-1-.09-1.9-.41-2.88-.46-2.43-.14-4.87-.3-7.3-.49A25.14,25.14,0,0,0,155,67a9.8,9.8,0,0,1-2.81,0c-.19,0-.39-.06-.43-.29a.46.46,0,0,1,.29-.5,1.61,1.61,0,0,1,.49-.13c.95-.07,1.9-.12,2.86-.2a19.27,19.27,0,0,0,3.86-.37c2.15-.65,4.32-1.26,6.42-2.08a16.46,16.46,0,0,1,6.22-1.27,2.57,2.57,0,0,0,1.16-.18c.14-.07.35-.12.35-.33s-.25-.24-.43-.28a9.66,9.66,0,0,0-2.08-.07c-2.48,0-4.93.38-7.39.63A28.41,28.41,0,0,1,157,62a2.1,2.1,0,0,1-.92-.28.35.35,0,0,1-.19-.34.3.3,0,0,1,.29-.25,4.4,4.4,0,0,1,.81,0,29.94,29.94,0,0,0,6.48-.31,44.86,44.86,0,0,1,9.12-.55,2.38,2.38,0,0,0,.46,0,.29.29,0,0,0,.25-.23c0-.14-.08-.21-.18-.27a1.76,1.76,0,0,0-.68-.22c-1.29-.24-2.6-.31-3.9-.5a18.14,18.14,0,0,0-6.65.33,13.57,13.57,0,0,1-4.84.11,4,4,0,0,1-.92-.3c-.29-.12-.51-.32-.42-.67s.4-.31.67-.28a10.94,10.94,0,0,0,2.49.22c1.78-.21,3.56-.41,5.34-.55a12.77,12.77,0,0,0,3.24-.54,9.68,9.68,0,0,1,5-.26c.22,0,.54.11.62-.18s-.23-.36-.44-.47c-.7-.37-1.55-.31-2.24-.68A3,3,0,0,0,167,56a1.91,1.91,0,0,1-.32.16,4.3,4.3,0,0,1-1.68.39c-.61,0-1.22-.11-1.83-.18a10.9,10.9,0,0,1-5.83-2.12,7,7,0,0,0-.71-.5,4.84,4.84,0,0,0-2.83-1ZM68.79,21.33a47.17,47.17,0,0,0-4.59,1.5c-1.85.81-3.59,1.82-5.44,2.62A39.91,39.91,0,0,0,54.51,28a4.42,4.42,0,0,1-1,.63c-1.83.54-3.53,1.47-5.43,1.8a15.22,15.22,0,0,0-2.59,1c-.12,0-.3.1-.28.25s.22.13.34.14c.5,0,1,.05,1.49,0,1.27-.05,2.5.31,3.77.31a38.94,38.94,0,0,1,5,.18c2.17.28,4.32.68,6.5.83,2.63.18,5.28.17,7.92.39,3.06.25,6.11.51,9.16.88.88.11,1.77.17,2.64.35a18.68,18.68,0,0,1,4,1c.11,0,.24.11.34,0s0-.27,0-.38a8.4,8.4,0,0,0-.61-.94c-.73-.9-1.52-1.75-2.21-2.69a37.39,37.39,0,0,0-3-3.45c-1.66-1.76-3.36-3.49-5-5.23a1.79,1.79,0,0,0-.61-.45,26.91,26.91,0,0,0-2.64-1A9.38,9.38,0,0,0,68.79,21.33ZM65.41,65.87A4.47,4.47,0,0,0,67.25,65c2.14-1.37,4.12-3,6.34-4.22a.41.41,0,0,0,0-.74,2.94,2.94,0,0,0-.51-.23C71,59,68.86,58.17,66.78,57.2c-3.13-1.46-6.24-3-9.34-4.54a65.58,65.58,0,0,0-6.8-3.17A39.16,39.16,0,0,1,44.92,47a.46.46,0,0,0-.65.09c-.17.22,0,.42.13.58a5,5,0,0,0,.41.39,57.45,57.45,0,0,1,5,4.71c3.16,3.32,6.4,6.57,9.28,10.15a3.12,3.12,0,0,0,.77.81c.76.43,1.5.88,2.25,1.33A5.57,5.57,0,0,0,65.41,65.87Zm73-12.39a4.22,4.22,0,0,0,1.24-.35,1,1,0,0,0,.44-1.71,7.24,7.24,0,0,0-5.58-2.74,6.05,6.05,0,0,0-3,.58c-.64.3-.76.65-.44,1.25a4.38,4.38,0,0,0,2.42,2.08A9.39,9.39,0,0,0,138.37,53.48Zm34.69,11.57c.23,0,.47,0,.5-.28s-.19-.3-.37-.37a6.15,6.15,0,0,0-1.28-.32,15.91,15.91,0,0,0-4,0,31.57,31.57,0,0,0-4.41.88c-.22.06-.42.19-.4.46a.39.39,0,0,0,.41.38,19.13,19.13,0,0,0,3.93.08A32.32,32.32,0,0,1,173.06,65.05Zm-43.43,3.3c-.27.06-.43.08-.57.12-.67.19-.77.51-.39,1.08a4,4,0,0,0,.9.89c.21.17.36.17.41-.15a1,1,0,0,1,.76-.94A3.51,3.51,0,0,1,134,70c.31.28.56.62.27,1.08,0,.07-.1.15,0,.23s.2,0,.29,0a4.56,4.56,0,0,0,1.58-.81c.49-.42.56-.85,0-1.22a3.87,3.87,0,0,0-1.86-.91A34.79,34.79,0,0,0,129.63,68.35Zm36.13,5.28c-.3.11-.62.19-.91.33s-.39.55,0,.79a4,4,0,0,1,1.47,1.71c.22.48.51.93.77,1.38.15.25.39.34.49,0a3.42,3.42,0,0,0,.08-2.44,5.49,5.49,0,0,0-1-1.5A.87.87,0,0,0,165.76,73.63Zm1.08-4.48c-.25,0-.47,0-.5.28s.12.33.29.43a10,10,0,0,0,4.27,1.36c.16,0,.36.07.44-.14a.36.36,0,0,0-.19-.43c-.41-.27-.85-.49-1.25-.78A5.43,5.43,0,0,0,166.84,69.15Zm4.68-14.06a1.41,1.41,0,0,0,.78-.39.36.36,0,0,0,.16-.35.33.33,0,0,0-.34-.26,6.19,6.19,0,0,0-.86,0c-.33,0-.85-.05-.86.41s.52.49.89.58A.84.84,0,0,0,171.52,55.09Z"/><path d="M133.93,49.64A4.18,4.18,0,0,1,137.36,51a1,1,0,0,1-.45,1.73,2,2,0,0,1-1.35.13,5.45,5.45,0,0,1-2.32-1.12c-.36-.34-.72-.71-.52-1.23A1.36,1.36,0,0,1,133.93,49.64Z"/><path class="cls-5" d="M168.39,76.52l.2-.06"/><path class="cls-5" d="M173.57,62a6.68,6.68,0,0,1-1.66.38"/><path class="cls-5" d="M127.48,67.36a1.19,1.19,0,0,1,0,.62"/><path class="cls-5" d="M130.66,69.33c.06.19,0,.42.15.59"/><path class="cls-5" d="M161.45,58.3l.09.35"/><path class="cls-5" d="M168.09,62.5l.1.61"/><path class="cls-6" d="M170.76,58.16a26.32,26.32,0,0,1,4.09,1,4,4,0,0,1,.58.21.69.69,0,0,1,.43.64.64.64,0,0,1-.41.65c-.37.15-.58.27-.07.54a.61.61,0,0,1,.3.79.66.66,0,0,1-.77.46,8.31,8.31,0,0,0-3,.31.91.91,0,0,0-.6.24c.1.18.28.13.42.14a17.67,17.67,0,0,1,3.21.62c.78.19,1.11.54,1,1s-.54.9-1.29.92a14.35,14.35,0,0,0-3.4.38c-.18,0-.38,0-.54.2a2.68,2.68,0,0,0,1.15.37c1.23.34,2.47.63,3.71.94a1.88,1.88,0,0,1,.8.32.65.65,0,0,1,.25.73.66.66,0,0,1-.65.49,2.12,2.12,0,0,1-.66-.07,13.88,13.88,0,0,0-4.17,0c-.11,0-.27,0-.3.14s.1.21.2.27a7.78,7.78,0,0,1,2.37,2.44.84.84,0,0,1,.09,1.08.74.74,0,0,1-1.06.11,5.58,5.58,0,0,0-1.93-.65c-.32-.07-.43,0-.3.34.2.54.41,1.08.6,1.63a.85.85,0,0,1-.24,1.06c-.39.3-.71.06-1-.14l-.83-.59c-.1-.07-.21-.17-.32-.08s0,.19,0,.28a8.7,8.7,0,0,1,0,5c-.13.33-.3.64-.7.66A.85.85,0,0,1,167,80c-.49-1-1-1.95-1.52-2.9a4.21,4.21,0,0,0-1.82-1.42.36.36,0,0,0-.35,0,1.13,1.13,0,0,0-.26.16,6.43,6.43,0,0,1-4.88,1.54,16.62,16.62,0,0,1-4.55-.59,3.15,3.15,0,0,1-1-.48c-2-1.45-3.82-3.19-5.75-4.76a16.92,16.92,0,0,0-3.78-1.89,3.77,3.77,0,0,0-2.42-.4,5.79,5.79,0,0,0-3.15,1.79,4.79,4.79,0,0,1-2.71,1.6,8.9,8.9,0,0,1-5.1-.67,6.82,6.82,0,0,1-1.83-1.39,7.8,7.8,0,0,1-.57-.58c-.33-.37-.57-.27-.81.09a6.23,6.23,0,0,1-.61.82,2.74,2.74,0,0,1-1.49.81c-2,.42-3.81-.13-5.67-.46-3.66-.66-7.31-1.36-11-1.77-2-.21-3.85-.75-5.77-1.14s-3.55-.84-5.34-1.18c-2.12-.4-4.15-1.11-6.22-1.69-.87-.24-1.76-.39-2.65-.58-1.56-.33-3-1-4.53-1.44-2.28-.65-4.57-1.28-6.84-1.94a2.81,2.81,0,0,0-1.74.18,14.29,14.29,0,0,0-3.33,2.07c-1.26.85-2.42,1.85-3.72,2.63-1.62,1-3.35,1.44-5.18.41a20.65,20.65,0,0,1-3.89-2.24,13.67,13.67,0,0,1-1.94-2.23,66.86,66.86,0,0,0-5.53-6.23c-1.23-1.33-2.45-2.66-3.77-3.9-2.19-2-4.25-4.24-6.6-6.12a7,7,0,0,0-1.4-.74c-3.87-1.78-7.74-3.58-11.64-5.3A51.19,51.19,0,0,0,21,37.74a13.83,13.83,0,0,1-4.26-2.08,3.07,3.07,0,0,1-.92-1.08c-.37-.68.23-1.6,1.13-1.75a32.29,32.29,0,0,1,3.93-.26c5.34-.2,10.68-.35,16-.41,1.6,0,3.18-.36,4.79-.35a1.34,1.34,0,0,0,.53-.18l4.46-2.29a6.53,6.53,0,0,1,2.14-.48,9.2,9.2,0,0,0,2.28-.68c2.77-1.12,5.13-3,7.82-4.24,2.13-1,4.22-2.09,6.41-3a13.18,13.18,0,0,1,6-1,12.3,12.3,0,0,1,2.82.88,6.09,6.09,0,0,1,2.53,1.75c1.29,1.33,2.69,2.57,4,3.93,1.83,2,3.44,4.14,5.08,6.28.73.95,1.48,1.87,2.15,2.86A1.72,1.72,0,0,0,89,36.4c2,.45,4,1,6,1.44,1.28.29,2.59.38,3.87.69,2.85.69,5.75,1.19,8.58,2s5.79,1.57,8.65,2.48c1.68.53,3.42.82,5.13,1.21l7.23,1.63A1.79,1.79,0,0,1,130,47.4c.22,1.19.2,1.16,1.25.55a5.5,5.5,0,0,1,3.67-.55,13.44,13.44,0,0,1,3.39.93,5.17,5.17,0,0,1,1.77,1.27,7.85,7.85,0,0,0,3.3,1.65.71.71,0,0,0,.59-.13q3.22-1.71,6.46-3.41a5.11,5.11,0,0,1,2.49-.47,32.65,32.65,0,0,1,4.19.29,11.89,11.89,0,0,1,4,1.41c1.68.92,3.33,1.87,5.05,2.71a2.87,2.87,0,0,0,2.28.14,30.1,30.1,0,0,1,3.21-1.19c.37-.09.72-.15,1,.21a.73.73,0,0,1-.17,1l-.75.84c-.07.08-.2.16-.15.3s.22.15.35.14l1.74-.13a5.23,5.23,0,0,1,.56,0,.77.77,0,0,1,.82.48.79.79,0,0,1-.34.94l-.82.61c-.28.2-.32.34,0,.57a16.4,16.4,0,0,1,1.46,1.29A.91.91,0,0,1,175.6,58a1.18,1.18,0,0,1-1.26.44L171.52,58A.89.89,0,0,0,170.76,58.16Z"/><path class="cls-6" d="M122.46,70.54c.87-.09,1-.34.76-1.05a7.87,7.87,0,0,0-.39-.83,3,3,0,0,1-.18-2.38,5.34,5.34,0,0,1,1.32-2c.58-.67,1.23-1.28,1.77-2a9.87,9.87,0,0,1,1.48-1.55,1.68,1.68,0,0,0,.32-2.58,4,4,0,0,1-.81-1.58c-.27-1.45-.7-2.88-.24-4.39a15.91,15.91,0,0,1,1.27-3.92,2.36,2.36,0,0,0,.21-.52.5.5,0,0,0-.42-.72c-.63-.15-1.24-.36-1.88-.47-1.61-.29-3.2-.67-4.78-1.1-3-.83-6.11-1.57-9.16-2.39-2.68-.72-5.34-1.52-8.06-2.1-2-.42-3.93-.89-5.89-1.33-1.28-.29-2.59-.42-3.86-.76-1.78-.47-3.6-.8-5.37-1.31a55.34,55.34,0,0,0-7.94-1.72c-2-.27-3.91-.56-5.88-.8a43.67,43.67,0,0,0-8.16-.53,38.69,38.69,0,0,1-8.6-.64,55.85,55.85,0,0,0-8.56-.71c-2.06,0-4.12,0-6.19,0a37.17,37.17,0,0,0-5.87.2,12.76,12.76,0,0,1-2.69.23,26.28,26.28,0,0,0-3.32-.06c-3.67.16-7.34.15-11,.17L18,33.8c-.23,0-.45.06-.53.32a.56.56,0,0,0,.2.6,1.34,1.34,0,0,0,.42.28c.79.31,1.58.65,2.38.92q4.83,1.62,9.48,3.69c2,.88,3.9,1.82,5.87,2.68,2.17,1,4.37,1.83,6.55,2.75,1.95.82,3.87,1.72,5.86,2.45a83.4,83.4,0,0,1,10.3,4.64c4.21,2.23,8.57,4.14,12.95,6a64.26,64.26,0,0,0,6.08,2.12c2.45.73,4.88,1.54,7.32,2.3,1.73.54,3.51.88,5.24,1.41,1.53.48,3.07.93,4.62,1.31,2.24.54,4.48,1.06,6.72,1.59,1.21.28,2.42.57,3.64.82,3.13.63,6.34.71,9.46,1.43,2,.44,3.95.74,5.93,1.12A5.39,5.39,0,0,0,122.46,70.54Z"/><path class="cls-6" d="M150.82,53l-1,.16c-.21,0-.46.16-.57-.12s.14-.42.33-.51a5.11,5.11,0,0,1,2.35-.77,7.2,7.2,0,0,0,1.22-.12,4.62,4.62,0,0,1,3.91,1.09,12.74,12.74,0,0,0,7.06,2.83,4.33,4.33,0,0,0,2.21-.26A10.37,10.37,0,0,0,170.07,53c.23-.23.79-.38.48-.79s-.64.05-.91.24a3.91,3.91,0,0,1-4.33.33c-1.61-.81-3.09-1.88-4.75-2.59a9.85,9.85,0,0,0-3.11-1.13c-1.11-.09-2.21-.21-3.3-.4a4,4,0,0,0-1.73.09,17.53,17.53,0,0,0-3.58,1.2,21.18,21.18,0,0,0-4.06,2.45,1.63,1.63,0,0,1-1.88.33,2.87,2.87,0,0,1-.57-.24c-.39-.26-.51-.08-.54.29a1.41,1.41,0,0,1-.74,1.22,7.7,7.7,0,0,1-3.24,1,8.71,8.71,0,0,1-8-4.21c-.2-.3-.38-.61-.6-.9s-.46-.26-.65.05a1.59,1.59,0,0,0-.21.46,12.77,12.77,0,0,0-.61,4.59,4.11,4.11,0,0,0,.65,1.92c.27.41.57.81.81,1.24.54,1,1,2,.14,3.07A5,5,0,0,1,128,62.44a14.24,14.24,0,0,0-3.32,3.16,1.68,1.68,0,0,0-.33,1.64c.1.36.23.71.35,1.07s.32.41.55.14a3.51,3.51,0,0,1,2.52-1c.42,0,.82.15,1.22,0a8.88,8.88,0,0,1,3.59-.28c1.74.14,3.45.29,4.78,1.61.25.25.51.12.74,0a3.06,3.06,0,0,1,1.39-.73q.86-.13,1.71-.3a2.88,2.88,0,0,1,1.17.06,30,30,0,0,1,3.2,1.2,4.16,4.16,0,0,1,1.82,1.27,11,11,0,0,0,1.23,1.23c1.19.92,2.31,1.92,3.41,2.93a4.47,4.47,0,0,0,2.35,1.16,20,20,0,0,0,4.23.33,5.51,5.51,0,0,0,2.17-.54,28,28,0,0,0,3.11-1.85,4.49,4.49,0,0,1,2.67-1,4.37,4.37,0,0,1,1.83.72c.2.1.43.26.61,0s-.06-.39-.18-.56a4.88,4.88,0,0,0-3.4-1.86,4.68,4.68,0,0,0-1.62-.19c-.59.1-1.18.16-1.77.26A27.86,27.86,0,0,0,157.93,72a13,13,0,0,1-4.21.21.63.63,0,0,1-.32-.15l-3.85-2.62a4.41,4.41,0,0,1-.78-.65c-.18-.19-.4-.44-.17-.72s.48-.16.75-.06a7.75,7.75,0,0,1,2.24,1.51,5.84,5.84,0,0,0,1.82,1.3,6.82,6.82,0,0,0,5.06-.19,6.72,6.72,0,0,1,2.12-.56,4.15,4.15,0,0,0,1.83-.44,14.54,14.54,0,0,1,4-1.32,6.76,6.76,0,0,1,2.33-.15c1.07.07,2.14.09,3.21.11.19,0,.42,0,.42-.27s-.21-.27-.37-.28c-1-.09-1.9-.41-2.87-.46q-3.66-.21-7.3-.49A25.64,25.64,0,0,0,155,67a9.73,9.73,0,0,1-2.8,0c-.19,0-.39-.06-.43-.29a.46.46,0,0,1,.29-.5,1.31,1.31,0,0,1,.49-.12c.95-.08,1.9-.13,2.85-.21a19.13,19.13,0,0,0,3.86-.37c2.16-.65,4.33-1.26,6.43-2.08a16.43,16.43,0,0,1,6.22-1.27,2.51,2.51,0,0,0,1.15-.18c.15-.07.36-.12.35-.32s-.24-.25-.42-.29a9.73,9.73,0,0,0-2.09-.07c-2.47,0-4.92.38-7.38.63a28.41,28.41,0,0,1-6.58.19,2.1,2.1,0,0,1-.92-.28.35.35,0,0,1-.19-.34.3.3,0,0,1,.29-.25,4.4,4.4,0,0,1,.81,0,29.2,29.2,0,0,0,6.47-.31,45,45,0,0,1,9.13-.55,1.79,1.79,0,0,0,.46,0,.29.29,0,0,0,.25-.23c0-.14-.08-.21-.18-.27a1.81,1.81,0,0,0-.68-.22c-1.29-.24-2.61-.31-3.9-.5a18.21,18.21,0,0,0-6.66.33,13.51,13.51,0,0,1-4.83.11,4,4,0,0,1-.92-.3c-.29-.12-.51-.32-.42-.67s.4-.31.67-.28a10.94,10.94,0,0,0,2.49.22c1.78-.21,3.56-.41,5.34-.55a12.85,12.85,0,0,0,3.24-.54,9.67,9.67,0,0,1,5-.26c.22,0,.53.11.62-.18s-.23-.36-.44-.47c-.7-.37-1.56-.31-2.24-.68A3,3,0,0,0,167,56a1.91,1.91,0,0,1-.32.16,4.34,4.34,0,0,1-1.68.39c-.61,0-1.22-.11-1.83-.18a10.9,10.9,0,0,1-5.83-2.12,7,7,0,0,0-.71-.5,4.84,4.84,0,0,0-2.83-1Z"/><path class="cls-6" d="M68.73,21.38a46.3,46.3,0,0,0-4.59,1.5c-1.85.81-3.59,1.82-5.44,2.62a38.94,38.94,0,0,0-4.25,2.56,4.42,4.42,0,0,1-1,.63c-1.83.54-3.53,1.47-5.43,1.8a15.22,15.22,0,0,0-2.59,1c-.12,0-.3.1-.28.25s.22.13.34.14c.5,0,1,.05,1.48,0,1.28-.05,2.51.31,3.77.31a39.1,39.1,0,0,1,5,.18c2.17.28,4.32.68,6.49.83,2.64.18,5.29.18,7.92.39,3.06.25,6.12.51,9.17.88.88.11,1.77.17,2.64.35a18.68,18.68,0,0,1,4,1c.1,0,.24.11.34,0s0-.27,0-.38a8.4,8.4,0,0,0-.61-.94c-.73-.9-1.53-1.75-2.21-2.68a39.12,39.12,0,0,0-3-3.46c-1.67-1.76-3.36-3.49-5-5.23a1.74,1.74,0,0,0-.62-.45,26.73,26.73,0,0,0-2.63-1A9.38,9.38,0,0,0,68.73,21.38Z"/><path class="cls-6" d="M65.35,65.92a4.47,4.47,0,0,0,1.84-.87c2.14-1.37,4.12-3,6.34-4.22a.41.41,0,0,0,0-.74,2.94,2.94,0,0,0-.51-.23c-2.12-.85-4.26-1.64-6.34-2.61-3.14-1.46-6.24-3-9.34-4.54a65.58,65.58,0,0,0-6.8-3.17,39.75,39.75,0,0,1-5.73-2.47.45.45,0,0,0-.64.09c-.17.23,0,.42.13.58a5,5,0,0,0,.41.39,57.45,57.45,0,0,1,5,4.71C53,56.16,56.19,59.41,59.07,63a3.12,3.12,0,0,0,.77.81c.75.43,1.5.88,2.25,1.33A5.56,5.56,0,0,0,65.35,65.92Z"/><path class="cls-6" d="M138.31,53.54a4.23,4.23,0,0,0,1.24-.36,1,1,0,0,0,.44-1.71,7.24,7.24,0,0,0-5.58-2.74,6.05,6.05,0,0,0-3,.58c-.64.3-.76.66-.44,1.25a4.35,4.35,0,0,0,2.42,2.08A9.5,9.5,0,0,0,138.31,53.54Z"/><path class="cls-6" d="M173,65.1c.24,0,.48,0,.5-.28s-.18-.3-.36-.37a6.15,6.15,0,0,0-1.28-.32,15.91,15.91,0,0,0-4,0,31.57,31.57,0,0,0-4.41.88c-.23.06-.42.19-.4.46a.39.39,0,0,0,.41.38,19.78,19.78,0,0,0,3.92.09A32.63,32.63,0,0,1,173,65.1Z"/><path class="cls-6" d="M129.57,68.4l-.58.12c-.66.19-.77.51-.39,1.08a4,4,0,0,0,.91.89c.21.17.36.17.41-.15a1,1,0,0,1,.75-.94A3.53,3.53,0,0,1,134,70c.31.28.56.62.27,1.08,0,.07-.1.15,0,.23s.2,0,.29,0a4.56,4.56,0,0,0,1.58-.81c.49-.42.56-.85.05-1.22a3.86,3.86,0,0,0-1.87-.91A34.64,34.64,0,0,0,129.57,68.4Z"/><path class="cls-6" d="M165.7,73.68c-.3.11-.62.19-.91.33s-.39.55,0,.79a4,4,0,0,1,1.47,1.72c.22.47.51.92.77,1.37.14.25.39.34.49,0a3.42,3.42,0,0,0,.08-2.44,5.49,5.49,0,0,0-1.05-1.5A.87.87,0,0,0,165.7,73.68Z"/><path class="cls-6" d="M166.78,69.2c-.25,0-.47,0-.51.28s.13.33.3.43a10,10,0,0,0,4.27,1.37c.16,0,.36.06.44-.15a.36.36,0,0,0-.19-.43c-.41-.27-.86-.49-1.26-.78A5.38,5.38,0,0,0,166.78,69.2Z"/><path class="cls-6" d="M171.46,55.14a1.45,1.45,0,0,0,.78-.39.36.36,0,0,0,.16-.35.33.33,0,0,0-.34-.26,6.15,6.15,0,0,0-.86,0c-.33.05-.85,0-.86.41s.52.49.89.58A.84.84,0,0,0,171.46,55.14Z"/><path class="cls-6" d="M133.87,49.69a4.19,4.19,0,0,1,3.43,1.39,1,1,0,0,1-.45,1.73,1.86,1.86,0,0,1-1.35.13,5.39,5.39,0,0,1-2.32-1.12c-.36-.34-.72-.71-.52-1.23A1.36,1.36,0,0,1,133.87,49.69Z"/><path class="cls-7" d="M168.33,76.57l.2-.06"/><path class="cls-7" d="M173.5,62.06a6.6,6.6,0,0,1-1.65.38"/><path class="cls-7" d="M127.42,67.41a1.34,1.34,0,0,1,0,.63"/><path class="cls-7" d="M130.6,69.38c.05.19,0,.42.15.59"/><path class="cls-7" d="M161.39,58.36l.09.34"/><path class="cls-7" d="M168,62.55l.1.61"/><path class="cls-8" d="M127.42,46.5c-1.87.73-9,11.39-5,24"/><path class="cls-8" d="M122.38,45.6c-1.88.74-9,11.39-5,24.05"/><path class="cls-8" d="M117.58,44.46c-1.87.73-9,11.39-5,24.05"/><path class="cls-8" d="M113.18,42.8c-2.05.78-9.84,12.12-5.44,25.58"/><path class="cls-8" d="M108.35,41.55c-2.14.79-10.33,12.29-5.75,25.91"/><path class="cls-8" d="M102.65,40.53c-2,.79-9.64,12.32-5.3,26"/><path class="cls-8" d="M97.78,39.67c-2.09.79-10.06,12.3-5.57,26"/><path class="cls-8" d="M93.44,38.12c-2.33.82-11.24,12.63-6.31,26.58"/><path class="cls-8" d="M87.69,38.12C85.29,38.93,77,49.17,82,62.89"/><path class="cls-8" d="M82.53,37.6C80.16,38.42,72,47.39,77,61.32"/><path class="cls-8" d="M76.24,36.73C73.93,37.55,66.93,45,71.81,59"/><path class="cls-8" d="M71,35.9c-2.2.82-9,7.33-4.31,21.35"/><path class="cls-8" d="M65.88,35.34c-2.14.78-8.8,6-4.24,19.48"/><path class="cls-8" d="M60.14,35.34c-1.9.74-8.09,3.45-4,16.33"/><path class="cls-8" d="M54.17,35.32c-1.93.76-6.74,3.54-2.31,14"/><path class="cls-8" d="M47.48,35.34c-1.88.73-3.54,4.35-.33,12.09"/><path class="cls-8" d="M42.07,35.9s-3.21,1.9.94,9.78"/><path class="cls-9" d="M39.31,36.73s-2.28,2.94,2,8.81"/><path class="cls-10" d="M25.4,36.84A26.45,26.45,0,0,1,31,38.79c1.61.68,2.93,1.84,4.56,2.47,4.76,1.82,9.36,3.06,13.9,5.37,3,1.49,10.72,4.3,11.61,4.64,1.58.61,10.47,5.53,13.25,6.49,2.5.86,13.73,4,17.2,5.44,4.14,1.67,16.82,3.8,20.14,4.13,2.11.21,9.82,2.58,11.08,1.82.87-.51,6.21-3,6.92-3a18.77,18.77,0,0,0,4.42-.19c1.09-.09,3.18.55,4.29.54,1.42,0,7.18.07,7.9.46,1.44.78,5.61,5.69,7.59,5.83.68,0,4.33,1.81,6.53,0,3.29-2.7,4.1-2.86,6.52,3.06"/><path d="M170.76,58.16a26.32,26.32,0,0,1,4.09,1,4,4,0,0,1,.58.21.69.69,0,0,1,.43.64.64.64,0,0,1-.41.65c-.37.15-.58.27-.07.54a.61.61,0,0,1,.3.79.66.66,0,0,1-.77.46,8.31,8.31,0,0,0-3,.31.91.91,0,0,0-.6.24c.1.18.28.13.42.14a17.67,17.67,0,0,1,3.21.62c.78.19,1.11.54,1,1s-.54.9-1.29.92a14.35,14.35,0,0,0-3.4.38c-.18,0-.38,0-.54.2a2.68,2.68,0,0,0,1.15.37c1.23.34,2.47.63,3.71.94a1.88,1.88,0,0,1,.8.32.65.65,0,0,1,.25.73.66.66,0,0,1-.65.49,2.12,2.12,0,0,1-.66-.07,13.88,13.88,0,0,0-4.17,0c-.11,0-.27,0-.3.14s.1.21.2.27a7.78,7.78,0,0,1,2.37,2.44.84.84,0,0,1,.09,1.08.74.74,0,0,1-1.06.11,5.58,5.58,0,0,0-1.93-.65c-.32-.07-.43,0-.3.34.2.54.41,1.08.6,1.63a.85.85,0,0,1-.24,1.06c-.39.3-.71.06-1-.14l-.83-.59c-.1-.07-.21-.17-.32-.08s0,.19,0,.28a8.7,8.7,0,0,1,0,5c-.13.33-.3.64-.7.66A.85.85,0,0,1,167,80c-.49-1-1-1.95-1.52-2.9a4.21,4.21,0,0,0-1.82-1.42.36.36,0,0,0-.35,0,1.13,1.13,0,0,0-.26.16,6.43,6.43,0,0,1-4.88,1.54,16.62,16.62,0,0,1-4.55-.59,3.15,3.15,0,0,1-1-.48c-2-1.45-3.82-3.19-5.75-4.76a16.92,16.92,0,0,0-3.78-1.89,3.77,3.77,0,0,0-2.42-.4,5.79,5.79,0,0,0-3.15,1.79,4.79,4.79,0,0,1-2.71,1.6,8.9,8.9,0,0,1-5.1-.67,6.82,6.82,0,0,1-1.83-1.39,7.8,7.8,0,0,1-.57-.58c-.33-.37-.57-.27-.81.09a6.23,6.23,0,0,1-.61.82,2.74,2.74,0,0,1-1.49.81c-2,.42-3.81-.13-5.67-.46-3.66-.66-7.31-1.36-11-1.77-2-.21-3.85-.75-5.77-1.14s-3.55-.84-5.34-1.18c-2.12-.4-4.15-1.11-6.22-1.69-.87-.24-1.76-.39-2.65-.58-1.56-.33-3-1-4.53-1.44-2.28-.65-4.57-1.28-6.84-1.94a2.81,2.81,0,0,0-1.74.18,14.29,14.29,0,0,0-3.33,2.07c-1.26.85-2.42,1.85-3.72,2.63-1.62,1-3.35,1.44-5.18.41a20.65,20.65,0,0,1-3.89-2.24,13.67,13.67,0,0,1-1.94-2.23,66.86,66.86,0,0,0-5.53-6.23c-1.23-1.33-2.45-2.66-3.77-3.9-2.19-2-4.25-4.24-6.6-6.12a7,7,0,0,0-1.4-.74c-3.87-1.78-7.74-3.58-11.64-5.3A51.19,51.19,0,0,0,21,37.74a13.83,13.83,0,0,1-4.26-2.08,3.07,3.07,0,0,1-.92-1.08c-.37-.68.23-1.6,1.13-1.75a32.29,32.29,0,0,1,3.93-.26c5.34-.2,10.68-.35,16-.41,1.6,0,3.18-.36,4.79-.35a1.34,1.34,0,0,0,.53-.18l4.46-2.29a6.53,6.53,0,0,1,2.14-.48,9.2,9.2,0,0,0,2.28-.68c2.77-1.12,5.13-3,7.82-4.24,2.13-1,4.22-2.09,6.41-3a13.18,13.18,0,0,1,6-1,12.3,12.3,0,0,1,2.82.88,6.09,6.09,0,0,1,2.53,1.75c1.29,1.33,2.69,2.57,4,3.93,1.83,2,3.44,4.14,5.08,6.28.73.95,1.48,1.87,2.15,2.86A1.72,1.72,0,0,0,89,36.4c2,.45,4,1,6,1.44,1.28.29,2.59.38,3.87.69,2.85.69,5.75,1.19,8.58,2s5.79,1.57,8.65,2.48c1.68.53,3.42.82,5.13,1.21l7.23,1.63A1.79,1.79,0,0,1,130,47.4c.22,1.19.2,1.16,1.25.55a5.5,5.5,0,0,1,3.67-.55,13.44,13.44,0,0,1,3.39.93,5.17,5.17,0,0,1,1.77,1.27,7.85,7.85,0,0,0,3.3,1.65.71.71,0,0,0,.59-.13q3.22-1.71,6.46-3.41a5.11,5.11,0,0,1,2.49-.47,32.65,32.65,0,0,1,4.19.29,11.89,11.89,0,0,1,4,1.41c1.68.92,3.33,1.87,5.05,2.71a2.87,2.87,0,0,0,2.28.14,30.1,30.1,0,0,1,3.21-1.19c.37-.09.72-.15,1,.21a.73.73,0,0,1-.17,1l-.75.84c-.07.08-.2.16-.15.3s.22.15.35.14l1.74-.13a5.23,5.23,0,0,1,.56,0,.77.77,0,0,1,.82.48.79.79,0,0,1-.34.94l-.82.61c-.28.2-.32.34,0,.57a16.4,16.4,0,0,1,1.46,1.29A.91.91,0,0,1,175.6,58a1.18,1.18,0,0,1-1.26.44L171.52,58A.89.89,0,0,0,170.76,58.16Zm-48.3,12.38c.87-.09,1-.34.76-1.05a7.87,7.87,0,0,0-.39-.83,3,3,0,0,1-.18-2.38,5.34,5.34,0,0,1,1.32-2c.58-.67,1.23-1.28,1.77-2a9.87,9.87,0,0,1,1.48-1.55,1.68,1.68,0,0,0,.32-2.58,4,4,0,0,1-.81-1.58c-.27-1.45-.7-2.88-.24-4.39a15.91,15.91,0,0,1,1.27-3.92,2.36,2.36,0,0,0,.21-.52.5.5,0,0,0-.42-.72c-.63-.15-1.24-.36-1.88-.47-1.61-.29-3.2-.67-4.78-1.1-3-.83-6.11-1.57-9.16-2.39-2.68-.72-5.34-1.52-8.06-2.1-2-.42-3.93-.89-5.89-1.33-1.28-.29-2.59-.42-3.86-.76-1.78-.47-3.6-.8-5.37-1.31a55.34,55.34,0,0,0-7.94-1.72c-2-.27-3.91-.56-5.88-.8a43.67,43.67,0,0,0-8.16-.53,38.69,38.69,0,0,1-8.6-.64,55.85,55.85,0,0,0-8.56-.71c-2.06,0-4.12,0-6.19,0a37.17,37.17,0,0,0-5.87.2,12.76,12.76,0,0,1-2.69.23,26.28,26.28,0,0,0-3.32-.06c-3.67.16-7.34.15-11,.17L18,33.8c-.23,0-.45.06-.53.32a.56.56,0,0,0,.2.6,1.34,1.34,0,0,0,.42.28c.79.31,1.58.65,2.38.92q4.83,1.62,9.48,3.69c2,.88,3.9,1.82,5.87,2.68,2.17,1,4.37,1.83,6.55,2.75,1.95.82,3.87,1.72,5.86,2.45a83.4,83.4,0,0,1,10.3,4.64c4.21,2.23,8.57,4.14,12.95,6a64.26,64.26,0,0,0,6.08,2.12c2.45.73,4.88,1.54,7.32,2.3,1.73.54,3.51.88,5.24,1.41,1.53.48,3.07.93,4.62,1.31,2.24.54,4.48,1.06,6.72,1.59,1.21.28,2.42.57,3.64.82,3.13.63,6.34.71,9.46,1.43,2,.44,3.95.74,5.93,1.12A5.39,5.39,0,0,0,122.46,70.54ZM150.82,53l-1,.16c-.21,0-.46.16-.57-.12s.14-.42.33-.51a5.11,5.11,0,0,1,2.35-.77,7.2,7.2,0,0,0,1.22-.12,4.62,4.62,0,0,1,3.91,1.09,12.74,12.74,0,0,0,7.06,2.83,4.33,4.33,0,0,0,2.21-.26A10.37,10.37,0,0,0,170.07,53c.23-.23.79-.38.48-.79s-.64.05-.91.24a3.91,3.91,0,0,1-4.33.33c-1.61-.81-3.09-1.88-4.75-2.59a9.85,9.85,0,0,0-3.11-1.13c-1.11-.09-2.21-.21-3.3-.4a4,4,0,0,0-1.73.09,17.53,17.53,0,0,0-3.58,1.2,21.18,21.18,0,0,0-4.06,2.45,1.63,1.63,0,0,1-1.88.33,2.87,2.87,0,0,1-.57-.24c-.39-.26-.51-.08-.54.29a1.41,1.41,0,0,1-.74,1.22,7.7,7.7,0,0,1-3.24,1,8.71,8.71,0,0,1-8-4.21c-.2-.3-.38-.61-.6-.9s-.46-.26-.65.05a1.59,1.59,0,0,0-.21.46,12.77,12.77,0,0,0-.61,4.59,4.11,4.11,0,0,0,.65,1.92c.27.41.57.81.81,1.24.54,1,1,2,.14,3.07A5,5,0,0,1,128,62.44a14.24,14.24,0,0,0-3.32,3.16,1.68,1.68,0,0,0-.33,1.64c.1.36.23.71.35,1.07s.32.41.55.14a3.51,3.51,0,0,1,2.52-1c.42,0,.82.15,1.22,0a8.88,8.88,0,0,1,3.59-.28c1.74.14,3.45.29,4.78,1.61.25.25.51.12.74,0a3.06,3.06,0,0,1,1.39-.73q.86-.13,1.71-.3a2.88,2.88,0,0,1,1.17.06,30,30,0,0,1,3.2,1.2,4.16,4.16,0,0,1,1.82,1.27,11,11,0,0,0,1.23,1.23c1.19.92,2.31,1.92,3.41,2.93a4.47,4.47,0,0,0,2.35,1.16,20,20,0,0,0,4.23.33,5.51,5.51,0,0,0,2.17-.54,28,28,0,0,0,3.11-1.85,4.49,4.49,0,0,1,2.67-1,4.37,4.37,0,0,1,1.83.72c.2.1.43.26.61,0s-.06-.39-.18-.56a4.88,4.88,0,0,0-3.4-1.86,4.68,4.68,0,0,0-1.62-.19c-.59.1-1.18.16-1.77.26A27.86,27.86,0,0,0,157.93,72a13,13,0,0,1-4.21.21.63.63,0,0,1-.32-.15l-3.85-2.62a4.41,4.41,0,0,1-.78-.65c-.18-.19-.4-.44-.17-.72s.48-.16.75-.06a7.75,7.75,0,0,1,2.24,1.51,5.84,5.84,0,0,0,1.82,1.3,6.82,6.82,0,0,0,5.06-.19,6.72,6.72,0,0,1,2.12-.56,4.15,4.15,0,0,0,1.83-.44,14.54,14.54,0,0,1,4-1.32,6.76,6.76,0,0,1,2.33-.15c1.07.07,2.14.09,3.21.11.19,0,.42,0,.42-.27s-.21-.27-.37-.28c-1-.09-1.9-.41-2.87-.46q-3.66-.21-7.3-.49A25.64,25.64,0,0,0,155,67a9.73,9.73,0,0,1-2.8,0c-.19,0-.39-.06-.43-.29a.46.46,0,0,1,.29-.5,1.31,1.31,0,0,1,.49-.12c.95-.08,1.9-.13,2.85-.21a19.13,19.13,0,0,0,3.86-.37c2.16-.65,4.33-1.26,6.43-2.08a16.43,16.43,0,0,1,6.22-1.27,2.51,2.51,0,0,0,1.15-.18c.15-.07.36-.12.35-.32s-.24-.25-.42-.29a9.73,9.73,0,0,0-2.09-.07c-2.47,0-4.92.38-7.38.63a28.41,28.41,0,0,1-6.58.19,2.1,2.1,0,0,1-.92-.28.35.35,0,0,1-.19-.34.3.3,0,0,1,.29-.25,4.4,4.4,0,0,1,.81,0,29.2,29.2,0,0,0,6.47-.31,45,45,0,0,1,9.13-.55,1.79,1.79,0,0,0,.46,0,.29.29,0,0,0,.25-.23c0-.14-.08-.21-.18-.27a1.81,1.81,0,0,0-.68-.22c-1.29-.24-2.61-.31-3.9-.5a18.21,18.21,0,0,0-6.66.33,13.51,13.51,0,0,1-4.83.11,4,4,0,0,1-.92-.3c-.29-.12-.51-.32-.42-.67s.4-.31.67-.28a10.94,10.94,0,0,0,2.49.22c1.78-.21,3.56-.41,5.34-.55a12.85,12.85,0,0,0,3.24-.54,9.67,9.67,0,0,1,5-.26c.22,0,.53.11.62-.18s-.23-.36-.44-.47c-.7-.37-1.56-.31-2.24-.68A3,3,0,0,0,167,56a1.91,1.91,0,0,1-.32.16,4.34,4.34,0,0,1-1.68.39c-.61,0-1.22-.11-1.83-.18a10.9,10.9,0,0,1-5.83-2.12,7,7,0,0,0-.71-.5,4.84,4.84,0,0,0-2.83-1ZM68.73,21.38a46.3,46.3,0,0,0-4.59,1.5c-1.85.81-3.59,1.82-5.44,2.62a38.94,38.94,0,0,0-4.25,2.56,4.42,4.42,0,0,1-1,.63c-1.83.54-3.53,1.47-5.43,1.8a15.22,15.22,0,0,0-2.59,1c-.12,0-.3.1-.28.25s.22.13.34.14c.5,0,1,.05,1.48,0,1.28-.05,2.51.31,3.77.31a39.1,39.1,0,0,1,5,.18c2.17.28,4.32.68,6.49.83,2.64.18,5.29.18,7.92.39,3.06.25,6.12.51,9.17.88.88.11,1.77.17,2.64.35a18.68,18.68,0,0,1,4,1c.1,0,.24.11.34,0s0-.27,0-.38a8.4,8.4,0,0,0-.61-.94c-.73-.9-1.53-1.75-2.21-2.68a39.12,39.12,0,0,0-3-3.46c-1.67-1.76-3.36-3.49-5-5.23a1.74,1.74,0,0,0-.62-.45,26.73,26.73,0,0,0-2.63-1A9.38,9.38,0,0,0,68.73,21.38ZM65.35,65.92a4.47,4.47,0,0,0,1.84-.87c2.14-1.37,4.12-3,6.34-4.22a.41.41,0,0,0,0-.74,2.94,2.94,0,0,0-.51-.23c-2.12-.85-4.26-1.64-6.34-2.61-3.14-1.46-6.24-3-9.34-4.54a65.58,65.58,0,0,0-6.8-3.17,39.75,39.75,0,0,1-5.73-2.47.45.45,0,0,0-.64.09c-.17.23,0,.42.13.58a5,5,0,0,0,.41.39,57.45,57.45,0,0,1,5,4.71C53,56.16,56.19,59.41,59.07,63a3.12,3.12,0,0,0,.77.81c.75.43,1.5.88,2.25,1.33A5.56,5.56,0,0,0,65.35,65.92Zm73-12.38a4.23,4.23,0,0,0,1.24-.36,1,1,0,0,0,.44-1.71,7.24,7.24,0,0,0-5.58-2.74,6.05,6.05,0,0,0-3,.58c-.64.3-.76.66-.44,1.25a4.35,4.35,0,0,0,2.42,2.08A9.5,9.5,0,0,0,138.31,53.54ZM173,65.1c.24,0,.48,0,.5-.28s-.18-.3-.36-.37a6.15,6.15,0,0,0-1.28-.32,15.91,15.91,0,0,0-4,0,31.57,31.57,0,0,0-4.41.88c-.23.06-.42.19-.4.46a.39.39,0,0,0,.41.38,19.78,19.78,0,0,0,3.92.09A32.63,32.63,0,0,1,173,65.1Zm-43.42,3.3-.58.12c-.66.19-.77.51-.39,1.08a4,4,0,0,0,.91.89c.21.17.36.17.41-.15a1,1,0,0,1,.75-.94A3.53,3.53,0,0,1,134,70c.31.28.56.62.27,1.08,0,.07-.1.15,0,.23s.2,0,.29,0a4.56,4.56,0,0,0,1.58-.81c.49-.42.56-.85.05-1.22a3.86,3.86,0,0,0-1.87-.91A34.64,34.64,0,0,0,129.57,68.4Zm36.13,5.28c-.3.11-.62.19-.91.33s-.39.55,0,.79a4,4,0,0,1,1.47,1.72c.22.47.51.92.77,1.37.14.25.39.34.49,0a3.42,3.42,0,0,0,.08-2.44,5.49,5.49,0,0,0-1.05-1.5A.87.87,0,0,0,165.7,73.68Zm1.08-4.48c-.25,0-.47,0-.51.28s.13.33.3.43a10,10,0,0,0,4.27,1.37c.16,0,.36.06.44-.15a.36.36,0,0,0-.19-.43c-.41-.27-.86-.49-1.26-.78A5.38,5.38,0,0,0,166.78,69.2Zm4.68-14.06a1.45,1.45,0,0,0,.78-.39.36.36,0,0,0,.16-.35.33.33,0,0,0-.34-.26,6.15,6.15,0,0,0-.86,0c-.33.05-.85,0-.86.41s.52.49.89.58A.84.84,0,0,0,171.46,55.14Z"/><path d="M133.87,49.69a4.19,4.19,0,0,1,3.43,1.39,1,1,0,0,1-.45,1.73,1.86,1.86,0,0,1-1.35.13,5.39,5.39,0,0,1-2.32-1.12c-.36-.34-.72-.71-.52-1.23A1.36,1.36,0,0,1,133.87,49.69Z"/><path class="cls-5" d="M168.33,76.57l.2-.06"/><path class="cls-5" d="M173.5,62.06a6.6,6.6,0,0,1-1.65.38"/><path class="cls-5" d="M127.42,67.41a1.34,1.34,0,0,1,0,.63"/><path class="cls-5" d="M130.6,69.38c.05.19,0,.42.15.59"/><path class="cls-5" d="M161.39,58.36l.09.34"/><path class="cls-5" d="M168,62.55l.1.61"/></g></g></svg>