<svg xmlns="http://www.w3.org/2000/svg" viewBox="0 0 223.82 151.52"><defs><style>.cls-1,.cls-10,.cls-2,.cls-5,.cls-9{fill:#fff;}.cls-1,.cls-2,.cls-3,.cls-4,.cls-6,.cls-7,.cls-8,.cls-9{stroke:#000;}.cls-1,.cls-2,.cls-3,.cls-4,.cls-6{stroke-miterlimit:10;}.cls-1{stroke-width:1.62px;}.cls-2,.cls-3,.cls-4,.cls-8,.cls-9{stroke-width:1.35px;}.cls-3{fill:#8e8e8e;}.cls-4,.cls-8{fill:none;}.cls-6{stroke-width:0.54px;}.cls-7,.cls-8,.cls-9{stroke-linecap:round;stroke-linejoin:round;}.cls-7{stroke-width:1.08px;}.cls-10{opacity:0.59;}</style></defs><g id="レイヤー_2" data-name="レイヤー 2"><g id="ガイド"><path class="cls-1" d="M9.83,125.87s6.64,24.72,13.1,24.72,150,.28,158.14,0S193,125.87,193,125.87"/><path class="cls-2" d="M196.69,128.25H7.13a6.48,6.48,0,0,1-6.46-6.46L5.52,58.31A6.48,6.48,0,0,1,12,51.85H189.15a6.48,6.48,0,0,1,6.46,6.46l7.54,63.48A6.48,6.48,0,0,1,196.69,128.25Z"/><path class="cls-3" d="M116.85,124.63l-78.27-17A6.47,6.47,0,0,1,33.64,100l7.91-36.44a6.47,6.47,0,0,1,7.68-4.94L168.62,84.49a6.48,6.48,0,0,1,4.95,7.68l-7.17,33"/><path class="cls-4" d="M183,61.81c.84,4.93,1.75,8.16,4.07,6.62C190.8,65.93,183,61.81,183,61.81Z"/><path class="cls-4" d="M166.6,58.87c-4.09,2.89-6.61,5.1-4.22,6.53C166.24,67.7,166.6,58.87,166.6,58.87Z"/><path class="cls-5" d="M153.25,98.67a17.74,17.74,0,0,0-7.84-2.16,2.88,2.88,0,0,0-1-.18,10.05,10.05,0,0,0-4.63,1.22c-1.19.58-2.34,1.44-3.71,1.44a3.21,3.21,0,0,0-.63.06c-.62-1.16-1.23-2.31-1.88-3.45l0-.09a9.61,9.61,0,0,0-4.37,0l-.28.08a2.4,2.4,0,0,0-.12-.38,3.41,3.41,0,0,1-1.14-.15,39.3,39.3,0,0,1-4.91-1.86,3.06,3.06,0,0,1-1.31-1.23c-.57-.07-1.1-.13-1.56-.21-6.76-1.23-13.51-2.5-20-4.94C97.31,82.6,93.58,79,90.26,75.47c-1.72-1.85-3.44-3.07-6.08-2.42a25.57,25.57,0,0,0-7,3.32l-.07,0a2.09,2.09,0,0,0-1.08,0,1.94,1.94,0,0,0-1,.32l-.54.42a2.65,2.65,0,0,0-.68,1.15,23.55,23.55,0,0,0-4.75,1.57,24.23,24.23,0,0,1-6.48,1.65l-7.83-1.56a2.65,2.65,0,0,0-2.39.65c-.73-.2-1.47-.4-2.22-.58a2.66,2.66,0,0,0-3.3,2.26c.17.07.33.14.5.23,2.31,1.31,4.9,1.94,7.28,3.11A12.45,12.45,0,0,1,57,87a3.11,3.11,0,0,1,1.9,1l.19.2h0a2.35,2.35,0,0,0,1.69,0l2.7,1a2.37,2.37,0,0,0,1.24,1.33l2.67,1.3a2.93,2.93,0,0,0-.18,2.1,10.37,10.37,0,0,1,1.6,1.79,18.63,18.63,0,0,1,5.44,5c1.35,2.07,2.49,4.2,4.88,5.23a5.6,5.6,0,0,0,1.5.41c.64-.28,1.28-.56,1.91-.86a4.34,4.34,0,0,1,2-.46c.53-.58,1.06-1.14,1.61-1.69a3.7,3.7,0,0,1,3.24-1l1-.83,2.52.9c4.93,1.72,9.91,3.32,14.89,4.94,4.62,1.5,9.27,3.45,14.13,4a2.1,2.1,0,0,0,2.41-1.46,10.16,10.16,0,0,0,7.33,2,4.71,4.71,0,0,1,.44-.56,3.87,3.87,0,0,1,2.67-1.1,3.79,3.79,0,0,1,1.37.26,2.39,2.39,0,0,0,.23-.22c1.56.92,3.15,1.81,4.77,2.64l.11.06a3,3,0,0,0-.14,1.46,3.3,3.3,0,0,1,.57.34,3.34,3.34,0,0,1,2.14,1.65l3.29-.35.08-.06a3.86,3.86,0,0,1,2.92-.38l.21.06a2.62,2.62,0,0,0,.59-.25H151c.08.23.16.46.24.71l.18.14a3,3,0,0,1,1,1.07,8.16,8.16,0,0,1,.47,1.15,2.56,2.56,0,0,0,1.58.25,7.37,7.37,0,0,1,.3-1.76,3.87,3.87,0,0,1,1.69-2.2c-.14-.46-.29-.91-.47-1.36.75-3.09,1.85-6.32,2.1-9.46S155.58,99.87,153.25,98.67Z"/><path class="cls-6" d="M157,103.86a19,19,0,0,1,2.91.84,3,3,0,0,1,.41.17.51.51,0,0,1,.29.48.45.45,0,0,1-.32.45c-.27.09-.43.17-.07.39a.45.45,0,0,1,.19.58.48.48,0,0,1-.57.3,5.8,5.8,0,0,0-2.16.12.61.61,0,0,0-.44.15c.07.13.19.1.3.11a13.19,13.19,0,0,1,2.29.56c.55.17.77.43.71.79s-.42.62-1,.61a10.68,10.68,0,0,0-2.46.15c-.13,0-.27,0-.4.13a2.11,2.11,0,0,0,.82.31c.87.29,1.76.54,2.64.81a1.26,1.26,0,0,1,.56.26.46.46,0,0,1,.15.53.46.46,0,0,1-.48.33,1.49,1.49,0,0,1-.47-.07,9.77,9.77,0,0,0-3-.18c-.08,0-.2,0-.22.09s.06.16.13.2a5.72,5.72,0,0,1,1.62,1.84.61.61,0,0,1,0,.79.54.54,0,0,1-.77,0,4.12,4.12,0,0,0-1.36-.54c-.22,0-.31,0-.23.24.13.4.26.79.37,1.2a.59.59,0,0,1-.21.75c-.29.2-.51,0-.73-.14s-.38-.3-.58-.45-.14-.13-.23-.07,0,.13,0,.2a6.29,6.29,0,0,1-.16,3.62c-.1.24-.24.45-.53.45s-.46-.2-.57-.45c-.31-.72-.64-1.43-1-2.14a2.93,2.93,0,0,0-1.26-1.08.25.25,0,0,0-.25,0,.85.85,0,0,0-.19.1,4.58,4.58,0,0,1-3.57.93,12.07,12.07,0,0,1-3.26-.58,2.41,2.41,0,0,1-.66-.38c-1.41-1.12-2.64-2.43-4-3.64a12.59,12.59,0,0,0-2.65-1.49,2.7,2.7,0,0,0-1.73-.38,4.26,4.26,0,0,0-2.33,1.17,3.39,3.39,0,0,1-2,1.06,6.32,6.32,0,0,1-3.65-.67,4.74,4.74,0,0,1-1.26-1.06,5.48,5.48,0,0,1-.4-.44c-.22-.28-.4-.21-.58,0s-.3.39-.47.57a2,2,0,0,1-1.1.52,10.37,10.37,0,0,1-4.07-.53c-2.61-.61-5.21-1.24-7.86-1.67-1.4-.22-2.74-.68-4.11-1s-2.53-.73-3.81-1c-1.51-.37-2.94-1-4.41-1.44-.62-.21-1.26-.35-1.89-.52-1.1-.29-2.13-.83-3.21-1.2-1.61-.55-3.24-1.08-4.85-1.64a2,2,0,0,0-1.26.07,10.12,10.12,0,0,0-2.47,1.37c-.94.56-1.81,1.25-2.77,1.76a3.54,3.54,0,0,1-3.75.11A14.64,14.64,0,0,1,76,104.45a9.15,9.15,0,0,1-1.32-1.67A48.55,48.55,0,0,0,71,98.09c-.84-1-1.67-2-2.57-2.94-1.51-1.56-2.91-3.21-4.54-4.64a4.84,4.84,0,0,0-1-.59c-2.73-1.41-5.45-2.85-8.19-4.23a36.85,36.85,0,0,0-4.75-1.92,9.93,9.93,0,0,1-3-1.65,2.25,2.25,0,0,1-.63-.81,1,1,0,0,1,.88-1.22,24.5,24.5,0,0,1,2.84,0q5.78.06,11.55.28c1.15,0,2.3-.15,3.46-.08a.93.93,0,0,0,.38-.12l3.3-1.48a4.81,4.81,0,0,1,1.55-.27A6.38,6.38,0,0,0,71.94,78c2-.71,3.8-2,5.79-2.77,1.57-.64,3.11-1.35,4.72-1.9a9.47,9.47,0,0,1,4.39-.51,9.28,9.28,0,0,1,2,.74,4.36,4.36,0,0,1,1.75,1.35c.88,1,1.85,1.94,2.71,3,1.24,1.49,2.33,3.11,3.43,4.71.48.71,1,1.4,1.44,2.13a1.26,1.26,0,0,0,.82.57c1.43.39,2.84.85,4.28,1.25.91.25,1.85.37,2.76.64,2,.6,4.1,1.06,6.1,1.73s4.12,1.34,6.14,2.1c1.19.44,2.43.71,3.65,1l5.15,1.44a1.28,1.28,0,0,1,1,1.18c.11.87.1.85.88.45a3.88,3.88,0,0,1,2.66-.27,9.87,9.87,0,0,1,2.41.79,3.81,3.81,0,0,1,1.23,1,5.64,5.64,0,0,0,2.32,1.31.53.53,0,0,0,.42-.07c1.59-.75,3.18-1.5,4.78-2.23a3.86,3.86,0,0,1,1.81-.25,25.06,25.06,0,0,1,3,.36,8.35,8.35,0,0,1,2.85,1.17c1.18.71,2.33,1.46,3.54,2.12a2.09,2.09,0,0,0,1.64.19,23.79,23.79,0,0,1,2.35-.75c.27,0,.52-.08.69.19a.53.53,0,0,1-.16.72c-.2.19-.38.38-.57.58s-.15.11-.12.21.15.11.24.11l1.26,0h.4a.57.57,0,0,1,.58.39.56.56,0,0,1-.29.66l-.61.41c-.2.13-.23.23,0,.41a11.45,11.45,0,0,1,1,1,.66.66,0,0,1,.16.87.84.84,0,0,1-.92.28c-.67-.17-1.34-.32-2-.47A.64.64,0,0,0,157,103.86ZM121.82,111c.63,0,.75-.21.58-.73a6.5,6.5,0,0,0-.25-.61,2.14,2.14,0,0,1,0-1.72,3.88,3.88,0,0,1,1-1.38c.44-.46.93-.88,1.35-1.36a7,7,0,0,1,1.11-1.07,1.21,1.21,0,0,0,.33-1.84,2.89,2.89,0,0,1-.53-1.17,6.5,6.5,0,0,1,0-3.16,11.82,11.82,0,0,1,1.06-2.78,1.56,1.56,0,0,0,.17-.37.35.35,0,0,0-.27-.53c-.45-.13-.89-.3-1.34-.41-1.15-.26-2.28-.59-3.4-1-2.16-.71-4.34-1.35-6.51-2-1.9-.62-3.79-1.28-5.73-1.8-1.4-.38-2.79-.78-4.19-1.17-.91-.26-1.85-.4-2.75-.69-1.27-.4-2.56-.71-3.82-1.14a41,41,0,0,0-5.65-1.52c-1.4-.27-2.8-.54-4.21-.79a32.78,32.78,0,0,0-5.85-.68,27.86,27.86,0,0,1-6.17-.76,41,41,0,0,0-6.13-.83c-1.49-.08-3-.12-4.46-.22a27.16,27.16,0,0,0-4.23-.06,9.79,9.79,0,0,1-2,.07,19.2,19.2,0,0,0-2.39-.17c-2.65,0-5.29-.15-7.93-.27l-1.69,0a.36.36,0,0,0-.4.21.4.4,0,0,0,.12.43,1.05,1.05,0,0,0,.3.22c.55.26,1.11.53,1.68.75q3.42,1.35,6.69,3c1.38.7,2.74,1.45,4.13,2.14s3.08,1.48,4.62,2.22c1.37.65,2.72,1.38,4.12,2a60.33,60.33,0,0,1,7.25,3.71c3,1.76,6,3.29,9.11,4.77,1.4.67,2.84,1.22,4.3,1.75,1.74.62,3.46,1.29,5.19,1.92,1.22.45,2.49.76,3.72,1.2,1.08.4,2.17.78,3.28,1.11l4.78,1.39c.86.24,1.72.5,2.59.72,2.23.57,4.54.74,6.76,1.37,1.39.39,2.82.68,4.22,1A4.05,4.05,0,0,0,121.82,111Zm21-11.61-.7.08c-.16,0-.35.1-.41-.11s.11-.29.25-.35a3.69,3.69,0,0,1,1.72-.47,4.46,4.46,0,0,0,.89,0,3.31,3.31,0,0,1,2.77.93,9.23,9.23,0,0,0,5,2.29,3.12,3.12,0,0,0,1.6-.11,7.45,7.45,0,0,0,2.76-1.51c.18-.15.58-.25.38-.55s-.47,0-.67.14a2.83,2.83,0,0,1-3.13.08c-1.13-.64-2.16-1.46-3.33-2a7.18,7.18,0,0,0-2.19-.92,23.46,23.46,0,0,1-2.37-.41,2.88,2.88,0,0,0-1.24,0,12,12,0,0,0-2.62.73,15.06,15.06,0,0,0-3,1.62,1.2,1.2,0,0,1-1.37.17c-.13-.07-.28-.11-.4-.19-.27-.2-.36-.08-.4.19a1,1,0,0,1-.57.85,5.72,5.72,0,0,1-2.38.62,6.27,6.27,0,0,1-5.61-3.32c-.14-.22-.25-.45-.4-.67s-.32-.2-.47,0a1.29,1.29,0,0,0-.17.33,9.2,9.2,0,0,0-.6,3.28,3.17,3.17,0,0,0,.39,1.41,8.51,8.51,0,0,1,.54.92c.36.73.68,1.48,0,2.21a4,4,0,0,1-1,.8,10.1,10.1,0,0,0-2.5,2.15,1.23,1.23,0,0,0-.3,1.17c.06.26.14.52.21.78s.22.31.39.13a2.54,2.54,0,0,1,1.86-.66c.3,0,.58.14.87.06a6.5,6.5,0,0,1,2.6-.07,5.09,5.09,0,0,1,3.38,1.33c.17.19.36.11.53,0a2.21,2.21,0,0,1,1-.47l1.25-.16a2.14,2.14,0,0,1,.83.09,20.49,20.49,0,0,1,2.26,1,3.08,3.08,0,0,1,1.27,1,7.34,7.34,0,0,0,.84.92c.82.71,1.59,1.47,2.35,2.24a3.14,3.14,0,0,0,1.65.92,14.71,14.71,0,0,0,3,.39,3.85,3.85,0,0,0,1.58-.32,18.81,18.81,0,0,0,2.31-1.21,3.24,3.24,0,0,1,2-.66,3,3,0,0,1,1.29.59c.14.08.3.2.44,0s0-.28-.11-.41a3.53,3.53,0,0,0-2.39-1.46,3.2,3.2,0,0,0-1.15-.2l-1.29.13a20.33,20.33,0,0,0-3,.66,9.4,9.4,0,0,1-3,0,.4.4,0,0,1-.22-.12l-2.68-2a3.2,3.2,0,0,1-.54-.5c-.12-.14-.27-.33-.09-.52s.35-.1.54,0a5.56,5.56,0,0,1,1.55,1.17,4.23,4.23,0,0,0,1.27,1,4.85,4.85,0,0,0,3.65,0,4.76,4.76,0,0,1,1.54-.32,3,3,0,0,0,1.33-.25,10.53,10.53,0,0,1,2.9-.81,5,5,0,0,1,1.68,0c.77.09,1.55.15,2.32.2.13,0,.3,0,.31-.18s-.14-.2-.26-.22c-.69-.09-1.35-.35-2.05-.43-1.75-.19-3.49-.39-5.24-.61a18,18,0,0,0-4.92-.07,6.86,6.86,0,0,1-2-.13c-.14,0-.28-.06-.3-.22a.34.34,0,0,1,.23-.35.86.86,0,0,1,.36-.07c.68,0,1.37,0,2.06,0a13,13,0,0,0,2.79-.13c1.58-.39,3.16-.75,4.7-1.26a11.87,11.87,0,0,1,4.53-.69,1.81,1.81,0,0,0,.83-.09c.11,0,.26-.07.27-.22s-.17-.19-.3-.22a6.86,6.86,0,0,0-1.5-.13c-1.78-.08-3.56.1-5.34.19a20.32,20.32,0,0,1-4.74-.1,1.51,1.51,0,0,1-.65-.24.23.23,0,0,1-.12-.25.21.21,0,0,1,.21-.17,3.87,3.87,0,0,1,.59,0,20.83,20.83,0,0,0,4.67,0,32.25,32.25,0,0,1,6.59-.06,1.22,1.22,0,0,0,.33,0,.21.21,0,0,0,.19-.15c0-.1,0-.15-.12-.2a1.17,1.17,0,0,0-.48-.18c-.92-.22-1.87-.32-2.8-.5a12.91,12.91,0,0,0-4.8,0,9.7,9.7,0,0,1-3.48-.1,3.19,3.19,0,0,1-.65-.24c-.21-.1-.36-.25-.28-.5s.3-.21.49-.17a8.21,8.21,0,0,0,1.79.24c1.28-.08,2.57-.17,3.86-.21a9.44,9.44,0,0,0,2.36-.26,6.91,6.91,0,0,1,3.61,0c.16,0,.38.1.45-.11s-.15-.27-.3-.35c-.49-.3-1.11-.28-1.58-.58a2.21,2.21,0,0,0-2.43,0,1,1,0,0,1-.23.11,3.26,3.26,0,0,1-1.23.22c-.44,0-.87-.13-1.31-.19a8,8,0,0,1-4.12-1.74,4.66,4.66,0,0,0-.49-.39,3.47,3.47,0,0,0-2-.83Zm-58-25.71a30.5,30.5,0,0,0-3.36.91c-1.36.51-2.65,1.18-4,1.69A27.25,27.25,0,0,0,74.39,78a3.54,3.54,0,0,1-.73.42,36,36,0,0,1-4,1.1,10.87,10.87,0,0,0-1.89.59c-.09,0-.22.07-.21.18s.15.1.24.11c.35,0,.71.07,1.06.07.92,0,1.79.32,2.71.36a28.35,28.35,0,0,1,3.56.31c1.55.28,3.08.65,4.64.83,1.89.23,3.8.32,5.69.57,2.19.29,4.39.59,6.57,1,.63.11,1.26.19,1.88.35a13.28,13.28,0,0,1,2.81.88c.07,0,.17.09.24,0s0-.19,0-.28a4.82,4.82,0,0,0-.41-.69c-.49-.68-1-1.32-1.49-2a26.38,26.38,0,0,0-2-2.59c-1.13-1.33-2.29-2.63-3.43-4a1.1,1.1,0,0,0-.43-.34,18,18,0,0,0-1.86-.8A6.58,6.58,0,0,0,84.91,73.72Zm-4,31.94a3.12,3.12,0,0,0,1.35-.57c1.6-.9,3.08-2,4.72-2.8a.29.29,0,0,0,.06-.53,1.78,1.78,0,0,0-.36-.19c-1.5-.69-3-1.34-4.47-2.11-2.21-1.16-4.39-2.37-6.56-3.6a47.55,47.55,0,0,0-4.79-2.53,28.94,28.94,0,0,1-4-2,.31.31,0,0,0-.46,0c-.13.16,0,.3.07.42a3.83,3.83,0,0,0,.28.29,43.35,43.35,0,0,1,3.46,3.58c2.15,2.5,4.37,5,6.32,7.64a2.16,2.16,0,0,0,.52.61c.53.34,1,.69,1.57,1A4,4,0,0,0,80.87,105.66Zm53-6.29a2.9,2.9,0,0,0,.9-.22.74.74,0,0,0,.38-1.21,5.2,5.2,0,0,0-3.91-2.17,4.36,4.36,0,0,0-2.2.31c-.47.19-.57.44-.36.88a3.15,3.15,0,0,0,1.66,1.59A6.81,6.81,0,0,0,133.84,99.37Zm24.55,9.57c.17,0,.34,0,.37-.18s-.12-.22-.25-.28a4,4,0,0,0-.91-.27,11.26,11.26,0,0,0-2.9-.14,21.68,21.68,0,0,0-3.2.48c-.16,0-.31.12-.31.31a.29.29,0,0,0,.29.29,13.34,13.34,0,0,0,2.82.2A23.93,23.93,0,0,1,158.39,108.94Zm-31.38.81-.42.07c-.48.11-.57.34-.32.76a2.87,2.87,0,0,0,.62.68c.15.13.25.13.3-.1a.75.75,0,0,1,.58-.65,2.56,2.56,0,0,1,2.34.57c.21.21.38.47.15.79,0,0-.08.1,0,.16a.2.2,0,0,0,.21,0,3.44,3.44,0,0,0,1.17-.53c.36-.28.43-.59.07-.88a2.84,2.84,0,0,0-1.3-.72A26.14,26.14,0,0,0,127,109.75Zm25.82,5.1c-.22.07-.45.12-.66.21s-.31.39,0,.57a2.81,2.81,0,0,1,1,1.29c.15.35.34.68.51,1,.1.18.27.25.35,0a2.47,2.47,0,0,0,.15-1.75,4.21,4.21,0,0,0-.7-1.12A.64.64,0,0,0,152.83,114.85Zm.94-3.18c-.18,0-.34,0-.37.18s.08.24.2.32a7,7,0,0,0,3,1.14c.12,0,.26.06.33-.09a.26.26,0,0,0-.12-.31c-.29-.21-.6-.39-.88-.61A3.91,3.91,0,0,0,153.77,111.67Zm3.88-10a1,1,0,0,0,.57-.26.23.23,0,0,0-.11-.44,3.19,3.19,0,0,0-.62,0c-.24,0-.61-.07-.63.26s.36.37.62.45A.54.54,0,0,0,157.65,101.72Z"/><path class="cls-6" d="M130.78,96.44a3,3,0,0,1,2.42,1.12.75.75,0,0,1-.39,1.23,1.35,1.35,0,0,1-1,0,4,4,0,0,1-1.63-.89c-.25-.26-.49-.54-.33-.91A1,1,0,0,1,130.78,96.44Z"/><path class="cls-7" d="M154.62,117l.14,0"/><path class="cls-7" d="M158.87,106.77a4.45,4.45,0,0,1-1.2.21"/><path class="cls-7" d="M125.5,109a.82.82,0,0,1,0,.44"/><path class="cls-7" d="M127.72,110.49c0,.15,0,.31.08.44"/><path class="cls-7" d="M150.28,103.67l.05.25"/><path class="cls-7" d="M154.91,106.93l.05.44"/><path class="cls-8" d="M35.64,74.89H27.35c-7.72,0-8.71,3.51-9.13,4.21S15.13,117,15,117.72"/><path class="cls-8" d="M176,74.86s4.49-.61,6,1.88,6.6,39.69,6.6,39.69"/><path class="cls-4" d="M195.66,124.63H8.51A3.69,3.69,0,0,1,4.84,121l4.84-62a3.68,3.68,0,0,1,3.68-3.67H188.12a3.69,3.69,0,0,1,3.68,3.67l7.53,62A3.69,3.69,0,0,1,195.66,124.63Z"/><path class="cls-9" d="M163.11,80.6s5.19-2.1,5.76-4.77,1.67-3.3,1.67-3.3c.85,0,0-26.26,0-26.26h3.66V72.53s-.28-.33.56,1,4.89,9.46,7,11.24"/><path class="cls-10" d="M67.57,120c1.24-2.3,2.89,16.45,23.12-15.45,12.19-19.22,5.76,5.09,10.75,6.73S108.53,110,111.9,106s7.4-6.49,11.71-7,5.42-1.57,8-5.23,13.16-5.51,15.94-4.5C172.85,98.46,174.39,86,174.39,86l-13.14-5.25-5.72,1s.72-.27-3.23,1c-12.73,4.08-12.17,6-13.86,1.32s-6.53-4.85-12.64-.85-16,6-16.43-.47S102,77.5,93.78,85.92,69.39,107.67,70.4,99.27C70.68,97,78,87.19,62.61,95.61S38.8,108.67,32.27,111.83,67.57,120,67.57,120Z"/><path class="cls-5" d="M206.65,3.61a10.22,10.22,0,0,0-3.44-.27c-2.54.12-5.08.11-7.61,0a20.4,20.4,0,0,0-4.06.07A3.35,3.35,0,0,0,189.07,5h19.39A2.84,2.84,0,0,0,206.65,3.61Z"/><path class="cls-5" d="M197.42,6.46c-.77-.06-1,.21-.92.94.06,1.08,0,1.08,1.11,1.09h2c1.52,0,1.28.25,1.33-1.36,0-.53-.17-.68-.67-.66A25.15,25.15,0,0,1,197.42,6.46Z"/><path class="cls-5" d="M197,2h3.55c.26,0,.45-.06.43-.38s-.24-.26-.43-.26c-1.19,0-2.38,0-3.56,0-.2,0-.42,0-.43.27S196.72,2,197,2Z"/><path class="cls-5" d="M217.38,23.93c-2.15,0-4.29,0-6.44,0a8.49,8.49,0,0,1-5-1.54,3.12,3.12,0,0,1-1.67-2.67c0-.52-.28-.55-.7-.54-1.58,0-3.17,0-4.75,0s-3.05,0-4.58,0c-.67,0-.92.14-.95.86a18.54,18.54,0,0,1-.63,4.18,2.51,2.51,0,0,1-2.16,2,39.19,39.19,0,0,1-6.67.41,26.81,26.81,0,0,0-5.06.43c-3.88.76-6.83,2.72-8.29,6.55a22.69,22.69,0,0,0-1.24,6.2c-.05.57-.06,1,.73.95.39,0,.62.22.62.64a.63.63,0,0,1-.61.68,8.09,8.09,0,0,1-1.1,0c-1.24,0-1.33.1-1.34,1.37v.42c0,1,.19,1.23,1.25,1.24h6.7c1.93,0,2-.12,1.93-2.08,0-.66-.3-1-1-1-.93,0-1.86,0-2.8,0-.43,0-.78-.19-.79-.69s.34-.67.78-.67a11.53,11.53,0,0,1,1.44,0c.72.09.94-.23,1-.89a11.59,11.59,0,0,1,.71-3.64,5,5,0,0,1,5-3.56,14.32,14.32,0,0,1,8,2.61c1.57,1,3.08,2.1,4.65,3.11a7.93,7.93,0,0,0,4.49,1.57,10.67,10.67,0,0,0,7.85-4,9.47,9.47,0,0,1,7.37-3.39c1.1,0,2.2,0,3.3,0,.56,0,.72-.18.71-.73q0-3.6,0-7.2C218.11,24.07,217.92,23.93,217.38,23.93Z"/><path class="cls-5" d="M194.15,17.81c1.52,0,3,0,4.57,0h4.74c.74,0,1.09-.32,1.07-1.08,0-1,0-2,0-3s-.14-1.18-1.16-1.19h-5.17c-.48,0-.94-.1-.95-.71s.47-.67.95-.67c1.41,0,2.82,0,4.23,0,.27,0,.69.2.79-.23a1,1,0,0,0-.44-.86,1.4,1.4,0,0,0-1-.23h-6.35a1.07,1.07,0,0,0-1.09.89c-.17.68.47.34.73.48a.66.66,0,0,1,.41.59.64.64,0,0,1-.42.66,2.21,2.21,0,0,1-.92.09c-1.06,0-1.2.14-1.2,1.23,0,.94,0,1.87,0,2.8S193.15,17.8,194.15,17.81Z"/><path class="cls-5" d="M222.49,18.6c0-.26.09-.61-.38-.58s-.32.39-.32.63c0,1.25,0,2.49,0,3.73,0,2.2,0,4.41,0,6.61,0,.71-.41,1-.94.78s-.38-.58-.38-.94V21.42a1.46,1.46,0,0,0-1.07,1.47c0,3.56,0,7.11,0,10.67a1.25,1.25,0,0,0,1.06,1.35c0-.51,0-1,0-1.41s0-.89.62-.91.71.4.71.91c0,1.41,0,2.82,0,4.23,0,.28-.06.61.39.58s.32-.33.32-.56Q222.51,28.18,222.49,18.6Z"/><path class="cls-5" d="M223.18,16.63c-2.35-.39-2.72-.1-2.72,2.22v.08a1,1,0,0,1-.7,1.25,2.45,2.45,0,0,0-1.64,1.8c-.07.51-.26.59-.69.58-2.2,0-4.4,0-6.61,0A6.91,6.91,0,0,1,206.36,21a2.06,2.06,0,0,1-.75-1.35,8.62,8.62,0,0,1,.21-2.39c.09-1.1,0-2.21,0-3.31a2.57,2.57,0,0,0-.93-2.48c-.34-.25-.29-.72-.4-1.1a2.15,2.15,0,0,0-1.36-1.61c-.89-.24-.89-.78-.9-1.49s.2-.81.82-.8c1.92,0,3.84,0,5.76,0,1.21,0,1.55-.46,1.11-1.6a4.41,4.41,0,0,0-3.5-2.75A11.52,11.52,0,0,0,203.24,2c-.78.06-1.08-.17-1-.95s-.27-1-1-1c-1.64,0-3.28,0-4.91,0-1.06,0-1.18.09-1.12,1.18,0,.71-.24.83-.88.8a10.48,10.48,0,0,0-3.86.3,4.17,4.17,0,0,0-2.94,2.8c-.3,1,0,1.38,1.05,1.39,1.92,0,3.84,0,5.76,0,.3,0,.9-.24.82.37s.52,1.39-.48,1.73a2.11,2.11,0,0,0-1.35,1.1,6.87,6.87,0,0,1-1.47,2.58,1.36,1.36,0,0,0-.23,1.13,48.15,48.15,0,0,0,.3,5.2,12.8,12.8,0,0,1-.57,5.09A1.42,1.42,0,0,1,190,24.88a25.81,25.81,0,0,1-3.28.31,57.82,57.82,0,0,0-7.44.34c-4.46.69-8,2.66-9.88,7a21.58,21.58,0,0,0-1.55,7.17c0,.57-.07,1-.74,1.34a1.68,1.68,0,0,0-.94,1.68c0,.48,0,1,0,1.44a2,2,0,0,0,2.26,2.33c2.66,0,5.31,0,8,0A2.29,2.29,0,0,0,178,46c1-.88,1.11-4,0-4.73a1.55,1.55,0,0,1-.66-1.78,11.67,11.67,0,0,1,.61-2.8,3.78,3.78,0,0,1,3.87-2.7,13.57,13.57,0,0,1,7.47,2.65c1.63,1.06,3.22,2.19,4.87,3.22a8.55,8.55,0,0,0,6.23,1.31,12.47,12.47,0,0,0,7.42-4.39A7.79,7.79,0,0,1,212.94,34a42.59,42.59,0,0,1,4.66,0c.22,0,.46,0,.49.31a2.36,2.36,0,0,0,1.54,1.87,1.31,1.31,0,0,1,.85,1.43c0,2.19-.36,2.18,2.21,2.15,1,0,1.12-.17,1.12-1.14q0-5.18,0-10.35c0-3.53,0-7.06,0-10.59C223.82,17.15,223.81,16.73,223.18,16.63ZM197,1.4c1.18,0,2.37,0,3.56,0,.19,0,.41,0,.43.26s-.17.38-.43.38H197c-.25,0-.46-.05-.44-.37S196.76,1.4,197,1.4ZM189.07,5a3.35,3.35,0,0,1,2.47-1.58,20.4,20.4,0,0,1,4.06-.07c2.53.07,5.07.08,7.61,0a10.22,10.22,0,0,1,3.44.27A2.84,2.84,0,0,1,208.46,5ZM201,7.13c-.05,1.61.19,1.32-1.33,1.36h-2c-1.09,0-1.05,0-1.11-1.09,0-.73.15-1,.92-.94a25.15,25.15,0,0,0,2.88,0C200.8,6.45,201,6.6,201,7.13Zm-6.81,5.45a2.21,2.21,0,0,0,.92-.09.64.64,0,0,0,.42-.66.66.66,0,0,0-.41-.59c-.26-.14-.9.2-.73-.48a1.07,1.07,0,0,1,1.09-.89h6.35a1.4,1.4,0,0,1,1,.23,1,1,0,0,1,.44.86c-.1.43-.52.23-.79.23-1.41,0-2.82,0-4.23,0-.48,0-1,0-.95.67s.47.71.95.71h5.17c1,0,1.15.14,1.16,1.19s0,2,0,3c0,.76-.33,1.09-1.07,1.08h-4.74c-1.52,0-3.05,0-4.57,0-1,0-1.18-.21-1.19-1.2s0-1.86,0-2.8C193,12.72,193.1,12.59,194.16,12.58ZM218.1,31.84c0,.55-.15.75-.71.73-1.1,0-2.2,0-3.3,0A9.47,9.47,0,0,0,206.72,36a10.67,10.67,0,0,1-7.85,4,7.93,7.93,0,0,1-4.49-1.57c-1.57-1-3.08-2.1-4.65-3.11a14.32,14.32,0,0,0-8-2.61,5,5,0,0,0-5,3.56,11.59,11.59,0,0,0-.71,3.64c0,.66-.24,1-1,.89a11.53,11.53,0,0,0-1.44,0c-.44,0-.79.15-.78.67s.36.68.79.69c.94,0,1.87,0,2.8,0,.69,0,1,.29,1,1,.1,2,0,2.08-1.93,2.08h-6.7c-1.06,0-1.23-.2-1.25-1.24v-.42c0-1.27.1-1.36,1.34-1.37a8.09,8.09,0,0,0,1.1,0,.63.63,0,0,0,.61-.68c0-.42-.23-.68-.62-.64-.79.07-.78-.38-.73-.95a22.69,22.69,0,0,1,1.24-6.2c1.46-3.83,4.41-5.79,8.29-6.55a26.81,26.81,0,0,1,5.06-.43,39.19,39.19,0,0,0,6.67-.41,2.51,2.51,0,0,0,2.16-2,18.54,18.54,0,0,0,.63-4.18c0-.72.28-.88.95-.86,1.53.05,3.06,0,4.58,0s3.17,0,4.75,0c.42,0,.71,0,.7.54a3.12,3.12,0,0,0,1.67,2.67,8.49,8.49,0,0,0,5,1.54c2.15,0,4.29,0,6.44,0,.54,0,.73.14.72.71Q218.06,28.24,218.1,31.84Zm4.07,6.47c-.45,0-.39-.3-.39-.58,0-1.41,0-2.82,0-4.23,0-.51-.08-.94-.71-.91s-.64.44-.62.91,0,.9,0,1.41a1.25,1.25,0,0,1-1.06-1.35c0-3.56,0-7.11,0-10.67a1.46,1.46,0,0,1,1.07-1.47v7.41c0,.36-.06.74.38.94s.93-.07.94-.78c0-2.2,0-4.41,0-6.61,0-1.24,0-2.48,0-3.73,0-.24-.14-.6.32-.63s.38.32.38.58q0,9.57,0,19.15C222.49,38,222.58,38.29,222.17,38.31Z"/><path d="M223.82,28.22q0,5.18,0,10.35c0,1-.15,1.13-1.12,1.14-2.57,0-2.25,0-2.21-2.15a1.31,1.31,0,0,0-.85-1.43,2.36,2.36,0,0,1-1.54-1.87c0-.34-.27-.31-.49-.31a42.59,42.59,0,0,0-4.66,0,7.79,7.79,0,0,0-5.09,2.76,12.47,12.47,0,0,1-7.42,4.39,8.55,8.55,0,0,1-6.23-1.31c-1.65-1-3.24-2.16-4.87-3.23A13.63,13.63,0,0,0,181.86,34a3.78,3.78,0,0,0-3.87,2.7,11.67,11.67,0,0,0-.61,2.8,1.55,1.55,0,0,0,.66,1.78c1.09.74,1,3.85,0,4.73a2.34,2.34,0,0,1-1.58.51c-2.66,0-5.31,0-8,0a2,2,0,0,1-2.26-2.33c0-.48,0-1,0-1.44a1.68,1.68,0,0,1,.94-1.68c.67-.3.7-.77.74-1.34a21.52,21.52,0,0,1,1.55-7.17c1.87-4.33,5.42-6.3,9.88-7a57.82,57.82,0,0,1,7.44-.34,25.81,25.81,0,0,0,3.28-.31,1.42,1.42,0,0,0,1.34-1.19,12.8,12.8,0,0,0,.57-5.09,48.29,48.29,0,0,1-.3-5.2,1.36,1.36,0,0,1,.23-1.13,6.87,6.87,0,0,0,1.47-2.58,2.11,2.11,0,0,1,1.35-1.1c1-.34.4-1.15.48-1.73s-.52-.36-.82-.37c-1.92,0-3.84,0-5.76,0-1,0-1.35-.41-1.05-1.39a4.17,4.17,0,0,1,2.94-2.8,10.48,10.48,0,0,1,3.86-.3c.64,0,.91-.09.88-.8C195.16.1,195.28,0,196.34,0c1.63,0,3.27,0,4.91,0,.76,0,1.15.25,1,1s.18,1,1,1a11.52,11.52,0,0,1,3.21.14A4.41,4.41,0,0,1,210,4.88c.44,1.14.1,1.59-1.11,1.6-1.92,0-3.84,0-5.76,0-.62,0-.83.15-.82.8s0,1.25.9,1.49a2.15,2.15,0,0,1,1.36,1.61c.11.38.06.85.4,1.1a2.57,2.57,0,0,1,.93,2.48c0,1.1.06,2.21,0,3.31a8.62,8.62,0,0,0-.21,2.39,2.06,2.06,0,0,0,.75,1.35,6.91,6.91,0,0,0,4.46,1.56c2.21,0,4.41,0,6.61,0,.43,0,.62-.07.69-.58a2.45,2.45,0,0,1,1.64-1.8,1,1,0,0,0,.7-1.25v-.08c0-2.32.37-2.61,2.72-2.22.63.1.64.52.64,1C223.81,21.16,223.82,24.69,223.82,28.22Zm-25-9c-1.52,0-3.05,0-4.58,0-.67,0-.92.14-.95.86a18.54,18.54,0,0,1-.63,4.18,2.51,2.51,0,0,1-2.16,2,39.19,39.19,0,0,1-6.67.41,26.81,26.81,0,0,0-5.06.43c-3.88.76-6.83,2.72-8.29,6.55a22.69,22.69,0,0,0-1.24,6.2c-.05.57-.06,1,.73.95.39,0,.62.22.62.64a.63.63,0,0,1-.61.68,8.09,8.09,0,0,1-1.1,0c-1.24,0-1.33.1-1.34,1.37v.42c0,1,.19,1.23,1.25,1.24h6.7c1.93,0,2-.12,1.93-2.08,0-.66-.3-1-1-1-.93,0-1.86,0-2.8,0-.43,0-.78-.19-.79-.69s.34-.67.78-.67a11.53,11.53,0,0,1,1.44,0c.72.09.94-.24,1-.89a11.59,11.59,0,0,1,.71-3.64,5,5,0,0,1,5-3.56,14.32,14.32,0,0,1,8,2.61c1.57,1,3.08,2.1,4.65,3.11a7.93,7.93,0,0,0,4.49,1.57,10.67,10.67,0,0,0,7.85-4,9.47,9.47,0,0,1,7.37-3.39c1.1,0,2.2,0,3.3,0,.56,0,.72-.18.71-.73q0-3.6,0-7.2c0-.57-.18-.71-.72-.71-2.15,0-4.29,0-6.44,0a8.49,8.49,0,0,1-5-1.54,3.12,3.12,0,0,1-1.67-2.67c0-.52-.28-.55-.7-.54C202,19.21,200.38,19.2,198.8,19.2Zm-.08-1.39h4.74c.74,0,1.09-.32,1.07-1.08,0-1,0-2,0-3s-.14-1.18-1.16-1.19h-5.17c-.48,0-.94-.1-.95-.71s.47-.67.95-.67c1.41,0,2.82,0,4.23,0,.27,0,.69.2.79-.23a.94.94,0,0,0-.44-.86,1.4,1.4,0,0,0-1-.23h-6.35a1.07,1.07,0,0,0-1.09.89c-.17.68.47.34.73.48a.66.66,0,0,1,.41.59.64.64,0,0,1-.42.66,2.21,2.21,0,0,1-.92.09c-1.06,0-1.2.14-1.2,1.23,0,.94,0,1.87,0,2.8s.19,1.19,1.19,1.2C195.67,17.82,197.2,17.81,198.72,17.81ZM208.46,5a2.84,2.84,0,0,0-1.81-1.42,10.22,10.22,0,0,0-3.44-.27c-2.54.12-5.08.11-7.61,0a20.4,20.4,0,0,0-4.06.07A3.35,3.35,0,0,0,189.07,5Zm12,16.39a1.46,1.46,0,0,0-1.07,1.47c0,3.56,0,7.11,0,10.67a1.25,1.25,0,0,0,1.06,1.35c0-.51,0-1,0-1.41s0-.89.62-.91.71.4.71.91c0,1.41,0,2.82,0,4.23,0,.28-.06.61.39.58s.32-.33.32-.56q0-9.57,0-19.15c0-.26.09-.61-.38-.58s-.32.39-.32.63c0,1.25,0,2.49,0,3.73,0,2.2,0,4.41,0,6.61,0,.71-.41,1-.94.78s-.38-.58-.38-.95ZM198.71,8.49h.93c1.52,0,1.28.25,1.33-1.36,0-.53-.17-.68-.67-.66a25.15,25.15,0,0,1-2.88,0c-.77-.06-1,.21-.92.94.06,1.08,0,1.08,1.11,1.09ZM198.66,2h1.86c.26,0,.45-.06.43-.38s-.24-.26-.43-.26c-1.19,0-2.38,0-3.56,0-.2,0-.42,0-.43.27s.19.37.44.37Z"/></g></g></svg>