<svg xmlns="http://www.w3.org/2000/svg" viewBox="0 0 614.26 674.76"><defs><style>.cls-1{opacity:0.1;}.cls-2{fill:#0d1037;}</style></defs><g id="レイヤー_2" data-name="レイヤー 2"><g id="ガイド"><g class="cls-1"><path class="cls-2" d="M614,653.6l-7-9.47-5.16-.64.16-3.87,2.94-5.17a3.35,3.35,0,0,0-1.41-4.64l-4.27-2.14-2.42-7.42-1.28-.46A3.14,3.14,0,0,1,593.6,616l1.13-4,5.52-3.52a4,4,0,0,0,1.81-3.75l-.23-2.25-6.45-2.74-4.84.65.21-7.82a3.12,3.12,0,0,0-4-3.07l-13.31,4-.24-4.39a3.28,3.28,0,0,0-1.37-2.5l-2.82-2a4.18,4.18,0,0,0-3.39-.69l-2.32.52a2.19,2.19,0,0,1-2.65-1.8l-.28-1.72L557,575.72l2.58-7.59-1.41-5.08a3.33,3.33,0,0,0-4.95-2l-16.87,10.33a4.37,4.37,0,0,1-5.5-.78l-9.51-10.39A5.84,5.84,0,0,1,520,555l2.17-8.93.28-7.76a3,3,0,0,1,1.2-2.31l2.88-2.19-1-11.22a4.27,4.27,0,0,0-3-3.68l-4.4-1.4L511.5,508l3.06-5.16L510.37,500l-.16-3.06-5.55-.17a2.73,2.73,0,0,1-2.1-4.37l2.16-2.89-4.51-4.35,3.06-.49,1-6.77s-3.71-1.46-4.36-1.29-1-7.1-1-7.1l-3.38-4a2.77,2.77,0,0,1,.67-4.17l7.55-4.6,1.77-20,5.65-24.36-.49-10,2.76-5.51a3.86,3.86,0,0,0-1.14-4.81l-3.88-2.91-2.09-18.56-4.88-15.47a3.81,3.81,0,0,1,1.2-4.07l2.71-2.24V337.72l4.52-14.2,5.26-5.54a3.21,3.21,0,0,0,.87-2.55l-.12-1a2.05,2.05,0,0,0-3.22-1.46l-10,7-12.91-28.08-8.06-2.09L475,276.08l-7.9-1,.94-3.78A3.58,3.58,0,0,0,465,266.9l-6.35-.72a4,4,0,0,0-3.7,1.66l-2.51,3.56-6.77-1-.31-.35a2.83,2.83,0,0,0-4.09-.18l-2.89,2.77a6.15,6.15,0,0,1-6.57,1.27l-37.32-15.1a14,14,0,0,0-5.95-1l-14.49.66L371.86,256a4.79,4.79,0,0,0-3.37-1.61l-19.59-.88-4.51-3.55,2.29-4.91a4.57,4.57,0,0,0-.67-4.91l-2.11-2.44,1.08-4.92a4.83,4.83,0,0,0-4.33-5.84l-8.85-.7-.37-6.78a5.27,5.27,0,0,0-1.62-3.54l-17.9-17.11a4.08,4.08,0,0,1-.67-5.06l7-11.56-.32-9.68-8.67-6.87a6.31,6.31,0,0,1-1.32-8.45l9.3-13.91a5,5,0,0,0-.41-6.09l-3.58-4-8.54-.65,6.1-15.45a2,2,0,0,0-2.82-2.4l-10.14,6.06a4.62,4.62,0,0,0-1.94,2.31l-4,10.45-7.1-.16-9.67,7.1-3.3-1.55a3.44,3.44,0,0,0-3.9.68l-4.09,4.1-4.36.32-4.84,5.16-3.06-.8.17-1.08a2,2,0,0,0-2.44-2.27l-.48.12-2.25,12.1,6.45,6.29-.77,4a5.07,5.07,0,0,0,5,6H270l4.66-4.76a1.47,1.47,0,0,1,2.51,1.12l-.39,5.9,2.58,4.35-1.77,9.36-12.1.49,1.5-2.81a2.52,2.52,0,0,0-2.27-3.72l-7.73.16a3.84,3.84,0,0,0-3.76,3.84v4.79l-8.87,1.93-4.84,8.09a1.35,1.35,0,0,1-2.51-.82l.89-9.53,6.94-12.26L244.7,167l-2.18-2.95a3.1,3.1,0,0,0-5.19.3l-2,3.46H223.89l-11.61-12.59-13.55-1.61s-7.42-14.2,3.87-16.46l.32,5.65,6.55-1.49a2.77,2.77,0,0,0,.94-5L204.05,132l1.13-4.36-2.56-2.9a4.81,4.81,0,0,0-5.46-1.26l-1.44.6a7.07,7.07,0,0,0-4.06,4.55l-1.16,4-7.89,4.46a4,4,0,0,0-1.61,5.19l1.11,2.3-1.06,3.55a3.67,3.67,0,0,1-5.4,2.09l-4-2.42-.81-9.68-9.19-1-2.48,2.14a2.23,2.23,0,0,1-3.68-1.52l-.29-3.68,12.58-4.36,3.77-3.89a4.45,4.45,0,0,1,4.11-1.24l3.57.77L201.47,98.1l2.1-14.68L215.5,70.51l6-.8L222.6,66l5.65.33,2.11-7.22a9.79,9.79,0,0,0-4.76-11.39l-3.81-2.05.12-9.41a4.61,4.61,0,0,0-3.31-4.49l-3.74-1.1.18-2.59a5.19,5.19,0,0,0-3.93-5.39L205.5,21.3l-11-13.23v0l-6.38-8h0L188.08,0l.32,4.2-4.51,3.87-9.68-.32-24.2,9-2.22-1a3.37,3.37,0,0,0-4.37,1.58l-.5,1-21.8,6.08A4.36,4.36,0,0,0,118,29.29l.43,3L99.69,48.08,96,48.42a6.91,6.91,0,0,0-5.24,3.21L87.38,57l-.84.38L70.12,55.86a8.13,8.13,0,0,0-6.52,2.38l-7.47,7.55,1.41,7.26c-6.18,2.85-12.12,6.29-18.31,9.13a42,42,0,0,1-7.63,2.73l-.16,0a44.91,44.91,0,0,0-5.39.25,17.42,17.42,0,0,1-3.23.17c-.26,0-.9-.83-1.16-.85l-.13-.07-4.79-.36-1.32-6.35h0l0-.06L11,76.37a3.84,3.84,0,0,0-3.35.57L5.81,78.26,5.57,90.72l0,0v.05l2.61.71,1.21,10.23-3.27,3.88-.85,9.68L0,118.92l.6,2.78.05,0v0L10.92,131,16,138.52h0l0,.06,7,2.81a2.94,2.94,0,0,1,1.12.81,2.75,2.75,0,0,1,.58,1.23l.67,3.31,0,0v0l6.05,3.9a2.73,2.73,0,0,1,.57.5,2.89,2.89,0,0,1,.71,2.1l-.49,7.11,6.17,9.07h0l.05.07,16.21-1,11.37-9.07L72,155.05l9.68-.36,8.34-3.39L94,153.69v.08l0-.06h0v.06H94l.12,5.45L95.69,163l1.7,9.56-3.9,3.41a2.38,2.38,0,0,0,.66,4l1.42.59v8.11l-3.14,1.21.36,3.5,3.27,1.09-.37,3.27,1.7.73.24,7.86,3.63,2.55-.24,5.8L99,215.73l-.1,8.33a4.08,4.08,0,0,0,1.81,3.42l.71.48-.24,5.68-2.18,1H92.58a4.77,4.77,0,0,0-4.08,2.31l-4.42,7.37-6,1.33-1.45,1.94-.36,1.33H67.87v-3.51A4.17,4.17,0,0,0,64,241.23l-4.37-.33-3.46-5.15a3.21,3.21,0,0,0-2.82-1.41l-2.91.15-.73-1.94-2.3-.48-.24-1.21L34.84,244.29v2.79l1.82,1.81v6.66l-1.33,1.57v1.7l-2.42,2.29v4.6H35V270l-1.69,1v4l-1.57.24v2.66l1.69.49v1.33l3.51.12-.24,9.32-2.54,1.69.48,4.84,10.89,2.67L52,303.59h5.32V306h7v1.58h3.27l6.89,1.81v2.3h5.93V323l5.08.61,4.84,1.81L92.58,327a3.83,3.83,0,0,0,3.14.66l5.3-1.19a2.77,2.77,0,0,1,3.63,2.62v3.19l1.82,4a4.22,4.22,0,0,0,7,1.09l8-8.84h5.45l3-3.63h3v2.3l9.19-.12,2.06-2.54h2.3v2.18h8l5.69,9.19v6.3l-6.05,6.53v2.06l12.22,5.44L169,357l3,5.93h3.51v3.39h2.18v4h-2.56A3.13,3.13,0,0,0,172,373.4v5.1h-2.3v2.77a3.28,3.28,0,0,0,3.28,3.28h2.89l5.33,5.69h6.29l4.59-2.78v-7h23.11l8.95,5.2V391l-4.62,4.85a3.26,3.26,0,0,0,.52,4.93l3.38,2.32L242,398.71h8.1v3.46a3.57,3.57,0,0,0,3.57,3.56h4.05l7.26,4.6h9.44v3l-1.69,2.3.12,3.51,3.63,2.06-2.06,2.42v6.41l5.63,4a2.44,2.44,0,0,1,.5,3.51l-1,1.21v5.48l-13.46,9.92a4.61,4.61,0,0,0-1.86,3.7v5.1l6.77,7.91v4.35h-1.93v5.95a3.44,3.44,0,0,0,2.5,3.31l9.59,2.68,2.07-1.21a3.38,3.38,0,0,1,4.42.9l.5.68a3.87,3.87,0,0,0,4.75,1.2l4.72-2.21,18.55,8.39,6.93.48,1,.78a4.94,4.94,0,0,1,.89,6.69l-2.16,3H325l-.16,8.23a3.27,3.27,0,0,0-2.91,3.25v5.79l5.25,4a4,4,0,0,0,4.49.2l3.33-2.1h.3a3.1,3.1,0,0,1,3.09,3.1v5l14.19,10.65h17.26l3.39-3.55v-8.87L372,530.29a3.3,3.3,0,0,0-4.07-.49l-1.77,1.08a1.72,1.72,0,0,1-2.62-1.48v-5.27a2.68,2.68,0,0,1,2.46-2.67l3.35-.28,2.42-4.52-3.07-2.42,3.22-5a2.25,2.25,0,0,1,3.59-.25l2.87,3.36,7.76-1a3.07,3.07,0,0,1,3.26,2l1.12,3a3.34,3.34,0,0,1,0,2.37L384.8,532.8a3,3,0,0,0,2.82,4.19h3.87l6-3.55,6.58,2.11a3.53,3.53,0,0,1,2.14,1.88l3.53,7.47,3.39,7.26,6.69,1.84a4.77,4.77,0,0,1,3.51,4.33l.77,13.19,2.93,1.56a4.4,4.4,0,0,1,2.33,3.71l.24,5.93a3.8,3.8,0,0,0,3.8,3.65h3.26a4.16,4.16,0,0,1,3.36,1.71L451.49,604l3.65,6.82a9.8,9.8,0,0,1,0,9.26l-5.58,10.38.59,10.22a9.58,9.58,0,0,0,2.8,6.24l7.77,7.77a6.27,6.27,0,0,1,1.65,3l.23,1a6.56,6.56,0,0,0,5.42,5l16.68,2.5a5.87,5.87,0,0,1,2.66,1.11l6.56,4.92,10.63-.3a3.67,3.67,0,0,1,1.28.17l7.72,2.46a4.82,4.82,0,0,0,3.54-.25l5.17-2.5a4.74,4.74,0,0,1,3.71-.17l.54.2a5.13,5.13,0,0,0,6.64-3.22l2.71-8.33,8.22-9L542.64,649a2,2,0,0,1,1.69-3.06h3.21a2.19,2.19,0,0,1,2.13,2.74l-.55,2.17a2.67,2.67,0,0,0,2.58,3.32h7.71l2.72-2.56a2.23,2.23,0,0,1,3.61.84l.76,2h8.4a3.1,3.1,0,0,1,2.87,1.94l1.91,4.73A4.58,4.58,0,0,1,580,663l-.08,4.55a4,4,0,0,0,2.83,3.88l1.21.37a4.05,4.05,0,0,0,4.06-1.06l1.11-1.15a3.32,3.32,0,0,1,4.36-.36l5,3.71a3,3,0,0,0,4.72-1.81l.34-1.69,5.65-3.39.7-7a3.37,3.37,0,0,1,2.94-3A1.56,1.56,0,0,0,614,653.6ZM167.48,104.13l.44.43h0l-.46-.44Z"/><polygon class="cls-2" points="94 153.77 94 153.77 94 153.77 94 153.77"/></g></g></g></svg>