<svg xmlns="http://www.w3.org/2000/svg" viewBox="0 0 469.6 503.3"><defs><style>.cls-1{fill:silver;}.cls-2{fill:none;stroke:#b1b1b1;stroke-linecap:round;stroke-linejoin:round;}.cls-3,.cls-4,.cls-6{font-size:16px;font-family:Sans,Arial;letter-spacing:0.05em;}.cls-3{fill:#979797;}.cls-4{fill:#b1b1b1;}.cls-5,.cls-6{fill:#b08e38;}.cls-5{opacity:0.25;}</style></defs><g id="レイヤー_2" data-name="レイヤー 2"><g id="ガイド"><path class="cls-1" d="M144.71,21.12l6.61-3.61,5.4-10.91-4.8-6,.24,3.12L148.8,6.58l-7.21-.24-18,6.73-1.65-.73a2.53,2.53,0,0,0-3.26,1.18l-.37.75-16.23,4.52a3.25,3.25,0,0,0-2.35,3.59L100,24.6,86.1,36.37l-2.75.25A5.18,5.18,0,0,0,79.45,39L77,42.92l-.8.37L64.08,42.16a6,6,0,0,0-4.85,1.77l-5.56,5.62,1.24,5.24C50.22,56.93,45.73,59.55,41,61.7a30.22,30.22,0,0,1-5.68,2l-.12,0a29.79,29.79,0,0,1-4,.19,10.77,10.77,0,0,1-2.69-.47l-4.23-.31-1-4.78-3.25-1a2.87,2.87,0,0,0-2.49.42l-1.38,1L16,68.11l2,.54.9,7.66-2.43,2.88-.63,7.21-4,2.7.45,2.07L20,98l3.79,5.68L29,105.79a2.14,2.14,0,0,1,1.3,1.57l.49,2.46,4.51,2.91a2.16,2.16,0,0,1,1,2L35.92,120l4.59,6.76L52.59,126l8.46-6.76L65.47,116l7.2-.27,6.22-2.53,3,1.81v.09l6.21,1a5.82,5.82,0,0,0,4.1-.89l10.37-6.81h8.29a5.48,5.48,0,0,0,4.8-2.84L122,93.8a3.25,3.25,0,0,1,1.34-1.31l3.51-1.82a5.6,5.6,0,0,0,2.65-2.92l2.1-5.25,2.51-.34a3.22,3.22,0,0,0,2.79-3.31v-.44l-8.41-8.17.08-5.75a4.38,4.38,0,0,1,2.86-4.06l2.34-.88.39-4.06A2.78,2.78,0,0,1,136.69,53l3.94-.38,5.17,2.88.24-1.68-2.89-3.13,4.44-6a2,2,0,0,0-1.19-3.07L140,35.29l2.76-7.21Z"/><path class="cls-2" d="M81.69,115l6.21,1a5.85,5.85,0,0,0,4.11-.88l10.37-6.82h8.28a5.48,5.48,0,0,0,4.8-2.84l6.39-11.67a3.17,3.17,0,0,1,1.33-1.31l3.51-1.82a5.66,5.66,0,0,0,2.65-2.93l2.1-5.25,2.51-.34a3.21,3.21,0,0,0,2.79-3.31v-.44l-8.41-8.16.08-5.76a4.38,4.38,0,0,1,2.86-4.06l2.35-.87.38-4.07a2.8,2.8,0,0,1,2.52-2.52l3.94-.38,5.17,2.88.24-1.68L143,50.59l4.43-6.06a2,2,0,0,0-1.19-3.07h0l-6.37-6.25,2.76-7.2,1.93-7,6.6-3.6,5.41-10.93,8.17,9.85,4.17,1a3.86,3.86,0,0,1,2.93,4l-.14,1.92,2.79.83a3.44,3.44,0,0,1,2.47,3.34l-.09,7L179.68,36a7.29,7.29,0,0,1,3.55,8.48l-1.58,5.37-4.2-.24-.84,2.76-4.45.6-8.89,9.61-1.56,10.93-16.57,20.3-2.66-.58a3.29,3.29,0,0,0-3.06.93l-2.81,2.89-9.37,3.25.22,2.74a1.66,1.66,0,0,0,2.74,1.13L132,102.6l6.85.72.6,7.21,3,1.79a2.73,2.73,0,0,0,4-1.55l.79-2.65-.83-1.71a3,3,0,0,1,1.2-3.86l5.88-3.31.86-3a5.23,5.23,0,0,1,3-3.39l1.08-.45a3.58,3.58,0,0,1,4.06.94l1.91,2.16-.84,3.24,4.73,3.23a2.06,2.06,0,0,1-.7,3.71l-4.88,1.11-.24-4.2c-8.4,1.68-2.88,12.25-2.88,12.25l10.09,1.2,8.65,9.37h8.53l1.48-2.58a2.31,2.31,0,0,1,3.86-.22l1.62,2.2.12,9.37-5.16,9.13-.67,7.09a1,1,0,0,0,1.87.61l3.6-6,6.61-1.44V140a2.88,2.88,0,0,1,2.8-2.87l5.76-.11a1.88,1.88,0,0,1,1.69,2.77l-1.12,2.09,9-.36,1.32-7-1.92-3.24.29-4.4a1.09,1.09,0,0,0-1.87-.83l-3.47,3.54h-9.47a3.77,3.77,0,0,1-3.71-4.49l.57-2.95-4.8-4.69,1.68-9,.35-.08a1.48,1.48,0,0,1,1.82,1.68l-.13.81,2.28.6,3.6-3.85,3.25-.24,3.05-3.05a2.58,2.58,0,0,1,2.9-.51l2.46,1.16,7.2-5.28,5.29.12L232,92.06a3.38,3.38,0,0,1,1.44-1.72L241,85.82a1.46,1.46,0,0,1,2.11,1.79l-4.55,11.5,6.36.49,2.67,3a3.73,3.73,0,0,1,.3,4.54L241,117.5a4.69,4.69,0,0,0,1,6.29l6.46,5.11.24,7.21-5.23,8.61a3,3,0,0,0,.5,3.76l13.33,12.74a3.92,3.92,0,0,1,1.21,2.63l.28,5.05,6.58.52a3.6,3.6,0,0,1,3.23,4.35l-.8,3.66,1.56,1.82a3.4,3.4,0,0,1,.51,3.66l-1.71,3.65,3.36,2.64,14.58.65a3.57,3.57,0,0,1,2.51,1.21l1.65,1.87,10.79-.5a10.47,10.47,0,0,1,4.43.76l27.79,11.23a4.57,4.57,0,0,0,4.89-.94l2.16-2.06a2.11,2.11,0,0,1,3,.13l.23.26,5,.72,1.87-2.65a3,3,0,0,1,2.76-1.23l4.72.54a2.67,2.67,0,0,1,2.29,3.29l-.71,2.82,5.89.72,4.92,10.21,6,1.56,9.61,20.9,7.49-5.24a1.53,1.53,0,0,1,2.4,1.09l.08.77a2.39,2.39,0,0,1-.64,1.9l-3.93,4.12L388,251.9v8.29l-2,1.67a2.82,2.82,0,0,0-.9,3l3.63,11.52,1.56,13.81,2.89,2.16A2.89,2.89,0,0,1,394,296l-2.06,4.1.37,7.45-4.21,18.13-1.32,14.9L381.19,344a2.08,2.08,0,0,0-.5,3.11l2.52,3s.24,5.4.72,5.28a15.05,15.05,0,0,1,3.24,1l-.72,5.05-2.28.36,3.36,3.24-1.61,2.15a2,2,0,0,0,1.56,3.25l4.13.13.12,2.28,3.13,2-2.28,3.84,4.92,7.09,3.28,1a3.2,3.2,0,0,1,2.2,2.74l.77,8.35-2.15,1.64a2.24,2.24,0,0,0-.89,1.72L400.5,407l-1.61,6.65a4.33,4.33,0,0,0,1,3.94l7.08,7.73a3.26,3.26,0,0,0,4.1.58l12.55-7.69a2.5,2.5,0,0,1,3.7,1.46l1,3.79-1.92,5.64,2.52,3.85.21,1.28a1.64,1.64,0,0,0,2,1.34l1.73-.39a3.14,3.14,0,0,1,2.52.51l2.1,1.49a2.47,2.47,0,0,1,1,1.87l.18,3.27,9.92-2.94a2.32,2.32,0,0,1,3,2.28l-.16,5.82L455,447l4.8,2,.17,1.67a2.94,2.94,0,0,1-1.34,2.79l-4.11,2.63-.85,2.95a2.33,2.33,0,0,0,1.46,2.83l.95.34,1.8,5.53,3.18,1.59a2.49,2.49,0,0,1,1,3.45L460,476.64l-.12,2.88,3.84.48,5.19,7.05a1.16,1.16,0,0,1-.79,1.84h0a2.49,2.49,0,0,0-2.19,2.24l-.52,5.21-4.21,2.52-.26,1.26a2.23,2.23,0,0,1-3.51,1.35l-3.74-2.76a2.46,2.46,0,0,0-3.24.26l-.83.86a3,3,0,0,1-3,.79l-.9-.27a3,3,0,0,1-2.11-2.9l.06-3.38a3.65,3.65,0,0,0-.26-1.42l-1.42-3.52a2.32,2.32,0,0,0-2.14-1.44h-6.26l-.56-1.52a1.67,1.67,0,0,0-2.69-.63l-2,1.91h-5.74a2,2,0,0,1-1.92-2.47l.41-1.61a1.64,1.64,0,0,0-1.59-2.05H417a1.48,1.48,0,0,0-1.25,2.28l1.07,1.69L410.71,492l-2,6.2a3.82,3.82,0,0,1-4.95,2.4l-.4-.15a3.58,3.58,0,0,0-2.76.13l-3.85,1.86a3.58,3.58,0,0,1-2.63.18l-5.76-1.82a2.73,2.73,0,0,0-1-.13l-7.92.22-4.88-3.66a4.46,4.46,0,0,0-2-.83l-12.42-1.86a4.9,4.9,0,0,1-4-3.75l-.17-.74a4.6,4.6,0,0,0-1.23-2.23L349,482.05a7.22,7.22,0,0,1-2.09-4.65l-.44-7.61,4.15-7.72a7.3,7.3,0,0,0,0-6.9l-2.72-5.08-8.56-11.81a3.09,3.09,0,0,0-2.5-1.28H334.4a2.83,2.83,0,0,1-2.83-2.72l-.18-4.41a3.28,3.28,0,0,0-1.73-2.76L327.47,426l-.57-9.82a3.57,3.57,0,0,0-2.61-3.23l-5-1.36-2.52-5.41-2.63-5.56a2.65,2.65,0,0,0-1.59-1.4l-4.91-1.57-4.44,2.64h-2.88a2.26,2.26,0,0,1-2.1-3.11l4.26-10.54a2.43,2.43,0,0,0,0-1.76l-.84-2.23a2.29,2.29,0,0,0-2.43-1.47l-5.77.74-2.14-2.5a1.66,1.66,0,0,0-2.67.19l-2.4,3.75,2.29,1.8-1.81,3.36-2.49.21a2,2,0,0,0-1.83,2v3.93a1.28,1.28,0,0,0,1.95,1.09l1.32-.8a2.48,2.48,0,0,1,3,.36l.91.91v6.61l-2.53,2.64H274.26l-10.57-7.93v-3.7a2.3,2.3,0,0,0-2.3-2.3h-.22L258.69,393a2.94,2.94,0,0,1-3.34-.15l-3.91-3V385.6a2.43,2.43,0,0,1,2.16-2.41h0l.12-6.13H252l1.6-2.24a3.69,3.69,0,0,0-.65-5l-.71-.57-5.16-.37-13.82-6.24-3.51,1.64a2.89,2.89,0,0,1-3.54-.89l-.37-.5a2.51,2.51,0,0,0-3.29-.67l-1.54.9-7.14-2a2.56,2.56,0,0,1-1.87-2.46v-4.43h1.44V351l-5-5.89v-3.8a3.42,3.42,0,0,1,1.39-2.75l10-7.38v-4.09l.72-.9a1.8,1.8,0,0,0-.37-2.6L216,320.64v-4.78l1.53-1.8-2.71-1.53-.09-2.61,1.27-1.71V306h-7l-5.41-3.42h-3a2.65,2.65,0,0,1-2.65-2.65v-2.57h-6l-13.78,3.24-2.52-1.72a2.43,2.43,0,0,1-.38-3.68l3.44-3.61v-4L172,283.7h-17.2v5.23L151.32,291h-4.68l-4-4.23h-2.15a2.45,2.45,0,0,1-2.44-2.45v-2.06h1.71v-3.8a2.32,2.32,0,0,1,2.33-2.32H144v-3H142.4v-2.52h-2.61l-2.25-4.41-2-.54-9.1-4.06V260.1l4.5-4.86v-4.69l-4.23-6.85h-6v-1.62h-1.71L117.54,244l-6.85.09v-1.71h-2.25l-2.25,2.71h-4l-6,6.57a3.14,3.14,0,0,1-5.18-.81l-1.36-3v-2.38a2.05,2.05,0,0,0-2.7-1.95h0l-3.94.89a2.9,2.9,0,0,1-2.34-.49L79,242.71l-3.6-1.35-3.78-.45v-8.38H67.18v-1.71l-5.13-1.35H59.61V228.3H54.39v-1.8h-4l-4.87-4-8.11-2-.36-3.6,1.9-1.26.18-6.94-2.62-.09v-1l-1.26-.36v-2l1.17-.18v-3l1.26-.72V198.3H36.19v-3.42l1.8-1.71V191.9l1-1.17v-4.95l-1.36-1.35v-2.07l9.19-10,.18.9,1.71.36.54,1.44,2.17-.11a2.35,2.35,0,0,1,2.1,1.05l2.58,3.83,3.25.24a3.11,3.11,0,0,1,2.88,3.1v2.61h6.21l.27-1,1.08-1.44,4.51-1,3.29-5.49a3.55,3.55,0,0,1,3-1.72h4.75l1.62-.72.18-4.24-.53-.35a3,3,0,0,1-1.34-2.54l.07-6.21,1.53-.81.18-4.32-2.7-1.89-.18-5.86L83,147.67l.27-2.43-2.43-.81-.27-2.61,2.34-.9v-6l-1.06-.44a1.77,1.77,0,0,1-.49-3l2.9-2.54L83,121.82,81.78,119l-.09-4.14-3-1.8L72.5,115.6l-7.21.27-4.41,3.33L52.41,126l-12.07.72-4.6-6.76.36-5.29a2.16,2.16,0,0,0-1-2l-4.5-2.9-.5-2.47a2.14,2.14,0,0,0-1.3-1.57l-5.23-2.09L19.8,97.94,12.14,91.1,11.69,89l4-2.71.63-7.2,2.44-2.89-.91-7.65-2-.54L16,58.76l1.38-1a2.92,2.92,0,0,1,2.5-.42l3.24,1,1,4.77,3.6.27,2,1.17-4.06,4.24L24.84,71l3-1.89,5.05,1.17-2.43.63L29,73.53l-.18,2.52-3.88,3.07.63,1.71L33,82.27l-1.53-1.8-.09-2.89,3.24-2.43,1.17-2.79,3.79-2-.27-2.89-2-2-7.8-1.11,8.07-1,17-8.38-1.08-5.58,5.56-5.63a6.08,6.08,0,0,1,4.85-1.77l12.65,1.18,2.73-4.33a5.15,5.15,0,0,1,3.9-2.39l2.74-.25L99.85,24.52l-.31-2.22a3.25,3.25,0,0,1,2.34-3.59l16.23-4.52.37-.74a2.51,2.51,0,0,1,3.26-1.18l1.66.72,18-6.72,7.21.24L152,3.62,151.74.5l4.95,6.22"/><text class="cls-3" transform="translate(59.69 84.31)">京丹後</text><text class="cls-4" transform="translate(236.05 271.42)">京都府</text><circle class="cls-5" cx="32.06" cy="73.4" r="18.75"/><text class="cls-6" transform="translate(0 45.83)">久美浜</text></g></g></svg>