<svg xmlns="http://www.w3.org/2000/svg" viewBox="0 0 563.76 163.65"><defs><style>.cls-1{fill:#f0f0f0;fill-rule:evenodd;}</style></defs><g id="レイヤー_2" data-name="レイヤー 2"><g id="ガイド"><path class="cls-1" d="M.47,126.87c1.15-.59,1.88-1,2.6-1.34a6.9,6.9,0,0,0,.79-.54c.16-.12.21-.58,0-.68s-.52-.31-.44-.7a.41.41,0,0,0-.3-.14c-.41.13-.82.31-1.2.46-.12.58-.28.79-.66.8s-.62,0-.9-.07a1.72,1.72,0,0,1-.16-.18c-.39-.5-.27-1,.3-1.16A16.78,16.78,0,0,1,2.38,123a1,1,0,0,0,.63-.35c.16-.18.43-.27.6-.44A4.38,4.38,0,0,1,6,121c.36-.08.72-.07.94-.5a.87.87,0,0,1,.66-.33c.62,0,1.15-.56,1.83-.37a.28.28,0,0,0,.18,0,9.84,9.84,0,0,1,2.23-1c.06,0,.07-.2.08-.31,0-.3.05-.37.23-.33s.54.37.88.15c.24-.65.93-.54,1.4-.8a4.62,4.62,0,0,1,.92-.25,12.64,12.64,0,0,0,3.52-1.86,1.38,1.38,0,0,1,.87-.34,4.23,4.23,0,0,0,1.84-.42c1.53-.61,3-1.3,4.6-1.83a9.65,9.65,0,0,0,1.71-.83,3.92,3.92,0,0,1,1.22-.54,6,6,0,0,0,2.81-1.1c.6-.2,1.2-.41,1.81-.59a4.56,4.56,0,0,0,2.25-1,19.42,19.42,0,0,0,2.48-.93,9.57,9.57,0,0,0,1.58-.66,16.73,16.73,0,0,1,2.1-.89c.73-.23,1.31-.8,2.11-.86a1.11,1.11,0,0,0,.47-.3,1,1,0,0,1,.64-.38,4.54,4.54,0,0,0,1.78-.64,6.23,6.23,0,0,1,1.2-.55c.18,0,.35-.15.53-.21.49-.17.71-.76,1.24-.86a7.11,7.11,0,0,0,1.32-.17c.64-.25,1.25-.59,1.9-.85a3.06,3.06,0,0,0,.74-.57c.86,0,1.51-.66,2.34-.77s1.54-.54,2.36-.68a4.14,4.14,0,0,0,1.61-.53c.48-.33,1-.49,1.51-.81a1.23,1.23,0,0,1,.89-.27,4,4,0,0,0,1.68-.27,3,3,0,0,1,1.85-.3,11.74,11.74,0,0,0,1.83-.48c.45-.23.93-.41,1.4-.6a7.94,7.94,0,0,1,2.9-.72c.32,0,.64,0,1,0a1.23,1.23,0,0,0,.55-.11c.21-.13-.1-.33,0-.47a.38.38,0,0,1,.3-.16,7.86,7.86,0,0,0,3.14.31,2.44,2.44,0,0,0,1.21-.48c.17-.11.34,0,.46.17s.15.35.24.51.48.2.51.09-.08-.18-.1-.28a.27.27,0,0,1,.27-.36,2.15,2.15,0,0,1,.56.07,5,5,0,0,0,1,.42A5.07,5.07,0,0,0,82.7,95a1,1,0,0,1,.56,0c.85.36,1.78.06,2.63.36a1,1,0,0,0,.74-.06,1,1,0,0,1,.53,0,7.37,7.37,0,0,0,2.8.39,8.77,8.77,0,0,1,1.89.26,2.29,2.29,0,0,0,.94,0,1.17,1.17,0,0,1,.74,0,6.79,6.79,0,0,0,2,.45,1,1,0,0,1,.76.53c1,2,2.39,3.76,3.4,5.75a6.43,6.43,0,0,1,.66,2.56,1.21,1.21,0,0,1-.21.71,2.41,2.41,0,0,1-2.7.9,7.55,7.55,0,0,1-1-.48c-.81-.5-1.6-1-2.42-1.52q-.9-.54-1.83-1a3,3,0,0,0-.72-.2,3.83,3.83,0,0,1-.93-.19,6.07,6.07,0,0,0-2.2-.57c-1.64-.24-3.28-.44-4.93-.63-.69-.09-1.39-.12-2.09-.18a3.62,3.62,0,0,1-.94-.1,7.62,7.62,0,0,0-2.85-.17c-1.64.12-3.28.3-4.92.49-1.33.16-2.65.37-4,.56a3.48,3.48,0,0,0-.56.12l-4.36,1.39c-.18.06-.34.19-.52.23C61,105,59.1,106,57,106.65a22.9,22.9,0,0,0-3,1.12,61.4,61.4,0,0,0-5.9,2.69,4.45,4.45,0,0,1-.86.39c-1.64.54-3.18,1.3-4.75,2q-4.36,1.93-8.83,3.62c-4.11,1.54-8.14,3.3-12.23,4.88a37.14,37.14,0,0,1-3.92,1.49c-.31.08-.6.21-.91.29a14.45,14.45,0,0,0-3,1.12,28.73,28.73,0,0,1-2.82,1.15.9.9,0,0,1-.36.12,7.82,7.82,0,0,0-3.3.8,2.49,2.49,0,0,1-1.31.16c-.52-.12-1,.15-1.5,0a3.2,3.2,0,0,0-1.5.23A9.22,9.22,0,0,1,.47,126.87Z"/><path class="cls-1" d="M205.55,140.54l.22-.36c.18-.26.21-.29.41-.08a.86.86,0,0,0,1.17.15c-.15-.13-.29-.24-.41-.36s0-.16,0-.16l.94-.1a1.67,1.67,0,0,0,.73-.14,4.87,4.87,0,0,1,2-.62c1.18-.25,2.37-.46,3.55-.68a8,8,0,0,0,1.28-.34,6.33,6.33,0,0,1,1.85-.43,3.57,3.57,0,0,0,1.77-.62,3,3,0,0,1,1.21-.52,5.2,5.2,0,0,0,1.74-.67c.65-.35,1.37-.63,2.06-.94a6.87,6.87,0,0,0,1.87-.9.79.79,0,0,1,.35-.15,20,20,0,0,0,4-1.76c1.49-.71,3-1.42,4.47-2.15a10.42,10.42,0,0,0,1.49-.85,9.73,9.73,0,0,1,2-1.06,5.38,5.38,0,0,0,.7-.28,18.23,18.23,0,0,1,3-1.58c1.06-.39,2-1.06,3.08-1.5,1.7-.71,3.44-1.33,5.16-2,.72-.27,1.45-.5,2.15-.78a15.74,15.74,0,0,1,4.4-1.17c.1,0,.27-.12.27-.19a.39.39,0,0,0-.16-.32c-.54-.33-1.18-.38-1.75-.72a8,8,0,0,0-1.79-.59,2,2,0,0,0-.76-.11,3,3,0,0,1-2-.61,30.79,30.79,0,0,0-4.94-2.47,2.53,2.53,0,0,1-.69-.3,2,2,0,0,0-1-.45,5.19,5.19,0,0,1-1-.45c-.23-.11-.46-.35-.66-.32a2.16,2.16,0,0,1-1.69-.69,4.36,4.36,0,0,0-1.68-.84c-.8-.18-1.45-.83-2.35-.7a.86.86,0,0,1-.53-.19,8.12,8.12,0,0,0-2.27-1c-1.14-.4-2.23-.94-3.4-1.27a2.23,2.23,0,0,1-.51-.26c-.54-.31-1-.84-1.66-.86a8.17,8.17,0,0,0-1.53-.78,5,5,0,0,1-1.48-.85,3.14,3.14,0,0,0-1.35-.68,6.12,6.12,0,0,1-1.39-.61,5.68,5.68,0,0,0-1.24-.48c-.41-.13-.9-.08-1.16-.54a.36.36,0,0,0-.34-.13c-.63.15-1.07-.34-1.62-.44a18.36,18.36,0,0,1-2.19-.65c-.66-.22-1.32-.45-2-.71a3.21,3.21,0,0,0-2.4-.3,13.62,13.62,0,0,1-2.47.17,17.17,17.17,0,0,0-3,.49,6.32,6.32,0,0,1-1.69.22,3.66,3.66,0,0,0-1.12.16,5.49,5.49,0,0,1-1.51.19,1.45,1.45,0,0,0-.74.15,11.61,11.61,0,0,0-2.8,1.6c-.42.39-.87.75-1.29,1.14a2.62,2.62,0,0,0-.63.71c-.45,1.09-1.49,1.53-2.33,2.19a2,2,0,0,1-1.08.35,18.23,18.23,0,0,0-3.17.66,5,5,0,0,1-3.72-.25,4.76,4.76,0,0,1-1.34-1,.93.93,0,0,1-.21-.7,6.78,6.78,0,0,1,.39-1.47,2.19,2.19,0,0,1,.54-.77c1.28-1.24,2.57-2.47,3.88-3.67a16.62,16.62,0,0,1,1.93-1.53,27.45,27.45,0,0,1,4.58-2.76,19.6,19.6,0,0,1,4.3-1.51,4.74,4.74,0,0,0,.91-.26,11.74,11.74,0,0,1,6.37-.64,6,6,0,0,0,1.52.14,13.22,13.22,0,0,1,2.27.21,22.38,22.38,0,0,1,4.65,1l1.47.42a1.53,1.53,0,0,0,1.42-.33c.5-.4,1-.79,1.52-1.16a2.88,2.88,0,0,1,1.4-.57l2.08-.29a1.38,1.38,0,0,1,.57,0c1,.3,2,.16,3,.36a19.63,19.63,0,0,1,2.93.84,15.34,15.34,0,0,1,1.81.6,3.26,3.26,0,0,0,1.3.22,3.93,3.93,0,0,1,1.48.32,5.27,5.27,0,0,0,1.65.46,2,2,0,0,1,.72.24c.83.47,1.86.48,2.62,1.1.85.26,1.72.49,2.55.78.66.23,1.29.55,1.94.8a23.89,23.89,0,0,1,4.35,2,2.41,2.41,0,0,0,.53.2,50.31,50.31,0,0,1,5.4,2.43,25.76,25.76,0,0,1,3.06,1.54,6.24,6.24,0,0,0,1.79.63,10.34,10.34,0,0,1,2.91,1.32,3.66,3.66,0,0,0,1.61.53,8.65,8.65,0,0,1,3.45,1,24.52,24.52,0,0,0,5.67,2.21c1.72.46,3.4,1,5.13,1.46,2.35.55,4.7,1.13,7,1.71,1.42.35,2.82.75,4.25,1.09q3.33.81,6.69,1.57c2.29.52,4.6,1,6.92,1.4.31.06.63.08.94.15a2.41,2.41,0,0,0,2.14-.55c.2-.16.39-.33.59-.48a8,8,0,0,1,2.31-1.33c.25-.4,1.08-.13,1.06-.88,0,0,.09-.1.15-.1a3.31,3.31,0,0,0,1.81-.94c.5-.38,1-.71,1.54-1s1-.82,1.48-1.18a3.3,3.3,0,0,1,1.16-.63,5.48,5.48,0,0,0,1.87-.85,3.47,3.47,0,0,1,1.93-.7,30,30,0,0,1,5.35-1.38,6.69,6.69,0,0,1,.75-.16c1.9-.15,3.81-.31,5.71-.41a20.28,20.28,0,0,1,5.84.85,5.78,5.78,0,0,0,.92.19c.64,0,1.28,0,1.91.06s1.17.45,1.83.49a13.45,13.45,0,0,1,1.86.41,2.73,2.73,0,0,1,1,.42,2.11,2.11,0,0,0,1.44.41,6,6,0,0,1,2.2.55,2.74,2.74,0,0,1,.65.39c.53.34.63,1.15,1.37,1.26.39.4.79.8,1.17,1.22a1,1,0,0,1,.26.51,8,8,0,0,0,1.82,3.1,14.16,14.16,0,0,0,1.28,1.41,3.46,3.46,0,0,0,.57.51c.61.44,1.28.82,1.85,1.31a7.48,7.48,0,0,1,1.57,1.34c.35.14.55.51,1,.56a2,2,0,0,1,.66.33,10.69,10.69,0,0,0,3,1.65c.06,0,.11.07.16.1a40.59,40.59,0,0,0,6.83,3.39,54.85,54.85,0,0,0,7.17,2.62,7.77,7.77,0,0,1,2.36,1.17c-.1.07-.17.18-.26.19a26,26,0,0,1-8.33-.67,15.11,15.11,0,0,0-1.87-.38,25.85,25.85,0,0,1-3.67-1,10.41,10.41,0,0,0-3.17-.56,4,4,0,0,1-1.66-.35,5.93,5.93,0,0,0-1.83-.52,3.29,3.29,0,0,1-2-1,1.89,1.89,0,0,0-1.34-.65,1,1,0,0,1-.35-.15,6.32,6.32,0,0,1-1.19-.6,22.31,22.31,0,0,1-2.58-1.62,10.22,10.22,0,0,1-.84-.77c-.56-.69-1.36-1.14-1.87-1.89,0,0-.09-.08-.14-.13-.69-.66-1.61-1-2.31-1.68a12.89,12.89,0,0,0-2.17-1.54,2.59,2.59,0,0,0-1.06-.4,29.38,29.38,0,0,1-3.71-.87,4.5,4.5,0,0,0-1.32-.15,19.5,19.5,0,0,0-3.23.23,4.77,4.77,0,0,0-2.22,1c-.66.6-1.55.9-2.1,1.62a.27.27,0,0,1-.17.08,5.25,5.25,0,0,0-2.3,1.32,23,23,0,0,1-2,1.46,11.62,11.62,0,0,0-1.7,1.2,15.08,15.08,0,0,1-1.71,1.22,3.85,3.85,0,0,0-.56.51,17.22,17.22,0,0,1-3.91,3.31,3.9,3.9,0,0,0-.46.34,8.28,8.28,0,0,1-3.31,1.82,4.68,4.68,0,0,0-1.25.47,6.22,6.22,0,0,1-2.86.94c-.56.09-1.11.27-1.67.38a6.54,6.54,0,0,1-1.51.21,8.92,8.92,0,0,0-2.63.41,23.1,23.1,0,0,1-4.12.73c-.32,0-.62.13-.94.17-.69.08-1.39.19-2.09.21-.88,0-1.78,0-2.67,0a3.49,3.49,0,0,0-1.5.19,1.3,1.3,0,0,1-.93,0c-.18-.07-.41-.19-.54-.12-.79.37-1.49,0-2.21-.2a6.08,6.08,0,0,0-1.5-.27,4.88,4.88,0,0,1-2-.39,2.36,2.36,0,0,0-.74-.18c-2.47-.21-4.93-.6-7.42-.62a12.88,12.88,0,0,0-1.52.06,2.2,2.2,0,0,1-1.46-.32,6.75,6.75,0,0,0-.8-.51,1.92,1.92,0,0,0-.54-.11,8.43,8.43,0,0,1-2.76-.65.55.55,0,0,0-.18-.06c-2.21-.28-4.31-1.12-6.53-1.32a19.23,19.23,0,0,0-5.14.12,1.27,1.27,0,0,1-.56.08,9.2,9.2,0,0,0-2.46,0,10.91,10.91,0,0,0-4.07.9c-1.79.68-3.49,1.55-5.24,2.32a11.47,11.47,0,0,0-2.16,1.21c-.89.62-1.8,1.2-2.71,1.79a5.18,5.18,0,0,1-1,.57,6.19,6.19,0,0,0-1.8,1,6,6,0,0,1-1.38.64.34.34,0,0,1-.31-.13.36.36,0,0,1,.09-.33c1.48-1.2,2.71-2.67,4.18-3.91a24.52,24.52,0,0,1,3.79-2.53c2.33-1.33,4.82-2.3,7.26-3.4a14.93,14.93,0,0,1,2.18-.69,10.91,10.91,0,0,0,1.85-.47.69.69,0,0,1,.37-.08,11.58,11.58,0,0,0,2.82-.26c.76,0,1.53,0,2.29,0,1.65,0,3.3-.06,4.94-.25a5,5,0,0,1,.77,0,5.18,5.18,0,0,0,1.87-.16,5.77,5.77,0,0,1,2.27-.06c.33,0,.51-.31.36-.66a2.48,2.48,0,0,0-1-1.36,3.63,3.63,0,0,1-.47-.33c-.34-.27-.46-.78-.9-1l-2.12-.84c-.36-.14-.73-.23-1.08-.39a7.56,7.56,0,0,0-3.55-.52c-.51,0-1,0-1.52.08a9.27,9.27,0,0,0-2.61.49c-.59.22-1.24.31-1.85.47s-1.48.38-2.19.64a4.48,4.48,0,0,1-1.47.37,1,1,0,0,0-.38.06c-2.35,1-4.86,1.48-7.18,2.53-1.27.57-2.52,1.19-3.84,1.67a.74.74,0,0,0-.32.19c-1,1.05-2.44,1.34-3.62,2.08a6.55,6.55,0,0,0-1.14.67,4,4,0,0,1-1.33.75,5.59,5.59,0,0,0-.87.38c-.76.47-1.48,1-2.25,1.44s-1.48.73-2.22,1.1l-1,.5c-1.53.77-3.06,1.55-4.61,2.29a48.79,48.79,0,0,1-6.45,2.85c-.79.24-1.54.61-2.3.92a28.57,28.57,0,0,1-5.88,1.59c-2,.35-4,.72-6,1.08a1.05,1.05,0,0,1-.19,0c-2.24.13-4.33,1-6.54,1.32a11.93,11.93,0,0,1-3.21.35.35.35,0,0,1-.28-.18.34.34,0,0,1,.13-.32c.21-.13.46-.19.68-.32a4.67,4.67,0,0,1,.77-.51c.21-.07.49.07.74.06a.65.65,0,0,0,.32-.18.44.44,0,0,0,0-.51,1.74,1.74,0,0,0-.85-.39c-.29-.1-.49-.36-.43-.54a.84.84,0,0,1,.51-.53c.29-.1.63.09.91-.13a2.67,2.67,0,0,1,.77-.55c1.17-.33,2.18-1,3.3-1.42s2.14-.8,3.24-1.11A.76.76,0,0,1,205.55,140.54Zm78.28-21.72.29-.18c.05,0,.13-.06.15-.11s0-.21-.2-.24c-1.62-.33-3.25-.61-4.85-1s-3.17-1-4.75-1.44c-.91-.27-1.86-.44-2.74-.8-1.82-.76-3.81-.94-5.63-1.69a4.1,4.1,0,0,0-.94-.12,1.87,1.87,0,0,1-.73-.17,5.69,5.69,0,0,0-2.15-.68,10.91,10.91,0,0,1-2.54-.81c-.87-.44-1.84-.48-2.7-.88-1-.49-2.18-.64-3.24-1.06a4.11,4.11,0,0,0-.94-.17,21.46,21.46,0,0,1-3.72-.81,22.6,22.6,0,0,1-2.09-.89c-.73-.35-1.6-.42-2.35-.74s-1.31-.47-2-.68a3.34,3.34,0,0,1-.71-.26,20.47,20.47,0,0,0-2.08-.95c-.75-.35-1.5-.7-2.23-1.09a3.93,3.93,0,0,0-1.05-.4c-1-.21-2-.42-3-.71a9.18,9.18,0,0,0-3-.39s-.14,0-.15.1,0,.14.07.16a14,14,0,0,1,1.33.7,9.59,9.59,0,0,0,1.33.74,19.16,19.16,0,0,0,1.85,1,9.75,9.75,0,0,1,1.83,1c.95.5,2,.86,2.89,1.43a2.17,2.17,0,0,0,1.58.51.59.59,0,0,1,.46.27,1.47,1.47,0,0,0,1.44.76,1.68,1.68,0,0,1,1.23.42c.49.44,1.11.61,1.6,1a6,6,0,0,0,2.6,1.12,9.55,9.55,0,0,1,2.77,1.17,18.2,18.2,0,0,0,2.19,1.14,6.51,6.51,0,0,1,1.19.57c.92.57,1.86,1.11,2.79,1.67a16.1,16.1,0,0,0,3.66,1.59l3.46,1a16.57,16.57,0,0,0,2.59.63,8.6,8.6,0,0,1,2.2.62,13.63,13.63,0,0,0,2.73.82c1.93.4,3.86.8,5.78,1.23a15.66,15.66,0,0,0,4.15.27c0-.47-.43-.46-.55-.73,0-.09,0-.29,0-.31.39-.17.66-.59,1.18-.52a3.76,3.76,0,0,0,.94-.1v-.55c0-.06,0-.13,0-.19-.14-.57-.14-.57.28-.68.17,0,.23-.13.17-.25a.35.35,0,0,0-.13-.11Zm-5.68,4.39v.06l-3-.14c-.05,0-.16.06-.16.09s0,.27.06.31a3.89,3.89,0,0,1,1.39,1.54,3.42,3.42,0,0,0,.79,1.06,2.32,2.32,0,0,1,.52.78,2.62,2.62,0,0,0,2.64,1.79c.3,0,.64.24.92.18.72-.16,1.39.22,2.06.17s1.32.4,2,.59a8.67,8.67,0,0,0,2.61.49,5.23,5.23,0,0,1,2,.42,10.8,10.8,0,0,0,4.3.69c1.46-.08,2.89-.38,4.35-.44a2.46,2.46,0,0,0,.9-.27,10.72,10.72,0,0,1,1.44-.51,10.28,10.28,0,0,0,1.6-.6,42.49,42.49,0,0,0,5.34-2.5,62.59,62.59,0,0,0,8.55-5.37,35.57,35.57,0,0,0,3.19-2.7,4.17,4.17,0,0,1,.71-.63,13.59,13.59,0,0,0,2-1.49,13.58,13.58,0,0,1,3.74-2.26c.53-.19,1.06-.42,1.58-.65.09,0,.15-.19.22-.29s-.11-.11-.16-.1a20.92,20.92,0,0,0-2.24.37,20,20,0,0,0-2.41.55,8.6,8.6,0,0,0-1.46.41,5.92,5.92,0,0,1-1.43.5c-1,.3-2.05.66-3.07,1a1.11,1.11,0,0,0-.49.29,10.54,10.54,0,0,1-2.59,1.57,3.68,3.68,0,0,0-1,.61,6.34,6.34,0,0,1-1.65,1.26c-.64.39-1.15,1-1.77,1.43s-1.36.72-1.95,1.18a12.59,12.59,0,0,1-3.51,2.25.51.51,0,0,0-.16.09,10,10,0,0,1-3.11,1.43,25.77,25.77,0,0,1-2.53.83,21.93,21.93,0,0,1-4.36.34,2.45,2.45,0,0,1-.74-.19c-.79-.24-1.58-.48-2.37-.74a7.86,7.86,0,0,1-1.59-.63c-1.4-.88-2.88-1.6-4.35-2.35-.11-.06-.2-.16-.31-.22-.28-.15-.56-.28-.85-.42a1.68,1.68,0,0,0-1.48-.06,3.17,3.17,0,0,1-1.48.27Zm23.15-2.75v.06a13.36,13.36,0,0,1-1.9,0c-1.33-.17-2.66-.2-4-.31a7,7,0,0,1-1.13-.13c-2.29-.57-4.66-.61-7-1.07a.92.92,0,0,0-.37,0,.57.57,0,0,0-.22.19s0,.14.1.15a18.23,18.23,0,0,1,4.34,1.9,1.74,1.74,0,0,0,.68.31c.77,0,1.43.45,2.21.5,1,.06,2,.26,3,.42a.83.83,0,0,1,.48.23c.26.29.51.42.76,0a1.81,1.81,0,0,1,1.14-.62c1-.31,1.95-.56,2.92-.85a6,6,0,0,0,.85-.4c.05,0,.07-.11.07-.17s0-.11-.09-.11Z"/><path class="cls-1" d="M427.56,113.11c-.34-.39-.36-.58-.11-.77a14.14,14.14,0,0,1,2.29-1.34c.39-.18.9-.16,1.13-.64a.38.38,0,0,1,.32-.15A14.29,14.29,0,0,0,435,109a5,5,0,0,0,.63-.43.87.87,0,0,1,.51-.19,2.09,2.09,0,0,0,1.56-.55,3.5,3.5,0,0,1,2-.93,16.85,16.85,0,0,1,4.35-1.27,22.1,22.1,0,0,1,4.7-1.47.78.78,0,0,0,.35-.14,3.33,3.33,0,0,1,1.94-.68c.68-.12,1.37-.25,2.06-.34a14.85,14.85,0,0,0,3.66-1,10.69,10.69,0,0,1,2.21-.56c1.5-.25,3-.54,4.49-.82a8.93,8.93,0,0,1,3-.18,3.33,3.33,0,0,0,2.07,0,.59.59,0,0,1,.37,0c1.24.26,2.52.29,3.75.61.75.2,1.41.59,2.15.76a18,18,0,0,1,2.21.59,8.88,8.88,0,0,1,2.21,1.08,2.47,2.47,0,0,0,1.74.67,1.44,1.44,0,0,1,.7.26c.49.28,1,.58,1.46.9a3.32,3.32,0,0,0,1.72.76.4.4,0,0,1,.34.4c0,.28.12.5.45.46a1.19,1.19,0,0,1,.92.14,4.93,4.93,0,0,0,2.35,1.17,18.8,18.8,0,0,1,1.79,1.07,1.56,1.56,0,0,0,1,.43c.46,0,.64.62,1.16.55s.95.32,1.44.48a10,10,0,0,1,1.22.53c.11.05.21.13.33.18a6.26,6.26,0,0,1,1.21.5,5,5,0,0,1,.81.79,1.53,1.53,0,0,0,1.59.48l-.29-.53a1.52,1.52,0,0,1,1.11,0,5.14,5.14,0,0,0,1.65.42c.28,0,.55.27.82.42a6.39,6.39,0,0,0-.75.09.29.29,0,0,0-.18.25.39.39,0,0,0,.26.2c.25,0,.5,0,.75,0a3.68,3.68,0,0,0-.15.35s0,.15,0,.17.26.14.31.1c.41-.28.8-.6,1.3-1a16.4,16.4,0,0,1,3.43.47,1.83,1.83,0,0,1,1,.41c-.14.5-.14.5.27,1.17.05,0,.09.12.14.13a6.49,6.49,0,0,0,1.83.47,9.16,9.16,0,0,1,2.27.33,5.08,5.08,0,0,0,1.51.17,1.9,1.9,0,0,1,.71.2c.35.13.36.12.36-.31,0-.12,0-.26,0-.34s.21-.08.3,0a1.29,1.29,0,0,0,.09.16,2.06,2.06,0,0,0,1.62.83,10.49,10.49,0,0,1,2.61.38,3.92,3.92,0,0,0,2.07.24,1.08,1.08,0,0,1,.55.07,4.19,4.19,0,0,0,1.87.2,5.47,5.47,0,0,1,1.28.2c1.39.14,2.77.39,4.15.6.13,0,.25,0,.38.06a13.14,13.14,0,0,1,1.89.13,8.59,8.59,0,0,1,1.54.63,5.38,5.38,0,0,1-2.53.36,14.66,14.66,0,0,0-3.8.13,2.17,2.17,0,0,1-.75-.07,5.51,5.51,0,0,0-2.82-.09c-.36-.13-.71-.28-1,.14a.49.49,0,0,1-.33.15c-1,0-2,0-3.06,0a2.36,2.36,0,0,1-.74-.14.39.39,0,0,1-.21-.27c-.17-.84-.17-.86-.87-.77a12.18,12.18,0,0,1-1.71.12.56.56,0,0,0-.54.45c-.13.47-.5.52-.9.48a9,9,0,0,1-2-.41c-.32-.11-.34-.08-1.05.25a1.63,1.63,0,0,0,.87.95c1.14.68,2.33,1.28,3.48,2a8,8,0,0,1,2.14,1.57,1.29,1.29,0,0,0,.47.27,16.55,16.55,0,0,1,2.5,1.31c1,.73,2.16,1.31,3.24,2,0,.2,0,.37.07.59.8-.32,1.33.24,1.93.54.07,0,.06.23.07.35,0,.41.22.57.57.45.18-.07.34-.17.51-.25.45.18,1,.21.92,1l.84.39c.53-.32.81.09,1.11.41l.14.09.79-.1c0,.22,0,.4.07.57a.69.69,0,0,0,.5.53c.37.09.76.12,1.12.22a.76.76,0,0,1,.46.28c.36.58,1,.56,1.51.7.15,0,.35-.12.52-.19a1,1,0,0,1,.91.09.51.51,0,0,1,.27.61c.53.22,1.06.44,1.59.64a2,2,0,0,0,1.48.08,2.88,2.88,0,0,1,.93,0c.23.49.64.22,1,.22s.63.4,1,.58c.45-.16.92-.31,1.38-.5a1.12,1.12,0,0,1,1.38.31.71.71,0,0,0,.62.33,1.85,1.85,0,0,1,1.42.44.45.45,0,0,0,.34.14c.51-.19,1,.27,1.49,0s.94-.09,1.39.18a3.61,3.61,0,0,0,2,.54,8.52,8.52,0,0,1,1.32.17,11.1,11.1,0,0,0,1.13.19,52.6,52.6,0,0,1,5.87.74c.56.09,1.14.1,1.7.19a2.16,2.16,0,0,1,.69.27c.09.05.12.21.15.33s-.08.1-.13.1a2.8,2.8,0,0,1-.75.09,17.15,17.15,0,0,0-3,0,28.24,28.24,0,0,1-3.44-.05c-3-.17-6.08-.56-9.13-.7a17.49,17.49,0,0,1-1.88-.3A5.06,5.06,0,0,0,545,138c-.05-.06-.29-.07-.3,0-.24.5-.63.53-1.12.48a46.61,46.61,0,0,1-5.24-1,22.7,22.7,0,0,0-2.6-.57,6.45,6.45,0,0,1-1.3-.3c-1.51-.5-3-1.05-4.52-1.52a33.24,33.24,0,0,1-4.94-2c-.8-.4-1.62-.75-2.4-1.17-1.18-.63-2.33-1.31-3.49-2-1.38-.8-2.74-1.61-4.13-2.39s-2.78-1.53-4.15-2.34a56.4,56.4,0,0,0-8.85-4,36.67,36.67,0,0,0-8-1.8c-1.63-.23-3.27-.46-4.92-.57-2.6-.18-5.19-.51-7.8-.52-1.71,0-3.43-.07-5.15-.15a28.17,28.17,0,0,0-3.05.08,37.29,37.29,0,0,1-3.81.24c-.7,0-1.36.28-2.07.3a11.71,11.71,0,0,1-2.07.24,13,13,0,0,1-2.39.58,35.54,35.54,0,0,1-4,1.18c-1,.57-2.2.6-3.24,1.11s-2.14.81-3.21,1.22c-2.2.83-4.31,1.88-6.43,2.89a2.12,2.12,0,0,0-1.13,1,.69.69,0,0,0,.61.38c.57,0,1.14-.17,1.67.22.05,0,.36-.11.44-.24a1.16,1.16,0,0,1,.9-.62c1.77-.23,3.49-.7,5.26-.87,1.27-.12,2.53-.29,3.8-.36a6.77,6.77,0,0,0,1.11-.19,12.59,12.59,0,0,1,1.5-.21.37.37,0,0,1,.29.14.54.54,0,0,1-.07.34,3.36,3.36,0,0,1-.32.37.81.81,0,0,0,.26,0c.64,0,.64,0,.85-.76a20.94,20.94,0,0,1,2.78-.46,4,4,0,0,1,2.55.44,5.3,5.3,0,0,1,2.62-.55c.35.36.35.36.68.11.05,0,.09-.09.14-.11s.23,0,.29.14.14.28.21.28a2.91,2.91,0,0,0,1.11-.18,1.4,1.4,0,0,1,1.06-.08c.42.09.88-.07,1.3,0a4.27,4.27,0,0,0,1.13,0,22.32,22.32,0,0,1,2.83-.11,68.86,68.86,0,0,1,8,.78,11.92,11.92,0,0,1,2,.54,32.31,32.31,0,0,1,3.29.94c1,.46,2.08.62,3.05,1.08a13.47,13.47,0,0,1,3.9,2.36c.35.35.81.6,1.19.94a.89.89,0,0,1,.18.51c0,.2-.17.42-.32.37a1.37,1.37,0,0,1-.36-.11,27.71,27.71,0,0,0-2.61-1.17,49.77,49.77,0,0,0-8.19-2.54c-.8-.19-1.63-.26-2.45-.37a63.68,63.68,0,0,0-8.94-.65,50.59,50.59,0,0,0-5.9.44c-2.27.28-4.55.53-6.83.81a8.47,8.47,0,0,0-1.12.2,9.8,9.8,0,0,1-2.08.33,2.61,2.61,0,0,0-.74.13,20.48,20.48,0,0,1-4.31.81,3.17,3.17,0,0,0-.92.22,36.43,36.43,0,0,1-3.83,1.11c-1,0-1.84.46-2.81.39-.06,0-.15,0-.18,0-.85.78-2.06.53-3,1.08a6.27,6.27,0,0,1-1.64.51,1.32,1.32,0,0,1-.56,0,1.38,1.38,0,0,0-1.11.09c-.61.39-1.37.14-2,.54-.19.12-.49.05-.74.08a5,5,0,0,0-1.12.2,13.93,13.93,0,0,0-2.94,1.28,4.06,4.06,0,0,1-1.88.89,2,2,0,0,0-.81.48.79.79,0,0,1-1.17-.07.26.26,0,0,0-.45.15.9.9,0,0,1-.93.78,2.45,2.45,0,0,0-1.26.38,5.42,5.42,0,0,1-1.44.48,11.42,11.42,0,0,0-2.2.61c-2,.82-4.14,1.24-6.09,2.19a.93.93,0,0,1-.37.06c-.31,0-.69-.14-.93,0-1,.51-2.12.5-3,1.22a1,1,0,0,1-.9.18,1.18,1.18,0,0,0-.56,0c-.72.22-1.44.46-2.16.7a1.17,1.17,0,0,0-.49.27,3.92,3.92,0,0,1-2,.94,5.93,5.93,0,0,0-1.94.65c-.58.39-1.36.39-1.82,1a.68.68,0,0,1-.5.24,5.56,5.56,0,0,0-2.5.85c-.34.16-.69.33-1,.48a.66.66,0,0,1-.55,0A1,1,0,0,0,399,148a5.75,5.75,0,0,0-2,.49,1.66,1.66,0,0,1-.9.29,3.53,3.53,0,0,0-1.73.7c-.22.12-.39.33-.62.44s-.42.15-.54.07a2.06,2.06,0,0,0-1.65-.06,15.06,15.06,0,0,1-5.87.13.55.55,0,0,0-.18,0,22,22,0,0,1-4.72-.58c-1.63-.27-3.21-.77-4.83-1.08-.49-.09-.94-.4-1.42-.54a19.36,19.36,0,0,0-2-.59,4.8,4.8,0,0,1-2.38-1.16c-.43-.38-.93-.66-1.37-1-.91-.78-1.82-1.56-2.71-2.38a2.9,2.9,0,0,1-.51-.79.42.42,0,0,1,0-.53,1.87,1.87,0,0,0,.34-.87,1,1,0,0,1,.81-.71,4.62,4.62,0,0,1,3.14.45,3.78,3.78,0,0,0,1.45.45,4.41,4.41,0,0,1,1.45.43,18.23,18.23,0,0,0,5,1.29,2.63,2.63,0,0,1,.57,0c1.89.66,3.9.55,5.82,1a5.36,5.36,0,0,0,1.33.13,36,36,0,0,0,4.76-.21c.94-.13,1.89-.24,2.84-.36a25.52,25.52,0,0,0,6.05-1.67,6.22,6.22,0,0,1,1.05-.42,6.37,6.37,0,0,0,2.15-.78,19,19,0,0,1,3.18-1.27c.35-.12.74-.16,1.11-.25a4.71,4.71,0,0,0,1.77-.67,2.83,2.83,0,0,1,1.22-.52,3.85,3.85,0,0,0,1.42-.51,2.12,2.12,0,0,1,.73-.18c.24,0,.56,0,.72-.17.47-.42,1.1-.34,1.6-.59a3.69,3.69,0,0,1,1.45-.43.78.78,0,0,0,.37-.09,24.62,24.62,0,0,1,3.44-1.11,3.88,3.88,0,0,1,.75-.17,15.24,15.24,0,0,0,3.1-.82,12.84,12.84,0,0,1,3.11-.81,3.75,3.75,0,0,0,1.65-.43,2.46,2.46,0,0,1,1.48-.31,2.5,2.5,0,0,0,1.48-.3,13.79,13.79,0,0,1,3-1.09.49.49,0,0,0,.42-.48c-.52-.52-1-1-1.49-1.51a.49.49,0,0,1,0-.68l.14-.13a3.61,3.61,0,0,1,2.51-1.18,7,7,0,0,0,1.81-.55,45.9,45.9,0,0,0,4.31-2c.58-.36,1.32-.45,1.89-.87a1.85,1.85,0,0,0,1.15-.56,6.87,6.87,0,0,1,1.32-.76c.77-.4,1.72-.41,2.38-1.06.9-.12,1.59-.78,2.47-.93a9.39,9.39,0,0,1,2.6-1.12,6.14,6.14,0,0,0,1.36-.62,1.15,1.15,0,0,1,.7-.2,1.87,1.87,0,0,0,1.26-.34,3.39,3.39,0,0,1,2.1-.77c.59,0,1-.51,1.52-.73,0-.09-.05-.23-.12-.27a4,4,0,0,0-2.56-.49c-1.64.24-3.28.44-4.89.84-.61.15-1.25.15-1.85.33a13,13,0,0,0-1.53.68c-.59.25-1.19.46-1.76.74s-1.11.2-1.6.57c-.22.17-.63.07-.92.18s-.43.44-.74.57c-.82.34-1.61.73-2.42,1.09-.22.1-.51.08-.71.2a5.3,5.3,0,0,0-1.24.87,2.28,2.28,0,0,1-1.13.63.81.81,0,0,0-.44.33.52.52,0,0,1-.62.27.36.36,0,0,0-.33.12,1.38,1.38,0,0,1-1.07.68,1.14,1.14,0,0,0-.65.34,7.36,7.36,0,0,1-1.48,1.19c-.89.61-1.74,1.28-2.61,1.92a3,3,0,0,1-.48.3,27.1,27.1,0,0,1-4.24,1.68,3.31,3.31,0,0,1-1.89.1c-1.28-.4-2.63-.41-3.93-.73a19,19,0,0,1-2.36-.73,10.71,10.71,0,0,0-1-.47,2.31,2.31,0,0,1-1.52-1.06,2,2,0,0,0-.68-.66,4.55,4.55,0,0,1-2-3.51.79.79,0,0,1,.69-1,4.38,4.38,0,0,0,.86-.37,18.44,18.44,0,0,1,2.91-1.38c0,.06,0,.17.06.17.24,0,.51.15.71.07a4.32,4.32,0,0,0,1.58-1,.19.19,0,0,0,0-.18c-.08-.08-.22-.19-.27-.17a4.89,4.89,0,0,1-1.83.93,4.08,4.08,0,0,1,1.54-1.37c.78-.39,1.43-1,2.26-1.37.49-.7,1.35-.88,2-1.38.23-.18.46-.09.66.13a.63.63,0,0,0,.86.08c.58-.38,1.15-.78,1.7-1.21.13-.1.17-.31.25-.47a2.5,2.5,0,0,0,1.26-.33.19.19,0,0,0,.07-.17.18.18,0,0,0-.26-.14,9.37,9.37,0,0,0-.86.38C427.65,112.86,427.62,113,427.56,113.11Zm36.67,2a3.69,3.69,0,0,1,1.26.1c.08,0,.27-.13.27-.2s-.12-.21-.2-.3a.23.23,0,0,0-.15-.1,2.8,2.8,0,0,0-2.34.33s-.06.13,0,.15.17.22.24.22A6.88,6.88,0,0,0,464.23,115.13Zm-41.91,1.5c-.46-.13-.73.14-1,.43,0,0,0,.11,0,.13a.21.21,0,0,0,.16.07A1.93,1.93,0,0,0,422.32,116.63Zm1.47-.92a.71.71,0,0,0-.66.08c-.08,0-.1.19-.13.29s.07.1.12.12a.16.16,0,0,0,.15,0C423.45,116,423.62,115.87,423.79,115.71Z"/><path class="cls-1" d="M271.7,76.14a2.84,2.84,0,0,1,1.81-.84,1.06,1.06,0,0,1,.7.2,1.62,1.62,0,0,0,1.62.1.65.65,0,0,0,.29-.23c.12-.18,0-.32-.11-.47-.27-.42-.14-.68.33-.75a1.53,1.53,0,0,1,.37,0c.25,0,.5.06.75.09,0,.23.13.37.31.31a5.34,5.34,0,0,0,.82-.43s0-.1,0-.13-.11-.1-.15-.09c-.35.12-.69.26-1,.39,0-.26,0-.53.28-.66a25.4,25.4,0,0,1,2.71-1.36,16.69,16.69,0,0,0,2.62-1.1,1.91,1.91,0,0,1,1.47-.25c0,.11.06.23.07.35s.08.2.24.19c.71-.07,1.25-.58,1.91-.67.14-.4-.26-.4-.33-.61a2.07,2.07,0,0,1,1.26-.77.66.66,0,0,1,.53.06,1.32,1.32,0,0,0,1.59,0c.23-.12.44-.25.69-.4-.07-.24-.14-.47-.22-.71,0,0,.06-.11.11-.13l2.19-1.13c.17-.08.37-.1.54-.17a.93.93,0,0,1,1.28.46l-1.31.11s-.11.1-.1.13.13.23.16.23c.41-.16.81-.34,1.21-.51a2.33,2.33,0,0,0,1.34-.6,2.37,2.37,0,0,1-.18-.53c0-.09.1-.23.19-.29a.67.67,0,0,1,.72,0,5.51,5.51,0,0,1,.46.43l1-.34-.7-.45a1.05,1.05,0,0,1,.28-.25c.76-.31,1.53-.61,2.28-.89l.63.46a1.39,1.39,0,0,0,1-.76,1.17,1.17,0,0,1,1.06-.69c.32,0,.64,0,.95,0a.81.81,0,0,0,.66-.31c.12-.17.28-.3.47-.22,1,.4,1.68-.23,2.41-.73a1.19,1.19,0,0,1,.89-.62c2.13-.63,4.26-1.3,6.39-1.93a39.94,39.94,0,0,0,4.54-1.45,2.1,2.1,0,0,1,1.83-.25c.11.06.35-.09.5-.2a3,3,0,0,0,.39-.41.57.57,0,0,1,.7-.12,1,1,0,0,0,1.35-.27c.08-.1.17-.19.25-.28a1.4,1.4,0,0,1,1.18-.51,7.83,7.83,0,0,0,2.63-.42,20.91,20.91,0,0,1,3.92-.77,15,15,0,0,0,1.88-.31,37.47,37.47,0,0,1,6.86-.42,3.79,3.79,0,0,1,1.12.15,18.57,18.57,0,0,1,1.85.48,21.58,21.58,0,0,0,3.5.95,28.45,28.45,0,0,1,7,2.47c1.19.59,2.42,1.12,3.65,1.65a1.83,1.83,0,0,0,.74.13.75.75,0,0,1,.65.3c.29.34.6.66.9,1a1.92,1.92,0,0,0,1.35.62,4.21,4.21,0,0,1,2.6,1.08,12.44,12.44,0,0,0,2.36,1.19,42,42,0,0,1,5,1.76,26.66,26.66,0,0,1,3.82,1.71,15.35,15.35,0,0,0,2.54.82c.72.23,1.47.4,2.19.63a9.5,9.5,0,0,1,1.22.55c.85.43,1.66.93,2.54,1.29s1.64.69,2.44,1.07a8.19,8.19,0,0,0,1.82.57,19.21,19.21,0,0,1,3.61,1.23,11.46,11.46,0,0,0,1.6.61,5.65,5.65,0,0,1,1.24.47,8.38,8.38,0,0,0,1.24.48,7.19,7.19,0,0,1,2.11.87c.18.15.48.15.71.24a20,20,0,0,1,2,.63,3.73,3.73,0,0,0,1.11.24c.51.07,1,.14,1.52.18a.87.87,0,0,1,.68.28,1.68,1.68,0,0,0,1.36.57c.51,0,1,0,1.53.06.1,0,.19.1.29.16-.1.15-.17.38-.31.43a6.57,6.57,0,0,1-2,.5,24,24,0,0,0-2.66.2,6.2,6.2,0,0,1-2.45-.23,7.38,7.38,0,0,0-1.3-.29,8.46,8.46,0,0,1-2.05-.4,8.81,8.81,0,0,0-2.45-.37,17.66,17.66,0,0,1-2.28-.25,7.94,7.94,0,0,0-1.89-.09,3.57,3.57,0,0,1-1.86-.28,7.69,7.69,0,0,0-2.59-.59,25.15,25.15,0,0,0-4-.36c-.17,0-.35-.14-.53-.19s-.4-.14-.54-.08a2.73,2.73,0,0,1-1.87,0,14.83,14.83,0,0,0-1.51-.2,1.65,1.65,0,0,1-.89-.31,1.28,1.28,0,0,0-.88-.19,5.58,5.58,0,0,1-1.67-.24,4.22,4.22,0,0,1-1-.58c-.55.12-1.12.37-1.63-.12-1.25-.2-2.43-.69-3.71-.82-.69-.07-1.34-.4-2-.45-1.85-.74-3.87-.75-5.76-1.36a14.46,14.46,0,0,0-1.88-.32c-1.37-.26-2.75-.5-4.1-.89a16.81,16.81,0,0,0-1.88-.34,3.35,3.35,0,0,1-.91-.2,3.48,3.48,0,0,0-1.3-.27,4.57,4.57,0,0,1-1.85-.41c-.13-.07-.35,0-.53,0s-.41.12-.53,0a3.55,3.55,0,0,0-2.2-.43,10,10,0,0,1-2.26-.24c-1.25-.23-2.5-.5-3.73-.84a30.1,30.1,0,0,0-6.92-1.24,4.33,4.33,0,0,0-1.86-.15c-.57,0-1.14-.1-1.71-.09a14.78,14.78,0,0,0-1.88.19,11.35,11.35,0,0,1-2.85.1,4.73,4.73,0,0,0-2.08.2,3,3,0,0,1-.94.17,11.88,11.88,0,0,0-3.17.57,11.77,11.77,0,0,1-2.44.43,27,27,0,0,0-3.31.92,2.19,2.19,0,0,0-.51.25c-.38.22-.78.43-1.15.67s-.75,0-1.12.13l-2.69,1a10.7,10.7,0,0,1-1.07.41,3.68,3.68,0,0,0-2.07.84.6.6,0,0,1-.34.16,6,6,0,0,0-2.4,1.1,21.44,21.44,0,0,1-4.11,2,2.2,2.2,0,0,0-.52.22c-1.6,1.15-3.45,1.92-4.94,3.24a9.52,9.52,0,0,0-1.3,1.39,22,22,0,0,0-2.24,2.84,1.46,1.46,0,0,1-.55.49,10.67,10.67,0,0,0-2.16,1.86,10.15,10.15,0,0,1-1.93,1.53,3.56,3.56,0,0,0-1.24,1.17.89.89,0,0,1-.39.4,3.69,3.69,0,0,0-1.48,1.45c-.68.91-1.47,1.74-2.14,2.67a6.69,6.69,0,0,1-1.7,1.52,17.64,17.64,0,0,1-2.84,1.91.86.86,0,0,0-.44.59,3.13,3.13,0,0,1-.19.54,1.31,1.31,0,0,1-1.07.71,3.19,3.19,0,0,0-1.49.25,3,3,0,0,1-2.41,0,4.52,4.52,0,0,1-.86-.41,5.32,5.32,0,0,0-1.64-.48c-1.58.23-3-.45-4.43-.88-.24-.07-.46-.23-.7-.31a3.14,3.14,0,0,1-2-1.61,1.07,1.07,0,0,0-.92-.6,9.56,9.56,0,0,1-4.05-1.52c0-.11.05-.26.13-.33a.76.76,0,0,0,.33-.82,2.11,2.11,0,0,1-.09-.56,1,1,0,0,1,.61-.88,8.91,8.91,0,0,1,1.11-.26,1.14,1.14,0,0,0,.95-.83l0,.06a.38.38,0,0,0,.46-.25c.09-.2,0-.34-.21-.42a.53.53,0,0,1-.17-.08.8.8,0,0,1-.13-.13s0-.12,0-.15a.28.28,0,0,1,.18-.06,11.66,11.66,0,0,0,4.29-.68,5,5,0,0,0,2.05-.93,7.85,7.85,0,0,1,2.43-1.06,12.76,12.76,0,0,0,1.41-.54,2.61,2.61,0,0,1,.71-.25,14.2,14.2,0,0,0,3.32-1.38c.7-.34,1.12-1.08,1.82-1.34a13.86,13.86,0,0,0,2.07-.95,2.88,2.88,0,0,0,.49-.29,2.08,2.08,0,0,0,.28-.48c-.17,0-.37-.16-.52-.11-1.45.46-2.91.91-4.33,1.46-1.67.65-3.35,1.2-5,1.79-2.58.9-5.19,1.71-7.76,2.64-2,.73-4.1,1.33-6.17,2-2.38.7-4.73,1.5-7.1,2.2-3,.87-6,1.66-9,2.41a.57.57,0,0,1-.21-.06c.25-.49.78-.54,1.18-.79,0-.05.05-.11,0-.16a1.11,1.11,0,0,1,.65-1.24,1.29,1.29,0,0,1,.32-.19.54.54,0,0,1,.36,0c.19.15.31.44.52.5a5.65,5.65,0,0,1,.89.19s.16-.2.14-.26a1.14,1.14,0,0,0-.28-.46,2.17,2.17,0,0,0-.48-.28c.22-.09.4-.15.57-.24.73-.36,1.59-.31,2.24-1s1.31-.69,1.95-1.2a6.11,6.11,0,0,1-.81-.06c-.1,0-.19-.15-.27-.24a.25.25,0,0,1,.1-.12,9.49,9.49,0,0,0,2.9-1.31,10.64,10.64,0,0,1,2.12-.84.79.79,0,0,1,.37,0,1.74,1.74,0,0,0,1.71-.59,1.93,1.93,0,0,1,1-.49,6.4,6.4,0,0,1,2.6-.34.39.39,0,0,0,.29-.15c0-.46.26-.68.59-.86s.58-.27.86-.41A28.51,28.51,0,0,1,256.38,81,4.89,4.89,0,0,1,259,81a1.52,1.52,0,0,0,.87-.72A7.69,7.69,0,0,0,261,80c.19-.08.3-.35.45-.53.54.39,1.1,0,1.66,0,.36,0,.3-.32.36-.53a4.4,4.4,0,0,1,1.82-.48c.45,0,.46,0,.29-.62a2.1,2.1,0,0,1,1.95-.17,5.63,5.63,0,0,0,.92.23c.12,0,.3.08.36,0,.51-.47,1.26-.18,1.78-.59l.31-.22c-.21-.13-.48-.24-.66,0-.43.44-.93.31-1.43.26-.05,0-.13-.1-.12-.13s.1-.23.17-.26c.68-.17,1.37-.31,2-.5a7.25,7.25,0,0,0,.87-.36,6,6,0,0,0,.1.74c0,.11.15.19.24.28s.32,0,.45-.16.09-.25,0-.33S272,76.3,271.7,76.14Zm89.18-9.33c-1.21-.47-2.26-1.14-3.38-1.65-1.32-.62-2.64-1.26-4-1.84a21.63,21.63,0,0,0-5.64-1.7c-1-.14-2-.51-3-.65s-2-.16-3-.32A39.46,39.46,0,0,1,335,59.06a3.06,3.06,0,0,0-1.12-.18,10.07,10.07,0,0,0-2.82.37,23.18,23.18,0,0,1-2.77.63,15,15,0,0,0-2.36.74c-.76.31-1.63.21-2.41.54-.29.12-.59.21-.89.31a1.4,1.4,0,0,0-.17.09c-.42.19-.59.39-.44.48a1,1,0,0,0,.48.22,20.56,20.56,0,0,0,4,0,32.33,32.33,0,0,1,3.81-.12c.44,0,.89,0,1.33,0a23.65,23.65,0,0,1,2.66,0c.95.09,1.9,0,2.84.17a17.17,17.17,0,0,0,1.9.15c.51,0,1,.08,1.52.15,1.51.22,3,.44,4.51.7a21.72,21.72,0,0,1,2.41.59,5.08,5.08,0,0,0,1.84.41,25.41,25.41,0,0,0,4.65,1,1.27,1.27,0,0,1,.18.06c1.85.71,3.83.94,5.71,1.52A1.35,1.35,0,0,0,360.88,66.81ZM235.7,91.6l-.3-.15a.34.34,0,0,0-.15-.07.14.14,0,0,0-.13.09s0,.14,0,.14a2.74,2.74,0,0,0,.5.07Z"/><path class="cls-1" d="M71,127.74a3.15,3.15,0,0,0-.22-.29,4,4,0,0,0-.26-.33,4,4,0,0,1-2,1,1,1,0,0,1-1.16.39.23.23,0,0,0-.18.06c-.5.69-1.44.43-2,1-1.07-.21-1.76.59-2.59,1a1.61,1.61,0,0,1-.39,0,.58.58,0,0,0-.69.12.73.73,0,0,1-.66.28,1,1,0,0,0-.55.09c-.54.32-1,.78-1.7.72-.32.73-1.24.49-1.71,1.07s-1.12.57-1.54,1.1a1,1,0,0,1-.62.39,3.94,3.94,0,0,0-1.72.76c-.39.21-.82.36-1.18.6s-.76.12-1.07.34-.53.56-.85.75a17.9,17.9,0,0,1-4.54,1.95,9.87,9.87,0,0,0-2.6.41,42,42,0,0,1-4.74.57,3.46,3.46,0,0,0-2,.47,4,4,0,0,1-1.07.42,3.58,3.58,0,0,1-3.43-.52c-.2-.16-.43-.27-.64-.42a2.27,2.27,0,0,1-.28-.26,1.06,1.06,0,0,1,.28-1.63,38.38,38.38,0,0,0,4.12-2.39,3.94,3.94,0,0,1,1-.55,7,7,0,0,0,2.68-1.37c.3-.22.75-.12,1-.44a2,2,0,0,1,1-.48,1.47,1.47,0,0,0,.78-.51,1.2,1.2,0,0,1,1.25-.62,1.18,1.18,0,0,0,.82-.42c.35-.43.87-.51,1.3-.76a1.33,1.33,0,0,1,1.11-.09c.57.21,1,.19,1.27-.36a.37.37,0,0,1,.5-.15,1,1,0,0,0,.91-.13,3.27,3.27,0,0,1,1.72-.7,3.29,3.29,0,0,1,1.58-.57,2,2,0,0,0,1.6-1.18.67.67,0,0,1,.61-.38c.32,0,.64,0,1,0,.55,0,1.17.15,1.52-.48a5.24,5.24,0,0,0,.91-.16,13.35,13.35,0,0,0,1.21-.57c.74.08.93-.57,1.36-1a9,9,0,0,0,3.13-1.1,31.43,31.43,0,0,1,3.27-1.53A37.34,37.34,0,0,0,70,120.07a5.24,5.24,0,0,1,1.41-.53,1.51,1.51,0,0,0,.86-.29,5.42,5.42,0,0,1,.93-.66c1.14-.7,2.45-1,3.61-1.72a11.35,11.35,0,0,0,2.44-1c.83-.34,1.65-.68,2.48-1a3.49,3.49,0,0,1,1.65-.42.52.52,0,0,0,.36-.09c.27-.16.52-.36.78-.54s.62.06.86-.26.51-.29.76,0a2.75,2.75,0,0,0,1.13-.38c.12-.15.21-.32.33-.47s.17-.24.27-.25a7.61,7.61,0,0,0,1.4-.53c1.17-.3,2.35-.57,3.52-.87.48-.12,1,.25,1.46-.15a2.86,2.86,0,0,1,.67-.36l.49-.28c.37-.2.59.06.82.26a8,8,0,0,1,3.89-1.36,4.11,4.11,0,0,0,.94-.1,1.1,1.1,0,0,1,1.24.15.39.39,0,0,0,.36,0,3.79,3.79,0,0,0,.58-.48,1.12,1.12,0,0,1,1-.37.72.72,0,0,0,.38-.05,14.23,14.23,0,0,1,4.84-.83,1.8,1.8,0,0,0,.57,0c1.1-.35,2.27-.25,3.39-.5a19,19,0,0,1,4.93-.27,2.13,2.13,0,0,1,.57,0,1.4,1.4,0,0,0,1.1,0,2.58,2.58,0,0,1,1.83-.27c.11,0,.25,0,.37,0a10,10,0,0,1,3,.07c.54-.23,1.12.29,1.65-.09a4.9,4.9,0,0,1,1.5.18c.69.3,1.37,0,2,.19a3.09,3.09,0,0,1,2.06.07,26.73,26.73,0,0,1,4.07,1c1.07-.08,1.94.57,2.91.85.6.17,1.21.37,1.81.56a7.24,7.24,0,0,1,1.27.4,33.84,33.84,0,0,0,4.14,1.45,6.83,6.83,0,0,0,.92.2,14.91,14.91,0,0,1,2.94.82,5.69,5.69,0,0,0,1.28.37,1.58,1.58,0,0,1,.55.12c1.18.69,2.57.71,3.78,1.28a7.45,7.45,0,0,1,.86.38,3.28,3.28,0,0,0,1.62.5,4.58,4.58,0,0,1,1.48.36,17.46,17.46,0,0,0,2.36.74.85.85,0,0,1,.6.42.39.39,0,0,0,.46.24c.67-.28,1.21.33,1.84.26a9.22,9.22,0,0,1,2.91,1.36c.54.1.94.54,1.53.58a7.69,7.69,0,0,1,3.19,1.16,2.13,2.13,0,0,0,.86.37,4.74,4.74,0,0,1,1.93.76,8.31,8.31,0,0,0,2,1.09,4.24,4.24,0,0,1,.79.51,12.23,12.23,0,0,0,1.67.9,2.13,2.13,0,0,1,.91.64.65.65,0,0,0,.66.26,2.14,2.14,0,0,1,1.65.3c.48.3,1,.55,1.48.87a7.14,7.14,0,0,0,1.5.79,8.77,8.77,0,0,1,1.45.88,3.7,3.7,0,0,0,1.91.8,1.27,1.27,0,0,1,.85.39,4.45,4.45,0,0,0,1.68.88c1.08.37,2.08.91,3.14,1.32.59.22,1.11.65,1.7.83s1.14.06,1.69.2,1.11,0,1,.8c.41.29.81.58,1.23.85a.43.43,0,0,0,.35,0,.75.75,0,0,1,.72-.07c.46.22.94.41,1.38.67a29.07,29.07,0,0,1,5.78,4s.09.13.13.13c.89.09,1.06,1,1.67,1.43a.93.93,0,0,1,.31.86.46.46,0,0,1-.47.47,4.23,4.23,0,0,1-.94-.1,15.28,15.28,0,0,1-2.53-.83,27.61,27.61,0,0,1-3.28-1.5,2.64,2.64,0,0,0-.72-.22c-.24-.06-.5-.09-.73-.17a8.47,8.47,0,0,1-1.59-.62,2.14,2.14,0,0,0-1.63-.26,1.08,1.08,0,0,1-.89-.24,2.73,2.73,0,0,0-.64-.4,3.69,3.69,0,0,0-.93-.15,1.53,1.53,0,0,0-.56.09,9.23,9.23,0,0,1-3.59.06,11.78,11.78,0,0,0-2.44-.44c-.28-.06-.61.11-.9.05a3.92,3.92,0,0,1-.86-.4,6.3,6.3,0,0,0-1.22-.54,19.44,19.44,0,0,0-2.71-.87,1,1,0,0,1-.64-.38,1,1,0,0,0-.64-.37c-1.09-.17-1.93-.93-3-1.23a1.07,1.07,0,0,1-.43-.37,1.59,1.59,0,0,0-.75-.56,8.37,8.37,0,0,1-1.75-.72,6,6,0,0,0-1.62-.51,1.69,1.69,0,0,1-.81-.46,2.2,2.2,0,0,0-1.64-.85.72.72,0,0,1-.48-.26,1.21,1.21,0,0,0-.83-.41c-.27,0-.41-.22-.55-.45a1.54,1.54,0,0,0-1.25-.74.77.77,0,0,1-.51-.18c-.63-.77-1.71-.8-2.38-1.5l-1.63-.54a.75.75,0,0,1-.47-.55.48.48,0,0,0-.57-.36,2,2,0,0,1-1.73-.46,3.7,3.7,0,0,0-1.72-.78,6.48,6.48,0,0,1-2.67-.94,2.13,2.13,0,0,0-.87-.35,16.84,16.84,0,0,1-2.33-.8,7.5,7.5,0,0,1-2.19-1.14c-.1-.06-.25-.14-.33-.11-.51.17-.83-.28-1.25-.36-.75-.13-1.34-.67-2.11-.79a13.32,13.32,0,0,1-2.17-.69,4.27,4.27,0,0,1-.67-.35c-.33-.18-.72,0-1.06-.28a1.32,1.32,0,0,0-.74,0c-.5.05-1,.2-1.46-.17-.11-.1-.37-.05-.55,0-.69.18-1.35-.44-2.05-.06-.05,0-.22-.11-.28-.21s-.41-.39-.65-.27c-.86.41-1.76-.07-2.63.13-.09,0-.22-.11-.32-.19s-.37-.31-.66-.16a1.46,1.46,0,0,1-1.87-.4,1.35,1.35,0,0,0-.21-.13c-.83.15-1.45.92-2.35,1a2.13,2.13,0,0,0-.14-.35.57.57,0,0,0-.6-.34c-.42.14-.85.28-1.26.46a.56.56,0,0,1-.53,0c-.46-.28-.84-.05-1.25.13a.27.27,0,0,1-.39-.26c0-.16-.06-.24-.22-.26A5.33,5.33,0,0,0,126,116a1.24,1.24,0,0,1-.91-.06.77.77,0,0,0-.72.06c-.16.07-.42.16-.54.08a2.58,2.58,0,0,0-1.47-.21c-.3,0-.55-.41-.87-.28-.91.36-1.92,0-2.79.43-.3.15-.45,0-.66-.11a1.54,1.54,0,0,0-1.44-.15c-.53.15-.93.64-1.6.5-.48-.1-1,.2-1.48.21a5.32,5.32,0,0,0-2.74.71c-.19.12-.46.06-.47-.07a.81.81,0,0,1,0-.38c.05-.16,0-.26-.1-.3a.57.57,0,0,0-.18,0,.33.33,0,0,0-.17.07,2.1,2.1,0,0,1-1.56.6c-.56,0-.88.49-1.45.62l-1.07-.44c-.59.2-1.23.44-1.89.64a6.06,6.06,0,0,1-1.11.22c-.37.06-.76-.18-1.12.07s-.5.37-.69.52c-.37.06-.53-.17-.75-.29-.58-.3-.63-.29-1,.37-.15.32-.33.4-.57.23s-.48-.4-.72-.59c-.94,1.31-1.05,1-1.76.83-.23.31-.44.64-.91.37-.08,0-.25,0-.36.06-.32.16-.35.75-.85.63a1.52,1.52,0,0,0-.92.09,6.33,6.33,0,0,1-.9.3,2.87,2.87,0,0,1-.8-.13,4.24,4.24,0,0,1-.81.64,3.42,3.42,0,0,1-1.11.28c-.37.06-.74.06-1.09.09-.12.19-.21.36-.32.51s-.37.16-.41,0-.06-.36-.3-.37a.79.79,0,0,0-.38,0c-.36.19-.58-.06-.83-.23-.46.43-.61,1.1-1.2,1.4l-1.42-.42c-.17.18-.29.33-.42.46a1,1,0,0,1-1,.41.23.23,0,0,0-.18,0c-.36.19-.62.7-1.15.33-.44.5-1.19.42-1.63.89s-.74.69-1.33.37a.72.72,0,0,0-.54.08,12.08,12.08,0,0,1-1.36.65,9.27,9.27,0,0,0-1.44.46c-.39.2-.85.26-1.26.43a7.41,7.41,0,0,1-1,.53A11.12,11.12,0,0,0,71,127.74Z"/><path class="cls-1" d="M314.37,44a3.21,3.21,0,0,1,1.48-.43,3.94,3.94,0,0,0,1.46-.35c.65-.23,1.29-.52,1.93-.78a.42.42,0,0,1,.19,0c.18,0,.42,0,.52.15s0,.33,0,.56l1.47,0a.77.77,0,0,0,.37-.07,4.72,4.72,0,0,1,2.38-.56,1.67,1.67,0,0,0,1.53-.9c0-.1.21-.14.32-.2s.34,0,.33.24,0,.27.11.31a.41.41,0,0,0,.33,0A2.94,2.94,0,0,1,328,41c.07,0,.19.07.28.14s0,.12,0,.17-.21.32-.33.49c.08,0,.17.14.22.12a3.49,3.49,0,0,1,1.49-.27c.38,0,.76,0,1.1,0,.41-.31.75-.6,1.12-.85.2-.14.46-.35.66-.32.57.09,1-.28,1.44-.41a.7.7,0,0,1,.51.15c.18.14.11.55.43.52a1.93,1.93,0,0,0,.67-.31c.68-.37.79-.36,1.47.2a1.32,1.32,0,0,1,1-.76c.64-.08,1.28-.15,1.75.46a.34.34,0,0,0,.34.08c.65-.38,1.38.06,2-.2a1.21,1.21,0,0,0,1.19-.23c.24-.21.73-.07.89-.5a4.91,4.91,0,0,1,1.1-.27c1.84,0,3.69.08,5.53.14a7.54,7.54,0,0,1,.93.16l1.86.35a6.89,6.89,0,0,1,.94.12,2.44,2.44,0,0,0,1.48.21c.8.19,1.61.36,2.4.57.62.16,1.22.38,1.83.54s1.24.29,1.86.43a3.15,3.15,0,0,1,1.54.65,1.07,1.07,0,0,0,.86.33c.52,0,.95.5,1.46.3a1,1,0,0,1,1.06.14,2.7,2.7,0,0,0,1.25.42,7.15,7.15,0,0,1,1.12.22.79.79,0,0,1,.65.81c0,.11.11.22.17.32a1.06,1.06,0,0,0,.37-.06,1.72,1.72,0,0,1,2.11.22,2.6,2.6,0,0,1,.43.38.82.82,0,0,0,.86.25,7.37,7.37,0,0,1,.93-.11.81.81,0,0,1,1,.63c0,.15.24.29.4.37.46.22.93.41,1.4.61.27.12.27.11.61-.36.06-.08.26-.18.3-.15a5.27,5.27,0,0,0,1.89.84.77.77,0,0,0,1.05.38.25.25,0,0,1,.19,0c.09.06.23.15.23.23a.71.71,0,0,0,.71.75,2.3,2.3,0,0,1,1.39.53,9.18,9.18,0,0,0,3,1.19c.1,0,.24-.07.37-.07.35,0,.4,0,.54.59.23,0,.49,0,.73,0a6.11,6.11,0,0,1,.74.17c.51.15.74.71,1.19.9s.87.1,1.26.38.86.52,1.3.79c.11.06.26.14.28.24.16.69.83.73,1.29,1s1.25.61,1.87.93a2.08,2.08,0,0,1,.41.38.74.74,0,0,1-.72.11c-1.95-.61-4-.9-5.88-1.67-3.29-.75-6.43-2-9.69-2.86-.61-.16-1.19-.45-1.79-.66a25.77,25.77,0,0,0-4.8-1.21,22.18,22.18,0,0,1-2.82-.5c-.73-.21-1.49-.32-2.22-.5-2.36-.56-4.76-.9-7.07-1.64a12.45,12.45,0,0,0-3.52-.71,2.68,2.68,0,0,1-.56-.13,13.73,13.73,0,0,0-3.37-.56c-.19,0-.38-.08-.57-.08a22.14,22.14,0,0,0-2.45-.29,9.67,9.67,0,0,1-2.28.07,1.23,1.23,0,0,0-.38,0c-.94.14-1.88.32-2.83.4a16.59,16.59,0,0,0-2.64.35,7.46,7.46,0,0,1-.95.11c-.13,0-.26,0-.38,0-.94.14-1.88.31-2.83.41s-1.91,0-2.85.2c-.61.09-1.23-.15-1.84.24a10,10,0,0,1-1.81.53,8.37,8.37,0,0,1-2.59.54c-.37,0-.75.1-1.13.15-.91.7-2.07.53-3.09.83-.79.23-1.61.34-2.42.51a7.93,7.93,0,0,1-2.79.46c-.33,0-.7.24-1.07.34a12.34,12.34,0,0,1-2.43.41c-.82.06-1.48.67-2.34.74-.48,0-.94.36-1.47.26a1.42,1.42,0,0,0-.54.15c-.41.15-.81.32-1.23.47l-1.24.41a2.23,2.23,0,0,0-1,.48.8.8,0,0,1-.71.2,3.44,3.44,0,0,0-2.18.46,3.4,3.4,0,0,1-1.65.27,3.12,3.12,0,0,0-1.09.18c-1,.3-2,.51-2.94.78a.67.67,0,0,1-.54-.08,1,1,0,0,0-1.23.13.77.77,0,0,1-.71.14,1.68,1.68,0,0,0-1.3.16,4.54,4.54,0,0,1-2.75.48,1.18,1.18,0,0,0-.73.08,2.78,2.78,0,0,1-2,.46,1,1,0,0,0-.79.47c-.15.21-.38.5-.58.4-.48-.27-.82.36-1.27.09a1.17,1.17,0,0,0-.9,0c-.63.13-1.11.6-1.74.72a2.08,2.08,0,0,1-1.79.42c-.37-.06-.56.14-.83.28s-.86-.09-1.26.22a7.14,7.14,0,0,1-.94.55c-.41-.12-.74-.36-1.11,0a.85.85,0,0,1-.51.23,3.79,3.79,0,0,0-2.14.64,2.21,2.21,0,0,1-1.45.33,2.72,2.72,0,0,0-1.11.2,6,6,0,0,1-1.06.4,2.1,2.1,0,0,0-1.35.62,1.57,1.57,0,0,1-1,.49,8.72,8.72,0,0,0-2.8,1.17,1.93,1.93,0,0,1-.89.3,4,4,0,0,0-1.28.33,17.29,17.29,0,0,1-1.81.58,7,7,0,0,0-1.78.69c-.2.11-.49,0-.72.12a7,7,0,0,0-1.44.5c-.79.43-1.65.67-2.42,1.09q-3.29,1.75-6.54,3.55a2.89,2.89,0,0,1-1.39.53,1.11,1.11,0,0,0-.67.34,26.23,26.23,0,0,1-2.78,1.9,10.16,10.16,0,0,1-2.75,1.29,3.54,3.54,0,0,1-1.88.14,13.24,13.24,0,0,0-2.25-.39.73.73,0,0,1-.36-.14,1.77,1.77,0,0,0-2,.08,15,15,0,0,1-2.47,1,4.63,4.63,0,0,1-3.68-.33,5.92,5.92,0,0,1-1.42-1c-.23-.21-.52-.35-.77-.54a.47.47,0,0,1-.08-.52,2.65,2.65,0,0,1,.73-.87c.4-.3.76-.68,1.18-1a29,29,0,0,0,2.52-2,1.38,1.38,0,0,1,.67-.36,3.3,3.3,0,0,0,1.92-.64c.07-.06.25,0,.37,0a.81.81,0,0,0,.83-.35,5.38,5.38,0,0,0,.36-.67.9.9,0,0,1,.77-.48,3.63,3.63,0,0,1,.57,0,1,1,0,0,0,1-.46c.1-.15.22-.41.34-.41.36,0,.54-.38.82-.39a1.55,1.55,0,0,0,1.27-.72,1.33,1.33,0,0,1,.95-.58,3.21,3.21,0,0,0,1.4-.58,10.55,10.55,0,0,1,1.92-.84.72.72,0,0,1,.54,0,.74.74,0,0,0,.87,0,1.87,1.87,0,0,1,1.19-.53.42.42,0,0,0,.32-.16c.22-.89,1.08-.75,1.65-1l.52-.24.46.58a3.69,3.69,0,0,1,2.21-1.73,6.66,6.66,0,0,0,2-.58c.49-.13,1-.35,1.45-.47a3.14,3.14,0,0,0,.87-.36,2.56,2.56,0,0,1,2.18-.36,1.25,1.25,0,0,0,1.07-.17.94.94,0,0,1,.36-.11.91.91,0,0,0,.77-.49c.08-.16.22-.31.31-.47a1.2,1.2,0,0,1,.93-.59,2.48,2.48,0,0,1,.75-.11,1.25,1.25,0,0,0,.88-.24,2,2,0,0,1,.69-.3,5.35,5.35,0,0,0,1.61-.58,5.84,5.84,0,0,1,1.83-.49c.09,0,.23.09.3.18a.64.64,0,0,0,.86.09,5.28,5.28,0,0,0,.76-.63c.46-.06,1-.11,1.46-.2.18,0,.44-.13.49-.26.3-.75.92-.71,1.57-.78a6.1,6.1,0,0,0,2.32-.83,1.92,1.92,0,0,1,.69-.31,8,8,0,0,0,2.33-.81c1.44-.52,2.9-1,4.36-1.43,2.61-.8,5.26-1.47,7.93-2.08,2.1-.49,4.24-.89,6.29-1.59a2.19,2.19,0,0,1,.74-.16c1.81.05,3.49-.64,5.23-1,.58-.34,1.25-.16,1.85-.35s1.21-.39,1.82-.54a10.26,10.26,0,0,1,1.13-.14,3.77,3.77,0,0,0,1.13-.17A2.49,2.49,0,0,1,314.37,44Z"/><path class="cls-1" d="M231,28.09a.89.89,0,0,0,.08-.17,7.56,7.56,0,0,1,.84-3.27,31,31,0,0,1,1.66-2.76,19.24,19.24,0,0,0,1.94-2.57c1.06-.8,1.69-2.05,2.87-2.72a3.88,3.88,0,0,0,.6-.47,13.11,13.11,0,0,1,8.29-2.87,1.81,1.81,0,0,1,.57,0c1.15.35,2.35.45,3.49.88a30.43,30.43,0,0,1,3.31,1.45,13.8,13.8,0,0,1,2.19,1.52,4.17,4.17,0,0,1,1.52,2.58,2.48,2.48,0,0,1-.22,1.49c-.31.7-.68,1.37-1,2.06a5.13,5.13,0,0,1-2.45,1,6.57,6.57,0,0,0-1.09.35.4.4,0,0,1-.35-.07,1.33,1.33,0,0,0-1.06-.67.56.56,0,0,1-.32-.19,3.23,3.23,0,0,1-.91-2.43c0-.51.12-1,.19-1.59l1.83-2.08a1.33,1.33,0,0,0-.88-.7,13.47,13.47,0,0,1-2.69-1,5.24,5.24,0,0,0-3-.37,5.39,5.39,0,0,0-3.13,1.29c-.19.18-.35.44-.57.5-1,.25-1.41,1-2,1.74a28.24,28.24,0,0,0-4,6.93,4.28,4.28,0,0,1-2,2.45c-.08,0-.12.19-.17.3.11,0,.24.13.35.12a4.07,4.07,0,0,1,2.92,1.21,9.11,9.11,0,0,1,.91,1.19,2.06,2.06,0,0,1,.53,1.39,5.16,5.16,0,0,0,.14,1.7,1.46,1.46,0,0,1,0,.75c-.11.56-.27,1.12-.38,1.68s-.55.85-.76,1.31c-.54.17-1,.64-1.56.64a6.48,6.48,0,0,0-2,.44,2.67,2.67,0,0,1-2.38-.27c-.15-.1-.38-.21-.4-.35a1.41,1.41,0,0,0-.65-.9,1.8,1.8,0,0,1-.73-1.29,13.12,13.12,0,0,0-1-2.25c-.66-.41-1.49-.26-2.17-.63-1.53-.1-3.06-.24-4.46.61A8.81,8.81,0,0,0,220,35.52c-.25.18-.58.25-.85.41a1.94,1.94,0,0,0-.58.48c-.46.61-.88,1.25-1.35,1.85a5.29,5.29,0,0,0-1.13,2.79c-.06.57-.12,1.14-.22,1.7a3.69,3.69,0,0,0,.17,2.43,10.43,10.43,0,0,0,.63,2.59.91.91,0,0,0,.65.64l.19.05c1.63.53,3.21,1.21,4.88,1.6a25.13,25.13,0,0,0,3.37.51,14.49,14.49,0,0,0,3.42-.08,6.51,6.51,0,0,1,.76-.07,22.8,22.8,0,0,0,5.26-.89l1.49-.34c1.81-.36,3.56-.92,5.34-1.4,1-.28,2.05-.71,3.07-1.07l9.72-3.42c1.65-.85,3.46-1.29,5.16-2,3.18-1.31,6.44-2.4,9.68-3.55,3.66-1.29,7.27-2.73,11-3.76a.68.68,0,0,1,.75.08c-.6.27-1.17.55-1.75.79-3.25,1.31-6.49,2.64-9.64,4.18-.4.19-.81.36-1.23.52a23,23,0,0,0-2.94,1.36,13.06,13.06,0,0,1-2.07,1c-2.76,1-5.35,2.38-8.06,3.49a48.37,48.37,0,0,1-6.83,2.92c-1.85.69-3.71,1.34-5.57,2A48.16,48.16,0,0,1,236,52.27a13.41,13.41,0,0,0-2,.48,10.36,10.36,0,0,1-1.68.3l-1.48.32s-.08.11-.08.17a.14.14,0,0,0,.11.1l3.4.44a1.63,1.63,0,0,0,.38,0c2.73-.25,5.48-.37,8-1.48a61.64,61.64,0,0,0,7.94-3.27c2-.86,3.93-1.8,5.91-2.66,1.75-.76,3.52-1.47,5.29-2.21,1.11-.46,2.21-1,3.35-1.38,2.21-.79,4.33-1.85,6.6-2.49.73-.21,1.43-.53,2.15-.8a68.21,68.21,0,0,1,8.42-2.46c1.73-.41,3.5-.61,5.23-1.08a18.09,18.09,0,0,1,2.45-.37c1.71-.2,3.42-.4,5.13-.56.69-.06,1.4,0,2.1,0a4.4,4.4,0,0,1,.65.22c-.87.18-1.55.3-2.23.45l-2.05.44-1.5.32c-1,.22-2,.5-3,.66-.69.11-1.36.35-2,.52l-1.85.46L280,39.71a1.21,1.21,0,0,0-.78.47c.12,0,.25.11.36.08,1-.21,2-.3,3-.55a23,23,0,0,1,3.21-.48c1-.1,2-.09,3.05-.16a15,15,0,0,1,1.9,0c1.33.06,2.67.09,4,.13,2,.07,3.92.38,5.88.61,1.71.2,3.42.35,5.14.47a28.08,28.08,0,0,1,5.07.83c1.17.31,2.36.54,3.53.83a4.14,4.14,0,0,1,.88.35c.09.05.14.19.19.3s-.19.37-.36.39a3.68,3.68,0,0,1-.56.06,8.65,8.65,0,0,1-1.91-.1c-.69-.17-1.37,0-2.07-.16a11.09,11.09,0,0,0-2.08-.16c-1.72-.09-3.41-.44-5.12-.56-1-.07-2-.13-3.06-.16-1.71,0-3.43,0-5.15-.08-.64,0-1.27-.06-1.91-.09a8.75,8.75,0,0,0-1.14,0c-1.78.17-3.56.08-5.33.23a8.43,8.43,0,0,0-1.12.18c-.93.19-1.86.41-2.8.61A44.71,44.71,0,0,0,277,44.25a17.78,17.78,0,0,0-2.16.75,14.63,14.63,0,0,1-2.09.87,18.33,18.33,0,0,1-2.17.71,6.88,6.88,0,0,0-1.45.49,31,31,0,0,0-4.53,2c-1.82.63-3.43,1.68-5.16,2.47a25.13,25.13,0,0,1-4,1.76,5,5,0,0,0-1.2.59,12.16,12.16,0,0,1-2.08.94c-.89.33-1.75.73-2.63,1.1-2.11.89-4.16,1.91-6.19,3a3,3,0,0,1-.52.23c-1.39.45-2.7,1.12-4.11,1.51a13.57,13.57,0,0,0-1.64.52,8.07,8.07,0,0,1-2.56.67,9.17,9.17,0,0,0-2.05.45,8.54,8.54,0,0,1-1.88.28c-.95,0-1.89.2-2.85.27-.63.05-1.27,0-1.9,0a6.33,6.33,0,0,0-1.14-.09,3.83,3.83,0,0,1-2.05-.29,19.14,19.14,0,0,0-2.92-.87,1.88,1.88,0,0,1-1-.51,25,25,0,0,0-3.1-2.51c-.25-.19-.5-.39-.74-.6a5.32,5.32,0,0,1-1.51-1.94,17.4,17.4,0,0,1-1.08-2.64c-.32-1.16-.8-2.28-1.19-3.43a2.69,2.69,0,0,1-.22-.91,10.75,10.75,0,0,0-.35-1.88c-.12-.68-.5-1.33-.21-2-.12-.49-.22-1-.37-1.47a1,1,0,0,1,0-.72,2.31,2.31,0,0,0,.16-.93,11.19,11.19,0,0,1,.46-4.53c.09-.3.06-.64.16-.94a7.18,7.18,0,0,1,.57-1.41c.55-1,1.15-2,1.76-2.94a6,6,0,0,1,.71-.89,9.8,9.8,0,0,1,5.75-3.14,7.46,7.46,0,0,1,.95-.05l2.29,0a3.31,3.31,0,0,1,1.66.34,3.06,3.06,0,0,0,2.23.22,6.8,6.8,0,0,1,2.46-.21A3.62,3.62,0,0,0,231,28.09Z"/><path class="cls-1" d="M320.87,100.54a3.16,3.16,0,0,0-.22-.5c-.2-.29-.83-.27-.89.06-.16.83-.72,1.05-1.44,1.11l.05,0c-.15-.29-.41-.27-.65-.19-.53.18-.84.74-1.49.79-.49,0-.91.46-1.45.41-.34.49-.87.39-1.36.48a5.92,5.92,0,0,0-2.28.93c-1.06.71-2.11,1.44-3.13,2.19-.63.46-1.19,1-2.05.57a.46.46,0,0,0-.36,0c-.41.17-.82.36-1.22.54s-.59.69-1.1.71c-.49-.4-1.14-.12-1.63-.39a1.33,1.33,0,0,0-1.08-.13c-.73.22-1.47.41-2.21.61l-.51-.77a4.38,4.38,0,0,1-1.88-.25s-.06-.11-.07-.17a.21.21,0,0,1,.06-.16,1.06,1.06,0,0,1,.29-.22l3.65-1.68c.57-.27,1.13-.56,1.71-.83a8.24,8.24,0,0,1,1.22-.54,29,29,0,0,0,5.92-2.62,6.94,6.94,0,0,1,1-.51,23.92,23.92,0,0,0,4.11-2c.39-.22.81-.37,1.21-.56a6.78,6.78,0,0,0,.84-.45A7.44,7.44,0,0,1,319,95.7a4.27,4.27,0,0,0,2-1,4.14,4.14,0,0,1,2.21-1,4,4,0,0,0,1.57-.69A17,17,0,0,1,329,91.09a6.72,6.72,0,0,0,1.36-.63,14,14,0,0,1,3.33-1.41c.87-.22,1.73-.45,2.58-.72a14.83,14.83,0,0,0,3-1.2c.17-.09.34-.24.51-.24,1.28,0,2.42-.82,3.73-.61a1,1,0,0,0,.84-.41,1.74,1.74,0,0,1,1.33-.64c.36,0,.5-.24.62-.58a1.41,1.41,0,0,1,1-.8,5,5,0,0,0,2.38-1.14,1.37,1.37,0,0,1,.68-.31,16.73,16.73,0,0,0,2.69-.92c.4-.13.33-.46.43-.72a27.41,27.41,0,0,0,5-1.82.81.81,0,0,1,.36-.12,2,2,0,0,0,1.49-.75,2.07,2.07,0,0,1,1.14-.62c.61-.14,1-.79,1.59-1,.08,0,.19.08.28.12s-.05.13-.1.16-.24.12-.3.22,0,.21,0,.31a.18.18,0,0,0,.15.08,5.5,5.5,0,0,0,1.08-.37,8.14,8.14,0,0,0,.94-.72l.91.66c.1-.18.18-.34.27-.49.21-.33.51-.46.78-.24a2.9,2.9,0,0,0,2.28.66,15.34,15.34,0,0,1,2,0c.44.38.84.7,1.21,1a1,1,0,0,0,1,.29,1.2,1.2,0,0,1,.56,0,13.3,13.3,0,0,0,2.26.36A.64.64,0,0,1,377,79c.11.36.24.72.34,1a2.93,2.93,0,0,0,.37.26,12.06,12.06,0,0,1,4.17,3.26,15.36,15.36,0,0,0,3,2.67,11.16,11.16,0,0,1,1.93,1.83c1,1.16,1.67,2.55,2.59,3.77a3.79,3.79,0,0,0,.95,1.4,4.72,4.72,0,0,1,.87,1.46,15.5,15.5,0,0,0,2.62,4.18,3.36,3.36,0,0,1,.42.64,1.49,1.49,0,0,1,0,1.46,8.55,8.55,0,0,0-.62,1.38,1.19,1.19,0,0,1-1.25.94c-.46,0-.57.15-.65.55s-.1.63-.16.94a.49.49,0,0,1-.59.33,4.39,4.39,0,0,1-1.94-1.49c-.3-.41-.59-.83-.91-1.22a1,1,0,0,0-1-.35c-.28.06-.51.31-.43.52.14.42.3.84.46,1.25a2.42,2.42,0,0,1,.11,1.13c0,.34-.48.75-.8.68a2.36,2.36,0,0,1-1.68-.77,17.52,17.52,0,0,0-1.53-1.7,3.08,3.08,0,0,0-1.08-.75,5.35,5.35,0,0,1-1.25-.86c-1.12-1-2.19-2-3.31-2.89-.83-.69-1.71-1.33-2.57-2a3.16,3.16,0,0,0-.85-.45c-1.14-.39-2.3-.73-3.44-1.13s-2.14-.32-3.18-.62a14.17,14.17,0,0,0-4.72.43,21.65,21.65,0,0,1-4.64,1,4.34,4.34,0,0,0-.91.28l-5.43,1.81-.18.06c-.8.2-1.62.34-2.41.59s-1.52.67-2.3.92c-1.64.52-3.29,1-5,1.45-1.17.31-2.29.76-3.44,1.13a11.6,11.6,0,0,1-2.4.62,3.44,3.44,0,0,0-.56.09c-1.52.46-3.05.9-4.55,1.4-2.24.75-4.48,1.48-6.68,2.31-3.27,1.24-6.63,2.25-9.86,3.62-.54.22-1.11.25-1.65.45s-1,.3-1.43.44c-.05-.06-.11-.1-.11-.14s0-.46-.22-.34c-1.38.67-2.86,1-4.28,1.59a2.13,2.13,0,0,1-1.31.18,2.4,2.4,0,0,0-1.66.22,4.64,4.64,0,0,1-1.27.37.58.58,0,0,1-.69-.49,13.51,13.51,0,0,0,2.35-1.24c.13-.12.17-.21.07-.26a.33.33,0,0,0-.18,0c-.19,0-.37.08-.55.12l-.93.17s-.08-.07-.14-.13a2.72,2.72,0,0,1,1.73-.65,1.22,1.22,0,0,0,.72-.17,1.78,1.78,0,0,1,1.65,0c.37-.42.5-1,1.08-1.27a5.1,5.1,0,0,1,.86-.38,5,5,0,0,0,2.6-1.1,1.1,1.1,0,0,1,.52-.21,26,26,0,0,0,3.72-1.4c1.07-.4,2.13-.84,3.2-1.25.23-.09.48-.16.71-.26a21.93,21.93,0,0,0,2.37-.66c.73-.38,1.51-.67,2.27-1l.53-.22a5.42,5.42,0,0,1,1.2-.56c.75-.14,1.4-.56,2.16-.67a3.67,3.67,0,0,0,1.94-.73,2.83,2.83,0,0,1,1.22-.51,22.22,22.22,0,0,0,5.37-1.87,2.12,2.12,0,0,1,1.48-.25.78.78,0,0,0,.53-.11,12.58,12.58,0,0,1,4.87-1.58,1.32,1.32,0,0,0,.68-.3,2.72,2.72,0,0,1,1.3-.75,40.42,40.42,0,0,1,4-1.15,12.23,12.23,0,0,0,1.6-.57,13.83,13.83,0,0,1,2.37-.73,1.89,1.89,0,0,0,.68-.31,40.48,40.48,0,0,1,4.58-1.89,13.13,13.13,0,0,1,1.68-.33,2.83,2.83,0,0,1,1.49-.23c1.3-.34,2.66-.14,4-.45a12.53,12.53,0,0,1,2.45-.08,11.11,11.11,0,0,1,1.89.24,2.15,2.15,0,0,1,.51.24,2.74,2.74,0,0,0,.69.29c.38.06.83-.08,1.13.09a28.68,28.68,0,0,1,3,1.31c.73.49,1.51.92,2.25,1.43s1.41.85,2.09,1.24c.22-.09.25-.17.16-.28a33.1,33.1,0,0,0-4.13-4.24,15.46,15.46,0,0,0-4.69-2.5,19.1,19.1,0,0,0-2.27,0,14.58,14.58,0,0,1-4.57.19,9.86,9.86,0,0,0-2.08.18c-.19,0-.41.16-.55.09-1-.44-1.86.25-2.81.21a2.61,2.61,0,0,0-1.11.26c-.65.27-1.34.37-2,.58s-1.54.1-2.18.61a7.93,7.93,0,0,1-2.07.1,2.57,2.57,0,0,0-2,.21,18.64,18.64,0,0,0-4.22,1.12,2.49,2.49,0,0,1-.37.09c-.31.07-.63.12-.93.2s-.81-.16-.93.4a4.08,4.08,0,0,0-.86.35,1.69,1.69,0,0,1-1.27.26,1.36,1.36,0,0,0-1.08.29c-.24.19-.28.58-.61.7s-.61.17-.91.27-.59.25-.88.37a1.86,1.86,0,0,1-1.29.16,1,1,0,0,0-1,.35,1.25,1.25,0,0,1-1.14.53c-.13,0-.26,0-.38,0-.43,0-.48.3-.54.6-1.16.55-2.4.86-3.53,1.46a6.38,6.38,0,0,1-1.41.43c-.28-.32-.5-.65-1-.52-.19,0-.36.09-.45.29s-.16.46.08.67a1.53,1.53,0,0,1,.2.37c-.49.27-1,.57-1.49.81-.16.07-.46.08-.54,0-.4-.48-.89-.36-1.39-.32a1,1,0,0,0-.82.42,1.91,1.91,0,0,1-1.16.9c-.22.07-.38.33-.56.5Zm9.93-4.7c.24-.14.49-.29.73-.45,0,0,0-.1,0-.11a.57.57,0,0,0-.83.39S330.72,95.76,330.8,95.84Z"/><path class="cls-1" d="M490.19,99.49c-.95,0-1.91,0-2.86-.1a11.09,11.09,0,0,1-2.05-.4c-1.83-.54-3.68-1-5.52-1.52-.5-.14-1-.18-1.49-.32-.85-.25-1.72-.36-2.56-.68s-1.6-.41-2.4-.63-1.45-.46-2.19-.66c-2-.54-3.83-1.37-5.75-2.05a51.47,51.47,0,0,0-6.3-2.17c-1.2-.62-2.58-.7-3.79-1.29a4.44,4.44,0,0,0-.74-.18c-.84-.27-1.69-.54-2.53-.83a14.78,14.78,0,0,0-2.84-1.1c-.94-.13-1.79-.63-2.75-.76a7,7,0,0,1-1.46-.43,10.74,10.74,0,0,0-2.16-.72,15.62,15.62,0,0,1-2.2-.61c-.67-.2-1.34-.41-2-.66A23.6,23.6,0,0,0,435,83.3a3.48,3.48,0,0,1-.56-.12,22,22,0,0,0-4.47-.9c-1-.15-2,.19-3,.07a.31.31,0,0,0-.19,0c-1.25.75-2.72.55-4.06.91a16.85,16.85,0,0,0-3.93,1.39c-.16.09-.25.28-.41.47a9.7,9.7,0,0,0,2.14.84c.42.12.84.27,1.27.38a8,8,0,0,0,3,.59,1.38,1.38,0,0,1,.56.1c1,.3,2,.51,3,.72,1.8.4,3.52,1.09,5.28,1.64s3.51,1.11,5.3,1.56c3.39.86,6.77,1.75,10.12,2.76,2.32.7,4.66,1.29,7,1.91a18.49,18.49,0,0,1,3.47,1c.38.19.84,0,1.26.27a3.12,3.12,0,0,0,1.1.25c.43.11.86.24,1.29.34l2.22.56a.24.24,0,0,1,.13.13c.05.16,0,.27-.15.29a11.33,11.33,0,0,1-2.85,0c-.57-.07-1.14-.17-1.71-.2-1.15-.07-2.25-.43-3.41-.45a17.34,17.34,0,0,1-3.2-.43c-2.31-.49-4.61-1-6.89-1.59a61.73,61.73,0,0,0-6.72-1.42c-1.06-.15-2.11-.46-3.16-.69a38.37,38.37,0,0,0-5.82-1c-.47-.29-1,0-1.5-.15s-.87-.19-1.31-.26a2.78,2.78,0,0,0-.76,0,7.26,7.26,0,0,1-2.08-.06,12.14,12.14,0,0,1-2.07-.29c-2.1-.09-4.16-.58-6.27-.56a2.68,2.68,0,0,1-.56-.07,4.67,4.67,0,0,0-2.58-.37c-.62-.38-1.37-.25-2-.52-.24-.1-.5-.11-.74-.19a10,10,0,0,0-5.48-.18c-1.31.28-2.66.21-4,.53a4.38,4.38,0,0,1-1.52-.08c-.69-.08-1.38-.22-2.08-.28a9.4,9.4,0,0,0-1.69-.18c-.55.06-1.1-.21-1.69-.14a5.5,5.5,0,0,1-1.32-.17,1.59,1.59,0,0,0-.37-.06c-.94.16-1.89.29-2.81.52a2,2,0,0,0-.94.62A6.3,6.3,0,0,1,387,92.49a2.84,2.84,0,0,0-1,.57,4.2,4.2,0,0,1-3.29.61,6,6,0,0,1-3.36-2.34c-.29-.49-.48-1-.71-1.52a4.79,4.79,0,0,1,1.65-2.35,14.28,14.28,0,0,1,2.54-2,6.06,6.06,0,0,0,1.47-.87,2.08,2.08,0,0,1,.65-.4c1.21-.37,2.12-1.4,3.44-1.58.37,0,.73-.17,1.11-.23A10.47,10.47,0,0,0,391,82a3.51,3.51,0,0,1,2.41-.24,1,1,0,0,0,.38,0c2.35-.16,4.7.21,7.05.14a6.69,6.69,0,0,1,2.27.2,2.76,2.76,0,0,0,.95.06,14.5,14.5,0,0,1,3.77.49c1.48.39,3,.52,4.51.91A7,7,0,0,0,414.15,82c.3-.41.63-.8,1-1.19A5.94,5.94,0,0,1,417.76,79a11.28,11.28,0,0,0,1.38-.6,13.68,13.68,0,0,1,4-1.23,25.28,25.28,0,0,0,2.63-.42,4.54,4.54,0,0,1,1.51-.11c.7.06,1.41,0,2.09.12a25.74,25.74,0,0,1,2.61.55,14.75,14.75,0,0,0,1.87.38c.56.06,1.1.34,1.66.4a6.15,6.15,0,0,1,2,.43,14.75,14.75,0,0,1,1.81.6,1.11,1.11,0,0,0,1.1,0c.76-.33,1.51-.67,2.26-1a13.26,13.26,0,0,1,4.23-1.13c.51-.06,1-.1,1.52-.18a12.51,12.51,0,0,1,6.22.41.61.61,0,0,0,.18,0,15.64,15.64,0,0,1,3.61,1.14c2.41.84,4.76,1.83,7.1,2.82,2.05.86,4.13,1.63,6.17,2.51a35.94,35.94,0,0,0,3.52,1.48c2.12.67,4.19,1.5,6.32,2.13,2.87.84,5.78,1.52,8.67,2.29,1.66.43,3.33.81,5,1.16L505.71,93c.43.09.87.19,1.3.31,1.41.38,2.82.79,4.24,1.16a37.62,37.62,0,0,1,5.53,2.09,8.66,8.66,0,0,1,.85.49l-2.11.12a2.33,2.33,0,0,1-.95,0,15.26,15.26,0,0,0-3-.35,7.46,7.46,0,0,0-1.89-.12,6,6,0,0,1-1.32-.14c-2.58-.38-5.15-.77-7.75-.9a26.33,26.33,0,0,1-3.4-.51,23.9,23.9,0,0,1-3.72-.87,11.07,11.07,0,0,0-1.3-.26c-2.23-.48-4.43-1.06-6.62-1.72s-4.28-1.21-6.4-1.89a64,64,0,0,1-6.59-2.53,27.11,27.11,0,0,0-3-1.2,9.28,9.28,0,0,1-2.27-1,9.66,9.66,0,0,0-1.23-.52c-1.44-.66-3-1-4.39-1.86a3.94,3.94,0,0,0-1.09-.33,15.82,15.82,0,0,1-3.86-1.63,8.33,8.33,0,0,0-1.55-.71,8.15,8.15,0,0,1-1.39-.61,8.17,8.17,0,0,0-2.51-.84c-.32-.07-.63-.11-.94-.17-.69-.15-1.32-.6-2-.49-1,.15-2,.1-3,.31a7,7,0,0,0-2.89,1.38c-.09.06-.09.23-.15.38l2.47,1c.83.32,1.65.67,2.48,1s1.67.6,2.51.9a1.33,1.33,0,0,1,.35.13,11.38,11.38,0,0,0,3,1.19,22.17,22.17,0,0,1,3.3,1.48,9.31,9.31,0,0,0,1.74.77,3.78,3.78,0,0,1,.88.36,47.51,47.51,0,0,0,5,2.31c1.88.78,3.78,1.49,5.65,2.29a18.09,18.09,0,0,0,2.34.83,19.54,19.54,0,0,1,3.07,1.06,8.63,8.63,0,0,0,.9.3,8.42,8.42,0,0,1,1.25.45,12.41,12.41,0,0,0,3.16,1.12,2.37,2.37,0,0,1,1.05.43.8.8,0,0,0,.5.25c1.19-.07,2.14.74,3.27.92a.78.78,0,0,1,.36.13,11.17,11.17,0,0,0,3.34,1.35,7.46,7.46,0,0,1,1,.46c.1,0,.14.21.2.31Z"/><path class="cls-1" d="M125.94,88.1c.08-.23.15-.47.22-.7a1.11,1.11,0,0,0-.91.11,3.38,3.38,0,0,1-2.06.11c-.27-.05-.63-.33-.57-.44a.93.93,0,0,1,.38-.36,14,14,0,0,0,1.86-.93,2.45,2.45,0,0,0,.42-.38,1.39,1.39,0,0,0-1.48,0c-.22.13-.43.28-.65.4-.54.28-.87.19-1.31-.36a.86.86,0,0,1-.1-.16c-.12-.2,0-.61.16-.66a5.73,5.73,0,0,0,1.5-.81,8.68,8.68,0,0,1,1-.51c.23-.12.51-.19.65-.38a3.37,3.37,0,0,1,2-1.1c.3-.08.61-.14.91-.19s.43-.41.65-.63a1,1,0,0,1,.3-.23A17.45,17.45,0,0,0,131.77,79a4.31,4.31,0,0,1,1.39-.6c.49-.14,1-.16,1.36-.59.1-.12.34-.14.53-.16a4.2,4.2,0,0,0,2.31-.79,2.12,2.12,0,0,1,1.26-.38,4.69,4.69,0,0,0,1.48-.34c1.78-.67,3.57-1.31,5.34-2,1.19-.46,2.34-1,3.51-1.48a2.84,2.84,0,0,0,.68-.32,9.09,9.09,0,0,1,2.54-1.29c2.17-.91,4.36-1.76,6.59-2.5,1-.33,1.89-.76,2.83-1.13a1.3,1.3,0,0,0,.58-.48.6.6,0,0,1,.28-.24,9.15,9.15,0,0,1,1.81-.54c.58-.06.88-.64,1.52-.6a1,1,0,0,0,1-.75.67.67,0,0,1,.78-.4,2,2,0,0,1,.37.08c.49.19.68-.2,1-.51.4,0,.85,0,1.29,0a6.94,6.94,0,0,0,3.08-.82c.25-.16.62-.09.85-.36s.61,0,.9-.1c1.59-.48,3.26-.55,4.85-1a5.49,5.49,0,0,1,2-.38.68.68,0,0,0,.38,0c1.1-.57,2.37-.42,3.51-.82a3,3,0,0,0,.68-.32,1.32,1.32,0,0,1,.91-.15,7.39,7.39,0,0,0,1.33,0c.76-.09,1.51,0,2.27-.06a15.89,15.89,0,0,1,2.29-.09,1.36,1.36,0,0,0,.75-.08,3,3,0,0,1,2.23-.07c.37.09.76.08,1.13.15a1,1,0,0,1,.51.22,1.28,1.28,0,0,0,1.24.34,4.88,4.88,0,0,1,2.92.53,10.92,10.92,0,0,0,3.59,1.23,5.5,5.5,0,0,1,1.59.63c1.62.75,3.24,1.5,4.84,2.28a19.22,19.22,0,0,1,1.81,1c1.88,1.19,3.79,2.33,5.6,3.62a10.72,10.72,0,0,1,1.87,1.62,44.67,44.67,0,0,1,3.3,4,7.52,7.52,0,0,0,1.77,1.7,8.36,8.36,0,0,1,1.35,1.56,1.93,1.93,0,0,1,.39,1.26,1.33,1.33,0,0,0,.09.37,3.31,3.31,0,0,1-1,3.45.68.68,0,0,1-.51.21c-.54-.14-1.17-.16-1.4-.82a1,1,0,0,0-1.22-.64,3.55,3.55,0,0,0-.57.06,4.3,4.3,0,0,1-3,0,12.56,12.56,0,0,1-2.45-.16,1.38,1.38,0,0,1-.9-.28c-.63-.56-1.53-.62-2.18-1.13s-1.55-.53-2.3-.88a3.88,3.88,0,0,1-1.15-.62,3,3,0,0,0-1.66-.89,1.45,1.45,0,0,1-.65-.38,9.75,9.75,0,0,0-2.1-1.28,9.18,9.18,0,0,0-2.38-1.15c-.78-.67-1.77-1-2.57-1.61A8.8,8.8,0,0,0,199,72.49a4.45,4.45,0,0,1-1.74-.76,2.15,2.15,0,0,0-.66-.37,33.13,33.13,0,0,0-7.41-1.67,12.16,12.16,0,0,1-1.69-.28A31,31,0,0,0,184.3,69c-.82-.08-1.65-.09-2.48-.13a3.9,3.9,0,0,1-.75-.12,9.91,9.91,0,0,0-4.9,0,26.63,26.63,0,0,0-2.94.82c-.61.2-1.22.36-1.84.52a23.27,23.27,0,0,0-4.48,1.61,20.06,20.06,0,0,1-3,1.11,37.19,37.19,0,0,0-3.54,1.4l-1.39.62a2.09,2.09,0,0,0-.52.25,12.22,12.22,0,0,1-3,1.53c-.86.43-1.82.6-2.63,1.07s-1.62.73-2.42,1.11c-1,.49-2.07,1-3.09,1.49a30.17,30.17,0,0,1-5.34,2,2,2,0,0,0-.71.25c-.71.6-1.68.57-2.42,1.07a32.12,32.12,0,0,0-4.22,1.71c-1.93.83-3.89,1.58-5.84,2.35a4.31,4.31,0,0,1-1.85.33c-.32,0-.64,0-1,.06Zm17.53-11.63c0,.06,0,.15,0,.18s.21.19.27.16a5.19,5.19,0,0,0,.81-.42s0-.24-.08-.3A.68.68,0,0,0,143.47,76.47Zm-3.39,2.31.4-.29c.15-.1.15-.18,0-.25a.2.2,0,0,0-.17,0,4.12,4.12,0,0,0-.41.32.15.15,0,0,0,0,.13A.74.74,0,0,0,140.08,78.78Z"/><path class="cls-1" d="M127,123.11a19.33,19.33,0,0,0,4,.2,4.42,4.42,0,0,1,.92.11l3.4.39a5.92,5.92,0,0,1,.62.06c3.06.66,6.34.92,9.29,1.78.55.16,1.19.24,1.79.36a24.57,24.57,0,0,1,4.26,1.15,10.68,10.68,0,0,0,2.82.78,6.06,6.06,0,0,1,1.13.3c1,.32,1.95.71,3,1s1.95.46,2.86.76c.54.18,1.13.33,1.66.52,2.38.86,4.81,1.67,7.29,2.46,1.83.58,3.58,1.22,5.5,1.73a24.1,24.1,0,0,1,2.34.89l1.54.61c1.31.5,2.89.78,4.13,1.29s2.33,1,3.59,1.41c3.59,1.23,7.16,2.46,10.69,3.74,1.5.54,3.08,1,4.59,1.55,2.31.82,4.6,1.66,6.9,2.48,1.15.41,2.33.8,3.47,1.22q10.38,3.85,20.52,7.87L244,160c2.12.86,4.14,1.79,6.2,2.69a4.15,4.15,0,0,1,.83.5c.11.08.19.26.13.29a2.36,2.36,0,0,1-.8.13,5.79,5.79,0,0,1-1.2-.22c-1.71-.47-3.4-.94-5.09-1.43-.84-.25-1.65-.52-2.48-.78-3-1-6-1.92-9.09-2.86s-6.29-1.94-9.44-2.9c-3-.91-5.94-1.8-8.91-2.7a29.68,29.68,0,0,0-4.09-1.28c-1.36-.46-2.79-.84-4.19-1.25l-13.71-4.06c-1-.31-2.07-.6-3.1-.9-.57-.16-1.18-.28-1.7-.48-2.53-.95-5.33-1.65-8-2.51-2.91-.95-5.81-1.92-8.71-2.88l-1.65-.52c-2.8-.82-5.59-1.66-8.42-2.45-2.65-.73-5.31-1.45-8.16-2a39.83,39.83,0,0,1-4.7-1c-2.54-.76-5.31-.26-7.94-.87a31.46,31.46,0,0,0-5.48-.79c-.52,0-1-.13-1.54-.19a7.64,7.64,0,0,0-1.23-.12c-3,.16-6,1.84-9,1.9a51.43,51.43,0,0,0-8.39.75c-1.88.35-3.87-1-5.42-.32-1.24.51-2.6,2.26-4.12,2.53a2.59,2.59,0,0,0-.77.23c-.94.52-2.27.83-3.13,1.36-1.39.85-3.14,1.52-4.42,2.41a5.6,5.6,0,0,0-.77.46A10.18,10.18,0,0,1,92.86,143c-.15.07-.33.14-.38.23-.44.81-1.8-.27-2.43.47a2.28,2.28,0,0,1-1.33.57c-.76.12-1.57.21-2.32.34a10.15,10.15,0,0,1-2.42.13c-.62,0-1.23,0-1.85,0a5.57,5.57,0,0,1-.93-.07c-1-.24-2-2-3-2.09s-2-.31-3-.46a2.55,2.55,0,0,1-1.74-.9c-.07-.09,0-.2,0-.3a.3.3,0,0,1,.16-.12A6.89,6.89,0,0,0,76.27,139a22.69,22.69,0,0,1,3.62-2.73c2.22-1.53,4.63-3,7-4.47a1.69,1.69,0,0,0,.48-.37c.7-.92,2.19-1.54,3.23-2.32a.81.81,0,0,1,.37-.23c1.84-.46,2.79-1.39,4.34-2a18.49,18.49,0,0,1,4-1.3,5.3,5.3,0,0,0,1.06-.27,41.35,41.35,0,0,1,8.93-1.73c2.94-.38,6-.46,9.06-.64C121.2,123,124.06,122.81,127,123.11Z"/><path class="cls-1" d="M423,13.35c0,.45.05.89.06,1.33a1.75,1.75,0,0,1-.8,1.63c-.26.17-.52.36-.77.55a3.31,3.31,0,0,1-2.7.63,6.06,6.06,0,0,0-.95-.15,3.59,3.59,0,0,1-3.26-2.51A8.49,8.49,0,0,0,413.46,13a.78.78,0,0,0-.68-.28c-.95.11-1.9.23-2.84.36a3.58,3.58,0,0,0-.72.24,10,10,0,0,0-2.11.86,17.3,17.3,0,0,1-2.11.86c-.67.34-1.42.55-2.13.84a3.64,3.64,0,0,0-1.61,1.29,1.21,1.21,0,0,0-.11.39c.55.14,1.1.26,1.64.42s1.09.34,1.63.54a6.54,6.54,0,0,0,1.86.37,5,5,0,0,1,2.18.63,12.06,12.06,0,0,0,1.94.77,9,9,0,0,1,2.41,1.49,3.57,3.57,0,0,1,.92,1.21,9.27,9.27,0,0,1,.76,1.74,2.58,2.58,0,0,1-.26,2.21c-.21.32-.41.64-.65.94a1.91,1.91,0,0,1-.53.53c-1.47.83-1.46,1-3.19.34a3.91,3.91,0,0,0-1.1-.3,2.86,2.86,0,0,1-2.21-1.28,2.31,2.31,0,0,0-.54-.54,2.34,2.34,0,0,1-.78-1.06,4.48,4.48,0,0,1-.28-.72,1.79,1.79,0,0,0-1.69-1.32,2.93,2.93,0,0,0-1.86.19,3.22,3.22,0,0,1-1.28.35,3.35,3.35,0,0,0-2.06.88,10.67,10.67,0,0,0-1.45,1.24,5,5,0,0,0-1.56,2.56c-.54.94-.66,2.06-1.26,3a.44.44,0,0,0,.12.51,26,26,0,0,1,2.82,1.58,5.38,5.38,0,0,0,.7.28,5.51,5.51,0,0,1,.85.39c.58.4,1.14.82,1.7,1.25a1.91,1.91,0,0,1,.52.54,15.52,15.52,0,0,0,2,2.58,3.25,3.25,0,0,1,.74,1.54,1.18,1.18,0,0,1,0,.56,3.77,3.77,0,0,1-.94,1.84,2.06,2.06,0,0,1-.62.44,6.13,6.13,0,0,1-2.57.64,4.72,4.72,0,0,1-2.75-.51,3,3,0,0,1-.84-.75c-.35-.53-.73-1-1.06-1.58A16.46,16.46,0,0,0,392.76,39a1.24,1.24,0,0,0-1.42.07,1.06,1.06,0,0,0-.21.31c-.07.24-.09.5-.16.74a1.36,1.36,0,0,1-1,1,1.1,1.1,0,0,1-1.32-.47,2.11,2.11,0,0,1-.18-.33,1.68,1.68,0,0,0-1.89-1.25,1.11,1.11,0,0,1-.55-.15.55.55,0,0,0-.53,0,4,4,0,0,1-.67.36,16.87,16.87,0,0,0-2.61,1.16,11.72,11.72,0,0,0-2.86,1.86,1.88,1.88,0,0,1-.48.31,6.7,6.7,0,0,0-2.19,1.81c-1.43,1.61-1.06,3-.23,4.36a11.93,11.93,0,0,0,.84,1,.74.74,0,0,1-.51,1.16,1.46,1.46,0,0,1-.75,0,6,6,0,0,1-1.52-.77,21.21,21.21,0,0,1-2.76-2.34,1.22,1.22,0,0,0-.64-.37,3.81,3.81,0,0,1-.89-.34,1.35,1.35,0,0,1-.51-.55,3.84,3.84,0,0,1-.27-2.59,15.57,15.57,0,0,1,3.48-6.7c.31-.31.55-.7.84-1a13.55,13.55,0,0,1,3-2.62,40.59,40.59,0,0,1,4.87-2.6,2.75,2.75,0,0,0,.52-.24,14.17,14.17,0,0,1,3-1.39A10.78,10.78,0,0,0,386,27c.28-.78.47-1.58.68-2.38a3.29,3.29,0,0,1,1-1.62c.57-.51,1.15-1,1.73-1.5.19-.16.4-.31.58-.49a20.39,20.39,0,0,1,4.63-3.47c.09-.42.18-.9.28-1.4.45.24.48.77.91,1a.75.75,0,0,0,.87,0,3,3,0,0,0,.53-.53c.45-.61.87-1.25,1.31-1.87a4.46,4.46,0,0,1,1.64-1.56.91.91,0,0,0,.16-.11,31.56,31.56,0,0,1,4.8-3.4c.44-.26.88-.49,1.34-.71a9.5,9.5,0,0,0,2.47-1.42,2,2,0,0,1,.67-.36,10.73,10.73,0,0,1,4.87-.5,1.66,1.66,0,0,1,1,.42,1.51,1.51,0,0,0,1,.35,3.6,3.6,0,0,1,2.34,1.16,4.64,4.64,0,0,0,1.33,1.06,1.52,1.52,0,0,1,.72.82,3.39,3.39,0,0,0,.62.7c.12.14.32.28.33.43a2.32,2.32,0,0,0,.88,1.43A2.11,2.11,0,0,1,423,13.35Z"/><path class="cls-1" d="M190.34,115.86a2.6,2.6,0,0,0-.36-.38,15.84,15.84,0,0,0-1.88-1.31c-.93-.47-1.52-1.37-2.45-1.8a12.39,12.39,0,0,1-2.56-1.67A4.82,4.82,0,0,0,182,110a22.5,22.5,0,0,1-3.91-2.37,77.5,77.5,0,0,0-10.36-6.1,15.1,15.1,0,0,0-3.44-1.14,36.55,36.55,0,0,0-4.52-.69,21.66,21.66,0,0,0-5,.05c-1.44.22-2.91.28-4.36.52-.81.14-1.63.23-2.44.42-1.3.3-2.63.47-3.91.85-2.07.61-4.19,1-6.21,1.83a2.87,2.87,0,0,1-.72.27,13.76,13.76,0,0,0-3.42,1.14c-.36.14-.71.3-1.07.43a13.72,13.72,0,0,1-5.59,1c-.45,0-.9,0-1.34,0A2.39,2.39,0,0,1,125,106c-.15-.05-.22-.41-.09-.49A22,22,0,0,1,128,103.4c.58-.25,1.07-.69,1.63-1A44.26,44.26,0,0,1,137,99.2a6.07,6.07,0,0,1,1.11-.3,4.32,4.32,0,0,0,1.44-.45,8,8,0,0,1,3.12-.82,32.19,32.19,0,0,0,3.2-.5,7.65,7.65,0,0,1,.94-.15,41.61,41.61,0,0,0,4.74-.5,51.56,51.56,0,0,1,6.46,0c1.57.27,3.15.41,4.73.61a9.75,9.75,0,0,1,1.48.38c1,.3,1.94.63,2.91.94a21.11,21.11,0,0,1,3.91,2,47,47,0,0,1,4.1,2.43c1.05.73,2.13,1.4,3.15,2.16s2,1.35,3,2,2.07,1.48,3.09,2.24,1.94,1.45,2.9,2.19a6.91,6.91,0,0,1,1.53,1.1,24.13,24.13,0,0,1,3.44,2.69q2.34,2.12,4.82,4.07a10.11,10.11,0,0,0,1.59,1.33c1,.51,2,1,3.08,1.52,1.63.73,3.18,1.61,4.73,2.48.15.08.22.28.39.51a2.86,2.86,0,0,1-.83,0c-2-.53-3.93-1.08-5.89-1.63-.67-.19-1.34-.4-2-.6a6.25,6.25,0,0,1-.74-.21c-2.19-.86-4.38-1.72-6.56-2.6a58.23,58.23,0,0,1-5.35-2.55,67.81,67.81,0,0,1-6.44-3.74c-1.63-1.11-3.25-2.22-4.93-3.26-.91-.57-1.93-1-2.89-1.46a17.11,17.11,0,0,0-6.28-1.47,16.32,16.32,0,0,0-3.63,0c-.44.06-.88.12-1.32.2a8.47,8.47,0,0,1-2.08.26,4.33,4.33,0,0,0-1.12.16c-1.12.26-2.23.55-3.35.8-1.67.36-3.35.7-5,1a1.2,1.2,0,0,1-.56,0,4.25,4.25,0,0,0-1.33,0,7,7,0,0,1-3-.62,1.39,1.39,0,0,1-.31-.23.72.72,0,0,1,0-1c.05,0,.09-.09.15-.11,2-.82,3.8-2.08,5.88-2.74a20,20,0,0,0,1.93-.79,26.3,26.3,0,0,1,5.17-1.31,13.46,13.46,0,0,0,2.43-.51,2.31,2.31,0,0,1,.75-.08,32.34,32.34,0,0,1,7.22.42c.88.15,1.74.38,2.61.59a5,5,0,0,1,.89.33l3.27,1.55a6.77,6.77,0,0,1,.85.43c1.41,1,2.9,1.82,4.24,2.9a1.58,1.58,0,0,0,.15.12c1.68,1,3.18,2.34,4.91,3.3a5.1,5.1,0,0,1,.95.64,4.92,4.92,0,0,0,1.46.87,13.62,13.62,0,0,1,2.31,1.34,4.65,4.65,0,0,0,1.72.76S190.26,115.91,190.34,115.86Z"/><path class="cls-1" d="M87.6,79.6a3.1,3.1,0,0,0,1.12,1.32,3.42,3.42,0,0,1,1.19,1.2,4.22,4.22,0,0,0,.41.65,3.71,3.71,0,0,1,.8,1.7,2,2,0,0,1-.52,2.11,6.49,6.49,0,0,1-.95.94,18.56,18.56,0,0,0-2,1.72,1.73,1.73,0,0,1-.84.43,9.13,9.13,0,0,1-3-.12,1.31,1.31,0,0,1-.66-.36c-.32-.3-.59-.65-.86-1-.64-.18-1.26-.33-1.86-.53a2,2,0,0,1-1.15-1c-.31-.55-.59-1.13-.86-1.71-.16-.34-.25-.72-.44-1a2.81,2.81,0,0,1-.13-2.58c.27-.71.6-1.4.9-2.1.08-.17.25-.35.23-.51-.13-.9.59-1.36,1-2a.88.88,0,0,1,.43-.36,4.77,4.77,0,0,0,1.4-1,2.82,2.82,0,0,1,1.69-.8,2.16,2.16,0,0,0,.7-.27,11,11,0,0,1,2.74-.83,2.7,2.7,0,0,0,.75-.15,7.63,7.63,0,0,1,3.58-.27,4.53,4.53,0,0,1,1.47.36c1.31.51,2.59,1,3.88,1.59a3.73,3.73,0,0,1,.65.41c.76.56,1.55,1.12,2.28,1.72a12,12,0,0,1,3.09,3.35.64.64,0,0,0,.69.21,1.41,1.41,0,0,0,.51-.24c.28-.26.51-.56.77-.84a1.44,1.44,0,0,1,.84-.42,3,3,0,0,1,2.21.35c.22.13.46.23.67.37a3.12,3.12,0,0,0,1.61.53,3.06,3.06,0,0,1,1.64.41,2.49,2.49,0,0,0,.73.14c.07,0,.13,0,.19,0a.7.7,0,0,1,.36.11c.69.72,1.8.6,2.52,1.29a3.7,3.7,0,0,0,1.39,1,.74.74,0,0,1,.4.38,2.4,2.4,0,0,0,1.11,1.26,1.94,1.94,0,0,1,.7.89A5.2,5.2,0,0,0,120,87.55a5.54,5.54,0,0,1,.78,1.07,3.88,3.88,0,0,0,.37.67,5,5,0,0,1,1.17,3.15,2.62,2.62,0,0,0,.09.75,3.07,3.07,0,0,1,.19,2.06,9.19,9.19,0,0,1-1,3,2.11,2.11,0,0,1-.51.56c-1.08.66-2.18,1.29-3.28,1.93a.25.25,0,0,1-.17,0,.18.18,0,0,1,0-.31,2.81,2.81,0,0,0,.72-1.11c.1-.3.28-.64.06-.91s-.45-.17-.68-.26-.34-.15-.51-.24a.4.4,0,0,1-.17-.49c.35-.53.67-1.08,1.06-1.58a2.35,2.35,0,0,0,.52-1.4c0-.64,0-1.27,0-1.9a1.5,1.5,0,0,0-.29-.69c-.79-1.23-1.63-2.43-2.39-3.67A7.75,7.75,0,0,0,113.23,86a2.45,2.45,0,0,0-.93-.16c-.13,0-.42.21-.42.31,0,.64.06,1.28.1,1.91a1.75,1.75,0,0,1-.68,1.52,15.26,15.26,0,0,1-2.81,2,1.88,1.88,0,0,0-.77.54c-.49.77-1.34.94-2,1.33a1,1,0,0,1-.92,0,8.37,8.37,0,0,1-.84-.44,17.07,17.07,0,0,0-2.28-1.38,1.12,1.12,0,0,1-.51-.54,14.75,14.75,0,0,1-1.24-2.56,4.42,4.42,0,0,0-.65-1.37A2.19,2.19,0,0,1,99,85.47a1.71,1.71,0,0,1,1.33-1.66.53.53,0,0,0,.17-.08.58.58,0,0,0,.23-.81,4.69,4.69,0,0,0-1.94-1.78c-.51-.26-1-.45-1.57-.68a8.67,8.67,0,0,1-1.37-.66,12.38,12.38,0,0,0-2.58-1.21c-.46-.18-.87-.58-1.42-.47-.93.17-2,.06-2.73.73C88.65,79.23,88.06,79.26,87.6,79.6Z"/><path class="cls-1" d="M405.53,121.64c.06.42.12.87.16,1.31a5,5,0,0,1-.59,2.77,2.81,2.81,0,0,1-2.44,1.58,5.06,5.06,0,0,1-1.89-.22,1.6,1.6,0,0,1-.52-.22,5.6,5.6,0,0,1-2.72-4c0-.19,0-.39-.06-.58a.88.88,0,0,0-.4-.62,16.5,16.5,0,0,0-3.94-1.91,8.59,8.59,0,0,0-3.39,0L389,120c-.45.1-.55.35-.28.64.52.55,1.06,1.09,1.6,1.63s.83.8,1.24,1.2a6.93,6.93,0,0,1,1.77,3.32.76.76,0,0,1-.22.7,15.46,15.46,0,0,0-1.16,1.26,2,2,0,0,1-1.5.75,14.59,14.59,0,0,1-3.43-.13,1.16,1.16,0,0,1-.7-.27c-.49-.6-1.22-.92-1.72-1.49a2.94,2.94,0,0,1-.86-1.87c0-.44-.06-.89-.1-1.33a.7.7,0,0,0-.5-.52c-.12,0-.25,0-.37,0a8.54,8.54,0,0,0-2.24.43,3.36,3.36,0,0,0-1.44.92,34.8,34.8,0,0,0-4.36,4.8c-.39.57-1,1-1.42,1.55a2.91,2.91,0,0,1-1.43.91,1.36,1.36,0,0,1-1.27-.12.87.87,0,0,0-.7-.18.67.67,0,0,1-.51-.14,9.35,9.35,0,0,1-.9-1,2.49,2.49,0,0,1-.34-.67,5.62,5.62,0,0,1-.09-.57,2.81,2.81,0,0,1,.34-2.36,4.77,4.77,0,0,1,.39-.66,26.28,26.28,0,0,1,3.31-3.68,15.49,15.49,0,0,1,1.57-1.07c1-.63,1.91-1.27,2.88-1.88a5.33,5.33,0,0,1,2.51-.85,13.17,13.17,0,0,0,5.08-1.51,5.77,5.77,0,0,1,2-.68,4.47,4.47,0,0,0,2.27-1.31c.14-.11.2-.34.35-.43a43.06,43.06,0,0,0,3.69-3,4.43,4.43,0,0,1,.61-.46c1.87-1.09,3.62-2.36,5.45-3.51a1.93,1.93,0,0,1,1.81-.27,1,1,0,0,0,.92,0c.56-.38,1.25-.25,1.83-.54a.72.72,0,0,1,.54,0,16.43,16.43,0,0,0,3.52.85,5.07,5.07,0,0,1,3.7,3.21,17.77,17.77,0,0,1,.52,2,1.81,1.81,0,0,1-.63,1.72,1.29,1.29,0,0,1-.3.22,15.57,15.57,0,0,0-3,1.93,10.41,10.41,0,0,1-2.26,1,1.7,1.7,0,0,1-2.18-.6,2.76,2.76,0,0,1-.7-1.93,9.72,9.72,0,0,1,.17-1.32,3.67,3.67,0,0,0-.07-1.89.68.68,0,0,0-.58-.42,1.21,1.21,0,0,0-.19,0,15.63,15.63,0,0,0-7,2.87,1.33,1.33,0,0,0-.23.3.76.76,0,0,0,.06.89c.32.2.66.38,1,.56a11.93,11.93,0,0,1,3.33.81c1.22.33,2.46.57,3.67,1a4.26,4.26,0,0,1,2,1.41C404.77,120.59,405.13,121.11,405.53,121.64Z"/><path class="cls-1" d="M287.57,19.64a5.09,5.09,0,0,1-3.92-.2l-.92.7a2.33,2.33,0,0,1-1.62.46c-.41,0-.78-.12-.94-.51a6,6,0,0,0-1.35-1.83,2.49,2.49,0,0,1-.59-1,1.64,1.64,0,0,1,.6-2c.2-.16.5-.26.6-.46a7.24,7.24,0,0,1,2.12-2.15c.08-.07.08-.22.13-.34a1.32,1.32,0,0,0-.35-.12,1.84,1.84,0,0,0-.57.09,15,15,0,0,0-2.46,1,30.2,30.2,0,0,0-4.64,3,3.22,3.22,0,0,0-1.05,1.09,1.28,1.28,0,0,1-.35.45A8.05,8.05,0,0,0,270.7,20a4.35,4.35,0,0,0-.45,3.84,21.3,21.3,0,0,0,1.95,4.55,14.44,14.44,0,0,1,.63,1.39,5.26,5.26,0,0,1,.17,1.29.73.73,0,0,1-.2.51,1.55,1.55,0,0,1-2.06.24,7.33,7.33,0,0,0-2.27-1.37,2.41,2.41,0,0,1-.66-.38,4.24,4.24,0,0,0-1.9-.84,2.9,2.9,0,0,1-1.51-.78c-.21-.21-.47-.11-.7-.16s-.34-.25-.19-.4.42-.48.26-.83a1.86,1.86,0,0,1-.07-1.48,1.24,1.24,0,0,0-.31-1.4.76.76,0,0,1-.06-1,1.2,1.2,0,0,0,.24-.9,2.6,2.6,0,0,1,.52-1.79,23.8,23.8,0,0,1,2.61-3.76,23.07,23.07,0,0,1,3.36-3.11,27.71,27.71,0,0,1,7.31-4.06,12.22,12.22,0,0,1,5.82-.78,8.54,8.54,0,0,1,3.26,1,2.87,2.87,0,0,1,1.24,1.4A20.68,20.68,0,0,1,289,16.84a1.75,1.75,0,0,1-.15.93A5.7,5.7,0,0,1,287.57,19.64Z"/><path class="cls-1" d="M355.83,12a5.44,5.44,0,0,1,.57,0,1.33,1.33,0,0,1,.88.27c.68.47,1.38.9,2.05,1.37a4.34,4.34,0,0,1,1.11,1,6,6,0,0,0,.84,1,2,2,0,0,1,.57,1.55,1.7,1.7,0,0,1-.2.73,3.25,3.25,0,0,1-3.15,1.72,3.48,3.48,0,0,1-2-.51,3.32,3.32,0,0,0-1-.45,5,5,0,0,1-1.66-.9,1.23,1.23,0,0,1-.5-.78,4.19,4.19,0,0,0-.37-1.47.59.59,0,0,1-.06-.37,6.23,6.23,0,0,1,.59-2.38,1.24,1.24,0,0,1,.86-.66c.5-.09,1-.13,1.51-.2Z"/><path class="cls-1" d="M101.28,44.79l.78,0a1.94,1.94,0,0,1,1.22.38c.93.65,1.9,1.24,2.83,1.9a5.85,5.85,0,0,1,1.52,1.42,7.9,7.9,0,0,0,1.17,1.41,2.69,2.69,0,0,1,.77,2.15,2.22,2.22,0,0,1-.26,1A4.48,4.48,0,0,1,105,55.37a4.85,4.85,0,0,1-2.76-.7,4.75,4.75,0,0,0-1.44-.63,6.62,6.62,0,0,1-2.29-1.24,1.72,1.72,0,0,1-.68-1.07,5.85,5.85,0,0,0-.52-2,.82.82,0,0,1-.08-.51A8.61,8.61,0,0,1,98,45.91,1.68,1.68,0,0,1,99.2,45c.68-.12,1.38-.18,2.07-.27Z"/><path class="cls-1" d="M63,77.1l.57,0a1.38,1.38,0,0,1,.89.27c.67.47,1.37.9,2,1.38a4.34,4.34,0,0,1,1.11,1,6.33,6.33,0,0,0,.84,1A2,2,0,0,1,69,82.33a1.56,1.56,0,0,1-.2.72,3.22,3.22,0,0,1-3.15,1.72,3.41,3.41,0,0,1-2-.51,3.57,3.57,0,0,0-1-.45,5,5,0,0,1-1.66-.9,1.27,1.27,0,0,1-.5-.78,4.08,4.08,0,0,0-.37-1.46A.59.59,0,0,1,60,80.3a6.18,6.18,0,0,1,.59-2.38,1.23,1.23,0,0,1,.86-.67c.5-.09,1-.13,1.51-.19Z"/><path class="cls-1" d="M370.32,9.37h-1.25a1.78,1.78,0,0,1-1.42-.59,4.33,4.33,0,0,1-.46-.5,6.83,6.83,0,0,0-1.64-1.58,1.65,1.65,0,0,1-.63-1.81,3.1,3.1,0,0,1,.34-1.08,14.3,14.3,0,0,0,1.15-2.48,1.47,1.47,0,0,1,.25-.38A1.77,1.77,0,0,1,368.41.1,5.54,5.54,0,0,0,370.63,0a2,2,0,0,1,1.51.35,5.89,5.89,0,0,1,2.52,3.66,2,2,0,0,1,0,.9c-.18.81-.4,1.61-.64,2.41a1.14,1.14,0,0,1-.36.57A16.18,16.18,0,0,1,372,9.12a2.82,2.82,0,0,1-1.09.27A1.81,1.81,0,0,1,370.32,9.37Z"/><path class="cls-1" d="M440.72,14,439.31,12a1.32,1.32,0,0,1-.26-1.08,2.73,2.73,0,0,0,0-1.5A2,2,0,0,1,439.2,8a1.06,1.06,0,0,0,.15-.35,2.07,2.07,0,0,1,1.27-1.56.79.79,0,0,1,.73,0,16.61,16.61,0,0,1,4.08,2.77,3.54,3.54,0,0,1,.69.9,11.23,11.23,0,0,1,.77,1.74,3.54,3.54,0,0,1,.12,1.13,1.07,1.07,0,0,1-.7,1,5.73,5.73,0,0,1-1.65.43A20.17,20.17,0,0,1,440.72,14Z"/><path class="cls-1" d="M298.75,10.38c-.5-.69-.95-1.3-1.41-1.91a1.29,1.29,0,0,1-.25-1.08,2.87,2.87,0,0,0,0-1.51,2,2,0,0,1,.14-1.48,1.06,1.06,0,0,0,.15-.35,2.09,2.09,0,0,1,1.27-1.56.79.79,0,0,1,.73,0,16.7,16.7,0,0,1,4.08,2.77,3.72,3.72,0,0,1,.69.9,11.23,11.23,0,0,1,.77,1.74A3.54,3.54,0,0,1,305,9a1.07,1.07,0,0,1-.7,1,5.73,5.73,0,0,1-1.65.43A20.17,20.17,0,0,1,298.75,10.38Z"/><path class="cls-1" d="M480.73,56.78a10.65,10.65,0,0,1,0,2.82.38.38,0,0,1-.26.25,8.59,8.59,0,0,1-2.48-.07,1.28,1.28,0,0,0-1.07.34c.46.34,1,.41,1.49.7.13.08.19.29.29.45a5.06,5.06,0,0,1-2.5.06c-2-.46-4-.61-6-1a38.18,38.18,0,0,1-5.61-1.13c-.72-.24-1.49-.33-2.23-.51a48.64,48.64,0,0,1-6-2,3,3,0,0,0-.73-.2,2.54,2.54,0,0,1-1.06-.37,3,3,0,0,0-1.07-.41,21.92,21.92,0,0,1-3.09-.91c-.55-.15-1.09-.37-1.62-.56a4.33,4.33,0,0,1-.71-.27c-1.42-.72-2.85-1.4-4.22-2.2-1.1-.63-2.09-1.45-3.18-2.1a19.06,19.06,0,0,0-5.52-2.53,3,3,0,0,1-1-.46,2.91,2.91,0,0,0-1.41-.51c-1.2-.14-2.36-.47-3.57-.59a3.16,3.16,0,0,0-1.3,0,7.34,7.34,0,0,1-1.32.17,1.73,1.73,0,0,0-.87.36c-.94.76-1.76,1.64-2.75,2.35a22.36,22.36,0,0,1-2.37,1.6,32.56,32.56,0,0,1-4.19,2.26,4.37,4.37,0,0,0-.68.35c-2.53,1.47-5.1,2.85-7.7,4.18a11.38,11.38,0,0,1-2.07,1c-.64.19-1.07.68-1.66.9s-1.08.36-1.62.54a1,1,0,0,0-.34.18,8.35,8.35,0,0,1-2.55,1.27c-1.59.63-3.08,1.5-4.71,2a13.93,13.93,0,0,0-2,1,21.73,21.73,0,0,1-2,1.1,4.44,4.44,0,0,0-.91.67,3.5,3.5,0,0,1-2.27.86c-.44,0-.89.07-1.33.07a1.52,1.52,0,0,1-1.31-.67,16.86,16.86,0,0,1-.87-1.48.74.74,0,0,1,.36-.8,2.61,2.61,0,0,1,.55-.14,20.57,20.57,0,0,0,6.37-1.86q2.21-.91,4.35-2c1.31-.64,2.64-1.25,4-1.84.76-.33,1.55-.61,2.28-1a32,32,0,0,0,5.75-3.34,1.9,1.9,0,0,1,.49-.3,15.9,15.9,0,0,0,2.76-1.68,6,6,0,0,1,1.45-.9,5.87,5.87,0,0,0,1.14-.69c.91-.59,1.8-1.2,2.73-1.75a24.15,24.15,0,0,0,2.7-2.11c.29-.56,1-.57,1.36-1a7.33,7.33,0,0,1,1.17-1,19,19,0,0,1,3.39-1.73,10.88,10.88,0,0,1,6.13-.91,5.67,5.67,0,0,1,2.46.08c.82.08,1.64.2,2.45.36s1.72.47,2.59.63,1.37.68,2.15.73a8.67,8.67,0,0,1,2,.65.41.41,0,0,0,.34-.12s-.05-.2-.09-.31a.33.33,0,0,0-.13-.13c-1.16-.67-2.2-1.53-3.39-2.14a6,6,0,0,1-1.25-.88,3.18,3.18,0,0,0-2.26-.85,2.85,2.85,0,0,1-1.3-.25,3.27,3.27,0,0,0-1.68-.28A28.49,28.49,0,0,0,423.8,41c-2.19,1-4.38,2-6.63,2.84-2,.75-3.75,1.89-5.65,2.79a3.3,3.3,0,0,0-.6.46c-1,.86-2,1.73-3.07,2.57a13.63,13.63,0,0,0-3.3,3.13,27.36,27.36,0,0,1-3.16,2.43,13.08,13.08,0,0,1-2.95,1.74,1.48,1.48,0,0,0-.46.34,9.8,9.8,0,0,1-3,1.95,3.81,3.81,0,0,0-.84.46c-.46.34-.79.21-1.13-.19a1,1,0,0,0-1.06-.24c-.49.13-1,.27-1.48.37a1.9,1.9,0,0,1-1.8-.25,3.94,3.94,0,0,1-1.71-.73,10.82,10.82,0,0,0-1.71-.83,1.72,1.72,0,0,1-.46-.34l-1-1.14a.71.71,0,0,1,.17-1,1.52,1.52,0,0,1,.84-.39c.63-.08,1.26-.17,1.88-.3a3.42,3.42,0,0,0,1.82-1,9,9,0,0,1,2.14-1.58,2.21,2.21,0,0,0,.34-.18,13.6,13.6,0,0,1,1.57-1.38,8.17,8.17,0,0,0,1.66-1.26,5.18,5.18,0,0,1,1.48-1.19,2.2,2.2,0,0,0,.32-.21,20.51,20.51,0,0,1,2.79-2,23.71,23.71,0,0,0,2.76-1.69c.33-.2.67-.37,1-.55.61-.32,1.26-.6,1.84-1a8,8,0,0,1,2.19-1.14,1.9,1.9,0,0,0,.52-.24c1.37-1,3-1.68,4.36-2.72A11.1,11.1,0,0,1,415,36.73a4.45,4.45,0,0,0,1.39-.62,1.43,1.43,0,0,1,.7-.26,6.53,6.53,0,0,0,2-.56,12.47,12.47,0,0,1,1.47-.45,8.47,8.47,0,0,0,2.16-.73,4.72,4.72,0,0,1,1.44-.49,11.9,11.9,0,0,0,2.76-.7,19.39,19.39,0,0,1,7.2-.32c.62.13,1.26.1,1.89.19s1.11.28,1.68.34a3.06,3.06,0,0,1,1.4.55c.31.22.61.47.93.67a3.07,3.07,0,0,0,.87.38,8.28,8.28,0,0,1,2.46,1,13.24,13.24,0,0,0,1.6.61,26.16,26.16,0,0,1,4.5,2.46c1.65,1.09,3.31,2.16,5,3.18l1.64,1a15.1,15.1,0,0,1,2.85,1.91,3.24,3.24,0,0,0,.78.55,8.71,8.71,0,0,1,2.18,1.52,2,2,0,0,0,.47.34l4.09,2.44a4,4,0,0,1,.65.41,7.27,7.27,0,0,0,2.53,1.31,11.9,11.9,0,0,1,2.93,1.33,7,7,0,0,0,1.22.52c.53.24,1,.47,1.56.73a4.54,4.54,0,0,0,2,.67.57.57,0,0,1,.42.33c.12.48.46.45.85.53A4.53,4.53,0,0,1,480.73,56.78ZM445.27,45c0,.44.36.43.61.58a.19.19,0,0,0,.15,0s0-.1,0-.13c-.2-.25-.41-.48-.78-.37-.06-.52-.43-.67-.88-.72,0,0-.13.11-.13.11A1.17,1.17,0,0,0,445.27,45Z"/><path class="cls-1" d="M434.49,53.49a7.1,7.1,0,0,0-4.19.91,4.49,4.49,0,0,1-1.6.6,3.11,3.11,0,0,0-.88.35c-.76.31-1.51.66-2.29.93a13.75,13.75,0,0,0-2.71,1.36c-.82.51-1.5,1.17-2.3,1.69-.37.23-.61.66-1,.88a4.3,4.3,0,0,1-1.09.32,4.36,4.36,0,0,0-2.36,1.53c-.29.34-.58.67-.89,1a1.48,1.48,0,0,1-.44.35,15.44,15.44,0,0,0-1.87.92c-.59.37-1.34.41-1.91.84a14.87,14.87,0,0,0-1.51.13,3.14,3.14,0,0,1-2-.52.61.61,0,0,1-.2-.83,5.11,5.11,0,0,0,.84-1.49,2.74,2.74,0,0,1,1.9-1.74,8.94,8.94,0,0,0,1.73-.77,37.84,37.84,0,0,0,4.67-2.57,3.5,3.5,0,0,1,.51-.26c1.72-.81,3.43-1.63,5.16-2.42.52-.23,1.09-.36,1.63-.55a41.82,41.82,0,0,1,6.4-1.79,17.05,17.05,0,0,1,6.25,0,1.84,1.84,0,0,1,.51.24c.09.07.22.23.2.3s-.17.38-.31.43A7.56,7.56,0,0,1,434.49,53.49Z"/><path class="cls-1" d="M473.9,69.45h-.19l-2.25-.37-2.25-.4a6.17,6.17,0,0,1-.75-.12c-1.41-.37-2.83-.72-4.23-1.15-1.21-.38-2.42-.73-3.66-1a14.38,14.38,0,0,1-2.2-.61c-1-.39-2.07-.62-3.1-.94a37.64,37.64,0,0,1-6.52-2.66c-2.42-1.29-4.6-2.95-6.88-4.45a10.61,10.61,0,0,1-1.39-1.3.17.17,0,0,1,0-.14s.12-.1.15-.09c.84.45,1.69.88,2.5,1.37,1.25.76,2.48,1.57,3.71,2.36A9.13,9.13,0,0,0,449.07,61l.72.26a11,11,0,0,0,2,.73c.68.13,1.36.28,2.05.38s1.39.17,2.08.26a45.37,45.37,0,0,1,8.39,1.69,1.59,1.59,0,0,0,.55.14c1-.06,1.85.44,2.82.38a3.53,3.53,0,0,1,.93.2,3.76,3.76,0,0,0,.73.2c1.91.08,3.75.69,5.66.76a4.61,4.61,0,0,1,1.28.35,1.51,1.51,0,0,1,.5.27,1.34,1.34,0,0,1,.66,1.1,1.11,1.11,0,0,1-.76,1,3.66,3.66,0,0,1-.9.3,4.68,4.68,0,0,0-1.47.37A1.51,1.51,0,0,1,473.9,69.45Z"/><path class="cls-1" d="M439.61,55.49a1.13,1.13,0,0,1-.23-.26,1.25,1.25,0,0,1-.05-.29c.09.05.2.07.26.14a.94.94,0,0,1,.15.3Z"/></g></g></svg>