<?xml version="1.0" encoding="UTF-8"?><svg id="_レイヤー_2" xmlns="http://www.w3.org/2000/svg" width="921.72" height="412.75" viewBox="0 0 921.72 412.75"><defs><style>.cls-1{fill:#0d1037;}.cls-2{fill:#0f1536;}.cls-3{fill:none;stroke:#0d1037;stroke-miterlimit:10;stroke-width:2px;}.cls-4{fill:#c1a972;fill-rule:evenodd;}</style></defs><g id="_ガイド"><g><circle class="cls-1" cx="10.47" cy="313.73" r="10.47"/><g><polyline class="cls-3" points="7.08 316.83 305.24 56.78 742.32 56.78"/><g><path class="cls-1" d="M341.91,15.6c0,.96-.77,1.25-1.73,1.25-1.44,0-3.65-.82-8.11-.82-1.92,0-3.89,.14-5.86,.38,0,1.78-.05,4.46-.05,6.96,1.39,1.49,2.06,3.94,2.06,7.06,0,7.92-5.81,12.34-14.4,13.2-1.15,.1-1.39-1.25-.29-1.58,5.67-1.78,10.18-3.89,10.95-9.27-.96,.91-2.3,1.25-3.6,1.25-3.55,0-5.38-2.11-5.38-5.76,0-4.08,2.45-6.77,6.24-6.77,.58,0,1.15,.05,1.68,.19,0-1.54-.05-3.22-.05-4.85-3.7,.62-7.15,1.49-9.74,2.26-1.92,.58-4.99,1.78-7.15,1.73-2.02-.05-4.8-2.45-4.8-4.75,0-.82,.43-1.01,1.25-.53,1.58,.91,2.45,1.49,4.13,1.49,2.3,0,9.46-1.54,16.27-2.69-.05-1.44-.1-2.69-.14-3.41-.14-2.06-.19-2.64-1.25-3.22-.82-.43-2.06-.91-2.06-1.58,0-.86,1.34-1.1,2.16-1.1,1.15,0,2.98,.29,4.03,1.06,.91,.67,.91,1.25,.58,3.5-.19,1.2-.34,2.69-.43,4.27,4.85-.77,9.22-1.3,11.04-1.3,2.59,0,4.66,1.3,4.66,3.02Zm-17.86,9.89c-.48-1.25-1.3-2.02-2.69-2.02-1.82,0-3.26,1.68-3.26,3.98,0,2.06,.86,3.36,2.98,3.36,1.97,0,3.07-.96,3.17-3.07,0-.58-.05-1.39-.19-2.26Zm7.63-19.44c-.58-.58-.24-1.34,.58-1.3,3.12,.19,6.48,2.35,6.48,4.61,0,1.1-.82,1.68-1.63,1.68-1.1,0-1.44-.82-2.54-2.11-.82-.96-1.92-1.92-2.88-2.88Zm12-.38c0,1.01-.62,1.68-1.58,1.68-.72,0-1.2-.38-2.11-1.39-1.06-1.15-2.5-2.21-3.55-2.98-.77-.58-.43-1.39,.48-1.39,3.07,0,6.77,1.63,6.77,4.08Z"/><path class="cls-1" d="M355.16,26.69c.82,0,1.82-.34,2.54-.67,3.75-1.82,8.64-5.23,14.11-5.23s10.18,3.98,10.18,8.98c0,8.78-9.5,11.67-19.44,10.8-1.58-.14-1.58-1.82,0-1.97,10.61-.72,15.89-3.74,15.89-9.22,0-3.07-2.06-6.38-6.53-6.38s-8.5,3.41-10.27,4.61c-1.58,1.06-4.61,3.17-6.14,3.07-1.78-.1-3.5-1.58-3.98-3.41-.19-.72-.19-1.54-.05-2.16,.14-.77,1.06-1.01,1.54-.43,.48,.58,1.3,2.02,2.16,2.02Z"/><path class="cls-1" d="M398.41,6.91c1.73-.05,4.18,.77,5.38,1.87,1.01,.91,1.15,1.68,1.2,3.17,.1,2.64-3.02,15.22-2.69,21.36,.24,4.46,3.17,5.33,6.29,5.33,8.16,0,12.24-4.94,15.46-9.5,.91-1.3,2.02-.72,1.58,.67-1.97,6.38-8.21,12.24-16.71,12.39-4.9,.1-9.41-1.34-9.65-9.07-.19-5.86,1.39-13.63,1.39-18.82,0-1.73-.1-2.78-.91-3.5-1.44-1.3-3.36-1.63-3.36-2.59,0-.48,.86-1.25,2.02-1.3Z"/><path class="cls-1" d="M445.35,3.69c2.93,1.54,4.18,3.65,4.18,5.81,0,2.02-1.68,4.32-2.16,5.81,1.01-.53,2.11-.67,2.93-.67,6.24,0,9.55,7.15,9.55,14.26,0,9.31-7.54,13.59-18.24,14.16-1.82,.1-2.02-1.49-.24-1.87,9.55-2.06,14.59-4.94,14.74-13.2,.1-5.38-2.11-10.99-6.14-10.99-1.34,0-3.07,.48-3.98,2.93-.67,1.82-1.54,6.1-1.78,8.88-.14,1.58-.72,2.5-1.82,2.5-1.34,0-2.06-1.49-2.06-3.26,0-1.44,.38-3.26,1.49-6.29,1.49-4.03,3.94-9.36,3.94-11.95,0-2.16-.67-3.26-1.73-4.85-.77-1.15-.19-2.06,1.34-1.25Z"/><path class="cls-1" d="M485.05,29.09c-.43,4.32-4.85,8.45-8.11,8.45-1.01,0-1.73-.82-1.73-1.82,0-1.68,2.16-1.92,4.22-3.17,2.11-1.3,3.12-2.64,4.08-4.03,.53-.77,1.63-.38,1.54,.58Zm8.64-7.39c0,8.74,.19,14.4,.19,16.08,0,2.35-1.63,3.98-2.88,3.98-1.01,0-1.39-.72-2.02-1.49-.53-.62-1.54-1.58-2.3-2.21-.72-.58-.38-1.3,.38-1.25,.72,.05,1.92,.19,2.45,.19,.48,0,.91-.14,1.01-.91,.24-1.78,.19-9.65,.19-13.92-5.67,1.01-8.45,1.97-9.84,1.97-1.97,0-4.03-2.26-4.32-4.56-.1-.77,.62-1.1,1.25-.67,1.44,1.01,2.4,1.63,3.7,1.63,1.73,0,6.19-.62,9.22-1.1,0-1.92,.05-4.7,0-5.62-.05-1.2-.43-1.58-1.68-2.06-1.01-.38-1.73-.62-1.73-1.15,0-.77,1.92-1.44,2.83-1.44,1.92,0,4.7,1.1,4.7,2.3,0,.96-.38,1.39-.67,3.02-.19,1.15-.38,2.88-.43,4.42,4.08-.77,8.26-1.92,9.6-1.92,2.16,0,3.79,1.1,3.79,2.59,0,.96-1.1,1.3-3.31,1.3-2.06,0-6,.29-10.13,.82Zm16.61,13.39c0,1.06-.82,1.82-1.87,1.82-1.34,0-2.16-1.58-4.37-3.74-1.68-1.63-3.36-2.69-4.99-3.98-.77-.58-.43-1.58,.62-1.44,4.42,.53,10.61,3.65,10.61,7.34Zm-9.12-24.82c-.58-.58-.24-1.34,.58-1.3,3.12,.24,6.48,2.35,6.48,4.61,0,1.1-.82,1.68-1.63,1.68-1.1,0-1.44-.82-2.54-2.11-.82-.96-1.92-1.97-2.88-2.88Zm11.14-1.2c0,1.01-.62,1.68-1.58,1.68-.72,0-1.2-.38-2.11-1.39-1.06-1.15-2.5-2.21-3.55-2.98-.77-.58-.43-1.39,.48-1.39,3.07,.05,6.77,1.63,6.77,4.08Z"/><path class="cls-1" d="M525.27,10.65c2.3,0,4.75,1.87,4.94,3.41,.34,2.74,.29,13.34-.05,16.08-.14,1.06-.72,1.73-1.73,1.73s-2.02-1.63-2.02-3.5,.72-3.02,.72-6.29c0-2.5-.19-4.51-.58-6.34-.34-1.63-.96-2.02-1.97-2.59-1.06-.62-1.73-.91-1.73-1.39,0-.62,1.25-1.1,2.4-1.1Zm13.44-3.17c2.16,0,4.9,1.25,5.14,2.74,.14,.82,.05,2.59,.05,5.09,0,4.75-.53,10.7-2.59,15.6-2.02,4.8-5.67,9.22-10.85,11.76-1.63,.82-2.5-.38-1.2-1.44,4.08-3.36,6.91-6.58,8.83-11.33,1.82-4.51,2.54-12.96,1.78-17.67-.14-.86-.53-1.3-1.73-1.97-1.01-.58-2.11-.86-2.11-1.54,0-.82,1.82-1.25,2.69-1.25Z"/><path class="cls-1" d="M586.67,35.57c0,.91-.62,1.44-1.58,1.44-1.78,0-3.65-.62-8.45-.58-3.17,.05-7.87,.48-12.58,1.63-1.39,.38-2.35,.67-3.41,.67-1.58,0-3.41-1.34-3.89-2.83-.34-1.1,.24-1.58,1.25-1.3,1.01,.34,1.87,.58,2.98,.58s7.58-.82,12.24-1.34c.91-3.17,1.3-6.43,1.44-7.92,.1-.62,0-.67-.67-.58-1.3,.19-6.24,2.45-8.11,2.45-1.58,0-3.36-1.73-3.7-3.74-.19-1.01,.48-1.54,1.44-.91,.77,.48,1.63,1.01,2.64,1.01,1.68,0,5.42-.86,6.91-1.34,.91-.29,1.58-.58,2.3-.58,1.44,0,3.75,1.58,3.75,2.59,0,.82-.72,1.39-1.06,2.54-.29,1.2-.96,3.7-1.73,6.1,3.36-.29,5.18-.43,6.19-.43,2.21,.1,4.03,1.2,4.03,2.54Z"/><path class="cls-1" d="M600.78,24.53c2.54,0,13.25-1.1,16.56-1.54,4.08-.53,5.18-1.01,7.1-1.01s4.99,1.1,4.99,3.17c0,.72-.48,1.34-1.97,1.34-1.78,0-2.69-.24-6.29-.24s-13.87,1.2-16.13,1.58c-2.16,.34-3.74,.82-5.33,.82-2.06,0-4.42-2.98-4.42-5.23,0-.82,.58-1.15,1.34-.67,1.15,.72,2.45,1.78,4.13,1.78Z"/><path class="cls-1" d="M650.41,28.66c-1.39,.96-4.27,2.98-4.27,4.42,0,2.69,10.71,2.88,13.11,3.31s3.02,1.63,2.98,2.45c-.05,.86-.96,1.44-2.45,1.49-2.4,.1-5.18-.05-9.46-1.3-3.46-1.01-7.1-3.02-7.1-5.42,0-2.06,3.6-4.8,6.19-7.25,1.2-1.15,1.3-1.63-.14-2.59-1.34-.91-3.31-1.82-5.62-2.88-1.15-.53-1.01-1.82,.67-1.73,3.22,.24,7.3,1.58,9.36,3.17,1.39,1.06,1.49,2.26,1.25,3.12-.29,.96-2.4,1.78-4.51,3.22Zm7.49-16.23c2.3,1.44,2.64,2.74,2.64,3.7s-.48,1.58-1.49,1.58c-1.2,0-1.92-.86-5.23-3.17-1.78-1.25-3.7-2.16-5.71-3.12-1.3-.62-1.06-1.92,.43-1.82,3.5,.19,7.15,1.44,9.36,2.83Z"/><path class="cls-1" d="M680.65,24.53c2.54,0,13.25-1.1,16.56-1.54,4.08-.53,5.18-1.01,7.1-1.01s4.99,1.1,4.99,3.17c0,.72-.48,1.34-1.97,1.34-1.78,0-2.69-.24-6.29-.24s-13.87,1.2-16.13,1.58c-2.16,.34-3.74,.82-5.33,.82-2.06,0-4.42-2.98-4.42-5.23,0-.82,.58-1.15,1.34-.67,1.15,.72,2.45,1.78,4.13,1.78Z"/><path class="cls-1" d="M724.86,28.66c-.24,1.92-.58,2.74-1.3,2.74-.82,0-1.1-.77-1.25-3.17-.38-3.94-1.39-16.37-1.39-17.86,0-.67,.05-1.25,.53-1.49,.91-.58,2.02-.72,3.17-.72,1.3,0,2.11,.29,2.02,1.34-.38,4.13-1.3,15.55-1.78,19.15Zm1.73,11.28c0,1.63-1.34,3.12-3.02,3.12-1.39,0-2.64-1.15-2.64-2.83s1.25-3.02,3.02-3.02c1.34,0,2.64,1.25,2.64,2.74Z"/></g><g><path class="cls-1" d="M360.21,98.1c1.72-2.57,4.06-5.62,5.3-5.62,1.64,0,7.57,4.84,7.57,6.86,0,1.09-1.4,1.87-4.52,1.87h-62.32c-1.01,0-1.72-.31-1.72-1.56,0-1.17,.7-1.56,1.72-1.56h29.64c.08-3.67,0-8.03-.23-10.53-.08-.78,.39-1.17,1.09-1.17,1.33,0,9.05,.23,9.05,2.34,0,1.64-1.72,2.26-4.13,2.81v6.55h18.56Zm-36.27,45.24c-4.06,3.59-9.91,8.19-16.69,10.37-2.18,.78-3.28-1.01-1.64-2.42,5.93-3.9,11-8.74,14.2-13.88,.39-.7,.94-.94,1.87-.47,2.57,1.25,6.32,4.29,5.93,5.62-.31,1.09-1.33,1.25-3.67,.78Zm20.05-13.57c-.31,.78-1.4,1.25-2.5,1.56l-.08,20.51c0,4.13-2.96,5.62-5.85,5.62s-1.72-2.65-7.41-4.06c-1.87-.47-1.48-2.73,.08-2.65,1.72,.23,4.52,.55,5.62,.55,1.64-.08,2.11-.7,2.18-2.26,.16-3.98,0-14.27-.23-19.27h-10.53v2.03c0,1.72-1.33,2.42-3.74,2.42-1.4,0-2.18-.78-2.18-2.11,0-4.91,.39-17.08-.31-23.79-.08-.62,.47-1.09,1.09-1.01,1.4,.16,5.38,1.56,7.25,3.04h23.63c1.25-1.64,2.96-3.67,3.9-3.67,1.72,0,6.47,3.43,6.47,5.15,0,1.01-1.4,1.72-2.81,2.34-.16,4.99,.08,13.42,.08,15.91s-1.25,2.96-3.51,2.96c-1.87,0-2.5-1.4-2.5-2.65v-.62h-8.66Zm-18.72-3.12h27.46c0-3.98,.08-9.83,.08-13.18h-27.46c-.08,1.87-.08,6.94-.08,8.27v4.91Zm43.29,19.97c.78,2.42,0,4.45-2.26,5.15-2.42,.7-4.06-1.72-6.71-4.6-2.26-2.42-4.45-4.13-6.47-5.85-1.56-1.25-1.09-3.2,1.25-2.96,5.77,.62,12.79,3.74,14.2,8.27Z"/><path class="cls-1" d="M415.59,111.6c1.4-2.34,3.12-4.68,4.13-4.68,1.48,0,5.54,4.52,5.54,6.16,0,1.17-1.4,1.64-2.96,1.64h-14.35c-2.26,2.96-4.76,5.77-7.49,8.5h9.98c1.01-1.4,2.34-2.89,3.12-2.89,1.48,0,6.01,3.35,6.01,5.07,0,1.01-1.33,1.72-2.65,2.26-.16,6.24,.16,22.07,.16,25.27,0,2.42-1.25,3.04-3.35,3.04-1.79,0-2.34-1.4-2.34-2.65v-2.03h-14.67v3.59c0,1.72-1.17,2.5-3.51,2.5-1.33,0-2.11-.78-2.11-2.11,.08-4.29,.31-15.29,.23-24.18-3.12,2.34-6.47,4.45-10.06,6.47-2.18,1.09-3.43-1.09-1.4-2.42,4.06-2.81,7.8-5.77,11.31-8.97-.08-1.64-.16-3.12-.31-4.37-.08-.55,.47-1.09,1.09-1.01,.7,.08,2.18,.55,3.67,1.17,2.26-2.26,4.45-4.68,6.4-7.25h-19.74c-1.01,0-1.72-.31-1.72-1.56,0-1.17,.7-1.56,1.72-1.56h13.96c.08-2.96,.08-6.47,.08-9.91h-10.61c-1.01,0-1.72-.31-1.72-1.56,0-1.17,.7-1.56,1.72-1.56h10.53c0-4.29-.16-8.19-.47-10.37-.08-.7,.39-1.09,1.09-1.09,1.33,0,8.5,.23,8.5,2.18,0,1.56-1.48,2.11-3.67,2.65v6.63h2.5c1.4-2.11,2.96-4.29,3.9-4.37,.94,.08,3.04,1.95,4.29,3.74,1.17-2.42,2.18-4.91,3.12-7.57,.31-.86,.86-1.09,1.56-.86,3.12,.94,7.02,3.59,6.86,5.07-.08,1.17-2.03,1.48-4.21,1.09-2.73,5.46-5.77,10.76-9.44,15.91h5.3Zm-17.16,14.74c-.47,.16-1.09,.31-1.64,.39-.08,1.64-.16,5.54-.16,8.66h14.9c.08-3.74,.08-7.1,0-9.05h-13.1Zm13.03,21.84l.08-9.67h-14.9v1.09l.08,8.58h14.74Zm-7.02-36.58c2.26-3.12,4.29-6.4,6.08-9.91h-8.81v9.91h2.73Zm38.92-19.81c1.25-1.56,2.57-2.89,3.51-2.89,1.4,0,6.4,4.21,6.4,6.24,0,1.17-1.4,1.79-3.51,2.5-3.12,5.77-8.03,13.18-9.83,16.22-.62,1.09-.47,1.4,.39,2.26,5.62,5.46,10.45,9.44,10.45,20.05,0,6.71-2.26,12.56-9.36,12.56-1.33,0-2.03-.55-2.57-1.4-1.09-1.48-2.11-2.26-3.82-2.81-1.95-.62-1.72-2.73,.08-2.73,1.01,0,3.28,.23,5.62,.23,3.82,0,4.45-2.81,4.45-8.97,0-5.3-3.04-10.3-8.42-15.37-1.56-1.4-1.56-2.26-.39-4.45,2.26-4.13,6.32-13.65,7.33-18.33h-11.47c-.39,5.38-.39,23.63-.39,26.75,0,2.81,.16,29.64,.16,32.84,0,1.79-1.17,2.81-3.67,2.81-1.56,0-2.18-.86-2.18-2.34,0-9.83,1.01-53.67-.31-65.52-.08-.47,.39-1.09,1.09-1.09,1.01,.08,6.16,1.79,7.96,3.43h8.5Z"/><path class="cls-1" d="M519.88,134.45c5.07,7.49,16.69,12.09,27.85,13.49,2.73,.31,1.79,1.72,.23,2.42-2.18,1.01-2.73,1.64-3.43,2.57-.78,1.25-1.25,2.03-3.74,1.33-9.75-2.42-19.19-9.52-23.71-18.64v4.6c0,1.95,.16,13.03,.16,14.9,0,1.72-1.33,2.26-3.51,2.26-1.33,0-2.18-.7-2.18-2.03,0-1.56,.31-12.17,.39-15.29-6.55,6.32-15.99,12.01-29.17,15.44-2.5,.7-3.43-1.48-1.09-2.57,12.56-4.91,21.76-11.62,27.3-18.49h-21.61c-1.01,0-1.72-.31-1.72-1.56,0-1.17,.7-1.56,1.72-1.56h24.49c-.08-2.89-.16-5.85-.47-7.72-.08-.7,.31-1.09,1.01-1.09,2.26,0,8.11,.23,8.11,2.03,0,1.01-1.17,1.79-3.35,2.11,0,.86-.08,2.65-.08,4.68h13.73c1.56-2.26,3.59-4.91,4.68-4.91,.39,0,1.01,.23,1.72,.7-.31-.39-.31-1.01,.16-1.79,.7-1.33,1.4-2.81,2.03-4.21h-50.47v.78c-.23,4.52-3.12,8.35-6.79,8.27-1.79-.08-3.04-1.4-2.96-3.12,.08-3.04,3.35-2.73,5.07-6.71,.78-1.72,.47-3.9,.47-5.93-.08-1.72,2.03-2.11,2.81-.23,.47,1.09,.94,2.34,1.17,3.82h50.08c1.25-1.64,3.28-3.74,4.29-3.74,1.48,0,6.4,4.29,6.4,6.55,0,1.56-2.11,1.56-4.13,1.87-2.03,1.56-4.29,3.35-5.93,4.45-.62,.39-1.17,.47-1.64,.39,2.11,1.48,4.68,3.98,4.68,5.23,0,1.09-1.25,1.72-4.13,1.72h-18.41Zm-34.48-31.9c0-1.95,2.18-2.65,3.51-4.76,.94-1.4,.86-3.2,1.09-4.84,.08-1.72,2.26-1.87,2.81-.23,.55,1.87,.86,4.21,.7,6.71-.39,3.51-2.42,5.62-5.46,5.62-1.64,0-2.65-1.17-2.65-2.5Zm10.76,2.65c1.25-4.13,.78-9.98,.31-15.91-.16-1.09,.16-1.48,1.25-1.48,2.96-.08,7.18,.94,7.18,2.42,.08,1.17-.94,1.64-3.12,1.87,.08,2.65,.08,5.38-.08,7.88,2.11-2.26,4.45-4.6,6.4-8.19,.31-.62,.94-1.09,1.72-.7,2.5,1.33,5.15,3.74,4.91,4.84-.23,.94-1.09,1.33-3.51,.86-2.89,2.96-5.23,4.37-8.19,5.77-.62,.31-1.17,.31-1.64,.23-.16,1.09-.31,2.18-.62,3.12-1.48,4.76-4.99,8.03-9.28,10.06-1.95,1.09-3.12-.55-1.4-2.11,2.89-2.34,4.99-4.6,6.08-8.66Zm16.22,5.69c.23,1.95-.78,3.43-2.81,3.67-1.87,.16-2.57-1.64-3.82-3.43-.86-1.25-1.87-2.5-2.81-3.67-1.17-1.33-.47-2.89,1.64-2.42,3.74,.94,7.49,2.65,7.8,5.85Zm11-4.13c2.65-5.15,2.34-11.31,1.48-17.94-.08-.78,.16-1.09,1.01-1.09,2.89,0,8.04,.7,8.04,2.26,0,1.17-1.25,1.79-3.43,2.26,.16,3.04,.16,5.85-.31,8.58,2.34-2.18,4.91-4.52,7.18-8.5,.31-.62,.94-1.01,1.72-.7,2.5,1.33,5.07,3.67,4.84,4.76-.23,1.01-1.01,1.4-3.43,.94-3.59,3.59-6.01,4.91-9.36,6.47-.62,.31-1.17,.39-1.64,.16-.47,1.64-1.09,3.2-1.95,4.68-2.5,4.21-8.03,7.25-11.86,8.5-2.26,.94-3.35-1.09-1.4-2.42,3.35-1.95,7.18-4.21,9.13-7.96Zm-9.52-3.59c0-2.03,2.03-2.57,3.28-4.68,.86-1.48,.78-3.2,.86-4.84,.16-1.72,2.26-1.87,2.89-.23,.62,1.79,.94,3.98,.86,6.63-.31,3.43-2.34,5.62-5.3,5.62-1.64,0-2.57-1.17-2.57-2.5Zm27.3,8.42c.23,1.95-.7,3.51-2.73,3.82-1.79,.23-2.65-1.56-3.98-3.28-.86-1.25-1.95-2.42-2.96-3.51-1.17-1.33-.55-2.96,1.56-2.57,3.82,.78,7.64,2.42,8.11,5.54Z"/><path class="cls-1" d="M589.3,120.64c0,1.09-.47,1.64-3.2,2.34-.23,20.98-8.81,29.41-26.99,34.48-2.34,.55-3.04-1.95-.62-2.65,16.15-6.47,22.7-14.12,21.29-35.34-.16-1.25,.16-1.48,1.25-1.48,2.65,0,8.27,.94,8.27,2.65Zm25.58-7.1c1.72-2.57,4.06-5.62,5.3-5.62,1.64,0,7.57,4.91,7.57,6.86,0,1.17-1.33,1.87-4.52,1.87h-63.34c-1.01,0-1.72-.31-1.72-1.56,0-1.17,.7-1.56,1.72-1.56h54.99Zm-7.25-20.12c1.79-2.57,4.06-5.62,5.3-5.62,1.64,0,7.57,4.84,7.57,6.86,0,1.09-1.48,1.87-4.52,1.87h-48.52c-1.01,0-1.72-.31-1.72-1.56,0-1.17,.7-1.56,1.72-1.56h40.17Zm-9.52,24.73c5.38,0,8.58,.78,8.58,2.42,.08,1.33-1.25,2.11-3.82,2.5-.08,3.82-.16,22.23-.16,24.1,0,2.81,.39,3.35,9.13,3.35,8.27,0,10.45-1.01,11.23-2.89,.62-1.56,1.17-3.74,1.48-4.76,.47-1.56,1.95-1.48,2.11,.08,.08,1.01,.23,2.81,.39,4.13,.31,2.42,1.64,2.42,1.64,4.13s-3.28,4.68-16.69,4.68-14.74-2.11-14.74-8.5c0-2.81,.23-23.01-.39-27.85-.08-1.09,.08-1.4,1.25-1.4Z"/></g><g><path class="cls-2" d="M688.68,148.73c0,.66-.12,2.04-1.8,2.04-1.56,0-2.64-1.14-4.32-2.82-2.28-2.28-4.38-4.26-7.86-5.22,.42,1.56,.72,3.06,.72,4.44,0,2.52-1.86,5.46-6.96,5.46s-8.28-2.16-8.28-6.12c0-3.12,2.46-6.84,10.38-7.08-.18-1.08-.3-2.34-.3-3.84,0-5.88,4.56-8.64,9.66-9.9-1.8-1.38-3.96-1.92-7.08-1.92-7.08,0-15.18,7.5-20.22,15.24-2.16,3.3-4.44,7.5-6.9,7.5-1.14,0-1.8-1.08-1.8-2.28,0-2.04,2.16-4.08,5.16-7.98,4.74-6.18,8.7-13.08,10.68-18.12-2.58,.36-5.46,.6-7.98,.6-3.78,0-6.66-3.42-6.66-7.14,0-.78,.78-1.2,1.44-.66,1.14,.9,4.02,4.32,8.4,4.32,1.98,0,4.02-.24,6-.54,.66-1.98,1.08-3.54,1.26-4.32,.3-1.32-.18-1.74-1.74-2.4-1.26-.54-2.7-.9-2.7-1.8,0-1.02,2.04-1.44,3.54-1.44,2.94,0,5.46,1.2,5.46,3.06,0,.9-.84,3.42-1.86,6.18,2.7-.66,6.12-1.8,8.28-2.88,1.8-.9,3.42-1.44,4.56-1.44,1.62,0,3.12,.9,3.12,1.92s-.84,1.5-2.28,2.16c-1.56,.72-9.42,2.88-15.12,3.9-1.26,2.82-3.12,6.78-5.22,10.86,5.76-4.92,10.56-7.2,16.26-7.2,7.5,0,13.56,4.44,13.56,7.98,0,.96-.84,1.5-1.56,1.5-1.26,0-2.04-.72-2.82-1.44-.96-.84-1.98-1.2-4.32-.96-4.32,.42-6.12,3.06-6.12,6.42,0,1.56,.3,3.24,.66,4.8,3.6,.48,8.52,1.92,11.82,4.62,1.62,1.32,2.94,3.12,2.94,4.5Zm-17.58-6.54c-.42-.06-.84-.06-1.32-.06-2.46,0-6.84,1.08-6.84,4.14,0,1.5,.96,2.52,3.78,2.52,3.66,0,4.74-1.8,4.74-3.84,0-.96-.12-1.8-.36-2.76Z"/><path class="cls-2" d="M717,149.21c11.04-.78,20.04-3.24,19.92-10.2-.06-3.78-3.72-6.66-7.26-6.66-4.44,0-9.36,3.12-12.24,5.7-2.04,1.86-3.42,4.32-5.28,4.32-1.68,0-3.36-1.86-3.36-4.2,0-6.54,2.22-14.82,3.06-18.9,.42-1.98,1.44-2.7,3-2.94,2.04-.3,4.98-.84,6.84-1.32,2.4-.6,2.46-1.68,1.5-2.94-1.14-1.5-2.7-2.7-5.1-4.08-1.92-1.08-1.26-2.04,.78-1.8,6.3,.84,10.98,5.28,10.98,9.42,0,2.16-1.2,2.7-4.38,2.58-2.82-.12-6.6-.06-8.58,.42-1.44,.36-1.8,.84-1.92,2.16-.12,1.62,0,3-.24,4.14-.9,4.32-1.62,7.44-1.62,9.78,0,.96,.24,1.5,1.38,.84,4.44-2.58,9.06-5.88,15.24-5.88s11.82,3.84,11.94,10.74c.12,6.84-7.92,12.78-24.72,10.98-1.68-.18-1.98-2.04,.06-2.16Z"/><path class="cls-2" d="M760.14,120.77c1.62,.18,3.42-.24,5.76-1.14,3.72-1.44,10.56-4.14,16.92-6.48,4.56-1.68,9.42-2.88,13.68-2.88,2.34,0,5.16,1.02,5.16,2.76,0,1.32-.78,2.16-2.88,2.16-2.46,0-4.98-.54-7.68,.48-6.12,2.28-10.92,11.04-10.92,18.72,0,9.12,6.48,11.1,14.4,10.14,2.52-.3,3.78,.48,3.72,1.92-.06,2.1-2.1,2.88-5.04,3.12-10.14,.84-16.98-4.26-16.98-13.86,0-7.08,3-12.66,7.56-18.24,1.08-1.32,.54-1.62-.78-1.26-4.5,1.2-10.68,4.74-15.18,7.14-1.8,.96-4.5,2.7-6.54,2.64-3.72-.12-7.02-3-7.02-6.42,0-.84,.54-1.2,1.38-.72s2.88,1.74,4.44,1.92Zm40.74,9.78c0,1.38-1.02,2.1-2.04,2.1-1.38,0-1.8-1.02-3.18-2.64-1.02-1.2-2.4-2.46-3.6-3.6-.72-.72-.3-1.68,.72-1.62,3.9,.3,8.1,2.94,8.1,5.76Zm5.1-5.64c0,1.26-.78,2.1-1.98,2.1-.9,0-1.5-.48-2.64-1.74-1.32-1.44-3.12-2.76-4.44-3.72-.96-.72-.54-1.74,.6-1.74,3.84,.06,8.46,2.04,8.46,5.1Z"/><path class="cls-2" d="M849.12,142.13c-1.02,5.76-4.92,7.62-9.48,7.62-3.96,0-7.5-2.58-7.5-6.18,0-4.62,4.32-7.44,10.14-7.44,1.5,0,3,.12,4.32,.36,.18-1.62,.18-3,.18-4.26,0-3.3-.3-7.2-.72-10.68-10.02,1.5-18.3,6.06-22.32,13.14-1.08,1.92-1.92,3.96-1.92,6.48,0,4.14,1.74,7.08,1.74,9,0,1.8-.9,2.4-2.04,2.4-1.62-.06-2.64-1.2-3.48-3.24-.84-2.1-1.32-4.32-1.32-9.36,0-8.28,3.54-19.2,4.08-21.96s.6-4.38-.42-6.6c-.72-1.62-1.56-2.88-1.92-3.66-.54-1.08,.24-1.62,1.26-1.26,2.46,.84,4.92,3.06,5.7,5.1,.66,1.74,.84,2.82,.12,5.4-1.02,3.72-4.14,9.42-4.74,14.46-.18,1.56,.12,1.92,1.68,0,5.28-6.54,11.4-11.1,23.04-13.68-.12-1.14-.3-2.1-.48-2.88-.36-1.8-1.14-2.4-2.04-3-1.56-.9-2.34-1.38-2.34-2.1-.06-.9,2.04-1.62,3.36-1.68,1.2,0,2.1,.12,3.06,.48,1.08,.42,1.38,1.02,1.44,1.74,.06,.96,.12,2.34,.24,3.72,.6,2.34,3.66,2.22,5.34,2.22,2.4,0,4.56,.66,4.56,2.28,0,1.32-.84,2.04-3.42,2.16-1.98,.06-3.96,.18-5.94,.42,.24,3.36,.48,7.32,.48,9.72,0,2.22,0,4.26-.12,6.36,4.2,1.26,7.5,3.48,9.72,5.52,1.62,1.56,2.7,3.36,2.7,5.22,0,1.14-.6,1.98-1.8,1.98-1.38,0-2.94-1.92-4.86-3.96-1.68-1.74-3.78-3.48-6.18-4.74l-.12,.9Zm-3-2.28c-1.62-.54-3.36-.84-5.22-.84-3.06,0-5.64,1.5-5.64,3.6s1.68,3,4.32,3c3.66,0,5.64-1.74,6.54-5.7v-.06Z"/><path class="cls-2" d="M916.56,131.57c0,11.52-9.24,17.46-21.6,17.46-2.1,0-2.22-1.86-.36-2.22,10.38-2.04,17.1-6.42,17.1-16.26,0-6.42-3.24-11.76-9.3-14.28-.18,2.28-.78,4.92-1.68,7.38-3.48,9.6-13.5,21.54-20.7,21.54-3.18,0-6.3-4.38-6.84-11.46-.6-7.56,2.34-13.14,6.3-16.68,3.54-3.12,9-5.34,14.7-5.34,14.34,0,22.38,9.06,22.38,19.86Zm-17.52-16.38c-1.56-.3-3.24-.48-5.04-.48-5.16,0-9.24,1.68-12.18,4.44-3.18,3-5.1,7.26-4.74,13.2,.3,4.62,1.92,7.44,3.66,7.44,5.76,0,14.4-11.7,17.22-19.74,.6-1.62,.96-3.36,1.08-4.86Z"/></g><g><path class="cls-1" d="M367.4,220.12c7.12,30.62,23.75,51.38,50.5,57.88,4.12,1,3.25,3.12,.25,4.12-3.38,1-4.88,2.5-6,4.12-1.5,2.12-2.62,3.12-6,1.75-21.62-8.62-35.25-29.75-41.62-58.62-1.5,8.62-3.88,16.88-7.88,24.25-8.88,16.5-24.88,29.62-49.5,36.25-3.62,1.12-4.88-2.88-1.5-4.25,21.38-8.62,34.5-20.62,42.12-34.62,5.12-9.62,7.5-20.88,8.62-30.88h-47.62c-1.62,0-2.75-.5-2.75-2.5,0-1.88,1.12-2.5,2.75-2.5h48c.5-6.12,.5-11.5,.5-15.62-.25-5.75-.62-13.5-1.38-19.5-.12-1.25,.25-2,1.88-2,4.12,.12,15,1.5,15,4-.12,1.75-1.5,3-5.62,4-.12,9.38-.25,19.38-1,29.12h31.75c3-4.38,6.75-9.5,9-9.5,2.88,0,12.12,8.25,12.12,11.5,0,1.88-2.25,3-7.25,3h-44.38Z"/><g><path class="cls-1" d="M508.32,233.67c0,1.64-1.09,2.64-2.64,2.64-2,0-6.55-1.09-10.37-1.09-2.46,0-6.19,.18-10.1,.55-.91,19.47-7.74,31.49-23.57,39.04-3.64,1.73-5.55-1.18-2.09-3.55,13.29-9.01,18.2-17.65,19.2-34.76-4.37,.55-9.83,1.46-14.38,2.28,.09,6.73-.09,12.38-.36,14.11-.27,2.64-1,4.82-3,4.91-2.18,.09-3.91-2.28-3.91-5.92,0-2.46,1.37-4.91,1.46-12.01-9.65,1.82-14.47,3.46-17.65,3.46s-7.46-4.46-7.74-8.74c-.09-1.55,.73-2.18,2.46-1.18,2.37,1.27,5.28,2.82,7.83,2.82,2.73,0,9.19-.82,15.02-1.64-.18-4-.55-6.83-1-8.83-.36-1.64-.73-2.28-3.09-3.55-2.18-1.27-3.37-1.46-3.37-2.55,0-1.36,3.09-2.28,4.82-2.28,3.64,0,7.37,2.09,7.92,4,.46,1.64,.36,6.64,.46,12.29,4.28-.64,10.1-1.64,14.74-2.37,0-4.46-.36-9.19-.73-11.65-.46-2.82-.91-3.64-2.73-4.64-1.73-.91-3.46-1.46-3.46-2.73,0-1.46,3.46-2.18,5.1-2.18,4.37,0,8.01,2.64,8.37,4.64,.27,1.36-.18,3.19-.18,6.55,0,2.18,.09,5.37,0,9.01,9.01-1.36,11.56-2.28,14.29-2.28,3,0,8.74,2.37,8.74,5.64Z"/><path class="cls-1" d="M569.47,224.75c-2.91,3.73-6.64,8.19-11.19,12.83,.45,.27,.82,.55,1.18,.82,1.55,1.36,2,2.55,2.28,5.28,.73,7.46,.55,20.75-.09,27.57-.27,2.82-2.09,4.19-4.09,4.19-2.73,0-4.19-3.37-4.19-6.46,0-1.91,.73-3.55,1.18-6.1,.82-4.82,1.09-14.92,.64-18.66-.09-1-.46-1.82-1-2.73-9.37,8.83-20.66,16.93-30.49,21.39-3.55,1.64-5.19-1.82-2.27-3.64,16.93-10.56,34.67-26.3,40.5-37.04,1.64-3,1.46-4.28-1.55-7.64-1.64-1.82-1-2.82,1.18-2.82,4.73,0,10.74,4.46,10.74,7.55,0,1.82-1.55,3.82-2.82,5.46Z"/><path class="cls-1" d="M619.34,227.29c5.19,0,16.84-3,20.48-4.19,2.55-.82,3.28-1.73,5.19-1.73,3.28,0,9.1,4,9.1,7.28,0,2.18-2.82,2.91-4.64,5.73-8.01,12.47-21.66,27.85-44.14,36.4-3.09,1.18-4.55-2.73-1.64-4.1,18.56-8.74,33.58-24.3,39.4-35.86,1.91-3.82,1.09-3.82-1.64-3.19-3.19,.73-18.75,7.01-23.02,7.01-3,0-7.55-3.73-8.46-8.37-.46-2.37,1-3.09,2.73-2,3,1.91,4.46,3,6.64,3Zm44.59,38.49c-.09,2.27-1.64,3.64-3.82,3.64-3.09,0-4.19-3.28-6.83-6.46-2.73-3.28-5.1-5.55-8.65-8.46-2-1.64-.46-3.64,1.91-3.19,8.83,1.73,17.66,7.19,17.38,14.47Zm1.09-44.05c0,2.09-1.55,3.19-3.09,3.19-2.09,0-2.73-1.55-4.82-4-1.55-1.82-3.64-3.73-5.46-5.46-1.09-1.09-.46-2.55,1.09-2.46,5.92,.46,12.29,4.46,12.29,8.74Zm7.74-8.55c0,1.91-1.18,3.19-3,3.19-1.37,0-2.28-.73-4-2.64-2-2.18-4.73-4.19-6.73-5.64-1.46-1.09-.82-2.64,.91-2.64,5.82,.09,12.83,3.09,12.83,7.74Z"/></g></g><path class="cls-4" d="M478.17,306.14c-1.2-.13,.32-2.15,1.56-2.35-.34-.58-1,.16-2.35,0-.77,.83-.34,1.46-2.35,2.35-4.98-.59-10.62,1.68-14.1,3.13,.07-.56,.13-1.11-.78-1.17-2.51-.34-1.62,1.01-3.13,1.17-16.5,.7-17.5-5.38-29.77-7.43-20.52-1.3-28.41,4.79-46.21,5.86-1.15,.34-2.48,.59-2.35,1.56-3,.06-6.21,.23-6.27-1.17-1.92,.04-.17,1.29,.78,1.17-.1,.86-3.32,.17-4.7,.39,3.45-2-5.83,.5-3.91-1.56,.15-1.87,1.36,.67,3.91,0-3.4-.77-5.85-3.25-9.4-2.74v-1.57c-3.17,.54-5.16-1.22-7.83-2.74-.31,1.29-7.48,.92-4.7-.39-2.45-.18-3.5,.34-3.14,1.57-1.96-1.15-2.62-.26-5.48,0-.75-1.42,3.52-.33,3.13-1.57-2.6-.23-5.67,1.31-3.92,1.95-.89,1.26-2.24-.38-1.57-1.17-6.61,1.39-9.77,4.5-17.23,5.47-4.35,4.25-13.11,4.35-20.36,6.64-11.45-9.15,18.11-10.63,24.28-13.68,.91,.06,.66,.71,.78,1.17,2.89-1.89,2.79-1.87,7.83-3.52,1.86,1.21-2.88,2.45-3.13,3.91,4.53-.57,4.36-3.41,5.48-4.69,1.84,1.13,2.36,1.15,4.7,.39-.75,.8-1.6,1.55-2.35,2.34,2.45-1.46,4.78-1.45,7.05-2.34,1.88-.16-.43,1.78,2.35,1.17,2.14-.36-1.1-1.22,0-2.35,3.7,.37,2.33,3.27,5.48,3.91-.54-1.16,2.29-1.44,4.7-.39,1.91-.85-3.49-1.36-5.48-1.56,3.81-1.68,9.56,1.85,14.1,2.35,.24-1.82-3.86-1.46-4.7-2.74,6.3,.5,10.89,2.86,18.8,3.91,1.4,.05,1.65-.48,3.13-.39,12.67-6.22,40.09-11.2,58.74-5.47-.44,2.18,2.73,2.55,4.7,3.52,2.27-.78-2.26-1.45-1.57-2.74,4.57,1.63,9.46,3.1,12.53,5.47,.76-.01,.61-.48,.78-.78,5.07,2.67,18.19,1.7,18.8-2.34,3.21-.18-.03,.98,0,1.56,3.45-.49,5.9-1.49,8.62-2.35,2.37,.48-.55,1.49-.78,1.95,4.14,.63,1.52-2.11,4.7-1.95-1.71,.82,.39,1.12,0,2.35,1.12-.14,2.68-1.99,.78-2.35,1.64-.87,3.91-1.43,6.27-1.95,.02,.92-1.35,1.15-.78,2.35,2.77-.02,2.87-2.67,5.48-1.56-.61-.35-.84-.88-.78-1.56,2.42,.1,1.88,1.67,3.92,1.95,1.73-.05,.33-1.66,.78-2.35,2.47,.44,1.77,.03,4.7,0,.76,1.55-4.38,.16-3.92,1.56,1.32-.36,8.47,1.23,8.62-.78,2.64,.45,2.27,1.01,4.7,.39-.16-1.22-5.12-.05-4.7-1.56,1.84,.13,2.94,.62,5.48,.39-1.9,3.29,6.04,1.68,7.83,3.13-2.9,.83-9.19-1.8-12.53-.78,5.47,.45,14.32,3.5,14.88,2.74,1.38,.09,1.78,.67,1.56,1.56,4-1.33,6.24,.46,10.18,1.17-1.84-2.47-8.25-2.66-12.53-3.91,10.84,.45,19.65,5.31,35.25,4.69-2.53-1.49-10.7-.86-10.97-2.35,21.13,2.51,39.6-2.14,46.21-9.38,1.7-.06,.36,1.39,.78,1.95,5.48-1.69,4.1-6.82,12.53-7.04-.23,.8-2.12,.77-2.35,1.56,7.59-1.47,13.96-1.43,21.15-1.95,.36,4.15,15.12,4.07,20.37,7.04-.87-2.31-12.18-2.78-14.1-5.86,3.03,.05,3.09,1.58,5.48,1.95-.35-.35-.69-.7-1.56-.78,8.24,1.9,21.05,5.47,30.54,8.99,4.46-1.03,7.97-2.54,10.18-4.69,8.73,2.42,27.14,0,27.41,6.65-1.38-.56-1.78-.36-1.56,.78-1.45-.06-.48-1.32-1.57-1.56-1.21,.57-1.64,1.52-1.57,2.74-11.64-.69-15.79,3.9-28.2,3.91-.36,1.22,1.68,1.25,3.92,1.17-22.93,4.26-35.34-8.7-54.83-11.34-2.81-.1-2.87,1.17-5.48,1.17v-.78c-4.7,1.65-7.72,3.09-13.32,4.69-4.59,1.31-11.12,4.01-14.88,4.69-1.45,.26-7.08-.22-7.05,2.34-4.09,.17-6.86,1-10.96,1.17-2.93,.26,.58,1.3-2.35,1.56-2.1,.27-1.51-.81-2.35-1.17-7.78,1.7-17.83,1.21-25.07-.39,1.53-.61,5.98,.65,7.83,1.17,.65-1.43,.3-.93,4.7-.78-1.61-1-7.87-2.16-8.62-1.56-2.76-.18-.38-2.94-3.92-2.74,1.3-.27,4.25-.51,6.27,0,.78-1.95-4.02-1.12-4.7-2.34-.89,1.88-.64,.62-3.13-.39-.27,.94,.2,3.09,1.56,3.91-10.19,.19-15.48-4.44-24.28-6.25-4.28,1.68-14.35-1.63-18.01,1.56-1.4-.29-.12-.71,0-1.17-8.41,1.66-17.91,2.79-22.71,6.25Zm-18.8,.78c-2.88,.38-4.52,1.4-7.05,1.95,3.51-.07,5.83-.74,7.05-1.95Zm89.29-.78c2.3-.08,5.19,1.54,7.05,.39-2.83,.34-5.23-1.53-7.05-.39Zm2.35-2.35c.41,1.37,6.52,1.94,8.62,1.17-2.59,.07-5.01-.77-8.62-1.17Zm-104.17-5.47c.18,.74-.88,.86-.78,1.56,1.04-.06,2.92,1.31,3.13,.39-1.84-.13-.76-1.7-2.35-1.95Z"/></g></g></g></svg>