<?xml version="1.0" encoding="UTF-8"?><svg id="_レイヤー_2" xmlns="http://www.w3.org/2000/svg" width="360.05" height="342.48" viewBox="0 0 360.05 342.48"><defs><style>.cls-1{fill:#0d1037;}.cls-2{fill:#0f1536;}.cls-3{fill:none;stroke:#0d1037;stroke-miterlimit:10;stroke-width:2px;}.cls-4{fill:#c1a972;fill-rule:evenodd;}</style></defs><g id="_ガイド"><g><circle class="cls-1" cx="113.06" cy="5.41" r="5.41"/><g><g><g><path class="cls-1" d="M248.75,90.02c0,.48-.38,.62-.86,.62-.72,0-1.82-.41-4.06-.41-.96,0-1.94,.07-2.93,.19,0,.89-.02,2.23-.02,3.48,.7,.74,1.03,1.97,1.03,3.53,0,3.96-2.9,6.17-7.2,6.6-.58,.05-.7-.62-.14-.79,2.83-.89,5.09-1.94,5.47-4.63-.48,.46-1.15,.62-1.8,.62-1.78,0-2.69-1.06-2.69-2.88,0-2.04,1.22-3.38,3.12-3.38,.29,0,.58,.02,.84,.1,0-.77-.02-1.61-.02-2.42-1.85,.31-3.58,.74-4.87,1.13-.96,.29-2.5,.89-3.58,.86-1.01-.02-2.4-1.22-2.4-2.38,0-.41,.22-.5,.62-.26,.79,.46,1.22,.74,2.06,.74,1.15,0,4.73-.77,8.14-1.34-.02-.72-.05-1.34-.07-1.7-.07-1.03-.1-1.32-.62-1.61-.41-.22-1.03-.46-1.03-.79,0-.43,.67-.55,1.08-.55,.58,0,1.49,.14,2.02,.53,.46,.34,.46,.62,.29,1.75-.1,.6-.17,1.34-.22,2.14,2.42-.38,4.61-.65,5.52-.65,1.3,0,2.33,.65,2.33,1.51Zm-8.93,4.94c-.24-.62-.65-1.01-1.34-1.01-.91,0-1.63,.84-1.63,1.99,0,1.03,.43,1.68,1.49,1.68,.98,0,1.54-.48,1.58-1.54,0-.29-.02-.7-.1-1.13Zm3.82-9.72c-.29-.29-.12-.67,.29-.65,1.56,.1,3.24,1.18,3.24,2.3,0,.55-.41,.84-.82,.84-.55,0-.72-.41-1.27-1.06-.41-.48-.96-.96-1.44-1.44Zm6-.19c0,.5-.31,.84-.79,.84-.36,0-.6-.19-1.06-.7-.53-.58-1.25-1.1-1.78-1.49-.38-.29-.22-.7,.24-.7,1.54,0,3.38,.82,3.38,2.04Z"/><path class="cls-1" d="M255.37,95.56c.41,0,.91-.17,1.27-.34,1.87-.91,4.32-2.62,7.06-2.62s5.09,1.99,5.09,4.49c0,4.39-4.75,5.83-9.72,5.4-.79-.07-.79-.91,0-.98,5.3-.36,7.94-1.87,7.94-4.61,0-1.54-1.03-3.19-3.26-3.19s-4.25,1.7-5.14,2.3c-.79,.53-2.3,1.58-3.07,1.54-.89-.05-1.75-.79-1.99-1.7-.1-.36-.1-.77-.02-1.08,.07-.38,.53-.5,.77-.22,.24,.29,.65,1.01,1.08,1.01Z"/><path class="cls-1" d="M276.99,85.67c.86-.02,2.09,.38,2.69,.94,.5,.46,.58,.84,.6,1.58,.05,1.32-1.51,7.61-1.34,10.68,.12,2.23,1.58,2.66,3.14,2.66,4.08,0,6.12-2.47,7.73-4.75,.46-.65,1.01-.36,.79,.34-.98,3.19-4.1,6.12-8.35,6.19-2.45,.05-4.7-.67-4.82-4.54-.1-2.93,.7-6.82,.7-9.41,0-.86-.05-1.39-.46-1.75-.72-.65-1.68-.82-1.68-1.3,0-.24,.43-.62,1.01-.65Z"/><path class="cls-1" d="M300.46,84.06c1.46,.77,2.09,1.82,2.09,2.9,0,1.01-.84,2.16-1.08,2.9,.5-.26,1.06-.34,1.46-.34,3.12,0,4.78,3.58,4.78,7.13,0,4.66-3.77,6.79-9.12,7.08-.91,.05-1.01-.74-.12-.94,4.78-1.03,7.3-2.47,7.37-6.6,.05-2.69-1.06-5.5-3.07-5.5-.67,0-1.54,.24-1.99,1.46-.34,.91-.77,3.05-.89,4.44-.07,.79-.36,1.25-.91,1.25-.67,0-1.03-.74-1.03-1.63,0-.72,.19-1.63,.74-3.14,.74-2.02,1.97-4.68,1.97-5.98,0-1.08-.34-1.63-.86-2.42-.38-.58-.1-1.03,.67-.62Z"/><path class="cls-1" d="M234.87,122.76c-.22,2.16-2.42,4.22-4.06,4.22-.5,0-.86-.41-.86-.91,0-.84,1.08-.96,2.11-1.58,1.06-.65,1.56-1.32,2.04-2.02,.26-.38,.82-.19,.77,.29Zm4.32-3.7c0,4.37,.1,7.2,.1,8.04,0,1.18-.82,1.99-1.44,1.99-.5,0-.7-.36-1.01-.74-.26-.31-.77-.79-1.15-1.1-.36-.29-.19-.65,.19-.62,.36,.02,.96,.1,1.22,.1,.24,0,.46-.07,.5-.46,.12-.89,.1-4.82,.1-6.96-2.83,.5-4.22,.98-4.92,.98-.98,0-2.02-1.13-2.16-2.28-.05-.38,.31-.55,.62-.34,.72,.5,1.2,.82,1.85,.82,.86,0,3.1-.31,4.61-.55,0-.96,.02-2.35,0-2.81-.02-.6-.22-.79-.84-1.03-.5-.19-.86-.31-.86-.58,0-.38,.96-.72,1.42-.72,.96,0,2.35,.55,2.35,1.15,0,.48-.19,.7-.34,1.51-.1,.58-.19,1.44-.22,2.21,2.04-.38,4.13-.96,4.8-.96,1.08,0,1.9,.55,1.9,1.3,0,.48-.55,.65-1.66,.65-1.03,0-3,.14-5.06,.41Zm8.3,6.7c0,.53-.41,.91-.94,.91-.67,0-1.08-.79-2.18-1.87-.84-.82-1.68-1.34-2.5-1.99-.38-.29-.22-.79,.31-.72,2.21,.26,5.3,1.82,5.3,3.67Zm-4.56-12.41c-.29-.29-.12-.67,.29-.65,1.56,.12,3.24,1.18,3.24,2.3,0,.55-.41,.84-.82,.84-.55,0-.72-.41-1.27-1.06-.41-.48-.96-.98-1.44-1.44Zm5.57-.6c0,.5-.31,.84-.79,.84-.36,0-.6-.19-1.06-.7-.53-.58-1.25-1.1-1.78-1.49-.38-.29-.22-.7,.24-.7,1.54,.02,3.38,.82,3.38,2.04Z"/><path class="cls-1" d="M254.98,113.55c1.15,0,2.38,.94,2.47,1.7,.17,1.37,.14,6.67-.02,8.04-.07,.53-.36,.86-.86,.86s-1.01-.82-1.01-1.75,.36-1.51,.36-3.14c0-1.25-.1-2.26-.29-3.17-.17-.82-.48-1.01-.98-1.3-.53-.31-.86-.46-.86-.7,0-.31,.62-.55,1.2-.55Zm6.72-1.58c1.08,0,2.45,.62,2.57,1.37,.07,.41,.02,1.3,.02,2.54,0,2.38-.26,5.35-1.3,7.8-1.01,2.4-2.83,4.61-5.42,5.88-.82,.41-1.25-.19-.6-.72,2.04-1.68,3.46-3.29,4.42-5.67,.91-2.26,1.27-6.48,.89-8.83-.07-.43-.26-.65-.86-.98-.5-.29-1.06-.43-1.06-.77,0-.41,.91-.62,1.34-.62Z"/><path class="cls-1" d="M285.68,126c0,.46-.31,.72-.79,.72-.89,0-1.82-.31-4.22-.29-1.58,.02-3.94,.24-6.29,.82-.7,.19-1.18,.34-1.7,.34-.79,0-1.7-.67-1.94-1.42-.17-.55,.12-.79,.62-.65,.5,.17,.94,.29,1.49,.29s3.79-.41,6.12-.67c.46-1.58,.65-3.22,.72-3.96,.05-.31,0-.34-.34-.29-.65,.1-3.12,1.22-4.06,1.22-.79,0-1.68-.86-1.85-1.87-.1-.5,.24-.77,.72-.46,.38,.24,.82,.5,1.32,.5,.84,0,2.71-.43,3.46-.67,.46-.14,.79-.29,1.15-.29,.72,0,1.87,.79,1.87,1.3,0,.41-.36,.7-.53,1.27-.14,.6-.48,1.85-.86,3.05,1.68-.14,2.59-.22,3.1-.22,1.1,.05,2.02,.6,2.02,1.27Z"/><path class="cls-1" d="M292.74,120.48c1.27,0,6.62-.55,8.28-.77,2.04-.26,2.59-.5,3.55-.5s2.5,.55,2.5,1.58c0,.36-.24,.67-.98,.67-.89,0-1.34-.12-3.14-.12s-6.94,.6-8.06,.79c-1.08,.17-1.87,.41-2.66,.41-1.03,0-2.21-1.49-2.21-2.62,0-.41,.29-.58,.67-.34,.58,.36,1.22,.89,2.06,.89Z"/><path class="cls-1" d="M317.55,122.55c-.7,.48-2.14,1.49-2.14,2.21,0,1.34,5.35,1.44,6.55,1.66,1.2,.22,1.51,.82,1.49,1.22-.02,.43-.48,.72-1.22,.74-1.2,.05-2.59-.02-4.73-.65-1.73-.5-3.55-1.51-3.55-2.71,0-1.03,1.8-2.4,3.1-3.62,.6-.58,.65-.82-.07-1.3-.67-.46-1.66-.91-2.81-1.44-.58-.26-.5-.91,.34-.86,1.61,.12,3.65,.79,4.68,1.58,.7,.53,.74,1.13,.62,1.56-.14,.48-1.2,.89-2.26,1.61Zm3.74-8.11c1.15,.72,1.32,1.37,1.32,1.85,0,.46-.24,.79-.74,.79-.6,0-.96-.43-2.62-1.58-.89-.62-1.85-1.08-2.86-1.56-.65-.31-.53-.96,.22-.91,1.75,.1,3.58,.72,4.68,1.42Z"/><path class="cls-1" d="M332.67,120.48c1.27,0,6.62-.55,8.28-.77,2.04-.26,2.59-.5,3.55-.5s2.5,.55,2.5,1.58c0,.36-.24,.67-.98,.67-.89,0-1.34-.12-3.14-.12s-6.94,.6-8.06,.79c-1.08,.17-1.87,.41-2.66,.41-1.03,0-2.21-1.49-2.21-2.62,0-.41,.29-.58,.67-.34,.58,.36,1.22,.89,2.06,.89Z"/><path class="cls-1" d="M354.78,122.55c-.12,.96-.29,1.37-.65,1.37-.41,0-.55-.38-.62-1.58-.19-1.97-.7-8.18-.7-8.93,0-.34,.02-.62,.26-.74,.46-.29,1.01-.36,1.58-.36,.65,0,1.06,.14,1.01,.67-.19,2.06-.65,7.78-.89,9.58Zm.86,5.64c0,.82-.67,1.56-1.51,1.56-.7,0-1.32-.58-1.32-1.42s.62-1.51,1.51-1.51c.67,0,1.32,.62,1.32,1.37Z"/></g><g><path class="cls-1" d="M31.9,173.43c.9-1.35,2.13-2.95,2.79-2.95,.86,0,3.98,2.54,3.98,3.61,0,.57-.74,.98-2.38,.98H3.53c-.53,0-.9-.16-.9-.82,0-.61,.37-.82,.9-.82h15.58c.04-1.93,0-4.22-.12-5.53-.04-.41,.21-.62,.57-.62,.7,0,4.76,.12,4.76,1.23,0,.86-.9,1.19-2.17,1.48v3.44h9.76Zm-19.07,23.78c-2.13,1.89-5.21,4.3-8.77,5.45-1.15,.41-1.72-.53-.86-1.27,3.12-2.05,5.78-4.59,7.46-7.3,.21-.37,.49-.49,.98-.25,1.35,.66,3.32,2.26,3.12,2.95-.16,.57-.7,.66-1.93,.41Zm10.54-7.13c-.16,.41-.74,.66-1.31,.82l-.04,10.78c0,2.17-1.56,2.95-3.08,2.95s-.9-1.39-3.9-2.13c-.98-.25-.78-1.44,.04-1.39,.9,.12,2.38,.29,2.95,.29,.86-.04,1.11-.37,1.15-1.19,.08-2.09,0-7.5-.12-10.13h-5.54v1.07c0,.9-.7,1.27-1.97,1.27-.74,0-1.15-.41-1.15-1.11,0-2.58,.21-8.98-.16-12.51-.04-.33,.25-.57,.57-.53,.74,.08,2.83,.82,3.81,1.6h12.42c.66-.86,1.56-1.93,2.05-1.93,.9,0,3.4,1.8,3.4,2.71,0,.53-.74,.9-1.48,1.23-.08,2.62,.04,7.05,.04,8.36s-.66,1.56-1.84,1.56c-.98,0-1.31-.74-1.31-1.39v-.33h-4.55Zm-9.84-1.64h14.43c0-2.09,.04-5.17,.04-6.93H13.57c-.04,.98-.04,3.65-.04,4.35v2.58Zm22.75,10.5c.41,1.27,0,2.34-1.19,2.71-1.27,.37-2.13-.9-3.53-2.42-1.19-1.27-2.34-2.17-3.4-3.08-.82-.66-.57-1.68,.66-1.56,3.03,.33,6.72,1.97,7.46,4.35Z"/><path class="cls-1" d="M61.01,180.53c.74-1.23,1.64-2.46,2.17-2.46,.78,0,2.91,2.38,2.91,3.24,0,.61-.74,.86-1.56,.86h-7.54c-1.19,1.56-2.5,3.03-3.94,4.47h5.25c.53-.74,1.23-1.52,1.64-1.52,.78,0,3.16,1.76,3.16,2.67,0,.53-.7,.9-1.39,1.19-.08,3.28,.08,11.6,.08,13.28,0,1.27-.66,1.6-1.76,1.6-.94,0-1.23-.74-1.23-1.39v-1.07h-7.71v1.89c0,.9-.62,1.31-1.84,1.31-.7,0-1.11-.41-1.11-1.11,.04-2.25,.16-8.04,.12-12.71-1.64,1.23-3.4,2.34-5.29,3.4-1.15,.57-1.8-.57-.74-1.27,2.13-1.48,4.1-3.03,5.94-4.71-.04-.86-.08-1.64-.16-2.3-.04-.29,.25-.57,.57-.53,.37,.04,1.15,.29,1.93,.61,1.19-1.19,2.34-2.46,3.36-3.81h-10.37c-.53,0-.9-.16-.9-.82,0-.61,.37-.82,.9-.82h7.34c.04-1.56,.04-3.4,.04-5.21h-5.58c-.53,0-.9-.16-.9-.82,0-.62,.37-.82,.9-.82h5.54c0-2.26-.08-4.31-.25-5.45-.04-.37,.21-.57,.57-.57,.7,0,4.47,.12,4.47,1.15,0,.82-.78,1.11-1.93,1.39v3.49h1.31c.74-1.11,1.56-2.26,2.05-2.3,.49,.04,1.6,1.03,2.25,1.97,.62-1.27,1.15-2.58,1.64-3.98,.16-.45,.45-.57,.82-.45,1.64,.49,3.69,1.89,3.61,2.67-.04,.61-1.07,.78-2.21,.57-1.44,2.87-3.03,5.66-4.96,8.36h2.79Zm-9.02,7.75c-.25,.08-.57,.16-.86,.21-.04,.86-.08,2.91-.08,4.55h7.83c.04-1.97,.04-3.73,0-4.76h-6.89Zm6.85,11.48l.04-5.08h-7.83v.57l.04,4.51h7.75Zm-3.69-19.23c1.19-1.64,2.25-3.36,3.2-5.21h-4.63v5.21h1.44Zm20.46-10.41c.66-.82,1.35-1.52,1.84-1.52,.74,0,3.36,2.21,3.36,3.28,0,.61-.74,.94-1.84,1.31-1.64,3.03-4.22,6.93-5.17,8.53-.33,.57-.25,.74,.21,1.19,2.95,2.87,5.49,4.96,5.49,10.54,0,3.53-1.19,6.6-4.92,6.6-.7,0-1.07-.29-1.35-.74-.57-.78-1.11-1.19-2.01-1.48-1.02-.33-.9-1.44,.04-1.44,.53,0,1.72,.12,2.95,.12,2.01,0,2.34-1.48,2.34-4.72,0-2.79-1.6-5.41-4.43-8.08-.82-.74-.82-1.19-.21-2.34,1.19-2.17,3.32-7.18,3.85-9.64h-6.03c-.21,2.83-.21,12.42-.21,14.06,0,1.48,.08,15.58,.08,17.26,0,.94-.62,1.48-1.93,1.48-.82,0-1.15-.45-1.15-1.23,0-5.17,.53-28.21-.16-34.44-.04-.25,.21-.57,.57-.57,.53,.04,3.24,.94,4.18,1.8h4.47Z"/><path class="cls-1" d="M115.82,192.54c2.67,3.94,8.77,6.35,14.64,7.09,1.43,.16,.94,.9,.12,1.27-1.15,.53-1.44,.86-1.8,1.35-.41,.66-.66,1.07-1.97,.7-5.12-1.27-10.09-5-12.46-9.8v2.42c0,1.03,.08,6.85,.08,7.83,0,.9-.7,1.19-1.85,1.19-.7,0-1.15-.37-1.15-1.07,0-.82,.16-6.4,.21-8.04-3.44,3.32-8.41,6.31-15.33,8.12-1.31,.37-1.8-.78-.57-1.35,6.6-2.58,11.44-6.11,14.35-9.72h-11.36c-.53,0-.9-.16-.9-.82,0-.61,.37-.82,.9-.82h12.87c-.04-1.52-.08-3.07-.25-4.06-.04-.37,.16-.57,.53-.57,1.19,0,4.26,.12,4.26,1.07,0,.53-.62,.94-1.76,1.11,0,.45-.04,1.39-.04,2.46h7.22c.82-1.19,1.89-2.58,2.46-2.58,.21,0,.53,.12,.9,.37-.16-.21-.16-.53,.08-.94,.37-.7,.74-1.48,1.07-2.21h-26.53v.41c-.12,2.38-1.64,4.39-3.57,4.35-.94-.04-1.6-.74-1.56-1.64,.04-1.6,1.76-1.44,2.67-3.53,.41-.9,.25-2.05,.25-3.12-.04-.9,1.07-1.11,1.48-.12,.25,.57,.49,1.23,.61,2.01h26.32c.66-.86,1.72-1.97,2.25-1.97,.78,0,3.36,2.26,3.36,3.44,0,.82-1.11,.82-2.17,.98-1.07,.82-2.25,1.76-3.12,2.34-.33,.21-.62,.25-.86,.21,1.11,.78,2.46,2.09,2.46,2.75,0,.57-.66,.9-2.17,.9h-9.68Zm-18.12-16.77c0-1.03,1.15-1.39,1.84-2.5,.49-.74,.45-1.68,.57-2.54,.04-.9,1.19-.98,1.48-.12,.29,.98,.45,2.21,.37,3.53-.21,1.84-1.27,2.95-2.87,2.95-.86,0-1.39-.62-1.39-1.31Zm5.66,1.39c.66-2.17,.41-5.25,.16-8.36-.08-.57,.08-.78,.66-.78,1.56-.04,3.77,.49,3.77,1.27,.04,.61-.49,.86-1.64,.98,.04,1.39,.04,2.83-.04,4.14,1.11-1.19,2.34-2.42,3.36-4.31,.16-.33,.49-.57,.9-.37,1.31,.7,2.71,1.97,2.58,2.54-.12,.49-.57,.7-1.84,.45-1.52,1.56-2.75,2.3-4.31,3.03-.33,.16-.61,.16-.86,.12-.08,.57-.16,1.15-.33,1.64-.78,2.5-2.62,4.22-4.88,5.29-1.03,.57-1.64-.29-.74-1.11,1.52-1.23,2.62-2.42,3.2-4.55Zm8.53,2.99c.12,1.02-.41,1.8-1.48,1.93-.98,.08-1.35-.86-2.01-1.8-.45-.66-.98-1.31-1.48-1.93-.62-.7-.25-1.52,.86-1.27,1.97,.49,3.94,1.39,4.1,3.07Zm5.78-2.17c1.39-2.71,1.23-5.95,.78-9.43-.04-.41,.08-.57,.53-.57,1.52,0,4.22,.37,4.22,1.19,0,.61-.66,.94-1.8,1.19,.08,1.6,.08,3.07-.16,4.51,1.23-1.15,2.58-2.38,3.77-4.47,.16-.33,.49-.53,.9-.37,1.31,.7,2.67,1.93,2.54,2.5-.12,.53-.53,.74-1.8,.49-1.89,1.89-3.16,2.58-4.92,3.4-.33,.16-.62,.2-.86,.08-.25,.86-.57,1.68-1.02,2.46-1.31,2.21-4.22,3.81-6.23,4.47-1.19,.49-1.76-.57-.74-1.27,1.76-1.03,3.77-2.21,4.8-4.18Zm-5-1.89c0-1.07,1.07-1.35,1.72-2.46,.45-.78,.41-1.68,.45-2.54,.08-.9,1.19-.98,1.52-.12,.33,.94,.49,2.09,.45,3.49-.16,1.8-1.23,2.95-2.79,2.95-.86,0-1.35-.61-1.35-1.31Zm14.35,4.43c.12,1.03-.37,1.85-1.44,2.01-.94,.12-1.39-.82-2.09-1.72-.45-.66-1.02-1.27-1.56-1.84-.62-.7-.29-1.56,.82-1.35,2.01,.41,4.02,1.27,4.26,2.91Z"/><path class="cls-1" d="M152.31,185.28c0,.57-.25,.86-1.68,1.23-.12,11.03-4.63,15.46-14.19,18.12-1.23,.29-1.6-1.03-.33-1.39,8.49-3.4,11.93-7.42,11.19-18.57-.08-.66,.08-.78,.66-.78,1.39,0,4.35,.49,4.35,1.39Zm13.45-3.73c.9-1.35,2.13-2.95,2.79-2.95,.86,0,3.98,2.58,3.98,3.61,0,.61-.7,.98-2.38,.98h-33.29c-.53,0-.9-.16-.9-.82,0-.62,.37-.82,.9-.82h28.91Zm-3.81-10.58c.94-1.35,2.13-2.95,2.79-2.95,.86,0,3.98,2.54,3.98,3.61,0,.57-.78,.98-2.38,.98h-25.5c-.53,0-.9-.16-.9-.82,0-.61,.37-.82,.9-.82h21.12Zm-5,13c2.83,0,4.51,.41,4.51,1.27,.04,.7-.66,1.11-2.01,1.31-.04,2.01-.08,11.69-.08,12.67,0,1.48,.21,1.76,4.8,1.76,4.35,0,5.49-.53,5.9-1.52,.33-.82,.62-1.97,.78-2.5,.25-.82,1.02-.78,1.11,.04,.04,.53,.12,1.48,.21,2.17,.16,1.27,.86,1.27,.86,2.17s-1.72,2.46-8.77,2.46-7.75-1.11-7.75-4.47c0-1.48,.12-12.1-.21-14.64-.04-.57,.04-.74,.66-.74Z"/></g><g><path class="cls-2" d="M208.18,198.18c0,.37-.07,1.16-1.02,1.16-.88,0-1.5-.65-2.45-1.6-1.29-1.29-2.48-2.41-4.45-2.96,.24,.88,.41,1.73,.41,2.52,0,1.43-1.05,3.09-3.94,3.09s-4.69-1.22-4.69-3.47c0-1.77,1.39-3.88,5.88-4.01-.1-.61-.17-1.33-.17-2.18,0-3.33,2.58-4.9,5.47-5.61-1.02-.78-2.24-1.09-4.01-1.09-4.01,0-8.6,4.25-11.46,8.64-1.22,1.87-2.52,4.25-3.91,4.25-.65,0-1.02-.61-1.02-1.29,0-1.16,1.22-2.31,2.92-4.52,2.69-3.5,4.93-7.41,6.05-10.27-1.46,.2-3.09,.34-4.52,.34-2.14,0-3.77-1.94-3.77-4.05,0-.44,.44-.68,.82-.37,.65,.51,2.28,2.45,4.76,2.45,1.12,0,2.28-.14,3.4-.31,.37-1.12,.61-2.01,.71-2.45,.17-.75-.1-.99-.99-1.36-.71-.31-1.53-.51-1.53-1.02,0-.58,1.16-.82,2.01-.82,1.67,0,3.09,.68,3.09,1.73,0,.51-.48,1.94-1.05,3.5,1.53-.37,3.47-1.02,4.69-1.63,1.02-.51,1.94-.82,2.58-.82,.92,0,1.77,.51,1.77,1.09s-.48,.85-1.29,1.22c-.88,.41-5.34,1.63-8.57,2.21-.71,1.6-1.77,3.84-2.96,6.15,3.26-2.79,5.98-4.08,9.21-4.08,4.25,0,7.68,2.52,7.68,4.52,0,.54-.48,.85-.88,.85-.71,0-1.16-.41-1.6-.82-.54-.48-1.12-.68-2.45-.54-2.45,.24-3.47,1.73-3.47,3.64,0,.88,.17,1.84,.37,2.72,2.04,.27,4.83,1.09,6.7,2.62,.92,.75,1.67,1.77,1.67,2.55Zm-9.96-3.71c-.24-.03-.48-.03-.75-.03-1.39,0-3.88,.61-3.88,2.35,0,.85,.54,1.43,2.14,1.43,2.07,0,2.69-1.02,2.69-2.18,0-.54-.07-1.02-.2-1.56Z"/><path class="cls-2" d="M222.53,198.46c6.26-.44,11.36-1.84,11.29-5.78-.03-2.14-2.11-3.77-4.11-3.77-2.52,0-5.3,1.77-6.94,3.23-1.16,1.05-1.94,2.45-2.99,2.45-.95,0-1.9-1.05-1.9-2.38,0-3.71,1.26-8.4,1.73-10.71,.24-1.12,.82-1.53,1.7-1.67,1.16-.17,2.82-.48,3.88-.75,1.36-.34,1.39-.95,.85-1.67-.65-.85-1.53-1.53-2.89-2.31-1.09-.61-.71-1.16,.44-1.02,3.57,.48,6.22,2.99,6.22,5.34,0,1.22-.68,1.53-2.48,1.46-1.6-.07-3.74-.03-4.86,.24-.82,.2-1.02,.48-1.09,1.22-.07,.92,0,1.7-.14,2.35-.51,2.45-.92,4.22-.92,5.54,0,.54,.14,.85,.78,.48,2.52-1.46,5.13-3.33,8.63-3.33s6.7,2.18,6.77,6.08c.07,3.88-4.49,7.24-14.01,6.22-.95-.1-1.12-1.16,.03-1.22Z"/><path class="cls-2" d="M245.28,182.34c.92,.1,1.94-.14,3.26-.65,2.11-.82,5.98-2.35,9.59-3.67,2.58-.95,5.34-1.63,7.75-1.63,1.33,0,2.92,.58,2.92,1.56,0,.75-.44,1.22-1.63,1.22-1.39,0-2.82-.31-4.35,.27-3.47,1.29-6.19,6.26-6.19,10.61,0,5.17,3.67,6.29,8.16,5.75,1.43-.17,2.14,.27,2.11,1.09-.03,1.19-1.19,1.63-2.86,1.77-5.75,.48-9.62-2.41-9.62-7.85,0-4.01,1.7-7.17,4.28-10.33,.61-.75,.31-.92-.44-.71-2.55,.68-6.05,2.69-8.6,4.05-1.02,.54-2.55,1.53-3.71,1.5-2.11-.07-3.98-1.7-3.98-3.64,0-.48,.31-.68,.78-.41,.48,.27,1.63,.99,2.52,1.09Zm23.08,5.54c0,.78-.58,1.19-1.16,1.19-.78,0-1.02-.58-1.8-1.5-.58-.68-1.36-1.39-2.04-2.04-.41-.41-.17-.95,.41-.92,2.21,.17,4.59,1.67,4.59,3.26Zm2.89-3.2c0,.71-.44,1.19-1.12,1.19-.51,0-.85-.27-1.5-.99-.75-.82-1.77-1.56-2.52-2.11-.54-.41-.31-.99,.34-.99,2.18,.03,4.79,1.16,4.79,2.89Z"/><path class="cls-2" d="M294,194.44c-.58,3.26-2.79,4.32-5.37,4.32-2.24,0-4.25-1.46-4.25-3.5,0-2.62,2.45-4.22,5.75-4.22,.85,0,1.7,.07,2.45,.2,.1-.92,.1-1.7,.1-2.41,0-1.87-.17-4.08-.41-6.05-5.68,.85-10.37,3.43-12.65,7.45-.61,1.09-1.09,2.24-1.09,3.67,0,2.35,.99,4.01,.99,5.1,0,1.02-.51,1.36-1.16,1.36-.92-.03-1.5-.68-1.97-1.84-.48-1.19-.75-2.45-.75-5.3,0-4.69,2.01-10.88,2.31-12.44,.31-1.56,.34-2.48-.24-3.74-.41-.92-.88-1.63-1.09-2.07-.31-.61,.14-.92,.71-.71,1.39,.48,2.79,1.73,3.23,2.89,.37,.99,.48,1.6,.07,3.06-.58,2.11-2.35,5.34-2.69,8.19-.1,.88,.07,1.09,.95,0,2.99-3.71,6.46-6.29,13.05-7.75-.07-.65-.17-1.19-.27-1.63-.2-1.02-.65-1.36-1.16-1.7-.88-.51-1.33-.78-1.33-1.19-.03-.51,1.16-.92,1.9-.95,.68,0,1.19,.07,1.73,.27,.61,.24,.78,.58,.82,.99,.03,.54,.07,1.33,.14,2.11,.34,1.33,2.07,1.26,3.03,1.26,1.36,0,2.58,.37,2.58,1.29,0,.75-.48,1.16-1.94,1.22-1.12,.03-2.24,.1-3.37,.24,.14,1.9,.27,4.15,.27,5.51,0,1.26,0,2.41-.07,3.6,2.38,.71,4.25,1.97,5.51,3.13,.92,.88,1.53,1.9,1.53,2.96,0,.65-.34,1.12-1.02,1.12-.78,0-1.67-1.09-2.75-2.24-.95-.99-2.14-1.97-3.5-2.69l-.07,.51Zm-1.7-1.29c-.92-.31-1.9-.48-2.96-.48-1.73,0-3.2,.85-3.2,2.04s.95,1.7,2.45,1.7c2.07,0,3.2-.99,3.71-3.23v-.03Z"/><path class="cls-2" d="M330.51,188.46c0,6.53-5.24,9.89-12.24,9.89-1.19,0-1.26-1.05-.2-1.26,5.88-1.16,9.69-3.64,9.69-9.21,0-3.64-1.84-6.66-5.27-8.09-.1,1.29-.44,2.79-.95,4.18-1.97,5.44-7.65,12.2-11.73,12.2-1.8,0-3.57-2.48-3.88-6.49-.34-4.28,1.33-7.45,3.57-9.45,2.01-1.77,5.1-3.03,8.33-3.03,8.12,0,12.68,5.13,12.68,11.25Zm-9.93-9.28c-.88-.17-1.84-.27-2.86-.27-2.92,0-5.24,.95-6.9,2.52-1.8,1.7-2.89,4.11-2.69,7.48,.17,2.62,1.09,4.22,2.07,4.22,3.26,0,8.16-6.63,9.76-11.18,.34-.92,.54-1.9,.61-2.75Z"/></g><g><path class="cls-1" d="M37.92,240.26c3.78,16.25,12.6,27.26,26.8,30.71,2.19,.53,1.72,1.66,.13,2.19-1.79,.53-2.59,1.33-3.18,2.19-.8,1.13-1.39,1.66-3.18,.93-11.47-4.58-18.71-15.79-22.09-31.11-.8,4.58-2.06,8.95-4.18,12.87-4.71,8.76-13.2,15.72-26.27,19.24-1.92,.6-2.59-1.53-.8-2.26,11.34-4.58,18.31-10.94,22.35-18.37,2.72-5.11,3.98-11.08,4.58-16.38H6.81c-.86,0-1.46-.27-1.46-1.33,0-1,.6-1.33,1.46-1.33h25.47c.27-3.25,.27-6.1,.27-8.29-.13-3.05-.33-7.16-.73-10.35-.07-.66,.13-1.06,1-1.06,2.19,.07,7.96,.8,7.96,2.12-.07,.93-.8,1.59-2.98,2.12-.07,4.97-.13,10.28-.53,15.45h16.85c1.59-2.32,3.58-5.04,4.78-5.04,1.53,0,6.43,4.38,6.43,6.1,0,.99-1.19,1.59-3.85,1.59h-23.55Z"/><g><path class="cls-1" d="M108.43,251.02c0,.84-.56,1.35-1.35,1.35-1.02,0-3.34-.56-5.29-.56-1.25,0-3.16,.09-5.15,.28-.46,9.94-3.95,16.07-12.03,19.92-1.86,.88-2.83-.6-1.07-1.81,6.78-4.6,9.29-9.01,9.8-17.74-2.23,.28-5.01,.74-7.34,1.16,.05,3.44-.05,6.31-.19,7.2-.14,1.35-.51,2.46-1.53,2.51-1.11,.05-2-1.16-2-3.02,0-1.25,.7-2.51,.74-6.13-4.92,.93-7.38,1.76-9.01,1.76s-3.81-2.28-3.95-4.46c-.05-.79,.37-1.11,1.25-.6,1.21,.65,2.69,1.44,3.99,1.44,1.39,0,4.69-.42,7.66-.84-.09-2.04-.28-3.48-.51-4.5-.19-.84-.37-1.16-1.58-1.81-1.11-.65-1.72-.74-1.72-1.3,0-.7,1.58-1.16,2.46-1.16,1.86,0,3.76,1.07,4.04,2.04,.23,.84,.19,3.39,.23,6.27,2.18-.33,5.15-.84,7.52-1.21,0-2.28-.19-4.69-.37-5.94-.23-1.44-.46-1.86-1.39-2.37-.88-.46-1.76-.74-1.76-1.39,0-.74,1.76-1.11,2.6-1.11,2.23,0,4.09,1.35,4.27,2.37,.14,.7-.09,1.62-.09,3.34,0,1.11,.05,2.74,0,4.6,4.6-.7,5.9-1.16,7.29-1.16,1.53,0,4.46,1.21,4.46,2.88Z"/><path class="cls-1" d="M139.64,246.47c-1.49,1.9-3.39,4.18-5.71,6.55,.23,.14,.42,.28,.6,.42,.79,.7,1.02,1.3,1.16,2.69,.37,3.81,.28,10.59-.05,14.07-.14,1.44-1.07,2.14-2.09,2.14-1.39,0-2.14-1.72-2.14-3.3,0-.97,.37-1.81,.6-3.11,.42-2.46,.56-7.61,.32-9.52-.05-.51-.23-.93-.51-1.39-4.78,4.5-10.54,8.64-15.55,10.91-1.81,.84-2.65-.93-1.16-1.86,8.64-5.39,17.69-13.42,20.66-18.9,.84-1.53,.74-2.18-.79-3.9-.84-.93-.51-1.44,.6-1.44,2.41,0,5.48,2.28,5.48,3.85,0,.93-.79,1.95-1.44,2.79Z"/><path class="cls-1" d="M165.08,247.77c2.65,0,8.59-1.53,10.45-2.14,1.3-.42,1.67-.88,2.65-.88,1.67,0,4.64,2.04,4.64,3.71,0,1.11-1.44,1.49-2.37,2.93-4.09,6.36-11.05,14.21-22.52,18.57-1.58,.6-2.32-1.39-.84-2.09,9.47-4.46,17.13-12.4,20.11-18.29,.97-1.95,.56-1.95-.84-1.63-1.62,.37-9.57,3.58-11.75,3.58-1.53,0-3.85-1.9-4.32-4.27-.23-1.21,.51-1.58,1.39-1.02,1.53,.98,2.28,1.53,3.39,1.53Zm22.75,19.64c-.05,1.16-.84,1.86-1.95,1.86-1.58,0-2.14-1.67-3.48-3.3-1.39-1.67-2.6-2.83-4.41-4.32-1.02-.84-.23-1.86,.97-1.63,4.5,.88,9.01,3.67,8.87,7.38Zm.56-22.47c0,1.07-.79,1.63-1.58,1.63-1.07,0-1.39-.79-2.46-2.04-.79-.93-1.86-1.9-2.79-2.79-.56-.56-.23-1.3,.56-1.25,3.02,.23,6.27,2.28,6.27,4.46Zm3.95-4.36c0,.98-.6,1.63-1.53,1.63-.7,0-1.16-.37-2.04-1.35-1.02-1.11-2.42-2.14-3.44-2.88-.74-.56-.42-1.35,.46-1.35,2.97,.05,6.55,1.58,6.55,3.95Z"/></g><path class="cls-4" d="M90.91,286.8c-.6-.07,.16-1.1,.78-1.2-.17-.3-.5,.08-1.17,0-.38,.42-.17,.74-1.17,1.2-2.48-.3-5.28,.86-7.01,1.6,.03-.28,.07-.56-.39-.6-1.25-.18-.81,.52-1.56,.6-8.21,.36-8.7-2.74-14.81-3.79-10.21-.66-14.13,2.44-22.99,2.99-.57,.17-1.23,.3-1.17,.8-1.49,.03-3.09,.12-3.12-.6-.95,.02-.08,.66,.39,.6-.05,.44-1.65,.09-2.34,.2,1.72-1.02-2.9,.26-1.95-.8,.07-.96,.68,.34,1.95,0-1.69-.39-2.91-1.66-4.67-1.4v-.8c-1.58,.27-2.56-.62-3.9-1.4-.16,.66-3.72,.47-2.34-.2-1.22-.09-1.74,.17-1.56,.8-.98-.59-1.3-.13-2.73,0-.37-.72,1.75-.17,1.56-.8-1.29-.12-2.82,.67-1.95,1-.44,.64-1.11-.19-.78-.6-3.29,.71-4.86,2.3-8.57,2.79-2.17,2.17-6.52,2.22-10.13,3.39-5.69-4.67,9.01-5.42,12.08-6.98,.45,.03,.33,.36,.39,.6,1.44-.97,1.39-.95,3.9-1.8,.92,.62-1.43,1.25-1.56,1.99,2.26-.29,2.17-1.74,2.73-2.39,.91,.58,1.18,.59,2.34,.2-.37,.41-.8,.79-1.17,1.2,1.22-.75,2.38-.74,3.51-1.2,.94-.08-.22,.91,1.17,.6,1.06-.18-.55-.62,0-1.2,1.84,.19,1.16,1.67,2.73,1.99-.27-.59,1.14-.74,2.34-.2,.95-.43-1.74-.69-2.73-.8,1.89-.86,4.76,.94,7.01,1.2,.12-.93-1.92-.75-2.34-1.4,3.13,.25,5.42,1.46,9.35,1.99,.7,.02,.82-.24,1.56-.2,6.3-3.17,19.94-5.72,29.22-2.79-.22,1.11,1.36,1.3,2.34,1.79,1.13-.4-1.12-.74-.78-1.4,2.27,.83,4.71,1.58,6.23,2.79,.38,0,.3-.24,.39-.4,2.52,1.36,9.05,.87,9.35-1.2,1.6-.09-.01,.5,0,.8,1.72-.25,2.93-.76,4.29-1.2,1.18,.24-.28,.76-.39,1,2.06,.32,.76-1.07,2.34-1-.85,.42,.2,.57,0,1.2,.56-.07,1.33-1.02,.39-1.2,.81-.45,1.95-.73,3.12-1,0,.47-.67,.59-.39,1.2,1.38-.01,1.43-1.36,2.73-.8-.3-.18-.42-.45-.39-.8,1.2,.05,.93,.85,1.95,1,.86-.03,.16-.85,.39-1.2,1.23,.22,.88,.02,2.34,0,.38,.79-2.18,.08-1.95,.8,.66-.18,4.22,.63,4.29-.4,1.31,.23,1.13,.51,2.34,.2-.08-.62-2.55-.02-2.34-.8,.92,.06,1.46,.32,2.73,.2-.95,1.68,3,.86,3.89,1.6-1.44,.42-4.57-.92-6.23-.4,2.72,.23,7.12,1.78,7.4,1.4,.68,.05,.89,.34,.78,.8,1.99-.68,3.11,.23,5.07,.6-.92-1.26-4.1-1.36-6.23-1.99,5.39,.23,9.77,2.71,17.53,2.39-1.26-.76-5.32-.44-5.46-1.2,10.51,1.28,19.7-1.09,22.99-4.79,.85-.03,.18,.71,.39,1,2.73-.86,2.04-3.48,6.23-3.59-.11,.41-1.05,.39-1.17,.8,3.78-.75,6.95-.73,10.52-1,.18,2.12,7.52,2.08,10.13,3.59-.43-1.18-6.06-1.42-7.01-2.99,1.51,.03,1.54,.81,2.73,1-.17-.18-.34-.36-.78-.4,4.1,.97,10.47,2.79,15.19,4.59,2.22-.53,3.96-1.29,5.07-2.39,4.34,1.23,13.5,0,13.64,3.39-.68-.29-.89-.18-.78,.4-.72-.03-.24-.68-.78-.8-.6,.29-.82,.78-.78,1.4-5.79-.35-7.85,1.99-14.03,1.99-.18,.62,.83,.64,1.95,.6-11.41,2.18-17.58-4.44-27.28-5.78-1.4-.05-1.43,.6-2.73,.6v-.4c-2.34,.84-3.84,1.58-6.62,2.39-2.28,.67-5.53,2.05-7.4,2.39-.72,.13-3.52-.11-3.51,1.2-2.04,.09-3.41,.51-5.45,.6-1.46,.13,.29,.66-1.17,.8-1.05,.14-.75-.41-1.17-.6-3.87,.87-8.87,.62-12.47-.2,.76-.31,2.97,.33,3.9,.6,.32-.73,.15-.48,2.34-.4-.8-.51-3.92-1.1-4.29-.8-1.37-.09-.19-1.5-1.95-1.4,.65-.14,2.12-.26,3.12,0,.39-1-2-.57-2.34-1.2-.44,.96-.32,.32-1.56-.2-.14,.48,.1,1.57,.78,1.99-5.07,.1-7.7-2.27-12.08-3.19-2.13,.86-7.14-.83-8.96,.8-.69-.15-.06-.36,0-.6-4.19,.85-8.91,1.42-11.3,3.19Zm-9.35,.4c-1.43,.2-2.25,.71-3.51,1,1.75-.03,2.9-.38,3.51-1Zm44.42-.4c1.14-.04,2.58,.79,3.51,.2-1.41,.18-2.6-.78-3.51-.2Zm1.17-1.2c.21,.7,3.25,.99,4.29,.6-1.29,.04-2.49-.39-4.29-.6Zm-51.82-2.79c.09,.38-.44,.44-.39,.8,.52-.03,1.45,.67,1.56,.2-.91-.06-.38-.87-1.17-1Z"/></g></g><polyline class="cls-3" points="112.85 4.92 222.4 141.02 360.05 141.02"/></g></g></g></svg>